%TF.GenerationSoftware,KiCad,Pcbnew,(5.99.0-2965-g3673c2369)*%
%TF.CreationDate,2020-08-24T11:11:48+03:00*%
%TF.ProjectId,leo-fuzz-box,6c656f2d-6675-47a7-9a2d-626f782e6b69,rev?*%
%TF.SameCoordinates,Original*%
%TF.FileFunction,Legend,Bot*%
%TF.FilePolarity,Positive*%
%FSLAX46Y46*%
G04 Gerber Fmt 4.6, Leading zero omitted, Abs format (unit mm)*
G04 Created by KiCad (PCBNEW (5.99.0-2965-g3673c2369)) date 2020-08-24 11:11:48*
%MOMM*%
%LPD*%
G01*
G04 APERTURE LIST*
%ADD10C,0.127000*%
%ADD11C,0.150000*%
%ADD12C,0.300000*%
%ADD13C,0.100000*%
%ADD14C,0.120000*%
%ADD15O,1.930400X1.930400*%
%ADD16R,1.930400X1.930400*%
%ADD17C,1.600000*%
%ADD18O,1.600000X1.600000*%
%ADD19R,2.540000X2.540000*%
%ADD20O,2.540000X2.540000*%
%ADD21R,1.600000X1.600000*%
%ADD22R,2.032000X2.032000*%
%ADD23O,2.032000X2.032000*%
%ADD24R,2.200000X2.200000*%
%ADD25O,2.200000X2.200000*%
%ADD26R,1.800000X1.800000*%
%ADD27C,1.800000*%
G04 APERTURE END LIST*
D10*
X104956085Y-52989028D02*
X104289419Y-52810457D01*
X104956085Y-52631885D01*
X105289419Y-52203314D02*
X105289419Y-52131885D01*
X105241800Y-52060457D01*
X105194180Y-52024742D01*
X105098942Y-51989028D01*
X104908466Y-51953314D01*
X104670371Y-51953314D01*
X104479895Y-51989028D01*
X104384657Y-52024742D01*
X104337038Y-52060457D01*
X104289419Y-52131885D01*
X104289419Y-52203314D01*
X104337038Y-52274742D01*
X104384657Y-52310457D01*
X104479895Y-52346171D01*
X104670371Y-52381885D01*
X104908466Y-52381885D01*
X105098942Y-52346171D01*
X105194180Y-52310457D01*
X105241800Y-52274742D01*
X105289419Y-52203314D01*
X104384657Y-51631885D02*
X104337038Y-51596171D01*
X104289419Y-51631885D01*
X104337038Y-51667600D01*
X104384657Y-51631885D01*
X104289419Y-51631885D01*
X105289419Y-51346171D02*
X105289419Y-50881885D01*
X104908466Y-51131885D01*
X104908466Y-51024742D01*
X104860847Y-50953314D01*
X104813228Y-50917600D01*
X104717990Y-50881885D01*
X104479895Y-50881885D01*
X104384657Y-50917600D01*
X104337038Y-50953314D01*
X104289419Y-51024742D01*
X104289419Y-51239028D01*
X104337038Y-51310457D01*
X104384657Y-51346171D01*
X103584180Y-55560457D02*
X103631800Y-55524742D01*
X103679419Y-55453314D01*
X103679419Y-55274742D01*
X103631800Y-55203314D01*
X103584180Y-55167600D01*
X103488942Y-55131885D01*
X103393704Y-55131885D01*
X103250847Y-55167600D01*
X102679419Y-55596171D01*
X102679419Y-55131885D01*
X103679419Y-54667600D02*
X103679419Y-54596171D01*
X103631800Y-54524742D01*
X103584180Y-54489028D01*
X103488942Y-54453314D01*
X103298466Y-54417600D01*
X103060371Y-54417600D01*
X102869895Y-54453314D01*
X102774657Y-54489028D01*
X102727038Y-54524742D01*
X102679419Y-54596171D01*
X102679419Y-54667600D01*
X102727038Y-54739028D01*
X102774657Y-54774742D01*
X102869895Y-54810457D01*
X103060371Y-54846171D01*
X103298466Y-54846171D01*
X103488942Y-54810457D01*
X103584180Y-54774742D01*
X103631800Y-54739028D01*
X103679419Y-54667600D01*
X103584180Y-54131885D02*
X103631800Y-54096171D01*
X103679419Y-54024742D01*
X103679419Y-53846171D01*
X103631800Y-53774742D01*
X103584180Y-53739028D01*
X103488942Y-53703314D01*
X103393704Y-53703314D01*
X103250847Y-53739028D01*
X102679419Y-54167600D01*
X102679419Y-53703314D01*
X103679419Y-53239028D02*
X103679419Y-53167600D01*
X103631800Y-53096171D01*
X103584180Y-53060457D01*
X103488942Y-53024742D01*
X103298466Y-52989028D01*
X103060371Y-52989028D01*
X102869895Y-53024742D01*
X102774657Y-53060457D01*
X102727038Y-53096171D01*
X102679419Y-53167600D01*
X102679419Y-53239028D01*
X102727038Y-53310457D01*
X102774657Y-53346171D01*
X102869895Y-53381885D01*
X103060371Y-53417600D01*
X103298466Y-53417600D01*
X103488942Y-53381885D01*
X103584180Y-53346171D01*
X103631800Y-53310457D01*
X103679419Y-53239028D01*
X103060371Y-52667600D02*
X103060371Y-52096171D01*
X103679419Y-51596171D02*
X103679419Y-51524742D01*
X103631800Y-51453314D01*
X103584180Y-51417600D01*
X103488942Y-51381885D01*
X103298466Y-51346171D01*
X103060371Y-51346171D01*
X102869895Y-51381885D01*
X102774657Y-51417600D01*
X102727038Y-51453314D01*
X102679419Y-51524742D01*
X102679419Y-51596171D01*
X102727038Y-51667600D01*
X102774657Y-51703314D01*
X102869895Y-51739028D01*
X103060371Y-51774742D01*
X103298466Y-51774742D01*
X103488942Y-51739028D01*
X103584180Y-51703314D01*
X103631800Y-51667600D01*
X103679419Y-51596171D01*
X103250847Y-50917600D02*
X103298466Y-50989028D01*
X103346085Y-51024742D01*
X103441323Y-51060457D01*
X103488942Y-51060457D01*
X103584180Y-51024742D01*
X103631800Y-50989028D01*
X103679419Y-50917600D01*
X103679419Y-50774742D01*
X103631800Y-50703314D01*
X103584180Y-50667600D01*
X103488942Y-50631885D01*
X103441323Y-50631885D01*
X103346085Y-50667600D01*
X103298466Y-50703314D01*
X103250847Y-50774742D01*
X103250847Y-50917600D01*
X103203228Y-50989028D01*
X103155609Y-51024742D01*
X103060371Y-51060457D01*
X102869895Y-51060457D01*
X102774657Y-51024742D01*
X102727038Y-50989028D01*
X102679419Y-50917600D01*
X102679419Y-50774742D01*
X102727038Y-50703314D01*
X102774657Y-50667600D01*
X102869895Y-50631885D01*
X103060371Y-50631885D01*
X103155609Y-50667600D01*
X103203228Y-50703314D01*
X103250847Y-50774742D01*
X103060371Y-50310457D02*
X103060371Y-49739028D01*
X103584180Y-49417600D02*
X103631800Y-49381885D01*
X103679419Y-49310457D01*
X103679419Y-49131885D01*
X103631800Y-49060457D01*
X103584180Y-49024742D01*
X103488942Y-48989028D01*
X103393704Y-48989028D01*
X103250847Y-49024742D01*
X102679419Y-49453314D01*
X102679419Y-48989028D01*
X103346085Y-48346171D02*
X102679419Y-48346171D01*
X103727038Y-48524742D02*
X103012752Y-48703314D01*
X103012752Y-48239028D01*
X96246971Y-40962228D02*
X96589828Y-40962228D01*
X96418400Y-40962228D02*
X96418400Y-40362228D01*
X96475542Y-40447942D01*
X96532685Y-40505085D01*
X96589828Y-40533657D01*
D11*
X92006742Y-59902628D02*
X92006742Y-59445485D01*
X91778171Y-59674057D02*
X92235314Y-59674057D01*
X91778171Y-59131200D02*
X91778171Y-59016914D01*
X91806742Y-58959771D01*
X91835314Y-58931200D01*
X91921028Y-58874057D01*
X92035314Y-58845485D01*
X92263885Y-58845485D01*
X92321028Y-58874057D01*
X92349600Y-58902628D01*
X92378171Y-58959771D01*
X92378171Y-59074057D01*
X92349600Y-59131200D01*
X92321028Y-59159771D01*
X92263885Y-59188342D01*
X92121028Y-59188342D01*
X92063885Y-59159771D01*
X92035314Y-59131200D01*
X92006742Y-59074057D01*
X92006742Y-58959771D01*
X92035314Y-58902628D01*
X92063885Y-58874057D01*
X92121028Y-58845485D01*
X92378171Y-58674057D02*
X91778171Y-58474057D01*
X92378171Y-58274057D01*
D12*
X95968428Y-67448933D02*
X95968428Y-68115600D01*
X97468428Y-68115600D01*
X96039857Y-66448933D02*
X95968428Y-66582266D01*
X95968428Y-66848933D01*
X96039857Y-66982266D01*
X96182714Y-67048933D01*
X96754142Y-67048933D01*
X96897000Y-66982266D01*
X96968428Y-66848933D01*
X96968428Y-66582266D01*
X96897000Y-66448933D01*
X96754142Y-66382266D01*
X96611285Y-66382266D01*
X96468428Y-67048933D01*
X95968428Y-65582266D02*
X96039857Y-65715600D01*
X96111285Y-65782266D01*
X96254142Y-65848933D01*
X96682714Y-65848933D01*
X96825571Y-65782266D01*
X96897000Y-65715600D01*
X96968428Y-65582266D01*
X96968428Y-65382266D01*
X96897000Y-65248933D01*
X96825571Y-65182266D01*
X96682714Y-65115600D01*
X96254142Y-65115600D01*
X96111285Y-65182266D01*
X96039857Y-65248933D01*
X95968428Y-65382266D01*
X95968428Y-65582266D01*
X96754142Y-62982266D02*
X96754142Y-63448933D01*
X95968428Y-63448933D02*
X97468428Y-63448933D01*
X97468428Y-62782266D01*
X96968428Y-61648933D02*
X95968428Y-61648933D01*
X96968428Y-62248933D02*
X96182714Y-62248933D01*
X96039857Y-62182266D01*
X95968428Y-62048933D01*
X95968428Y-61848933D01*
X96039857Y-61715600D01*
X96111285Y-61648933D01*
X96968428Y-61115600D02*
X96968428Y-60382266D01*
X95968428Y-61115600D01*
X95968428Y-60382266D01*
X96968428Y-59982266D02*
X96968428Y-59248933D01*
X95968428Y-59982266D01*
X95968428Y-59248933D01*
X96754142Y-57182266D02*
X96682714Y-56982266D01*
X96611285Y-56915600D01*
X96468428Y-56848933D01*
X96254142Y-56848933D01*
X96111285Y-56915600D01*
X96039857Y-56982266D01*
X95968428Y-57115600D01*
X95968428Y-57648933D01*
X97468428Y-57648933D01*
X97468428Y-57182266D01*
X97397000Y-57048933D01*
X97325571Y-56982266D01*
X97182714Y-56915600D01*
X97039857Y-56915600D01*
X96897000Y-56982266D01*
X96825571Y-57048933D01*
X96754142Y-57182266D01*
X96754142Y-57648933D01*
X95968428Y-56048933D02*
X96039857Y-56182266D01*
X96111285Y-56248933D01*
X96254142Y-56315600D01*
X96682714Y-56315600D01*
X96825571Y-56248933D01*
X96897000Y-56182266D01*
X96968428Y-56048933D01*
X96968428Y-55848933D01*
X96897000Y-55715600D01*
X96825571Y-55648933D01*
X96682714Y-55582266D01*
X96254142Y-55582266D01*
X96111285Y-55648933D01*
X96039857Y-55715600D01*
X95968428Y-55848933D01*
X95968428Y-56048933D01*
X95968428Y-55115600D02*
X96968428Y-54382266D01*
X96968428Y-55115600D02*
X95968428Y-54382266D01*
D11*
X92432933Y-69894466D02*
X92432933Y-70027800D01*
X92399600Y-70094466D01*
X92366266Y-70127800D01*
X92266266Y-70194466D01*
X92132933Y-70227800D01*
X91866266Y-70227800D01*
X91799600Y-70194466D01*
X91766266Y-70161133D01*
X91732933Y-70094466D01*
X91732933Y-69961133D01*
X91766266Y-69894466D01*
X91799600Y-69861133D01*
X91866266Y-69827800D01*
X92032933Y-69827800D01*
X92099600Y-69861133D01*
X92132933Y-69894466D01*
X92166266Y-69961133D01*
X92166266Y-70094466D01*
X92132933Y-70161133D01*
X92099600Y-70194466D01*
X92032933Y-70227800D01*
D10*
X110593171Y-70085600D02*
X110107457Y-70085600D01*
X110050314Y-70114171D01*
X110021742Y-70142742D01*
X109993171Y-70199885D01*
X109993171Y-70285600D01*
X110021742Y-70342742D01*
X110221742Y-70085600D02*
X110193171Y-70142742D01*
X110193171Y-70257028D01*
X110221742Y-70314171D01*
X110250314Y-70342742D01*
X110307457Y-70371314D01*
X110478885Y-70371314D01*
X110536028Y-70342742D01*
X110564600Y-70314171D01*
X110593171Y-70257028D01*
X110593171Y-70142742D01*
X110564600Y-70085600D01*
X110193171Y-69799885D02*
X110593171Y-69799885D01*
X110793171Y-69799885D02*
X110764600Y-69828457D01*
X110736028Y-69799885D01*
X110764600Y-69771314D01*
X110793171Y-69799885D01*
X110736028Y-69799885D01*
X110593171Y-69599885D02*
X110593171Y-69371314D01*
X110793171Y-69514171D02*
X110278885Y-69514171D01*
X110221742Y-69485600D01*
X110193171Y-69428457D01*
X110193171Y-69371314D01*
X110193171Y-69171314D02*
X110793171Y-69171314D01*
X110193171Y-68914171D02*
X110507457Y-68914171D01*
X110564600Y-68942742D01*
X110593171Y-68999885D01*
X110593171Y-69085600D01*
X110564600Y-69142742D01*
X110536028Y-69171314D01*
X110593171Y-68371314D02*
X110193171Y-68371314D01*
X110593171Y-68628457D02*
X110278885Y-68628457D01*
X110221742Y-68599885D01*
X110193171Y-68542742D01*
X110193171Y-68457028D01*
X110221742Y-68399885D01*
X110250314Y-68371314D01*
X110193171Y-68085600D02*
X110793171Y-68085600D01*
X110564600Y-68085600D02*
X110593171Y-68028457D01*
X110593171Y-67914171D01*
X110564600Y-67857028D01*
X110536028Y-67828457D01*
X110478885Y-67799885D01*
X110307457Y-67799885D01*
X110250314Y-67828457D01*
X110221742Y-67857028D01*
X110193171Y-67914171D01*
X110193171Y-68028457D01*
X110221742Y-68085600D01*
X110250314Y-67542742D02*
X110221742Y-67514171D01*
X110193171Y-67542742D01*
X110221742Y-67571314D01*
X110250314Y-67542742D01*
X110193171Y-67542742D01*
X110221742Y-66999885D02*
X110193171Y-67057028D01*
X110193171Y-67171314D01*
X110221742Y-67228457D01*
X110250314Y-67257028D01*
X110307457Y-67285600D01*
X110478885Y-67285600D01*
X110536028Y-67257028D01*
X110564600Y-67228457D01*
X110593171Y-67171314D01*
X110593171Y-67057028D01*
X110564600Y-66999885D01*
X110193171Y-66657028D02*
X110221742Y-66714171D01*
X110250314Y-66742742D01*
X110307457Y-66771314D01*
X110478885Y-66771314D01*
X110536028Y-66742742D01*
X110564600Y-66714171D01*
X110593171Y-66657028D01*
X110593171Y-66571314D01*
X110564600Y-66514171D01*
X110536028Y-66485600D01*
X110478885Y-66457028D01*
X110307457Y-66457028D01*
X110250314Y-66485600D01*
X110221742Y-66514171D01*
X110193171Y-66571314D01*
X110193171Y-66657028D01*
X110193171Y-66199885D02*
X110593171Y-66199885D01*
X110536028Y-66199885D02*
X110564600Y-66171314D01*
X110593171Y-66114171D01*
X110593171Y-66028457D01*
X110564600Y-65971314D01*
X110507457Y-65942742D01*
X110193171Y-65942742D01*
X110507457Y-65942742D02*
X110564600Y-65914171D01*
X110593171Y-65857028D01*
X110593171Y-65771314D01*
X110564600Y-65714171D01*
X110507457Y-65685600D01*
X110193171Y-65685600D01*
X110821742Y-64971314D02*
X110050314Y-65485600D01*
X110193171Y-64771314D02*
X110593171Y-64771314D01*
X110478885Y-64771314D02*
X110536028Y-64742742D01*
X110564600Y-64714171D01*
X110593171Y-64657028D01*
X110593171Y-64599885D01*
X110193171Y-64314171D02*
X110221742Y-64371314D01*
X110250314Y-64399885D01*
X110307457Y-64428457D01*
X110478885Y-64428457D01*
X110536028Y-64399885D01*
X110564600Y-64371314D01*
X110593171Y-64314171D01*
X110593171Y-64228457D01*
X110564600Y-64171314D01*
X110536028Y-64142742D01*
X110478885Y-64114171D01*
X110307457Y-64114171D01*
X110250314Y-64142742D01*
X110221742Y-64171314D01*
X110193171Y-64228457D01*
X110193171Y-64314171D01*
X110221742Y-63599885D02*
X110193171Y-63657028D01*
X110193171Y-63771314D01*
X110221742Y-63828457D01*
X110250314Y-63857028D01*
X110307457Y-63885600D01*
X110478885Y-63885600D01*
X110536028Y-63857028D01*
X110564600Y-63828457D01*
X110593171Y-63771314D01*
X110593171Y-63657028D01*
X110564600Y-63599885D01*
X110193171Y-63342742D02*
X110793171Y-63342742D01*
X110421742Y-63285600D02*
X110193171Y-63114171D01*
X110593171Y-63114171D02*
X110364600Y-63342742D01*
X110193171Y-62771314D02*
X110221742Y-62828457D01*
X110250314Y-62857028D01*
X110307457Y-62885600D01*
X110478885Y-62885600D01*
X110536028Y-62857028D01*
X110564600Y-62828457D01*
X110593171Y-62771314D01*
X110593171Y-62685600D01*
X110564600Y-62628457D01*
X110536028Y-62599885D01*
X110478885Y-62571314D01*
X110307457Y-62571314D01*
X110250314Y-62599885D01*
X110221742Y-62628457D01*
X110193171Y-62685600D01*
X110193171Y-62771314D01*
X110193171Y-62228457D02*
X110221742Y-62285600D01*
X110278885Y-62314171D01*
X110793171Y-62314171D01*
X110193171Y-61742742D02*
X110507457Y-61742742D01*
X110564600Y-61771314D01*
X110593171Y-61828457D01*
X110593171Y-61942742D01*
X110564600Y-61999885D01*
X110221742Y-61742742D02*
X110193171Y-61799885D01*
X110193171Y-61942742D01*
X110221742Y-61999885D01*
X110278885Y-62028457D01*
X110336028Y-62028457D01*
X110393171Y-61999885D01*
X110421742Y-61942742D01*
X110421742Y-61799885D01*
X110450314Y-61742742D01*
X110821742Y-61028457D02*
X110050314Y-61542742D01*
X110193171Y-60742742D02*
X110221742Y-60799885D01*
X110278885Y-60828457D01*
X110793171Y-60828457D01*
X110221742Y-60285600D02*
X110193171Y-60342742D01*
X110193171Y-60457028D01*
X110221742Y-60514171D01*
X110278885Y-60542742D01*
X110507457Y-60542742D01*
X110564600Y-60514171D01*
X110593171Y-60457028D01*
X110593171Y-60342742D01*
X110564600Y-60285600D01*
X110507457Y-60257028D01*
X110450314Y-60257028D01*
X110393171Y-60542742D01*
X110193171Y-59914171D02*
X110221742Y-59971314D01*
X110250314Y-59999885D01*
X110307457Y-60028457D01*
X110478885Y-60028457D01*
X110536028Y-59999885D01*
X110564600Y-59971314D01*
X110593171Y-59914171D01*
X110593171Y-59828457D01*
X110564600Y-59771314D01*
X110536028Y-59742742D01*
X110478885Y-59714171D01*
X110307457Y-59714171D01*
X110250314Y-59742742D01*
X110221742Y-59771314D01*
X110193171Y-59828457D01*
X110193171Y-59914171D01*
X110421742Y-59457028D02*
X110421742Y-58999885D01*
X110593171Y-58799885D02*
X110593171Y-58571314D01*
X110193171Y-58714171D02*
X110707457Y-58714171D01*
X110764600Y-58685600D01*
X110793171Y-58628457D01*
X110793171Y-58571314D01*
X110593171Y-58114171D02*
X110193171Y-58114171D01*
X110593171Y-58371314D02*
X110278885Y-58371314D01*
X110221742Y-58342742D01*
X110193171Y-58285600D01*
X110193171Y-58199885D01*
X110221742Y-58142742D01*
X110250314Y-58114171D01*
X110593171Y-57885600D02*
X110593171Y-57571314D01*
X110193171Y-57885600D01*
X110193171Y-57571314D01*
X110593171Y-57399885D02*
X110593171Y-57085600D01*
X110193171Y-57399885D01*
X110193171Y-57085600D01*
X110421742Y-56857028D02*
X110421742Y-56399885D01*
X110193171Y-56114171D02*
X110793171Y-56114171D01*
X110564600Y-56114171D02*
X110593171Y-56057028D01*
X110593171Y-55942742D01*
X110564600Y-55885600D01*
X110536028Y-55857028D01*
X110478885Y-55828457D01*
X110307457Y-55828457D01*
X110250314Y-55857028D01*
X110221742Y-55885600D01*
X110193171Y-55942742D01*
X110193171Y-56057028D01*
X110221742Y-56114171D01*
X110193171Y-55485600D02*
X110221742Y-55542742D01*
X110250314Y-55571314D01*
X110307457Y-55599885D01*
X110478885Y-55599885D01*
X110536028Y-55571314D01*
X110564600Y-55542742D01*
X110593171Y-55485600D01*
X110593171Y-55399885D01*
X110564600Y-55342742D01*
X110536028Y-55314171D01*
X110478885Y-55285600D01*
X110307457Y-55285600D01*
X110250314Y-55314171D01*
X110221742Y-55342742D01*
X110193171Y-55399885D01*
X110193171Y-55485600D01*
X110193171Y-55085600D02*
X110593171Y-54771314D01*
X110593171Y-55085600D02*
X110193171Y-54771314D01*
D11*
X91783733Y-55324400D02*
X91783733Y-55724400D01*
X91783733Y-55524400D02*
X92483733Y-55524400D01*
X92383733Y-55591066D01*
X92317066Y-55657733D01*
X92283733Y-55724400D01*
%TO.C,J1*%
X92036847Y-73945704D02*
X92036847Y-73145704D01*
X91655895Y-73945704D02*
X91655895Y-73145704D01*
X91198752Y-73945704D01*
X91198752Y-73145704D01*
%TO.C,RV6*%
X102163142Y-43743571D02*
X102496476Y-43743571D01*
X102496476Y-44267380D02*
X102496476Y-43267380D01*
X102020285Y-43267380D01*
X101210761Y-43600714D02*
X101210761Y-44267380D01*
X101639333Y-43600714D02*
X101639333Y-44124523D01*
X101591714Y-44219761D01*
X101496476Y-44267380D01*
X101353619Y-44267380D01*
X101258380Y-44219761D01*
X101210761Y-44172142D01*
X100829809Y-43600714D02*
X100306000Y-43600714D01*
X100829809Y-44267380D01*
X100306000Y-44267380D01*
X100020285Y-43600714D02*
X99496476Y-43600714D01*
X100020285Y-44267380D01*
X99496476Y-44267380D01*
X98020285Y-43743571D02*
X97877428Y-43791190D01*
X97829809Y-43838809D01*
X97782190Y-43934047D01*
X97782190Y-44076904D01*
X97829809Y-44172142D01*
X97877428Y-44219761D01*
X97972666Y-44267380D01*
X98353619Y-44267380D01*
X98353619Y-43267380D01*
X98020285Y-43267380D01*
X97925047Y-43315000D01*
X97877428Y-43362619D01*
X97829809Y-43457857D01*
X97829809Y-43553095D01*
X97877428Y-43648333D01*
X97925047Y-43695952D01*
X98020285Y-43743571D01*
X98353619Y-43743571D01*
X96877428Y-43267380D02*
X97353619Y-43267380D01*
X97401238Y-43743571D01*
X97353619Y-43695952D01*
X97258380Y-43648333D01*
X97020285Y-43648333D01*
X96925047Y-43695952D01*
X96877428Y-43743571D01*
X96829809Y-43838809D01*
X96829809Y-44076904D01*
X96877428Y-44172142D01*
X96925047Y-44219761D01*
X97020285Y-44267380D01*
X97258380Y-44267380D01*
X97353619Y-44219761D01*
X97401238Y-44172142D01*
X96210761Y-43267380D02*
X96115523Y-43267380D01*
X96020285Y-43315000D01*
X95972666Y-43362619D01*
X95925047Y-43457857D01*
X95877428Y-43648333D01*
X95877428Y-43886428D01*
X95925047Y-44076904D01*
X95972666Y-44172142D01*
X96020285Y-44219761D01*
X96115523Y-44267380D01*
X96210761Y-44267380D01*
X96306000Y-44219761D01*
X96353619Y-44172142D01*
X96401238Y-44076904D01*
X96448857Y-43886428D01*
X96448857Y-43648333D01*
X96401238Y-43457857D01*
X96353619Y-43362619D01*
X96306000Y-43315000D01*
X96210761Y-43267380D01*
X95448857Y-44267380D02*
X95448857Y-43267380D01*
X95353619Y-43886428D02*
X95067904Y-44267380D01*
X95067904Y-43600714D02*
X95448857Y-43981666D01*
%TO.C,J4*%
X92563895Y-42011504D02*
X91763895Y-41744838D01*
X92563895Y-41478171D01*
X92068657Y-41211504D02*
X92068657Y-40601980D01*
X91763895Y-40906742D02*
X92373419Y-40906742D01*
X92525800Y-44399123D02*
X92563895Y-44475314D01*
X92563895Y-44589600D01*
X92525800Y-44703885D01*
X92449609Y-44780076D01*
X92373419Y-44818171D01*
X92221038Y-44856266D01*
X92106752Y-44856266D01*
X91954371Y-44818171D01*
X91878180Y-44780076D01*
X91801990Y-44703885D01*
X91763895Y-44589600D01*
X91763895Y-44513409D01*
X91801990Y-44399123D01*
X91840085Y-44361028D01*
X92106752Y-44361028D01*
X92106752Y-44513409D01*
X91763895Y-44018171D02*
X92563895Y-44018171D01*
X91763895Y-43561028D01*
X92563895Y-43561028D01*
X91763895Y-43180076D02*
X92563895Y-43180076D01*
X92563895Y-42989600D01*
X92525800Y-42875314D01*
X92449609Y-42799123D01*
X92373419Y-42761028D01*
X92221038Y-42722933D01*
X92106752Y-42722933D01*
X91954371Y-42761028D01*
X91878180Y-42799123D01*
X91801990Y-42875314D01*
X91763895Y-42989600D01*
X91763895Y-43180076D01*
%TO.C,J2*%
X101422114Y-73907609D02*
X101307828Y-73945704D01*
X101117352Y-73945704D01*
X101041161Y-73907609D01*
X101003066Y-73869514D01*
X100964971Y-73793323D01*
X100964971Y-73717133D01*
X101003066Y-73640942D01*
X101041161Y-73602847D01*
X101117352Y-73564752D01*
X101269733Y-73526657D01*
X101345923Y-73488561D01*
X101384019Y-73450466D01*
X101422114Y-73374276D01*
X101422114Y-73298085D01*
X101384019Y-73221895D01*
X101345923Y-73183800D01*
X101269733Y-73145704D01*
X101079257Y-73145704D01*
X100964971Y-73183800D01*
X100698304Y-73145704D02*
X100507828Y-73945704D01*
X100355447Y-73374276D01*
X100203066Y-73945704D01*
X100012590Y-73145704D01*
X104076400Y-73145704D02*
X103924019Y-73145704D01*
X103847828Y-73183800D01*
X103771638Y-73259990D01*
X103733542Y-73412371D01*
X103733542Y-73679038D01*
X103771638Y-73831419D01*
X103847828Y-73907609D01*
X103924019Y-73945704D01*
X104076400Y-73945704D01*
X104152590Y-73907609D01*
X104228780Y-73831419D01*
X104266876Y-73679038D01*
X104266876Y-73412371D01*
X104228780Y-73259990D01*
X104152590Y-73183800D01*
X104076400Y-73145704D01*
X103390685Y-73145704D02*
X103390685Y-73793323D01*
X103352590Y-73869514D01*
X103314495Y-73907609D01*
X103238304Y-73945704D01*
X103085923Y-73945704D01*
X103009733Y-73907609D01*
X102971638Y-73869514D01*
X102933542Y-73793323D01*
X102933542Y-73145704D01*
X102666876Y-73145704D02*
X102209733Y-73145704D01*
X102438304Y-73945704D02*
X102438304Y-73145704D01*
X96075447Y-73945704D02*
X96075447Y-73145704D01*
X95694495Y-73945704D02*
X95694495Y-73145704D01*
X95237352Y-73945704D01*
X95237352Y-73145704D01*
X98805923Y-73183800D02*
X98882114Y-73145704D01*
X98996400Y-73145704D01*
X99110685Y-73183800D01*
X99186876Y-73259990D01*
X99224971Y-73336180D01*
X99263066Y-73488561D01*
X99263066Y-73602847D01*
X99224971Y-73755228D01*
X99186876Y-73831419D01*
X99110685Y-73907609D01*
X98996400Y-73945704D01*
X98920209Y-73945704D01*
X98805923Y-73907609D01*
X98767828Y-73869514D01*
X98767828Y-73602847D01*
X98920209Y-73602847D01*
X98424971Y-73945704D02*
X98424971Y-73145704D01*
X97967828Y-73945704D01*
X97967828Y-73145704D01*
X97586876Y-73945704D02*
X97586876Y-73145704D01*
X97396400Y-73145704D01*
X97282114Y-73183800D01*
X97205923Y-73259990D01*
X97167828Y-73336180D01*
X97129733Y-73488561D01*
X97129733Y-73602847D01*
X97167828Y-73755228D01*
X97205923Y-73831419D01*
X97282114Y-73907609D01*
X97396400Y-73945704D01*
X97586876Y-73945704D01*
%TO.C,J3*%
X108419800Y-73145704D02*
X108267419Y-73145704D01*
X108191228Y-73183800D01*
X108115038Y-73259990D01*
X108076942Y-73412371D01*
X108076942Y-73679038D01*
X108115038Y-73831419D01*
X108191228Y-73907609D01*
X108267419Y-73945704D01*
X108419800Y-73945704D01*
X108495990Y-73907609D01*
X108572180Y-73831419D01*
X108610276Y-73679038D01*
X108610276Y-73412371D01*
X108572180Y-73259990D01*
X108495990Y-73183800D01*
X108419800Y-73145704D01*
X107734085Y-73145704D02*
X107734085Y-73793323D01*
X107695990Y-73869514D01*
X107657895Y-73907609D01*
X107581704Y-73945704D01*
X107429323Y-73945704D01*
X107353133Y-73907609D01*
X107315038Y-73869514D01*
X107276942Y-73793323D01*
X107276942Y-73145704D01*
X107010276Y-73145704D02*
X106553133Y-73145704D01*
X106781704Y-73945704D02*
X106781704Y-73145704D01*
%TO.C,D1*%
X100179095Y-69120380D02*
X100179095Y-68120380D01*
X99941000Y-68120380D01*
X99798142Y-68168000D01*
X99702904Y-68263238D01*
X99655285Y-68358476D01*
X99607666Y-68548952D01*
X99607666Y-68691809D01*
X99655285Y-68882285D01*
X99702904Y-68977523D01*
X99798142Y-69072761D01*
X99941000Y-69120380D01*
X100179095Y-69120380D01*
X98655285Y-69120380D02*
X99226714Y-69120380D01*
X98941000Y-69120380D02*
X98941000Y-68120380D01*
X99036238Y-68263238D01*
X99131476Y-68358476D01*
X99226714Y-68406095D01*
D13*
X99240209Y-71949428D02*
X99240209Y-72187523D01*
X99740209Y-72187523D01*
X99502114Y-71782761D02*
X99502114Y-71616095D01*
X99240209Y-71544666D02*
X99240209Y-71782761D01*
X99740209Y-71782761D01*
X99740209Y-71544666D01*
X99240209Y-71330380D02*
X99740209Y-71330380D01*
X99740209Y-71211333D01*
X99716400Y-71139904D01*
X99668780Y-71092285D01*
X99621161Y-71068476D01*
X99525923Y-71044666D01*
X99454495Y-71044666D01*
X99359257Y-71068476D01*
X99311638Y-71092285D01*
X99264019Y-71139904D01*
X99240209Y-71211333D01*
X99240209Y-71330380D01*
D10*
X101528542Y-69934171D02*
X101528542Y-70534171D01*
X101185685Y-69934171D02*
X101442828Y-70277028D01*
X101185685Y-70534171D02*
X101528542Y-70191314D01*
%TO.C,J1*%
X94030800Y-76758800D02*
X91490800Y-76758800D01*
X91490800Y-74218800D02*
X88950800Y-74218800D01*
X94030800Y-72948800D02*
X88950800Y-72948800D01*
X94030800Y-74218800D02*
X91490800Y-74218800D01*
X94030800Y-74218800D02*
X94030800Y-72948800D01*
X94030800Y-76758800D02*
X94030800Y-74218800D01*
X91490800Y-74218800D02*
X91490800Y-76758800D01*
X88950800Y-72948800D02*
X88950800Y-74218800D01*
X88950800Y-74218800D02*
X88950800Y-76758800D01*
X91490800Y-76758800D02*
X88950800Y-76758800D01*
%TO.C,RV6*%
X103047800Y-39852600D02*
X103047800Y-42900600D01*
X101015800Y-39852600D02*
X97967800Y-39852600D01*
X95935800Y-39852600D02*
X92887800Y-39852600D01*
X95935800Y-42900600D02*
X92887800Y-42900600D01*
X106095800Y-42900600D02*
X106095800Y-39852600D01*
X99491800Y-47091600D02*
X99491800Y-64871600D01*
X106095800Y-39852600D02*
X103047800Y-39852600D01*
X106095800Y-42900600D02*
X103047800Y-42900600D01*
X101015800Y-42900600D02*
X101015800Y-39852600D01*
X97967800Y-39852600D02*
X97967800Y-42900600D01*
X107111800Y-51536600D02*
X107111800Y-43027600D01*
X108381800Y-55981600D02*
X90601800Y-55981600D01*
X91871800Y-43027600D02*
X91871800Y-51536600D01*
X92887800Y-39852600D02*
X92887800Y-42900600D01*
X107111800Y-43027600D02*
X91871800Y-43027600D01*
X95935800Y-42900600D02*
X95935800Y-39852600D01*
X101015800Y-42900600D02*
X97967800Y-42900600D01*
X99491800Y-47091600D02*
G75*
G03*
X90601800Y-55981600I0J-8890000D01*
G01*
X108381800Y-55981600D02*
G75*
G03*
X99491800Y-47091600I-8890000J0D01*
G01*
X99491798Y-64871600D02*
G75*
G03*
X108381800Y-55981600I101J8889901D01*
G01*
X90601800Y-55981598D02*
G75*
G03*
X99491800Y-64871600I8889901J-101D01*
G01*
X100389800Y-55981600D02*
G75*
G03*
X100389800Y-55981600I-898000J0D01*
G01*
%TO.C,J4*%
X88950800Y-40106600D02*
X91490800Y-40106600D01*
X88950800Y-45186600D02*
X91490800Y-45186600D01*
X91490800Y-45186600D02*
X92760800Y-45186600D01*
X91490800Y-45186600D02*
X91490800Y-40106600D01*
X91490800Y-40106600D02*
X92760800Y-40106600D01*
X88950800Y-40106600D02*
X88950800Y-45186600D01*
X92760800Y-40106600D02*
X92760800Y-45186600D01*
%TO.C,J2*%
X104546400Y-74218800D02*
X94386400Y-74218800D01*
X94386400Y-76758800D02*
X94386400Y-74218800D01*
X94386400Y-72948800D02*
X104546400Y-72948800D01*
X104546400Y-74218800D02*
X104546400Y-72948800D01*
X94386400Y-74218800D02*
X94386400Y-72948800D01*
X104546400Y-76758800D02*
X104546400Y-74218800D01*
X94386400Y-76758800D02*
X104546400Y-76758800D01*
%TO.C,J3*%
X110032800Y-74218800D02*
X107492800Y-74218800D01*
X110032800Y-72948800D02*
X104952800Y-72948800D01*
X110032800Y-76758800D02*
X110032800Y-74218800D01*
X107492800Y-76758800D02*
X104952800Y-76758800D01*
X110032800Y-76758800D02*
X107492800Y-76758800D01*
X107492800Y-74218800D02*
X107492800Y-76758800D01*
X104952800Y-72948800D02*
X104952800Y-74218800D01*
X104952800Y-74218800D02*
X104952800Y-76758800D01*
X107492800Y-74218800D02*
X104952800Y-74218800D01*
X110032800Y-74218800D02*
X110032800Y-72948800D01*
%TO.C,SW1*%
X92735400Y-55194200D02*
X91465400Y-55194200D01*
X91465400Y-70434200D02*
X92735400Y-70434200D01*
X92735400Y-70434200D02*
X92735400Y-55194200D01*
X91465400Y-70434200D02*
X91465400Y-55194200D01*
X88925400Y-55194200D02*
X88925400Y-70434200D01*
X88925400Y-55194200D02*
X91465400Y-55194200D01*
X91465400Y-70434200D02*
X88925400Y-70434200D01*
D14*
%TO.C,D1*%
X100761800Y-70104000D02*
X100761800Y-70548000D01*
X100711000Y-72745600D02*
X100711000Y-73101200D01*
X97768666Y-72706607D02*
G75*
G03*
X100711000Y-73101200I1639431J1057386D01*
G01*
X98399870Y-72707837D02*
G75*
G03*
X100481961Y-72708000I1041130J1079837D01*
G01*
X98399870Y-70548163D02*
G75*
G02*
X100481961Y-70548000I1041130J-1079837D01*
G01*
X97768666Y-70549393D02*
G75*
G02*
X100711000Y-70053200I1697655J-1094939D01*
G01*
%TD*%
%LPC*%
D15*
%TO.C,J1*%
X92760800Y-75488800D03*
D16*
X90220800Y-75488800D03*
%TD*%
D17*
%TO.C,R7*%
X90271600Y-50622200D03*
D18*
X97891600Y-50622200D03*
%TD*%
D19*
%TO.C,RV6*%
X94411800Y-41376600D03*
D20*
X99491800Y-41376600D03*
X104571800Y-41376600D03*
%TD*%
D17*
%TO.C,R9*%
X93954600Y-68961000D03*
D18*
X101574600Y-68961000D03*
%TD*%
D17*
%TO.C,C1*%
X90246200Y-72009000D03*
X95246200Y-72009000D03*
%TD*%
D16*
%TO.C,J4*%
X90220800Y-41376600D03*
D15*
X90220800Y-43916600D03*
%TD*%
D16*
%TO.C,J2*%
X95656400Y-75488800D03*
D15*
X98196400Y-75488800D03*
X100736400Y-75488800D03*
X103276400Y-75488800D03*
%TD*%
D17*
%TO.C,C4*%
X109270800Y-42418000D03*
X109270800Y-47418000D03*
%TD*%
%TO.C,C3*%
X109067600Y-68300600D03*
X104067600Y-68300600D03*
%TD*%
D21*
%TO.C,C5*%
X103505000Y-46050200D03*
D17*
X106005000Y-46050200D03*
%TD*%
D16*
%TO.C,Q1*%
X109093000Y-58318400D03*
D15*
X106553000Y-58318400D03*
X104013000Y-58318400D03*
%TD*%
%TO.C,J3*%
X108762800Y-75488800D03*
D16*
X106222800Y-75488800D03*
%TD*%
D17*
%TO.C,R5*%
X101219000Y-50622200D03*
D18*
X108839000Y-50622200D03*
%TD*%
D17*
%TO.C,R2*%
X93980000Y-56769000D03*
D18*
X101600000Y-56769000D03*
%TD*%
D16*
%TO.C,Q2*%
X109118400Y-64185800D03*
D15*
X106578400Y-64185800D03*
X104038400Y-64185800D03*
%TD*%
D22*
%TO.C,SW1*%
X90195400Y-56464200D03*
D23*
X90195400Y-59004200D03*
X90195400Y-61544200D03*
X90195400Y-64084200D03*
X90195400Y-66624200D03*
X90195400Y-69164200D03*
%TD*%
D17*
%TO.C,R8*%
X101574600Y-65938400D03*
D18*
X93954600Y-65938400D03*
%TD*%
D17*
%TO.C,R99*%
X101600000Y-62865000D03*
D18*
X93980000Y-62865000D03*
%TD*%
D17*
%TO.C,R4*%
X97891600Y-53670200D03*
D18*
X90271600Y-53670200D03*
%TD*%
D17*
%TO.C,C2*%
X99212400Y-44323000D03*
X94212400Y-44323000D03*
%TD*%
%TO.C,R1*%
X93980000Y-59817000D03*
D18*
X101600000Y-59817000D03*
%TD*%
D24*
%TO.C,D2*%
X100431600Y-47472600D03*
D25*
X90271600Y-47472600D03*
%TD*%
D17*
%TO.C,R3*%
X101219000Y-53670200D03*
D18*
X108839000Y-53670200D03*
%TD*%
D26*
%TO.C,D1*%
X100711000Y-71628000D03*
D27*
X98171000Y-71628000D03*
%TD*%
M02*
