%TF.GenerationSoftware,KiCad,Pcbnew,(5.99.0-2858-ga3fc028c9)*%
%TF.CreationDate,2020-08-19T12:09:39+03:00*%
%TF.ProjectId,leo-fuzz-box,6c656f2d-6675-47a7-9a2d-626f782e6b69,rev?*%
%TF.SameCoordinates,Original*%
%TF.FileFunction,Copper,L2,Bot*%
%TF.FilePolarity,Positive*%
%FSLAX46Y46*%
G04 Gerber Fmt 4.6, Leading zero omitted, Abs format (unit mm)*
G04 Created by KiCad (PCBNEW (5.99.0-2858-ga3fc028c9)) date 2020-08-19 12:09:39*
%MOMM*%
%LPD*%
G01*
G04 APERTURE LIST*
%TA.AperFunction,ComponentPad*%
%ADD10O,2.200000X2.200000*%
%TD*%
%TA.AperFunction,ComponentPad*%
%ADD11R,2.200000X2.200000*%
%TD*%
%TA.AperFunction,ComponentPad*%
%ADD12C,1.600000*%
%TD*%
%TA.AperFunction,ComponentPad*%
%ADD13R,1.600000X1.600000*%
%TD*%
%TA.AperFunction,ComponentPad*%
%ADD14O,1.930400X1.930400*%
%TD*%
%TA.AperFunction,ComponentPad*%
%ADD15R,1.930400X1.930400*%
%TD*%
%TA.AperFunction,ComponentPad*%
%ADD16O,2.032000X2.032000*%
%TD*%
%TA.AperFunction,ComponentPad*%
%ADD17R,2.032000X2.032000*%
%TD*%
%TA.AperFunction,ComponentPad*%
%ADD18O,2.540000X2.540000*%
%TD*%
%TA.AperFunction,ComponentPad*%
%ADD19R,2.540000X2.540000*%
%TD*%
%TA.AperFunction,ComponentPad*%
%ADD20O,1.600000X1.600000*%
%TD*%
%TA.AperFunction,ComponentPad*%
%ADD21C,1.800000*%
%TD*%
%TA.AperFunction,ComponentPad*%
%ADD22R,1.800000X1.800000*%
%TD*%
%TA.AperFunction,Conductor*%
%ADD23C,0.381000*%
%TD*%
%TA.AperFunction,Conductor*%
%ADD24C,0.609600*%
%TD*%
G04 APERTURE END LIST*
D10*
%TO.P,D2,2,A*%
%TO.N,Net-(D2-Pad2)*%
X105537000Y-44069000D03*
D11*
%TO.P,D2,1,K*%
%TO.N,+9V*%
X95377000Y-44069000D03*
%TD*%
D12*
%TO.P,C5,2*%
%TO.N,GND*%
X89956000Y-42799000D03*
D13*
%TO.P,C5,1*%
%TO.N,+9V*%
X92456000Y-42799000D03*
%TD*%
D12*
%TO.P,C4,2*%
%TO.N,GND*%
X95449400Y-47320200D03*
%TO.P,C4,1*%
%TO.N,+9V*%
X90449400Y-47320200D03*
%TD*%
D14*
%TO.P,Q2,3,C*%
%TO.N,Net-(C3-Pad1)*%
X109093000Y-60325000D03*
%TO.P,Q2,2,B*%
%TO.N,Net-(Q1-Pad3)*%
X106553000Y-60325000D03*
D15*
%TO.P,Q2,1,E*%
%TO.N,Net-(Q2-Pad1)*%
X104013000Y-60325000D03*
%TD*%
D14*
%TO.P,Q1,3,C*%
%TO.N,Net-(Q1-Pad3)*%
X108966000Y-54737000D03*
%TO.P,Q1,2,B*%
%TO.N,Net-(Q1-Pad2)*%
X106426000Y-54737000D03*
D15*
%TO.P,Q1,1,E*%
%TO.N,Net-(Q1-Pad1)*%
X103886000Y-54737000D03*
%TD*%
D16*
%TO.P,SW1,6,C*%
%TO.N,Net-(SW1-Pad6)*%
X90220800Y-71399400D03*
%TO.P,SW1,5,B*%
%TO.N,Net-(RV6-Pad2)*%
X90220800Y-68859400D03*
%TO.P,SW1,4,A*%
%TO.N,Net-(C2-Pad1)*%
X90220800Y-66319400D03*
%TO.P,SW1,3,C*%
%TO.N,Net-(R2-Pad1)*%
X90220800Y-63779400D03*
%TO.P,SW1,2,B*%
%TO.N,+9V*%
X90220800Y-61239400D03*
D17*
%TO.P,SW1,1,A*%
%TO.N,Net-(R4-Pad2)*%
X90220800Y-58699400D03*
%TD*%
D18*
%TO.P,RV6,3,3*%
%TO.N,Net-(Q2-Pad1)*%
X104546400Y-39471600D03*
%TO.P,RV6,2,2*%
%TO.N,Net-(RV6-Pad2)*%
X99466400Y-39471600D03*
D19*
%TO.P,RV6,1,1*%
%TO.N,Net-(Q1-Pad1)*%
X94386400Y-39471600D03*
%TD*%
D20*
%TO.P,R99,2*%
%TO.N,+9V*%
X93954600Y-65913000D03*
D12*
%TO.P,R99,1*%
%TO.N,Net-(D1-Pad2)*%
X101574600Y-65913000D03*
%TD*%
D20*
%TO.P,R9,2*%
%TO.N,GND*%
X101574600Y-68961000D03*
D12*
%TO.P,R9,1*%
%TO.N,Net-(C2-Pad1)*%
X93954600Y-68961000D03*
%TD*%
D20*
%TO.P,R8,2*%
%TO.N,Net-(C2-Pad1)*%
X107823000Y-47345600D03*
D12*
%TO.P,R8,1*%
%TO.N,Net-(C3-Pad2)*%
X100203000Y-47345600D03*
%TD*%
D20*
%TO.P,R7,2*%
%TO.N,Net-(C3-Pad1)*%
X97790000Y-50419000D03*
D12*
%TO.P,R7,1*%
%TO.N,Net-(R4-Pad2)*%
X90170000Y-50419000D03*
%TD*%
D20*
%TO.P,R5,2*%
%TO.N,Net-(Q2-Pad1)*%
X100203000Y-50419000D03*
D12*
%TO.P,R5,1*%
%TO.N,Net-(Q1-Pad2)*%
X107823000Y-50419000D03*
%TD*%
D20*
%TO.P,R4,2*%
%TO.N,Net-(R4-Pad2)*%
X97790000Y-53594000D03*
D12*
%TO.P,R4,1*%
%TO.N,Net-(R2-Pad1)*%
X90170000Y-53594000D03*
%TD*%
D20*
%TO.P,R3,2*%
%TO.N,GND*%
X93980000Y-56642000D03*
D12*
%TO.P,R3,1*%
%TO.N,Net-(Q1-Pad1)*%
X101600000Y-56642000D03*
%TD*%
D20*
%TO.P,R2,2*%
%TO.N,Net-(Q1-Pad3)*%
X101574600Y-59690000D03*
D12*
%TO.P,R2,1*%
%TO.N,Net-(R2-Pad1)*%
X93954600Y-59690000D03*
%TD*%
D20*
%TO.P,R1,2*%
%TO.N,Net-(Q1-Pad2)*%
X101574600Y-62865000D03*
D12*
%TO.P,R1,1*%
%TO.N,Net-(C1-Pad2)*%
X93954600Y-62865000D03*
%TD*%
D14*
%TO.P,J4,2*%
%TO.N,GND*%
X109474000Y-39243000D03*
D15*
%TO.P,J4,1*%
%TO.N,Net-(D2-Pad2)*%
X109474000Y-41783000D03*
%TD*%
%TO.P,J3,T*%
%TO.N,OUT*%
X106222800Y-75488800D03*
D14*
%TO.P,J3,S*%
%TO.N,GND*%
X108762800Y-75488800D03*
%TD*%
%TO.P,J2,4,Pin_4*%
%TO.N,OUT*%
X103276400Y-75488800D03*
%TO.P,J2,3,Pin_3*%
%TO.N,LED-*%
X100736400Y-75488800D03*
%TO.P,J2,2,Pin_2*%
%TO.N,GND*%
X98196400Y-75488800D03*
D15*
%TO.P,J2,1,Pin_1*%
%TO.N,IN*%
X95656400Y-75488800D03*
%TD*%
%TO.P,J1,T*%
%TO.N,IN*%
X90220800Y-75488800D03*
D14*
%TO.P,J1,S*%
%TO.N,GND*%
X92760800Y-75488800D03*
%TD*%
D21*
%TO.P,D1,2,A*%
%TO.N,Net-(D1-Pad2)*%
X98171000Y-71628000D03*
D22*
%TO.P,D1,1,K*%
%TO.N,LED-*%
X100711000Y-71628000D03*
%TD*%
D12*
%TO.P,C3,2*%
%TO.N,Net-(C3-Pad2)*%
X104067600Y-65278000D03*
%TO.P,C3,1*%
%TO.N,Net-(C3-Pad1)*%
X109067600Y-65278000D03*
%TD*%
%TO.P,C2,2*%
%TO.N,OUT*%
X109063800Y-68326000D03*
%TO.P,C2,1*%
%TO.N,Net-(C2-Pad1)*%
X104063800Y-68326000D03*
%TD*%
%TO.P,C1,2*%
%TO.N,Net-(C1-Pad2)*%
X104056800Y-71374000D03*
%TO.P,C1,1*%
%TO.N,IN*%
X109056800Y-71374000D03*
%TD*%
D23*
%TO.N,Net-(RV6-Pad2)*%
X90220800Y-68859400D02*
X91976699Y-67103501D01*
X96599499Y-47932043D02*
X99466400Y-45065142D01*
X99466400Y-45065142D02*
X99466400Y-39471600D01*
X91976699Y-67103501D02*
X94526041Y-67103501D01*
X96599499Y-65030043D02*
X96599499Y-47932043D01*
X94526041Y-67103501D02*
X96599499Y-65030043D01*
%TO.N,Net-(D1-Pad2)*%
X98171000Y-71628000D02*
X98171000Y-69316600D01*
X98171000Y-69316600D02*
X101574600Y-65913000D01*
D24*
%TO.N,+9V*%
X90220800Y-61239400D02*
X93954600Y-64973200D01*
X93954600Y-64973200D02*
X93954600Y-65913000D01*
D23*
%TO.N,Net-(Q2-Pad1)*%
X104013000Y-60325000D02*
X101520501Y-57832501D01*
X101520501Y-57832501D02*
X101028559Y-57832501D01*
X101028559Y-57832501D02*
X100203000Y-57006942D01*
X100203000Y-57006942D02*
X100203000Y-50419000D01*
%TO.N,Net-(C3-Pad2)*%
X104067600Y-65278000D02*
X102845101Y-64055501D01*
X102845101Y-64055501D02*
X101003159Y-64055501D01*
X101003159Y-64055501D02*
X98980501Y-62032843D01*
X98980501Y-62032843D02*
X98980501Y-48568099D01*
X98980501Y-48568099D02*
X100203000Y-47345600D01*
%TO.N,Net-(Q2-Pad1)*%
X104546400Y-39471600D02*
X103276401Y-40741599D01*
X103276401Y-40741599D02*
X103276401Y-47345599D01*
X103276401Y-47345599D02*
X100203000Y-50419000D01*
D24*
%TO.N,LED-*%
X100736400Y-75488800D02*
X100736400Y-71653400D01*
X100736400Y-71653400D02*
X100711000Y-71628000D01*
%TO.N,+9V*%
X90449400Y-47320200D02*
X91741610Y-48612410D01*
X91741610Y-48612410D02*
X91741610Y-59924500D01*
X91741610Y-59924500D02*
X90426710Y-61239400D01*
X90426710Y-61239400D02*
X90220800Y-61239400D01*
X90449400Y-47320200D02*
X90449400Y-44805600D01*
X90449400Y-44805600D02*
X92456000Y-42799000D01*
X92456000Y-42799000D02*
X94107000Y-42799000D01*
X94107000Y-42799000D02*
X95377000Y-44069000D01*
%TO.N,Net-(D2-Pad2)*%
X108839000Y-41783000D02*
X107823000Y-41783000D01*
X107823000Y-41783000D02*
X105537000Y-44069000D01*
%TD*%
%TA.AperFunction,Conductor*%
%TO.N,GND*%
G36*
X99894097Y-57685866D02*
G01*
X100469331Y-58261101D01*
X100486797Y-58282962D01*
X100491153Y-58289865D01*
X100491154Y-58289867D01*
X100547663Y-58339774D01*
X100553353Y-58345122D01*
X100570103Y-58361873D01*
X100570113Y-58361881D01*
X100583115Y-58371626D01*
X100590958Y-58378011D01*
X100641122Y-58422314D01*
X100641123Y-58422315D01*
X100655211Y-58428929D01*
X100677229Y-58442159D01*
X100689673Y-58451485D01*
X100689674Y-58451486D01*
X100712930Y-58460204D01*
X100769695Y-58502845D01*
X100794395Y-58569406D01*
X100779188Y-58638755D01*
X100749693Y-58674707D01*
X100646172Y-58761572D01*
X100499057Y-58936896D01*
X100499055Y-58936899D01*
X100384624Y-59135099D01*
X100384620Y-59135108D01*
X100306345Y-59350167D01*
X100266600Y-59575567D01*
X100266600Y-59804433D01*
X100306345Y-60029833D01*
X100384620Y-60244892D01*
X100384624Y-60244901D01*
X100499055Y-60443101D01*
X100499057Y-60443104D01*
X100646172Y-60618428D01*
X100821496Y-60765543D01*
X100821499Y-60765545D01*
X101019699Y-60879976D01*
X101019708Y-60879980D01*
X101234767Y-60958255D01*
X101460167Y-60998000D01*
X101689033Y-60998000D01*
X101914433Y-60958255D01*
X102129492Y-60879980D01*
X102129501Y-60879976D01*
X102327701Y-60765545D01*
X102332210Y-60762388D01*
X102333435Y-60764137D01*
X102389990Y-60739374D01*
X102460097Y-60750579D01*
X102513016Y-60797907D01*
X102531963Y-60864357D01*
X102531963Y-61290198D01*
X102601073Y-61548120D01*
X102716226Y-61685354D01*
X102871374Y-61774929D01*
X103047801Y-61806037D01*
X104978198Y-61806037D01*
X105236120Y-61736927D01*
X105373354Y-61621774D01*
X105437906Y-61509966D01*
X105489288Y-61460973D01*
X105559002Y-61447537D01*
X105619296Y-61469753D01*
X105807184Y-61601314D01*
X106025651Y-61705985D01*
X106258279Y-61773570D01*
X106498836Y-61802255D01*
X106740828Y-61791267D01*
X106740842Y-61791265D01*
X106977786Y-61740900D01*
X106977793Y-61740898D01*
X107203340Y-61652506D01*
X107203348Y-61652502D01*
X107411420Y-61528467D01*
X107411426Y-61528462D01*
X107596449Y-61372106D01*
X107596452Y-61372102D01*
X107728106Y-61217410D01*
X107787489Y-61178497D01*
X107858483Y-61177866D01*
X107925737Y-61224657D01*
X107975661Y-61292870D01*
X108148736Y-61462356D01*
X108148749Y-61462367D01*
X108347184Y-61601314D01*
X108565651Y-61705985D01*
X108798279Y-61773570D01*
X109038836Y-61802255D01*
X109280828Y-61791267D01*
X109280842Y-61791265D01*
X109517786Y-61740900D01*
X109517793Y-61740898D01*
X109743340Y-61652506D01*
X109743348Y-61652502D01*
X109951420Y-61528467D01*
X109951426Y-61528462D01*
X110136449Y-61372106D01*
X110136453Y-61372102D01*
X110262822Y-61223619D01*
X110322205Y-61184706D01*
X110393199Y-61184075D01*
X110453264Y-61221927D01*
X110484776Y-61305282D01*
X110484776Y-64646383D01*
X110464774Y-64714504D01*
X110411118Y-64760997D01*
X110340844Y-64771101D01*
X110276264Y-64741607D01*
X110249657Y-64709383D01*
X110143145Y-64524899D01*
X110143143Y-64524896D01*
X109996028Y-64349572D01*
X109820704Y-64202457D01*
X109820701Y-64202455D01*
X109622501Y-64088024D01*
X109622492Y-64088020D01*
X109407433Y-64009745D01*
X109182033Y-63970000D01*
X108953167Y-63970000D01*
X108727767Y-64009745D01*
X108512708Y-64088020D01*
X108512699Y-64088024D01*
X108314499Y-64202455D01*
X108314496Y-64202457D01*
X108139172Y-64349572D01*
X107992057Y-64524896D01*
X107992055Y-64524899D01*
X107877624Y-64723099D01*
X107877620Y-64723108D01*
X107799345Y-64938167D01*
X107759600Y-65163567D01*
X107759600Y-65392433D01*
X107799345Y-65617833D01*
X107877620Y-65832892D01*
X107877624Y-65832901D01*
X107992055Y-66031101D01*
X107992057Y-66031104D01*
X108139172Y-66206428D01*
X108314496Y-66353543D01*
X108314499Y-66353545D01*
X108512699Y-66467976D01*
X108512708Y-66467980D01*
X108727767Y-66546255D01*
X108953167Y-66586000D01*
X109182033Y-66586000D01*
X109407433Y-66546255D01*
X109622492Y-66467980D01*
X109622501Y-66467976D01*
X109820701Y-66353545D01*
X109820704Y-66353543D01*
X109996028Y-66206428D01*
X110143143Y-66031104D01*
X110143145Y-66031101D01*
X110249657Y-65846617D01*
X110301039Y-65797624D01*
X110370753Y-65784188D01*
X110436664Y-65810574D01*
X110477846Y-65868406D01*
X110484776Y-65909617D01*
X110484776Y-67700965D01*
X110464774Y-67769086D01*
X110411118Y-67815579D01*
X110340844Y-67825683D01*
X110276264Y-67796189D01*
X110249657Y-67763965D01*
X110139345Y-67572899D01*
X110139343Y-67572896D01*
X109992228Y-67397572D01*
X109816904Y-67250457D01*
X109816901Y-67250455D01*
X109618701Y-67136024D01*
X109618692Y-67136020D01*
X109403633Y-67057745D01*
X109178233Y-67018000D01*
X108949367Y-67018000D01*
X108723967Y-67057745D01*
X108508908Y-67136020D01*
X108508899Y-67136024D01*
X108310699Y-67250455D01*
X108310696Y-67250457D01*
X108135372Y-67397572D01*
X107988257Y-67572896D01*
X107988255Y-67572899D01*
X107873824Y-67771099D01*
X107873820Y-67771108D01*
X107795545Y-67986167D01*
X107755800Y-68211567D01*
X107755800Y-68440433D01*
X107795545Y-68665833D01*
X107873820Y-68880892D01*
X107873824Y-68880901D01*
X107988255Y-69079101D01*
X107988257Y-69079104D01*
X108135372Y-69254428D01*
X108310696Y-69401543D01*
X108310699Y-69401545D01*
X108508899Y-69515976D01*
X108508908Y-69515980D01*
X108723967Y-69594255D01*
X108949367Y-69634000D01*
X109178233Y-69634000D01*
X109403633Y-69594255D01*
X109618692Y-69515980D01*
X109618701Y-69515976D01*
X109816901Y-69401545D01*
X109816904Y-69401543D01*
X109992228Y-69254428D01*
X110139343Y-69079104D01*
X110139345Y-69079101D01*
X110249657Y-68888035D01*
X110301039Y-68839042D01*
X110370753Y-68825606D01*
X110436664Y-68851992D01*
X110477846Y-68909824D01*
X110484776Y-68951035D01*
X110484776Y-70761142D01*
X110464774Y-70829263D01*
X110411118Y-70875756D01*
X110340844Y-70885860D01*
X110276264Y-70856366D01*
X110251052Y-70822989D01*
X110249529Y-70823868D01*
X110132345Y-70620899D01*
X110132343Y-70620896D01*
X109985228Y-70445572D01*
X109809904Y-70298457D01*
X109809901Y-70298455D01*
X109611701Y-70184024D01*
X109611692Y-70184020D01*
X109396633Y-70105745D01*
X109171233Y-70066000D01*
X108942367Y-70066000D01*
X108716967Y-70105745D01*
X108501908Y-70184020D01*
X108501899Y-70184024D01*
X108303699Y-70298455D01*
X108303696Y-70298457D01*
X108128372Y-70445572D01*
X107981257Y-70620896D01*
X107981255Y-70620899D01*
X107866824Y-70819099D01*
X107866820Y-70819108D01*
X107788545Y-71034167D01*
X107748800Y-71259567D01*
X107748800Y-71488433D01*
X107788545Y-71713833D01*
X107866820Y-71928892D01*
X107866824Y-71928901D01*
X107981255Y-72127101D01*
X107981257Y-72127104D01*
X108128372Y-72302428D01*
X108303696Y-72449543D01*
X108303699Y-72449545D01*
X108501899Y-72563976D01*
X108501908Y-72563980D01*
X108716967Y-72642255D01*
X108942367Y-72682000D01*
X109171233Y-72682000D01*
X109396633Y-72642255D01*
X109611692Y-72563980D01*
X109611701Y-72563976D01*
X109809901Y-72449545D01*
X109809904Y-72449543D01*
X109985228Y-72302428D01*
X110132343Y-72127104D01*
X110132345Y-72127101D01*
X110249529Y-71924132D01*
X110251765Y-71925423D01*
X110291572Y-71880276D01*
X110359863Y-71860863D01*
X110427809Y-71881452D01*
X110473837Y-71935506D01*
X110484776Y-71986858D01*
X110484776Y-76449776D01*
X110464774Y-76517897D01*
X110411118Y-76564390D01*
X110358776Y-76575776D01*
X110045007Y-76575776D01*
X109976886Y-76555774D01*
X109930393Y-76502118D01*
X109920289Y-76431844D01*
X109949053Y-76368113D01*
X109963261Y-76351418D01*
X109963266Y-76351411D01*
X110088026Y-76143774D01*
X110088029Y-76143768D01*
X110177211Y-75918521D01*
X110215202Y-75742800D01*
X108634800Y-75742800D01*
X108566679Y-75722798D01*
X108520186Y-75669142D01*
X108508800Y-75616800D01*
X108508800Y-75234800D01*
X109016800Y-75234800D01*
X110214080Y-75234800D01*
X110196510Y-75128676D01*
X110118439Y-74899345D01*
X110118437Y-74899340D01*
X110003972Y-74685863D01*
X110003963Y-74685849D01*
X109856157Y-74493921D01*
X109856156Y-74493919D01*
X109678984Y-74328704D01*
X109477210Y-74194645D01*
X109477208Y-74194644D01*
X109256252Y-74095343D01*
X109256254Y-74095343D01*
X109022039Y-74033461D01*
X109016800Y-74032965D01*
X109016800Y-75234800D01*
X108508800Y-75234800D01*
X108508800Y-74034803D01*
X108303539Y-74083704D01*
X108080219Y-74177579D01*
X107875231Y-74306667D01*
X107875225Y-74306672D01*
X107842377Y-74335835D01*
X107778156Y-74366104D01*
X107707765Y-74356848D01*
X107653553Y-74311005D01*
X107637016Y-74274223D01*
X107634727Y-74265681D01*
X107519574Y-74128446D01*
X107364426Y-74038871D01*
X107187999Y-74007763D01*
X105257602Y-74007763D01*
X104999681Y-74076873D01*
X104862446Y-74192026D01*
X104772871Y-74347174D01*
X104741763Y-74523601D01*
X104741763Y-74606856D01*
X104721761Y-74674977D01*
X104668105Y-74721470D01*
X104597831Y-74731574D01*
X104515935Y-74683735D01*
X104369757Y-74493921D01*
X104369756Y-74493919D01*
X104192584Y-74328704D01*
X103990810Y-74194645D01*
X103990808Y-74194644D01*
X103769852Y-74095343D01*
X103769854Y-74095343D01*
X103535639Y-74033461D01*
X103294455Y-74010662D01*
X103052804Y-74027561D01*
X103052795Y-74027562D01*
X102817139Y-74083704D01*
X102593819Y-74177579D01*
X102388831Y-74306667D01*
X102207671Y-74467508D01*
X102103947Y-74595597D01*
X102045533Y-74635949D01*
X101974576Y-74638315D01*
X101906199Y-74593182D01*
X101829757Y-74493921D01*
X101829756Y-74493919D01*
X101652584Y-74328704D01*
X101652580Y-74328701D01*
X101605473Y-74297403D01*
X101559802Y-74243046D01*
X101549200Y-74192455D01*
X101549200Y-73157079D01*
X101569202Y-73088958D01*
X101642589Y-73035372D01*
X101868920Y-72974727D01*
X102006154Y-72859574D01*
X102095729Y-72704426D01*
X102095728Y-72704426D01*
X102126837Y-72527999D01*
X102126837Y-71259567D01*
X102748800Y-71259567D01*
X102748800Y-71488433D01*
X102788545Y-71713833D01*
X102866820Y-71928892D01*
X102866824Y-71928901D01*
X102981255Y-72127101D01*
X102981257Y-72127104D01*
X103128372Y-72302428D01*
X103303696Y-72449543D01*
X103303699Y-72449545D01*
X103501899Y-72563976D01*
X103501908Y-72563980D01*
X103716967Y-72642255D01*
X103942367Y-72682000D01*
X104171233Y-72682000D01*
X104396633Y-72642255D01*
X104611692Y-72563980D01*
X104611701Y-72563976D01*
X104809901Y-72449545D01*
X104809904Y-72449543D01*
X104985228Y-72302428D01*
X105132343Y-72127104D01*
X105132345Y-72127101D01*
X105246776Y-71928901D01*
X105246780Y-71928892D01*
X105325055Y-71713833D01*
X105364800Y-71488433D01*
X105364800Y-71259567D01*
X105325055Y-71034167D01*
X105246780Y-70819108D01*
X105246776Y-70819099D01*
X105132345Y-70620899D01*
X105132343Y-70620896D01*
X104985228Y-70445572D01*
X104809904Y-70298457D01*
X104809901Y-70298455D01*
X104611701Y-70184024D01*
X104611692Y-70184020D01*
X104396633Y-70105745D01*
X104171233Y-70066000D01*
X103942367Y-70066000D01*
X103716967Y-70105745D01*
X103501908Y-70184020D01*
X103501899Y-70184024D01*
X103303699Y-70298455D01*
X103303696Y-70298457D01*
X103128372Y-70445572D01*
X102981257Y-70620896D01*
X102981255Y-70620899D01*
X102866824Y-70819099D01*
X102866820Y-70819108D01*
X102788545Y-71034167D01*
X102748800Y-71259567D01*
X102126837Y-71259567D01*
X102126837Y-70728002D01*
X102057727Y-70470081D01*
X101985070Y-70383491D01*
X101956606Y-70318450D01*
X101967823Y-70248345D01*
X102038498Y-70184099D01*
X102129489Y-70150981D01*
X102129501Y-70150976D01*
X102327701Y-70036545D01*
X102327704Y-70036543D01*
X102503028Y-69889428D01*
X102650143Y-69714104D01*
X102650145Y-69714101D01*
X102764576Y-69515901D01*
X102764580Y-69515892D01*
X102842856Y-69300833D01*
X102853491Y-69240517D01*
X102885019Y-69176905D01*
X102945933Y-69140435D01*
X103016894Y-69142688D01*
X103074098Y-69181405D01*
X103135372Y-69254428D01*
X103310696Y-69401543D01*
X103310699Y-69401545D01*
X103508899Y-69515976D01*
X103508908Y-69515980D01*
X103723967Y-69594255D01*
X103949367Y-69634000D01*
X104178233Y-69634000D01*
X104403633Y-69594255D01*
X104618692Y-69515980D01*
X104618701Y-69515976D01*
X104816901Y-69401545D01*
X104816904Y-69401543D01*
X104992228Y-69254428D01*
X105139343Y-69079104D01*
X105139345Y-69079101D01*
X105253776Y-68880901D01*
X105253780Y-68880892D01*
X105332055Y-68665833D01*
X105371800Y-68440433D01*
X105371800Y-68211567D01*
X105332055Y-67986167D01*
X105253780Y-67771108D01*
X105253776Y-67771099D01*
X105139345Y-67572899D01*
X105139343Y-67572896D01*
X104992228Y-67397572D01*
X104816904Y-67250457D01*
X104816901Y-67250455D01*
X104618701Y-67136024D01*
X104618692Y-67136020D01*
X104403633Y-67057745D01*
X104178233Y-67018000D01*
X103949367Y-67018000D01*
X103723967Y-67057745D01*
X103508908Y-67136020D01*
X103508899Y-67136024D01*
X103310699Y-67250455D01*
X103310696Y-67250457D01*
X103135372Y-67397572D01*
X102988257Y-67572896D01*
X102988255Y-67572899D01*
X102873824Y-67771099D01*
X102873820Y-67771108D01*
X102795544Y-67986167D01*
X102784909Y-68046483D01*
X102753381Y-68110095D01*
X102692467Y-68146565D01*
X102621506Y-68144312D01*
X102564302Y-68105595D01*
X102503028Y-68032572D01*
X102327704Y-67885457D01*
X102327701Y-67885455D01*
X102129501Y-67771024D01*
X102129492Y-67771020D01*
X101914434Y-67692745D01*
X101828600Y-67677609D01*
X101828600Y-69089000D01*
X101808598Y-69157121D01*
X101754942Y-69203614D01*
X101702600Y-69215000D01*
X100291209Y-69215000D01*
X100306345Y-69300834D01*
X100384620Y-69515892D01*
X100384624Y-69515901D01*
X100499055Y-69714101D01*
X100499057Y-69714104D01*
X100646174Y-69889431D01*
X100765601Y-69989642D01*
X100804928Y-70048751D01*
X100806054Y-70119739D01*
X100768623Y-70180066D01*
X100684610Y-70212163D01*
X99811002Y-70212163D01*
X99553081Y-70281273D01*
X99415846Y-70396426D01*
X99320760Y-70561120D01*
X99317452Y-70559210D01*
X99287293Y-70600161D01*
X99220969Y-70625491D01*
X99127508Y-70594255D01*
X99014508Y-70494282D01*
X98929104Y-70441329D01*
X98881749Y-70388432D01*
X98869500Y-70334242D01*
X98869500Y-69658117D01*
X98906405Y-69569022D01*
X100163169Y-68312258D01*
X100225481Y-68278232D01*
X100296296Y-68283297D01*
X100353132Y-68325844D01*
X100377943Y-68392364D01*
X100370665Y-68444448D01*
X100306345Y-68621166D01*
X100291209Y-68707000D01*
X101320600Y-68707000D01*
X101320600Y-67677609D01*
X101234766Y-67692745D01*
X101058049Y-67757065D01*
X100987195Y-67761568D01*
X100925155Y-67727050D01*
X100891625Y-67664470D01*
X100897251Y-67593697D01*
X100925859Y-67549569D01*
X101238886Y-67236542D01*
X101301198Y-67202516D01*
X101349860Y-67201551D01*
X101460166Y-67221000D01*
X101689033Y-67221000D01*
X101914433Y-67181255D01*
X102129492Y-67102980D01*
X102129501Y-67102976D01*
X102327701Y-66988545D01*
X102327704Y-66988543D01*
X102503028Y-66841428D01*
X102650143Y-66666104D01*
X102650145Y-66666101D01*
X102764576Y-66467901D01*
X102764580Y-66467892D01*
X102842856Y-66252833D01*
X102854151Y-66188775D01*
X102885679Y-66125162D01*
X102946593Y-66088693D01*
X103017554Y-66090946D01*
X103074758Y-66129663D01*
X103139172Y-66206428D01*
X103314496Y-66353543D01*
X103314499Y-66353545D01*
X103512699Y-66467976D01*
X103512708Y-66467980D01*
X103727767Y-66546255D01*
X103953167Y-66586000D01*
X104182033Y-66586000D01*
X104407433Y-66546255D01*
X104622492Y-66467980D01*
X104622501Y-66467976D01*
X104820701Y-66353545D01*
X104820704Y-66353543D01*
X104996028Y-66206428D01*
X105143143Y-66031104D01*
X105143145Y-66031101D01*
X105257576Y-65832901D01*
X105257580Y-65832892D01*
X105335855Y-65617833D01*
X105375600Y-65392433D01*
X105375600Y-65163567D01*
X105335855Y-64938167D01*
X105257580Y-64723108D01*
X105257576Y-64723099D01*
X105143145Y-64524899D01*
X105143143Y-64524896D01*
X104996028Y-64349572D01*
X104820704Y-64202457D01*
X104820701Y-64202455D01*
X104622501Y-64088024D01*
X104622492Y-64088020D01*
X104407433Y-64009745D01*
X104182033Y-63970000D01*
X103953166Y-63970000D01*
X103842861Y-63989449D01*
X103772302Y-63981579D01*
X103731887Y-63954459D01*
X103404332Y-63626905D01*
X103386865Y-63605044D01*
X103382505Y-63598134D01*
X103325989Y-63548221D01*
X103320299Y-63542873D01*
X103303557Y-63526130D01*
X103303550Y-63526124D01*
X103290555Y-63516385D01*
X103282711Y-63509999D01*
X103232537Y-63465687D01*
X103218446Y-63459071D01*
X103196430Y-63445842D01*
X103183988Y-63436517D01*
X103183986Y-63436516D01*
X103121327Y-63413026D01*
X103112009Y-63409100D01*
X103051417Y-63380653D01*
X103037224Y-63378532D01*
X103011614Y-63371897D01*
X102996639Y-63366283D01*
X102996633Y-63366282D01*
X102955196Y-63363202D01*
X102888745Y-63338207D01*
X102846356Y-63281253D01*
X102843082Y-63210454D01*
X102841901Y-63210246D01*
X102842829Y-63204983D01*
X102842827Y-63204940D01*
X102842855Y-63204835D01*
X102882600Y-62979433D01*
X102882600Y-62750567D01*
X102842855Y-62525167D01*
X102764580Y-62310108D01*
X102764576Y-62310099D01*
X102650145Y-62111899D01*
X102650143Y-62111896D01*
X102503028Y-61936572D01*
X102327704Y-61789457D01*
X102327701Y-61789455D01*
X102129501Y-61675024D01*
X102129492Y-61675020D01*
X101914433Y-61596745D01*
X101689033Y-61557000D01*
X101460167Y-61557000D01*
X101234767Y-61596745D01*
X101019708Y-61675020D01*
X101019699Y-61675024D01*
X100821499Y-61789455D01*
X100821496Y-61789457D01*
X100646172Y-61936572D01*
X100499057Y-62111896D01*
X100499055Y-62111899D01*
X100415835Y-62256041D01*
X100364453Y-62305034D01*
X100294739Y-62318471D01*
X100217621Y-62282136D01*
X99715906Y-61780421D01*
X99679001Y-61691326D01*
X99679001Y-57774961D01*
X99699003Y-57706840D01*
X99752659Y-57660347D01*
X99822933Y-57650243D01*
X99894097Y-57685866D01*
G37*
%TD.AperFunction*%
%TA.AperFunction,Conductor*%
G36*
X98204681Y-54869368D02*
G01*
X98259785Y-54914135D01*
X98282002Y-54985585D01*
X98282001Y-61940478D01*
X98278894Y-61968285D01*
X98277092Y-61976248D01*
X98277092Y-61976251D01*
X98281759Y-62051475D01*
X98282001Y-62059277D01*
X98282001Y-62082988D01*
X98282002Y-62083002D01*
X98284306Y-62099084D01*
X98285338Y-62109152D01*
X98289481Y-62175945D01*
X98289481Y-62175946D01*
X98294765Y-62190582D01*
X98300978Y-62215504D01*
X98303183Y-62230900D01*
X98303183Y-62230901D01*
X98330884Y-62291828D01*
X98334696Y-62301192D01*
X98357420Y-62364135D01*
X98357423Y-62364141D01*
X98365961Y-62375680D01*
X98379372Y-62398470D01*
X98386000Y-62413045D01*
X98386000Y-62413046D01*
X98436834Y-62472041D01*
X98442670Y-62479346D01*
X98452603Y-62492770D01*
X98452610Y-62492779D01*
X98464419Y-62504588D01*
X98470778Y-62511436D01*
X98516603Y-62564619D01*
X98527751Y-62571845D01*
X98548313Y-62588482D01*
X100443928Y-64484098D01*
X100461395Y-64505958D01*
X100465755Y-64512868D01*
X100465757Y-64512871D01*
X100522261Y-64562773D01*
X100527952Y-64568121D01*
X100544700Y-64584870D01*
X100544705Y-64584874D01*
X100557715Y-64594625D01*
X100565556Y-64601009D01*
X100615724Y-64645316D01*
X100629809Y-64651929D01*
X100651820Y-64665154D01*
X100664270Y-64674484D01*
X100664274Y-64674486D01*
X100705086Y-64689786D01*
X100761851Y-64732427D01*
X100786551Y-64798989D01*
X100771344Y-64868338D01*
X100741849Y-64904289D01*
X100646172Y-64984572D01*
X100499057Y-65159896D01*
X100499055Y-65159899D01*
X100384624Y-65358099D01*
X100384620Y-65358108D01*
X100306345Y-65573167D01*
X100266600Y-65798567D01*
X100266600Y-66027434D01*
X100286049Y-66137740D01*
X100278179Y-66208299D01*
X100251058Y-66248714D01*
X97742404Y-68757369D01*
X97720544Y-68774836D01*
X97713634Y-68779196D01*
X97713631Y-68779198D01*
X97663729Y-68835702D01*
X97658381Y-68841393D01*
X97641629Y-68858144D01*
X97641623Y-68858151D01*
X97631878Y-68871154D01*
X97625492Y-68878998D01*
X97581187Y-68929164D01*
X97574574Y-68943250D01*
X97561342Y-68965271D01*
X97552015Y-68977715D01*
X97528521Y-69040384D01*
X97524594Y-69049702D01*
X97496155Y-69110277D01*
X97494032Y-69124479D01*
X97487398Y-69150080D01*
X97481782Y-69165061D01*
X97481781Y-69165068D01*
X97476009Y-69242722D01*
X97474972Y-69252005D01*
X97472501Y-69268541D01*
X97472501Y-69285259D01*
X97472155Y-69294597D01*
X97466953Y-69364597D01*
X97469725Y-69377582D01*
X97472501Y-69403886D01*
X97472501Y-70330659D01*
X97452499Y-70398780D01*
X97420740Y-70432466D01*
X97244861Y-70560719D01*
X97078276Y-70732023D01*
X96942934Y-70928945D01*
X96842708Y-71145855D01*
X96842707Y-71145857D01*
X96780462Y-71376550D01*
X96757975Y-71614437D01*
X96775890Y-71852702D01*
X96775892Y-71852715D01*
X96833696Y-72084552D01*
X96833697Y-72084555D01*
X96929739Y-72303348D01*
X97061278Y-72502836D01*
X97224540Y-72677303D01*
X97224544Y-72677307D01*
X97414868Y-72821770D01*
X97414870Y-72821772D01*
X97626817Y-72932105D01*
X97854321Y-73005148D01*
X98090888Y-73038817D01*
X98329746Y-73032146D01*
X98329742Y-73032146D01*
X98564047Y-72985327D01*
X98564056Y-72985325D01*
X98787127Y-72899696D01*
X98787139Y-72899690D01*
X98992583Y-72777706D01*
X99141675Y-72650819D01*
X99206515Y-72621901D01*
X99276697Y-72632629D01*
X99329937Y-72679597D01*
X99345045Y-72714161D01*
X99364273Y-72785920D01*
X99479426Y-72923154D01*
X99634574Y-73012729D01*
X99816417Y-73044792D01*
X99816104Y-73046568D01*
X99874702Y-73069489D01*
X99916341Y-73126993D01*
X99923601Y-73169146D01*
X99923600Y-74190027D01*
X99903598Y-74258148D01*
X99864742Y-74296647D01*
X99848836Y-74306664D01*
X99848832Y-74306667D01*
X99667671Y-74467508D01*
X99563947Y-74595597D01*
X99505533Y-74635949D01*
X99434576Y-74638315D01*
X99366199Y-74593182D01*
X99289757Y-74493921D01*
X99289756Y-74493919D01*
X99112584Y-74328704D01*
X98910810Y-74194645D01*
X98910808Y-74194644D01*
X98689852Y-74095343D01*
X98689854Y-74095343D01*
X98455639Y-74033461D01*
X98450400Y-74032965D01*
X98450400Y-75616800D01*
X98430398Y-75684921D01*
X98376742Y-75731414D01*
X98324400Y-75742800D01*
X98068400Y-75742800D01*
X98000279Y-75722798D01*
X97953786Y-75669142D01*
X97942400Y-75616800D01*
X97942400Y-74034803D01*
X97737139Y-74083704D01*
X97513819Y-74177579D01*
X97308831Y-74306667D01*
X97308825Y-74306672D01*
X97275977Y-74335835D01*
X97211756Y-74366104D01*
X97141365Y-74356848D01*
X97087153Y-74311005D01*
X97070616Y-74274223D01*
X97068327Y-74265681D01*
X96953174Y-74128446D01*
X96798026Y-74038871D01*
X96621599Y-74007763D01*
X94691202Y-74007763D01*
X94433281Y-74076873D01*
X94296046Y-74192026D01*
X94206471Y-74347174D01*
X94175363Y-74523601D01*
X94175363Y-74540892D01*
X94155361Y-74609013D01*
X94101705Y-74655506D01*
X94031431Y-74665610D01*
X93949535Y-74617770D01*
X93854162Y-74493926D01*
X93854156Y-74493919D01*
X93676984Y-74328704D01*
X93475210Y-74194645D01*
X93475208Y-74194644D01*
X93254252Y-74095343D01*
X93254254Y-74095343D01*
X93020039Y-74033461D01*
X93014800Y-74032965D01*
X93014800Y-75616800D01*
X92994798Y-75684921D01*
X92941142Y-75731414D01*
X92888800Y-75742800D01*
X92632800Y-75742800D01*
X92564679Y-75722798D01*
X92518186Y-75669142D01*
X92506800Y-75616800D01*
X92506800Y-74034803D01*
X92301539Y-74083704D01*
X92078219Y-74177579D01*
X91873231Y-74306667D01*
X91873225Y-74306672D01*
X91840377Y-74335835D01*
X91776156Y-74366104D01*
X91705765Y-74356848D01*
X91651553Y-74311005D01*
X91635016Y-74274223D01*
X91632727Y-74265681D01*
X91517574Y-74128446D01*
X91362426Y-74038871D01*
X91185999Y-74007763D01*
X89255602Y-74007763D01*
X89190835Y-74025117D01*
X89119858Y-74023427D01*
X89061063Y-73983633D01*
X89032224Y-73903410D01*
X89032224Y-72661757D01*
X89052226Y-72593636D01*
X89105882Y-72547143D01*
X89176156Y-72537039D01*
X89239215Y-72565235D01*
X89335104Y-72645695D01*
X89335109Y-72645698D01*
X89545753Y-72771266D01*
X89545763Y-72771271D01*
X89773774Y-72861548D01*
X90013297Y-72914210D01*
X90258159Y-72927901D01*
X90502054Y-72902266D01*
X90738718Y-72837965D01*
X90962049Y-72736659D01*
X91166321Y-72600940D01*
X91346252Y-72434324D01*
X91346261Y-72434314D01*
X91497248Y-72241057D01*
X91615394Y-72026152D01*
X91697656Y-71795132D01*
X91697658Y-71795127D01*
X91741930Y-71553907D01*
X91744832Y-71276786D01*
X91744832Y-71276778D01*
X91705624Y-71034697D01*
X91705621Y-71034685D01*
X91628214Y-70801995D01*
X91514590Y-70584650D01*
X91367692Y-70388287D01*
X91367691Y-70388287D01*
X91191920Y-70218546D01*
X91156813Y-70156837D01*
X91160641Y-70085943D01*
X91193838Y-70035459D01*
X91346252Y-69894324D01*
X91346261Y-69894314D01*
X91497248Y-69701057D01*
X91615394Y-69486152D01*
X91697656Y-69255132D01*
X91697658Y-69255127D01*
X91741930Y-69013907D01*
X91744832Y-68736786D01*
X91744832Y-68736778D01*
X91705624Y-68494697D01*
X91705622Y-68494689D01*
X91697165Y-68469268D01*
X91694641Y-68398317D01*
X91727628Y-68340399D01*
X92229123Y-67838905D01*
X92318218Y-67802001D01*
X92954774Y-67802001D01*
X93022895Y-67822003D01*
X93069388Y-67875659D01*
X93079492Y-67945933D01*
X93035764Y-68024524D01*
X93026171Y-68032573D01*
X92879057Y-68207896D01*
X92879055Y-68207899D01*
X92764624Y-68406099D01*
X92764620Y-68406108D01*
X92686345Y-68621167D01*
X92646600Y-68846567D01*
X92646600Y-69075433D01*
X92686345Y-69300833D01*
X92764620Y-69515892D01*
X92764624Y-69515901D01*
X92879055Y-69714101D01*
X92879057Y-69714104D01*
X93026172Y-69889428D01*
X93201496Y-70036543D01*
X93201499Y-70036545D01*
X93399699Y-70150976D01*
X93399708Y-70150980D01*
X93614767Y-70229255D01*
X93840167Y-70269000D01*
X94069033Y-70269000D01*
X94294433Y-70229255D01*
X94509492Y-70150980D01*
X94509501Y-70150976D01*
X94707701Y-70036545D01*
X94707704Y-70036543D01*
X94883028Y-69889428D01*
X95030143Y-69714104D01*
X95030145Y-69714101D01*
X95144576Y-69515901D01*
X95144580Y-69515892D01*
X95222855Y-69300833D01*
X95262600Y-69075433D01*
X95262600Y-68846567D01*
X95222855Y-68621167D01*
X95144580Y-68406108D01*
X95144576Y-68406099D01*
X95030145Y-68207899D01*
X95030143Y-68207896D01*
X94883028Y-68032572D01*
X94788017Y-67952847D01*
X94748691Y-67893737D01*
X94747565Y-67822749D01*
X94784997Y-67762422D01*
X94826225Y-67737812D01*
X94857339Y-67726580D01*
X94868879Y-67718041D01*
X94891672Y-67704629D01*
X94906240Y-67698005D01*
X94906246Y-67698001D01*
X94965242Y-67647166D01*
X94972545Y-67641331D01*
X94985972Y-67631396D01*
X94985980Y-67631389D01*
X94997785Y-67619584D01*
X95004633Y-67613226D01*
X95057815Y-67567402D01*
X95057816Y-67567401D01*
X95065043Y-67556251D01*
X95081680Y-67535689D01*
X97028099Y-65589271D01*
X97049956Y-65571806D01*
X97056863Y-65567448D01*
X97056868Y-65567443D01*
X97106766Y-65510945D01*
X97112114Y-65505255D01*
X97128871Y-65488499D01*
X97128878Y-65488491D01*
X97138623Y-65475487D01*
X97145012Y-65467639D01*
X97189312Y-65417480D01*
X97189313Y-65417479D01*
X97195925Y-65403395D01*
X97209154Y-65381378D01*
X97218484Y-65368929D01*
X97218485Y-65368927D01*
X97241971Y-65306276D01*
X97245898Y-65296955D01*
X97274347Y-65236362D01*
X97274347Y-65236361D01*
X97276469Y-65222162D01*
X97283102Y-65196559D01*
X97288717Y-65181580D01*
X97294487Y-65103936D01*
X97295526Y-65094646D01*
X97297998Y-65078110D01*
X97297999Y-65078094D01*
X97297999Y-65061371D01*
X97298345Y-65052033D01*
X97303546Y-64982047D01*
X97300775Y-64969067D01*
X97297999Y-64942762D01*
X97297999Y-54985585D01*
X97318001Y-54917464D01*
X97371657Y-54870971D01*
X97445879Y-54861499D01*
X97675567Y-54902000D01*
X97904433Y-54902000D01*
X98134122Y-54861499D01*
X98204681Y-54869368D01*
G37*
%TD.AperFunction*%
%TA.AperFunction,Conductor*%
G36*
X98354233Y-37871226D02*
G01*
X98400726Y-37924882D01*
X98410830Y-37995156D01*
X98362816Y-38077186D01*
X98279145Y-38141389D01*
X98279144Y-38141390D01*
X98095566Y-38331490D01*
X97942106Y-38546635D01*
X97822131Y-38782100D01*
X97738276Y-39032715D01*
X97692387Y-39292961D01*
X97685468Y-39557148D01*
X97717675Y-39819442D01*
X97717678Y-39819455D01*
X97788294Y-40074089D01*
X97788297Y-40074100D01*
X97895786Y-40315524D01*
X97895787Y-40315525D01*
X98037777Y-40538405D01*
X98211151Y-40737848D01*
X98412107Y-40909482D01*
X98636211Y-41049517D01*
X98692143Y-41073837D01*
X98746638Y-41119343D01*
X98767901Y-41189387D01*
X98767900Y-44723624D01*
X98730995Y-44812719D01*
X96806379Y-46737336D01*
X96744067Y-46771361D01*
X96673252Y-46766297D01*
X96608165Y-46711241D01*
X96538402Y-46590409D01*
X95449400Y-47679410D01*
X94719609Y-48409201D01*
X94719609Y-48409202D01*
X94894500Y-48510176D01*
X94894508Y-48510180D01*
X95109567Y-48588455D01*
X95334967Y-48628200D01*
X95563833Y-48628200D01*
X95753120Y-48594823D01*
X95823679Y-48602692D01*
X95878783Y-48647459D01*
X95901000Y-48718909D01*
X95900999Y-64688524D01*
X95864095Y-64777619D01*
X95311580Y-65330135D01*
X95249267Y-65364160D01*
X95178452Y-65359096D01*
X95113365Y-65304040D01*
X95030145Y-65159899D01*
X95030143Y-65159896D01*
X94883025Y-64984569D01*
X94800143Y-64915022D01*
X94756212Y-64834947D01*
X94746479Y-64761018D01*
X94673518Y-64584875D01*
X94664578Y-64563293D01*
X94664576Y-64563289D01*
X94564493Y-64432859D01*
X94534297Y-64393507D01*
X94498226Y-64365829D01*
X94485835Y-64354961D01*
X94412067Y-64281193D01*
X94378041Y-64218881D01*
X94383106Y-64148066D01*
X94425653Y-64091230D01*
X94458067Y-64073697D01*
X94509492Y-64054980D01*
X94509501Y-64054976D01*
X94707701Y-63940545D01*
X94707704Y-63940543D01*
X94883028Y-63793428D01*
X95030143Y-63618104D01*
X95030145Y-63618101D01*
X95144576Y-63419901D01*
X95144580Y-63419892D01*
X95222855Y-63204833D01*
X95262600Y-62979433D01*
X95262600Y-62750567D01*
X95222855Y-62525167D01*
X95144580Y-62310108D01*
X95144576Y-62310099D01*
X95030145Y-62111899D01*
X95030143Y-62111896D01*
X94883028Y-61936572D01*
X94707704Y-61789457D01*
X94707701Y-61789455D01*
X94509501Y-61675024D01*
X94509492Y-61675020D01*
X94294433Y-61596745D01*
X94069033Y-61557000D01*
X93840167Y-61557000D01*
X93614767Y-61596745D01*
X93399708Y-61675020D01*
X93399699Y-61675024D01*
X93201499Y-61789455D01*
X93201496Y-61789457D01*
X93026172Y-61936572D01*
X92879057Y-62111896D01*
X92879055Y-62111899D01*
X92764624Y-62310099D01*
X92764623Y-62310101D01*
X92745904Y-62361533D01*
X92703809Y-62418705D01*
X92637488Y-62444043D01*
X92567996Y-62429502D01*
X92538407Y-62407535D01*
X91755033Y-61624162D01*
X91721008Y-61561849D01*
X91720198Y-61512321D01*
X91741930Y-61393908D01*
X91744781Y-61121680D01*
X91781679Y-61033903D01*
X92272845Y-60542738D01*
X92285236Y-60531871D01*
X92321306Y-60504194D01*
X92354011Y-60461572D01*
X92451587Y-60334409D01*
X92451588Y-60334408D01*
X92511559Y-60189625D01*
X92556108Y-60134344D01*
X92623471Y-60111923D01*
X92692262Y-60129481D01*
X92746369Y-60194748D01*
X92764620Y-60244892D01*
X92764624Y-60244901D01*
X92879055Y-60443101D01*
X92879057Y-60443104D01*
X93026172Y-60618428D01*
X93201496Y-60765543D01*
X93201499Y-60765545D01*
X93399699Y-60879976D01*
X93399708Y-60879980D01*
X93614767Y-60958255D01*
X93840167Y-60998000D01*
X94069033Y-60998000D01*
X94294433Y-60958255D01*
X94509492Y-60879980D01*
X94509501Y-60879976D01*
X94707701Y-60765545D01*
X94707704Y-60765543D01*
X94883028Y-60618428D01*
X95030143Y-60443104D01*
X95030145Y-60443101D01*
X95144576Y-60244901D01*
X95144580Y-60244892D01*
X95222855Y-60029833D01*
X95262600Y-59804433D01*
X95262600Y-59575567D01*
X95222855Y-59350167D01*
X95144580Y-59135108D01*
X95144576Y-59135099D01*
X95030145Y-58936899D01*
X95030143Y-58936896D01*
X94883028Y-58761572D01*
X94707704Y-58614457D01*
X94707701Y-58614455D01*
X94509501Y-58500024D01*
X94509492Y-58500020D01*
X94294433Y-58421745D01*
X94069033Y-58382000D01*
X93840167Y-58382000D01*
X93614767Y-58421745D01*
X93399708Y-58500020D01*
X93399699Y-58500024D01*
X93201499Y-58614455D01*
X93201496Y-58614457D01*
X93026172Y-58761572D01*
X92879057Y-58936896D01*
X92879055Y-58936899D01*
X92789529Y-59091963D01*
X92738147Y-59140956D01*
X92668433Y-59154392D01*
X92602522Y-59128006D01*
X92561340Y-59070174D01*
X92554410Y-59028963D01*
X92554410Y-57259043D01*
X92574412Y-57190922D01*
X92628068Y-57144429D01*
X92698342Y-57134325D01*
X92762922Y-57163819D01*
X92789529Y-57196043D01*
X92904455Y-57395101D01*
X92904457Y-57395104D01*
X93051572Y-57570428D01*
X93226896Y-57717543D01*
X93226899Y-57717545D01*
X93425099Y-57831976D01*
X93425108Y-57831980D01*
X93640166Y-57910255D01*
X93726000Y-57925391D01*
X93726000Y-57925390D01*
X94233999Y-57925390D01*
X94319833Y-57910255D01*
X94319834Y-57910255D01*
X94534892Y-57831980D01*
X94534901Y-57831976D01*
X94733101Y-57717545D01*
X94733104Y-57717543D01*
X94908428Y-57570428D01*
X95055543Y-57395104D01*
X95055545Y-57395101D01*
X95169976Y-57196901D01*
X95169980Y-57196892D01*
X95248255Y-56981834D01*
X95263391Y-56896000D01*
X94234000Y-56895999D01*
X94233999Y-57925390D01*
X93726000Y-57925390D01*
X93726001Y-56843809D01*
X93726000Y-56843807D01*
X93726000Y-56388000D01*
X94233999Y-56388000D01*
X95263390Y-56388001D01*
X95248255Y-56302167D01*
X95248255Y-56302166D01*
X95169980Y-56087108D01*
X95169976Y-56087099D01*
X95055545Y-55888899D01*
X95055543Y-55888896D01*
X94908428Y-55713572D01*
X94733104Y-55566457D01*
X94733101Y-55566455D01*
X94534901Y-55452024D01*
X94534892Y-55452020D01*
X94319834Y-55373745D01*
X94234000Y-55358609D01*
X94233999Y-56388000D01*
X93726000Y-56388000D01*
X93726001Y-55358610D01*
X93640166Y-55373745D01*
X93425108Y-55452020D01*
X93425099Y-55452024D01*
X93226899Y-55566455D01*
X93226896Y-55566457D01*
X93051572Y-55713572D01*
X92904457Y-55888896D01*
X92904455Y-55888899D01*
X92789529Y-56087957D01*
X92738147Y-56136950D01*
X92668433Y-56150386D01*
X92602522Y-56124000D01*
X92561340Y-56066168D01*
X92554410Y-56024957D01*
X92554410Y-48673930D01*
X92555488Y-48657484D01*
X92561422Y-48612410D01*
X92561422Y-48612409D01*
X92554949Y-48563240D01*
X92554948Y-48563229D01*
X92533489Y-48400228D01*
X92462653Y-48229214D01*
X92451590Y-48202507D01*
X92451584Y-48202496D01*
X92351503Y-48072069D01*
X92321307Y-48032717D01*
X92285236Y-48005039D01*
X92272845Y-47994172D01*
X91794305Y-47515633D01*
X91757400Y-47426537D01*
X91757400Y-47205767D01*
X94141400Y-47205767D01*
X94141400Y-47434633D01*
X94181145Y-47660033D01*
X94259420Y-47875092D01*
X94259424Y-47875100D01*
X94360398Y-48049990D01*
X95090190Y-47320200D01*
X94360398Y-46590410D01*
X94259424Y-46765300D01*
X94259420Y-46765308D01*
X94181145Y-46980367D01*
X94141400Y-47205767D01*
X91757400Y-47205767D01*
X91717655Y-46980367D01*
X91639380Y-46765308D01*
X91639376Y-46765299D01*
X91524945Y-46567099D01*
X91524943Y-46567096D01*
X91377828Y-46391772D01*
X91307208Y-46332514D01*
X91267882Y-46273404D01*
X91262200Y-46235993D01*
X91262200Y-46231197D01*
X94719609Y-46231197D01*
X95449400Y-46960990D01*
X96179191Y-46231197D01*
X96004300Y-46130224D01*
X96004292Y-46130220D01*
X95789233Y-46051945D01*
X95563833Y-46012200D01*
X95334967Y-46012200D01*
X95109567Y-46051945D01*
X94894508Y-46130220D01*
X94894500Y-46130224D01*
X94719609Y-46231197D01*
X91262200Y-46231197D01*
X91262200Y-45194461D01*
X91299105Y-45105365D01*
X92252730Y-44151741D01*
X92341825Y-44114837D01*
X93255998Y-44114837D01*
X93513920Y-44045727D01*
X93554172Y-44011952D01*
X93619213Y-43983488D01*
X93689318Y-43994706D01*
X93742229Y-44042044D01*
X93761163Y-44108474D01*
X93761163Y-45168998D01*
X93830273Y-45426920D01*
X93945426Y-45564154D01*
X94100574Y-45653729D01*
X94277001Y-45684837D01*
X96476998Y-45684837D01*
X96734920Y-45615727D01*
X96872154Y-45500574D01*
X96961729Y-45345426D01*
X96961728Y-45345426D01*
X96992837Y-45168999D01*
X96992837Y-42969002D01*
X96923727Y-42711081D01*
X96808574Y-42573846D01*
X96653426Y-42484271D01*
X96476999Y-42453163D01*
X94962824Y-42453163D01*
X94873729Y-42416258D01*
X94725248Y-42267777D01*
X94714380Y-42255385D01*
X94686695Y-42219304D01*
X94516913Y-42089026D01*
X94516904Y-42089021D01*
X94319182Y-42007121D01*
X94156192Y-41985663D01*
X94156170Y-41985661D01*
X94107001Y-41979188D01*
X94107000Y-41979188D01*
X94061926Y-41985122D01*
X94045480Y-41986200D01*
X93865090Y-41986200D01*
X93796969Y-41966198D01*
X93743383Y-41892811D01*
X93702727Y-41741081D01*
X93587574Y-41603846D01*
X93432426Y-41514272D01*
X93394153Y-41507523D01*
X93330540Y-41475996D01*
X93294071Y-41415082D01*
X93296323Y-41344121D01*
X93336582Y-41285643D01*
X93416032Y-41257437D01*
X95656398Y-41257437D01*
X95914320Y-41188327D01*
X96051554Y-41073174D01*
X96141129Y-40918026D01*
X96141128Y-40918026D01*
X96172237Y-40741599D01*
X96172237Y-38201602D01*
X96120853Y-38009835D01*
X96122543Y-37938859D01*
X96162337Y-37880063D01*
X96242560Y-37851224D01*
X98286112Y-37851224D01*
X98354233Y-37871226D01*
G37*
%TD.AperFunction*%
%TA.AperFunction,Conductor*%
G36*
X108558981Y-37871226D02*
G01*
X108605474Y-37924882D01*
X108615578Y-37995156D01*
X108574514Y-38071447D01*
X108405277Y-38221702D01*
X108405271Y-38221708D01*
X108252827Y-38409961D01*
X108252823Y-38409968D01*
X108133162Y-38620608D01*
X108049516Y-38847950D01*
X108049515Y-38847954D01*
X108022609Y-38989000D01*
X109602000Y-38989001D01*
X109670121Y-39009003D01*
X109716614Y-39062659D01*
X109728000Y-39115001D01*
X109727999Y-39371000D01*
X109707997Y-39439121D01*
X109654341Y-39485614D01*
X109601999Y-39497000D01*
X108021942Y-39496999D01*
X108031919Y-39567993D01*
X108104359Y-39799147D01*
X108104360Y-39799149D01*
X108213588Y-40015385D01*
X108328663Y-40172613D01*
X108352755Y-40239397D01*
X108336916Y-40308604D01*
X108259599Y-40368736D01*
X108250882Y-40371072D01*
X108113646Y-40486226D01*
X108024071Y-40641374D01*
X107992963Y-40817801D01*
X107992963Y-40841889D01*
X107972961Y-40910010D01*
X107919305Y-40956503D01*
X107850516Y-40966811D01*
X107822998Y-40963188D01*
X107822997Y-40963188D01*
X107773827Y-40969661D01*
X107773819Y-40969662D01*
X107610818Y-40991121D01*
X107413092Y-41073022D01*
X107413091Y-41073023D01*
X107413085Y-41073027D01*
X107330035Y-41136754D01*
X107243306Y-41203303D01*
X107215618Y-41239387D01*
X107204751Y-41251777D01*
X105995533Y-42460995D01*
X105933221Y-42495021D01*
X105886727Y-42496349D01*
X105663549Y-42461000D01*
X105410451Y-42461000D01*
X105160453Y-42500597D01*
X104919746Y-42578807D01*
X104919740Y-42578809D01*
X104694221Y-42693717D01*
X104489455Y-42842488D01*
X104310488Y-43021455D01*
X104202837Y-43169624D01*
X104146615Y-43212978D01*
X104075878Y-43219053D01*
X104013087Y-43185921D01*
X103974901Y-43095563D01*
X103974901Y-41323480D01*
X103994903Y-41255359D01*
X104048559Y-41208866D01*
X104133512Y-41201773D01*
X104213831Y-41223294D01*
X104213834Y-41223295D01*
X104476397Y-41253209D01*
X104476405Y-41253210D01*
X104740505Y-41243988D01*
X104740508Y-41243988D01*
X105000351Y-41195828D01*
X105250211Y-41109795D01*
X105250232Y-41109786D01*
X105484629Y-40987767D01*
X105698429Y-40832432D01*
X105886917Y-40647206D01*
X105886918Y-40647204D01*
X106045958Y-40436152D01*
X106045960Y-40436148D01*
X106172059Y-40203905D01*
X106172059Y-40203904D01*
X106262442Y-39955577D01*
X106262443Y-39955572D01*
X106315130Y-39696612D01*
X106324482Y-39339469D01*
X106324482Y-39339465D01*
X106285421Y-39078100D01*
X106208156Y-38825380D01*
X106094385Y-38586854D01*
X105946608Y-38367766D01*
X105946601Y-38367756D01*
X105768076Y-38172930D01*
X105768072Y-38172926D01*
X105647322Y-38075145D01*
X105606970Y-38016730D01*
X105604604Y-37945773D01*
X105640977Y-37884801D01*
X105726616Y-37851224D01*
X108490860Y-37851224D01*
X108558981Y-37871226D01*
G37*
%TD.AperFunction*%
%TA.AperFunction,Conductor*%
G36*
X92583159Y-37871226D02*
G01*
X92629652Y-37924882D01*
X92633196Y-38014247D01*
X92633586Y-38014316D01*
X92633270Y-38016109D01*
X92633437Y-38020325D01*
X92631671Y-38025176D01*
X92600563Y-38201601D01*
X92600563Y-40741598D01*
X92669673Y-40999520D01*
X92784826Y-41136754D01*
X92939974Y-41226328D01*
X92978247Y-41233077D01*
X93041860Y-41264604D01*
X93078329Y-41325518D01*
X93076077Y-41396479D01*
X93035818Y-41454957D01*
X92956368Y-41483163D01*
X91656002Y-41483163D01*
X91398081Y-41552273D01*
X91260846Y-41667426D01*
X91171272Y-41822574D01*
X91146851Y-41961073D01*
X91115324Y-42024686D01*
X91054410Y-42061155D01*
X91052967Y-42061244D01*
X90045095Y-43069115D01*
X89982783Y-43103141D01*
X89911967Y-43098076D01*
X89866905Y-43069115D01*
X89685885Y-42888095D01*
X89651859Y-42825783D01*
X89656924Y-42754968D01*
X89685885Y-42709905D01*
X90685791Y-41709998D01*
X90510900Y-41609024D01*
X90510892Y-41609020D01*
X90295833Y-41530745D01*
X90070433Y-41491000D01*
X89841567Y-41491000D01*
X89616167Y-41530745D01*
X89401108Y-41609020D01*
X89401099Y-41609024D01*
X89221224Y-41712875D01*
X89152229Y-41729613D01*
X89085137Y-41706392D01*
X89041250Y-41650585D01*
X89032224Y-41603756D01*
X89032224Y-37977224D01*
X89052226Y-37909103D01*
X89105882Y-37862610D01*
X89158224Y-37851224D01*
X92515038Y-37851224D01*
X92583159Y-37871226D01*
G37*
%TD.AperFunction*%
%TD*%
M02*
