%TF.GenerationSoftware,KiCad,Pcbnew,(5.99.0-2889-g3ddee6503)*%
%TF.CreationDate,2020-08-20T10:41:50+03:00*%
%TF.ProjectId,leo-fuzz-box,6c656f2d-6675-47a7-9a2d-626f782e6b69,rev?*%
%TF.SameCoordinates,Original*%
%TF.FileFunction,Legend,Top*%
%TF.FilePolarity,Positive*%
%FSLAX46Y46*%
G04 Gerber Fmt 4.6, Leading zero omitted, Abs format (unit mm)*
G04 Created by KiCad (PCBNEW (5.99.0-2889-g3ddee6503)) date 2020-08-20 10:41:50*
%MOMM*%
%LPD*%
G01*
G04 APERTURE LIST*
%ADD10C,0.150000*%
%ADD11C,0.020320*%
%ADD12C,0.097536*%
%ADD13C,0.065024*%
%ADD14C,0.032512*%
%ADD15C,0.127000*%
%ADD16C,0.120000*%
%ADD17C,0.152400*%
%ADD18O,1.930400X1.930400*%
%ADD19R,1.930400X1.930400*%
%ADD20C,1.600000*%
%ADD21O,1.600000X1.600000*%
%ADD22R,2.540000X2.540000*%
%ADD23O,2.540000X2.540000*%
%ADD24R,1.600000X1.600000*%
%ADD25R,2.032000X2.032000*%
%ADD26O,2.032000X2.032000*%
%ADD27R,2.200000X2.200000*%
%ADD28O,2.200000X2.200000*%
%ADD29R,1.800000X1.800000*%
%ADD30C,1.800000*%
G04 APERTURE END LIST*
D10*
X92168657Y-59902628D02*
X92168657Y-59445485D01*
X92397228Y-59674057D02*
X91940085Y-59674057D01*
X92397228Y-59131200D02*
X92397228Y-59016914D01*
X92368657Y-58959771D01*
X92340085Y-58931200D01*
X92254371Y-58874057D01*
X92140085Y-58845485D01*
X91911514Y-58845485D01*
X91854371Y-58874057D01*
X91825800Y-58902628D01*
X91797228Y-58959771D01*
X91797228Y-59074057D01*
X91825800Y-59131200D01*
X91854371Y-59159771D01*
X91911514Y-59188342D01*
X92054371Y-59188342D01*
X92111514Y-59159771D01*
X92140085Y-59131200D01*
X92168657Y-59074057D01*
X92168657Y-58959771D01*
X92140085Y-58902628D01*
X92111514Y-58874057D01*
X92054371Y-58845485D01*
X91797228Y-58674057D02*
X92397228Y-58474057D01*
X91797228Y-58274057D01*
%TO.C,J1*%
X91071752Y-73945704D02*
X91071752Y-73145704D01*
X91452704Y-73945704D02*
X91452704Y-73145704D01*
X91909847Y-73945704D01*
X91909847Y-73145704D01*
D11*
X93580857Y-74062469D02*
X93615328Y-74073959D01*
X93672780Y-74073959D01*
X93695761Y-74062469D01*
X93707252Y-74050978D01*
X93718742Y-74027997D01*
X93718742Y-74005016D01*
X93707252Y-73982035D01*
X93695761Y-73970545D01*
X93672780Y-73959054D01*
X93626819Y-73947564D01*
X93603838Y-73936073D01*
X93592347Y-73924583D01*
X93580857Y-73901602D01*
X93580857Y-73878621D01*
X93592347Y-73855640D01*
X93603838Y-73844150D01*
X93626819Y-73832659D01*
X93684271Y-73832659D01*
X93718742Y-73844150D01*
X89262857Y-73832659D02*
X89400742Y-73832659D01*
X89331800Y-74073959D02*
X89331800Y-73832659D01*
D10*
%TO.C,R7*%
X93914933Y-50922180D02*
X93581600Y-50445990D01*
X93343504Y-50922180D02*
X93343504Y-49922180D01*
X93724457Y-49922180D01*
X93819695Y-49969800D01*
X93867314Y-50017419D01*
X93914933Y-50112657D01*
X93914933Y-50255514D01*
X93867314Y-50350752D01*
X93819695Y-50398371D01*
X93724457Y-50445990D01*
X93343504Y-50445990D01*
X94248266Y-49922180D02*
X94914933Y-49922180D01*
X94486361Y-50922180D01*
%TO.C,RV6*%
X98921961Y-44343580D02*
X98588628Y-43867390D01*
X98350533Y-44343580D02*
X98350533Y-43343580D01*
X98731485Y-43343580D01*
X98826723Y-43391200D01*
X98874342Y-43438819D01*
X98921961Y-43534057D01*
X98921961Y-43676914D01*
X98874342Y-43772152D01*
X98826723Y-43819771D01*
X98731485Y-43867390D01*
X98350533Y-43867390D01*
X99207676Y-43343580D02*
X99541009Y-44343580D01*
X99874342Y-43343580D01*
X100636247Y-43343580D02*
X100445771Y-43343580D01*
X100350533Y-43391200D01*
X100302914Y-43438819D01*
X100207676Y-43581676D01*
X100160057Y-43772152D01*
X100160057Y-44153104D01*
X100207676Y-44248342D01*
X100255295Y-44295961D01*
X100350533Y-44343580D01*
X100541009Y-44343580D01*
X100636247Y-44295961D01*
X100683866Y-44248342D01*
X100731485Y-44153104D01*
X100731485Y-43915009D01*
X100683866Y-43819771D01*
X100636247Y-43772152D01*
X100541009Y-43724533D01*
X100350533Y-43724533D01*
X100255295Y-43772152D01*
X100207676Y-43819771D01*
X100160057Y-43915009D01*
D12*
X96715217Y-40963910D02*
X96273982Y-40963910D01*
X96494600Y-40963910D02*
X96494600Y-40191750D01*
X96421060Y-40302059D01*
X96347521Y-40375598D01*
X96273982Y-40412367D01*
D10*
%TO.C,R9*%
X97597933Y-69413380D02*
X97264600Y-68937190D01*
X97026504Y-69413380D02*
X97026504Y-68413380D01*
X97407457Y-68413380D01*
X97502695Y-68461000D01*
X97550314Y-68508619D01*
X97597933Y-68603857D01*
X97597933Y-68746714D01*
X97550314Y-68841952D01*
X97502695Y-68889571D01*
X97407457Y-68937190D01*
X97026504Y-68937190D01*
X98074123Y-69413380D02*
X98264600Y-69413380D01*
X98359838Y-69365761D01*
X98407457Y-69318142D01*
X98502695Y-69175285D01*
X98550314Y-68984809D01*
X98550314Y-68603857D01*
X98502695Y-68508619D01*
X98455076Y-68461000D01*
X98359838Y-68413380D01*
X98169361Y-68413380D01*
X98074123Y-68461000D01*
X98026504Y-68508619D01*
X97978885Y-68603857D01*
X97978885Y-68841952D01*
X98026504Y-68937190D01*
X98074123Y-68984809D01*
X98169361Y-69032428D01*
X98359838Y-69032428D01*
X98455076Y-68984809D01*
X98502695Y-68937190D01*
X98550314Y-68841952D01*
%TO.C,C1*%
X92579533Y-72366142D02*
X92531914Y-72413761D01*
X92389057Y-72461380D01*
X92293819Y-72461380D01*
X92150961Y-72413761D01*
X92055723Y-72318523D01*
X92008104Y-72223285D01*
X91960485Y-72032809D01*
X91960485Y-71889952D01*
X92008104Y-71699476D01*
X92055723Y-71604238D01*
X92150961Y-71509000D01*
X92293819Y-71461380D01*
X92389057Y-71461380D01*
X92531914Y-71509000D01*
X92579533Y-71556619D01*
X93531914Y-72461380D02*
X92960485Y-72461380D01*
X93246200Y-72461380D02*
X93246200Y-71461380D01*
X93150961Y-71604238D01*
X93055723Y-71699476D01*
X92960485Y-71747095D01*
%TO.C,J4*%
X92525800Y-43307076D02*
X92563895Y-43230885D01*
X92563895Y-43116600D01*
X92525800Y-43002314D01*
X92449609Y-42926123D01*
X92373419Y-42888028D01*
X92221038Y-42849933D01*
X92106752Y-42849933D01*
X91954371Y-42888028D01*
X91878180Y-42926123D01*
X91801990Y-43002314D01*
X91763895Y-43116600D01*
X91763895Y-43192790D01*
X91801990Y-43307076D01*
X91840085Y-43345171D01*
X92106752Y-43345171D01*
X92106752Y-43192790D01*
X91763895Y-43688028D02*
X92563895Y-43688028D01*
X91763895Y-44145171D01*
X92563895Y-44145171D01*
X91763895Y-44526123D02*
X92563895Y-44526123D01*
X92563895Y-44716600D01*
X92525800Y-44830885D01*
X92449609Y-44907076D01*
X92373419Y-44945171D01*
X92221038Y-44983266D01*
X92106752Y-44983266D01*
X91954371Y-44945171D01*
X91878180Y-44907076D01*
X91801990Y-44830885D01*
X91763895Y-44716600D01*
X91763895Y-44526123D01*
X92563895Y-40614695D02*
X91763895Y-40881361D01*
X92563895Y-41148028D01*
X92068657Y-41414695D02*
X92068657Y-42024219D01*
X91763895Y-41719457D02*
X92373419Y-41719457D01*
%TO.C,J2*%
X97586876Y-73183800D02*
X97510685Y-73145704D01*
X97396400Y-73145704D01*
X97282114Y-73183800D01*
X97205923Y-73259990D01*
X97167828Y-73336180D01*
X97129733Y-73488561D01*
X97129733Y-73602847D01*
X97167828Y-73755228D01*
X97205923Y-73831419D01*
X97282114Y-73907609D01*
X97396400Y-73945704D01*
X97472590Y-73945704D01*
X97586876Y-73907609D01*
X97624971Y-73869514D01*
X97624971Y-73602847D01*
X97472590Y-73602847D01*
X97967828Y-73945704D02*
X97967828Y-73145704D01*
X98424971Y-73945704D01*
X98424971Y-73145704D01*
X98805923Y-73945704D02*
X98805923Y-73145704D01*
X98996400Y-73145704D01*
X99110685Y-73183800D01*
X99186876Y-73259990D01*
X99224971Y-73336180D01*
X99263066Y-73488561D01*
X99263066Y-73602847D01*
X99224971Y-73755228D01*
X99186876Y-73831419D01*
X99110685Y-73907609D01*
X98996400Y-73945704D01*
X98805923Y-73945704D01*
X95237352Y-73945704D02*
X95237352Y-73145704D01*
X95618304Y-73945704D02*
X95618304Y-73145704D01*
X96075447Y-73945704D01*
X96075447Y-73145704D01*
X102476400Y-73145704D02*
X102628780Y-73145704D01*
X102704971Y-73183800D01*
X102781161Y-73259990D01*
X102819257Y-73412371D01*
X102819257Y-73679038D01*
X102781161Y-73831419D01*
X102704971Y-73907609D01*
X102628780Y-73945704D01*
X102476400Y-73945704D01*
X102400209Y-73907609D01*
X102324019Y-73831419D01*
X102285923Y-73679038D01*
X102285923Y-73412371D01*
X102324019Y-73259990D01*
X102400209Y-73183800D01*
X102476400Y-73145704D01*
X103162114Y-73145704D02*
X103162114Y-73793323D01*
X103200209Y-73869514D01*
X103238304Y-73907609D01*
X103314495Y-73945704D01*
X103466876Y-73945704D01*
X103543066Y-73907609D01*
X103581161Y-73869514D01*
X103619257Y-73793323D01*
X103619257Y-73145704D01*
X103885923Y-73145704D02*
X104343066Y-73145704D01*
X104114495Y-73945704D02*
X104114495Y-73145704D01*
X100050685Y-73907609D02*
X100164971Y-73945704D01*
X100355447Y-73945704D01*
X100431638Y-73907609D01*
X100469733Y-73869514D01*
X100507828Y-73793323D01*
X100507828Y-73717133D01*
X100469733Y-73640942D01*
X100431638Y-73602847D01*
X100355447Y-73564752D01*
X100203066Y-73526657D01*
X100126876Y-73488561D01*
X100088780Y-73450466D01*
X100050685Y-73374276D01*
X100050685Y-73298085D01*
X100088780Y-73221895D01*
X100126876Y-73183800D01*
X100203066Y-73145704D01*
X100393542Y-73145704D01*
X100507828Y-73183800D01*
X100774495Y-73145704D02*
X100964971Y-73945704D01*
X101117352Y-73374276D01*
X101269733Y-73945704D01*
X101460209Y-73145704D01*
%TO.C,C4*%
X109627942Y-45084666D02*
X109675561Y-45132285D01*
X109723180Y-45275142D01*
X109723180Y-45370380D01*
X109675561Y-45513238D01*
X109580323Y-45608476D01*
X109485085Y-45656095D01*
X109294609Y-45703714D01*
X109151752Y-45703714D01*
X108961276Y-45656095D01*
X108866038Y-45608476D01*
X108770800Y-45513238D01*
X108723180Y-45370380D01*
X108723180Y-45275142D01*
X108770800Y-45132285D01*
X108818419Y-45084666D01*
X109056514Y-44227523D02*
X109723180Y-44227523D01*
X108675561Y-44465619D02*
X109389847Y-44703714D01*
X109389847Y-44084666D01*
%TO.C,C3*%
X106386333Y-68657742D02*
X106338714Y-68705361D01*
X106195857Y-68752980D01*
X106100619Y-68752980D01*
X105957761Y-68705361D01*
X105862523Y-68610123D01*
X105814904Y-68514885D01*
X105767285Y-68324409D01*
X105767285Y-68181552D01*
X105814904Y-67991076D01*
X105862523Y-67895838D01*
X105957761Y-67800600D01*
X106100619Y-67752980D01*
X106195857Y-67752980D01*
X106338714Y-67800600D01*
X106386333Y-67848219D01*
X106719666Y-67752980D02*
X107338714Y-67752980D01*
X107005380Y-68133933D01*
X107148238Y-68133933D01*
X107243476Y-68181552D01*
X107291095Y-68229171D01*
X107338714Y-68324409D01*
X107338714Y-68562504D01*
X107291095Y-68657742D01*
X107243476Y-68705361D01*
X107148238Y-68752980D01*
X106862523Y-68752980D01*
X106767285Y-68705361D01*
X106719666Y-68657742D01*
%TO.C,C5*%
X100925333Y-45619942D02*
X100877714Y-45667561D01*
X100734857Y-45715180D01*
X100639619Y-45715180D01*
X100496761Y-45667561D01*
X100401523Y-45572323D01*
X100353904Y-45477085D01*
X100306285Y-45286609D01*
X100306285Y-45143752D01*
X100353904Y-44953276D01*
X100401523Y-44858038D01*
X100496761Y-44762800D01*
X100639619Y-44715180D01*
X100734857Y-44715180D01*
X100877714Y-44762800D01*
X100925333Y-44810419D01*
X101830095Y-44715180D02*
X101353904Y-44715180D01*
X101306285Y-45191371D01*
X101353904Y-45143752D01*
X101449142Y-45096133D01*
X101687238Y-45096133D01*
X101782476Y-45143752D01*
X101830095Y-45191371D01*
X101877714Y-45286609D01*
X101877714Y-45524704D01*
X101830095Y-45619942D01*
X101782476Y-45667561D01*
X101687238Y-45715180D01*
X101449142Y-45715180D01*
X101353904Y-45667561D01*
X101306285Y-45619942D01*
%TO.C,Q1*%
X109257061Y-60915419D02*
X109161823Y-60867800D01*
X109066585Y-60772561D01*
X108923728Y-60629704D01*
X108828490Y-60582085D01*
X108733252Y-60582085D01*
X108780871Y-60820180D02*
X108685633Y-60772561D01*
X108590395Y-60677323D01*
X108542776Y-60486847D01*
X108542776Y-60153514D01*
X108590395Y-59963038D01*
X108685633Y-59867800D01*
X108780871Y-59820180D01*
X108971347Y-59820180D01*
X109066585Y-59867800D01*
X109161823Y-59963038D01*
X109209442Y-60153514D01*
X109209442Y-60486847D01*
X109161823Y-60677323D01*
X109066585Y-60772561D01*
X108971347Y-60820180D01*
X108780871Y-60820180D01*
X110161823Y-60820180D02*
X109590395Y-60820180D01*
X109876109Y-60820180D02*
X109876109Y-59820180D01*
X109780871Y-59963038D01*
X109685633Y-60058276D01*
X109590395Y-60105895D01*
%TO.C,J3*%
X106692800Y-73145704D02*
X106845180Y-73145704D01*
X106921371Y-73183800D01*
X106997561Y-73259990D01*
X107035657Y-73412371D01*
X107035657Y-73679038D01*
X106997561Y-73831419D01*
X106921371Y-73907609D01*
X106845180Y-73945704D01*
X106692800Y-73945704D01*
X106616609Y-73907609D01*
X106540419Y-73831419D01*
X106502323Y-73679038D01*
X106502323Y-73412371D01*
X106540419Y-73259990D01*
X106616609Y-73183800D01*
X106692800Y-73145704D01*
X107378514Y-73145704D02*
X107378514Y-73793323D01*
X107416609Y-73869514D01*
X107454704Y-73907609D01*
X107530895Y-73945704D01*
X107683276Y-73945704D01*
X107759466Y-73907609D01*
X107797561Y-73869514D01*
X107835657Y-73793323D01*
X107835657Y-73145704D01*
X108102323Y-73145704D02*
X108559466Y-73145704D01*
X108330895Y-73945704D02*
X108330895Y-73145704D01*
D11*
X105264857Y-73832659D02*
X105402742Y-73832659D01*
X105333800Y-74073959D02*
X105333800Y-73832659D01*
X109582857Y-74062469D02*
X109617328Y-74073959D01*
X109674780Y-74073959D01*
X109697761Y-74062469D01*
X109709252Y-74050978D01*
X109720742Y-74027997D01*
X109720742Y-74005016D01*
X109709252Y-73982035D01*
X109697761Y-73970545D01*
X109674780Y-73959054D01*
X109628819Y-73947564D01*
X109605838Y-73936073D01*
X109594347Y-73924583D01*
X109582857Y-73901602D01*
X109582857Y-73878621D01*
X109594347Y-73855640D01*
X109605838Y-73844150D01*
X109628819Y-73832659D01*
X109686271Y-73832659D01*
X109720742Y-73844150D01*
D10*
%TO.C,R5*%
X104862333Y-50972980D02*
X104529000Y-50496790D01*
X104290904Y-50972980D02*
X104290904Y-49972980D01*
X104671857Y-49972980D01*
X104767095Y-50020600D01*
X104814714Y-50068219D01*
X104862333Y-50163457D01*
X104862333Y-50306314D01*
X104814714Y-50401552D01*
X104767095Y-50449171D01*
X104671857Y-50496790D01*
X104290904Y-50496790D01*
X105767095Y-49972980D02*
X105290904Y-49972980D01*
X105243285Y-50449171D01*
X105290904Y-50401552D01*
X105386142Y-50353933D01*
X105624238Y-50353933D01*
X105719476Y-50401552D01*
X105767095Y-50449171D01*
X105814714Y-50544409D01*
X105814714Y-50782504D01*
X105767095Y-50877742D01*
X105719476Y-50925361D01*
X105624238Y-50972980D01*
X105386142Y-50972980D01*
X105290904Y-50925361D01*
X105243285Y-50877742D01*
%TO.C,R2*%
X97623333Y-57094380D02*
X97290000Y-56618190D01*
X97051904Y-57094380D02*
X97051904Y-56094380D01*
X97432857Y-56094380D01*
X97528095Y-56142000D01*
X97575714Y-56189619D01*
X97623333Y-56284857D01*
X97623333Y-56427714D01*
X97575714Y-56522952D01*
X97528095Y-56570571D01*
X97432857Y-56618190D01*
X97051904Y-56618190D01*
X98004285Y-56189619D02*
X98051904Y-56142000D01*
X98147142Y-56094380D01*
X98385238Y-56094380D01*
X98480476Y-56142000D01*
X98528095Y-56189619D01*
X98575714Y-56284857D01*
X98575714Y-56380095D01*
X98528095Y-56522952D01*
X97956666Y-57094380D01*
X98575714Y-57094380D01*
%TO.C,Q2*%
X109206261Y-66909819D02*
X109111023Y-66862200D01*
X109015785Y-66766961D01*
X108872928Y-66624104D01*
X108777690Y-66576485D01*
X108682452Y-66576485D01*
X108730071Y-66814580D02*
X108634833Y-66766961D01*
X108539595Y-66671723D01*
X108491976Y-66481247D01*
X108491976Y-66147914D01*
X108539595Y-65957438D01*
X108634833Y-65862200D01*
X108730071Y-65814580D01*
X108920547Y-65814580D01*
X109015785Y-65862200D01*
X109111023Y-65957438D01*
X109158642Y-66147914D01*
X109158642Y-66481247D01*
X109111023Y-66671723D01*
X109015785Y-66766961D01*
X108920547Y-66814580D01*
X108730071Y-66814580D01*
X109539595Y-65909819D02*
X109587214Y-65862200D01*
X109682452Y-65814580D01*
X109920547Y-65814580D01*
X110015785Y-65862200D01*
X110063404Y-65909819D01*
X110111023Y-66005057D01*
X110111023Y-66100295D01*
X110063404Y-66243152D01*
X109491976Y-66814580D01*
X110111023Y-66814580D01*
D13*
%TO.C,SW1*%
X92412940Y-63843746D02*
X92449710Y-63733438D01*
X92449710Y-63549590D01*
X92412940Y-63476051D01*
X92376171Y-63439281D01*
X92302632Y-63402512D01*
X92229093Y-63402512D01*
X92155554Y-63439281D01*
X92118784Y-63476051D01*
X92082015Y-63549590D01*
X92045245Y-63696668D01*
X92008476Y-63770207D01*
X91971706Y-63806977D01*
X91898167Y-63843746D01*
X91824628Y-63843746D01*
X91751089Y-63806977D01*
X91714320Y-63770207D01*
X91677550Y-63696668D01*
X91677550Y-63512820D01*
X91714320Y-63402512D01*
X91677550Y-63145125D02*
X92449710Y-62961278D01*
X91898167Y-62814200D01*
X92449710Y-62667121D01*
X91677550Y-62483274D01*
X92449710Y-61784653D02*
X92449710Y-62225887D01*
X92449710Y-62005270D02*
X91677550Y-62005270D01*
X91787859Y-62078809D01*
X91861398Y-62152348D01*
X91898167Y-62225887D01*
D14*
X92021055Y-55464891D02*
X92021055Y-55685508D01*
X92021055Y-55575200D02*
X91634975Y-55575200D01*
X91690129Y-55611969D01*
X91726899Y-55648739D01*
X91745283Y-55685508D01*
X91634975Y-69979660D02*
X91634975Y-70053200D01*
X91653360Y-70089969D01*
X91671744Y-70108354D01*
X91726899Y-70145123D01*
X91800438Y-70163508D01*
X91947516Y-70163508D01*
X91984285Y-70145123D01*
X92002670Y-70126739D01*
X92021055Y-70089969D01*
X92021055Y-70016430D01*
X92002670Y-69979660D01*
X91984285Y-69961276D01*
X91947516Y-69942891D01*
X91855592Y-69942891D01*
X91818822Y-69961276D01*
X91800438Y-69979660D01*
X91782053Y-70016430D01*
X91782053Y-70089969D01*
X91800438Y-70126739D01*
X91818822Y-70145123D01*
X91855592Y-70163508D01*
D10*
%TO.C,R8*%
X97597933Y-66365380D02*
X97264600Y-65889190D01*
X97026504Y-66365380D02*
X97026504Y-65365380D01*
X97407457Y-65365380D01*
X97502695Y-65413000D01*
X97550314Y-65460619D01*
X97597933Y-65555857D01*
X97597933Y-65698714D01*
X97550314Y-65793952D01*
X97502695Y-65841571D01*
X97407457Y-65889190D01*
X97026504Y-65889190D01*
X98169361Y-65793952D02*
X98074123Y-65746333D01*
X98026504Y-65698714D01*
X97978885Y-65603476D01*
X97978885Y-65555857D01*
X98026504Y-65460619D01*
X98074123Y-65413000D01*
X98169361Y-65365380D01*
X98359838Y-65365380D01*
X98455076Y-65413000D01*
X98502695Y-65460619D01*
X98550314Y-65555857D01*
X98550314Y-65603476D01*
X98502695Y-65698714D01*
X98455076Y-65746333D01*
X98359838Y-65793952D01*
X98169361Y-65793952D01*
X98074123Y-65841571D01*
X98026504Y-65889190D01*
X97978885Y-65984428D01*
X97978885Y-66174904D01*
X98026504Y-66270142D01*
X98074123Y-66317761D01*
X98169361Y-66365380D01*
X98359838Y-66365380D01*
X98455076Y-66317761D01*
X98502695Y-66270142D01*
X98550314Y-66174904D01*
X98550314Y-65984428D01*
X98502695Y-65889190D01*
X98455076Y-65841571D01*
X98359838Y-65793952D01*
%TO.C,R99*%
X97147142Y-63317380D02*
X96813809Y-62841190D01*
X96575714Y-63317380D02*
X96575714Y-62317380D01*
X96956666Y-62317380D01*
X97051904Y-62365000D01*
X97099523Y-62412619D01*
X97147142Y-62507857D01*
X97147142Y-62650714D01*
X97099523Y-62745952D01*
X97051904Y-62793571D01*
X96956666Y-62841190D01*
X96575714Y-62841190D01*
X97623333Y-63317380D02*
X97813809Y-63317380D01*
X97909047Y-63269761D01*
X97956666Y-63222142D01*
X98051904Y-63079285D01*
X98099523Y-62888809D01*
X98099523Y-62507857D01*
X98051904Y-62412619D01*
X98004285Y-62365000D01*
X97909047Y-62317380D01*
X97718571Y-62317380D01*
X97623333Y-62365000D01*
X97575714Y-62412619D01*
X97528095Y-62507857D01*
X97528095Y-62745952D01*
X97575714Y-62841190D01*
X97623333Y-62888809D01*
X97718571Y-62936428D01*
X97909047Y-62936428D01*
X98004285Y-62888809D01*
X98051904Y-62841190D01*
X98099523Y-62745952D01*
X98575714Y-63317380D02*
X98766190Y-63317380D01*
X98861428Y-63269761D01*
X98909047Y-63222142D01*
X99004285Y-63079285D01*
X99051904Y-62888809D01*
X99051904Y-62507857D01*
X99004285Y-62412619D01*
X98956666Y-62365000D01*
X98861428Y-62317380D01*
X98670952Y-62317380D01*
X98575714Y-62365000D01*
X98528095Y-62412619D01*
X98480476Y-62507857D01*
X98480476Y-62745952D01*
X98528095Y-62841190D01*
X98575714Y-62888809D01*
X98670952Y-62936428D01*
X98861428Y-62936428D01*
X98956666Y-62888809D01*
X99004285Y-62841190D01*
X99051904Y-62745952D01*
%TO.C,R4*%
X93914933Y-54020980D02*
X93581600Y-53544790D01*
X93343504Y-54020980D02*
X93343504Y-53020980D01*
X93724457Y-53020980D01*
X93819695Y-53068600D01*
X93867314Y-53116219D01*
X93914933Y-53211457D01*
X93914933Y-53354314D01*
X93867314Y-53449552D01*
X93819695Y-53497171D01*
X93724457Y-53544790D01*
X93343504Y-53544790D01*
X94772076Y-53354314D02*
X94772076Y-54020980D01*
X94533980Y-52973361D02*
X94295885Y-53687647D01*
X94914933Y-53687647D01*
%TO.C,C2*%
X106397133Y-71731142D02*
X106349514Y-71778761D01*
X106206657Y-71826380D01*
X106111419Y-71826380D01*
X105968561Y-71778761D01*
X105873323Y-71683523D01*
X105825704Y-71588285D01*
X105778085Y-71397809D01*
X105778085Y-71254952D01*
X105825704Y-71064476D01*
X105873323Y-70969238D01*
X105968561Y-70874000D01*
X106111419Y-70826380D01*
X106206657Y-70826380D01*
X106349514Y-70874000D01*
X106397133Y-70921619D01*
X106778085Y-70921619D02*
X106825704Y-70874000D01*
X106920942Y-70826380D01*
X107159038Y-70826380D01*
X107254276Y-70874000D01*
X107301895Y-70921619D01*
X107349514Y-71016857D01*
X107349514Y-71112095D01*
X107301895Y-71254952D01*
X106730466Y-71826380D01*
X107349514Y-71826380D01*
%TO.C,R1*%
X97623333Y-60269380D02*
X97290000Y-59793190D01*
X97051904Y-60269380D02*
X97051904Y-59269380D01*
X97432857Y-59269380D01*
X97528095Y-59317000D01*
X97575714Y-59364619D01*
X97623333Y-59459857D01*
X97623333Y-59602714D01*
X97575714Y-59697952D01*
X97528095Y-59745571D01*
X97432857Y-59793190D01*
X97051904Y-59793190D01*
X98575714Y-60269380D02*
X98004285Y-60269380D01*
X98290000Y-60269380D02*
X98290000Y-59269380D01*
X98194761Y-59412238D01*
X98099523Y-59507476D01*
X98004285Y-59555095D01*
%TO.C,D2*%
X94359504Y-47772580D02*
X94359504Y-46772580D01*
X94597600Y-46772580D01*
X94740457Y-46820200D01*
X94835695Y-46915438D01*
X94883314Y-47010676D01*
X94930933Y-47201152D01*
X94930933Y-47344009D01*
X94883314Y-47534485D01*
X94835695Y-47629723D01*
X94740457Y-47724961D01*
X94597600Y-47772580D01*
X94359504Y-47772580D01*
X95311885Y-46867819D02*
X95359504Y-46820200D01*
X95454742Y-46772580D01*
X95692838Y-46772580D01*
X95788076Y-46820200D01*
X95835695Y-46867819D01*
X95883314Y-46963057D01*
X95883314Y-47058295D01*
X95835695Y-47201152D01*
X95264266Y-47772580D01*
X95883314Y-47772580D01*
X98417095Y-46985180D02*
X98417095Y-45985180D01*
X98988523Y-46985180D02*
X98559952Y-46413752D01*
X98988523Y-45985180D02*
X98417095Y-46556609D01*
%TO.C,R3*%
X104862333Y-54020980D02*
X104529000Y-53544790D01*
X104290904Y-54020980D02*
X104290904Y-53020980D01*
X104671857Y-53020980D01*
X104767095Y-53068600D01*
X104814714Y-53116219D01*
X104862333Y-53211457D01*
X104862333Y-53354314D01*
X104814714Y-53449552D01*
X104767095Y-53497171D01*
X104671857Y-53544790D01*
X104290904Y-53544790D01*
X105195666Y-53020980D02*
X105814714Y-53020980D01*
X105481380Y-53401933D01*
X105624238Y-53401933D01*
X105719476Y-53449552D01*
X105767095Y-53497171D01*
X105814714Y-53592409D01*
X105814714Y-53830504D01*
X105767095Y-53925742D01*
X105719476Y-53973361D01*
X105624238Y-54020980D01*
X105338523Y-54020980D01*
X105243285Y-53973361D01*
X105195666Y-53925742D01*
D15*
%TO.C,J1*%
X88950800Y-76758800D02*
X91490800Y-76758800D01*
X88950800Y-76758800D02*
X88950800Y-74218800D01*
X94030800Y-74218800D02*
X94030800Y-76758800D01*
X94030800Y-72948800D02*
X94030800Y-74218800D01*
X88950800Y-72948800D02*
X94030800Y-72948800D01*
X88950800Y-74218800D02*
X91490800Y-74218800D01*
X91490800Y-74218800D02*
X94030800Y-74218800D01*
X91490800Y-76758800D02*
X94030800Y-76758800D01*
X88950800Y-74218800D02*
X88950800Y-72948800D01*
X91490800Y-74218800D02*
X91490800Y-76758800D01*
D16*
%TO.C,R7*%
X90811600Y-49429800D02*
X90811600Y-49099800D01*
X90811600Y-51839800D02*
X97351600Y-51839800D01*
X97351600Y-51839800D02*
X97351600Y-51509800D01*
X90811600Y-51509800D02*
X90811600Y-51839800D01*
X90811600Y-49099800D02*
X97351600Y-49099800D01*
X97351600Y-49099800D02*
X97351600Y-49429800D01*
D15*
%TO.C,RV6*%
X101041200Y-43154600D02*
X101041200Y-40106600D01*
X92913200Y-40106600D02*
X92913200Y-43154600D01*
X106121200Y-40106600D02*
X103073200Y-40106600D01*
X101041200Y-40106600D02*
X97993200Y-40106600D01*
X106121200Y-43154600D02*
X106121200Y-40106600D01*
X95961200Y-43154600D02*
X92913200Y-43154600D01*
X103073200Y-40106600D02*
X103073200Y-43154600D01*
X106121200Y-43154600D02*
X103073200Y-43154600D01*
X95961200Y-40106600D02*
X92913200Y-40106600D01*
X97993200Y-40106600D02*
X97993200Y-43154600D01*
X101041200Y-43154600D02*
X97993200Y-43154600D01*
X95961200Y-43154600D02*
X95961200Y-40106600D01*
D16*
%TO.C,R9*%
X94494600Y-67921000D02*
X94494600Y-67591000D01*
X94494600Y-70331000D02*
X101034600Y-70331000D01*
X101034600Y-67591000D02*
X101034600Y-67921000D01*
X94494600Y-67591000D02*
X101034600Y-67591000D01*
X94494600Y-70001000D02*
X94494600Y-70331000D01*
X101034600Y-70331000D02*
X101034600Y-70001000D01*
%TO.C,C1*%
X96466200Y-70639000D02*
X96466200Y-73379000D01*
X89026200Y-73379000D02*
X96466200Y-73379000D01*
X89026200Y-70639000D02*
X89026200Y-73379000D01*
X89026200Y-70639000D02*
X96466200Y-70639000D01*
D15*
%TO.C,J4*%
X92760800Y-45186600D02*
X92760800Y-40106600D01*
X88950800Y-45186600D02*
X91490800Y-45186600D01*
X91490800Y-40106600D02*
X92760800Y-40106600D01*
X88950800Y-40106600D02*
X91490800Y-40106600D01*
X91490800Y-40106600D02*
X91490800Y-45186600D01*
X88950800Y-45186600D02*
X88950800Y-40106600D01*
X91490800Y-45186600D02*
X92760800Y-45186600D01*
%TO.C,J2*%
X104546400Y-76758800D02*
X94386400Y-76758800D01*
X104546400Y-74218800D02*
X104546400Y-72948800D01*
X94386400Y-74218800D02*
X94386400Y-72948800D01*
X94386400Y-76758800D02*
X94386400Y-74218800D01*
X104546400Y-76758800D02*
X104546400Y-74218800D01*
X104546400Y-72948800D02*
X94386400Y-72948800D01*
X94386400Y-74218800D02*
X104546400Y-74218800D01*
D16*
%TO.C,C4*%
X110640800Y-41198000D02*
X107900800Y-41198000D01*
X110640800Y-48638000D02*
X107900800Y-48638000D01*
X110640800Y-41198000D02*
X110640800Y-48638000D01*
X107900800Y-41198000D02*
X107900800Y-48638000D01*
%TO.C,C3*%
X110287600Y-69670600D02*
X102847600Y-69670600D01*
X102847600Y-69670600D02*
X102847600Y-66930600D01*
X110287600Y-66930600D02*
X102847600Y-66930600D01*
X110287600Y-69670600D02*
X110287600Y-66930600D01*
%TO.C,C5*%
X105155000Y-47090200D02*
X105155000Y-48600200D01*
X105275000Y-47090200D02*
X105275000Y-48578200D01*
X107116000Y-44952200D02*
X107116000Y-47148200D01*
X105596000Y-43608200D02*
X105596000Y-45010200D01*
X106596000Y-44224200D02*
X106596000Y-45010200D01*
X104835000Y-43471200D02*
X104835000Y-48629200D01*
X105996000Y-43782200D02*
X105996000Y-45010200D01*
X107156000Y-45039200D02*
X107156000Y-47061200D01*
X106156000Y-47090200D02*
X106156000Y-48225200D01*
X106476000Y-47090200D02*
X106476000Y-47987200D01*
X105395000Y-43549200D02*
X105395000Y-45010200D01*
X106636000Y-44265200D02*
X106636000Y-45010200D01*
X106236000Y-43928200D02*
X106236000Y-45010200D01*
X104795000Y-43470200D02*
X104795000Y-48630200D01*
X107316000Y-45532200D02*
X107316000Y-46568200D01*
X104875000Y-43472200D02*
X104875000Y-48628200D01*
X106996000Y-47090200D02*
X106996000Y-47369200D01*
X105916000Y-47090200D02*
X105916000Y-48360200D01*
X106276000Y-47090200D02*
X106276000Y-48145200D01*
X106676000Y-44307200D02*
X106676000Y-45010200D01*
X105516000Y-43582200D02*
X105516000Y-45010200D01*
X106356000Y-47090200D02*
X106356000Y-48085200D01*
X106796000Y-44445200D02*
X106796000Y-45010200D01*
X107036000Y-44799200D02*
X107036000Y-45010200D01*
X106476000Y-44113200D02*
X106476000Y-45010200D01*
X104915000Y-43474200D02*
X104915000Y-48626200D01*
X106236000Y-47090200D02*
X106236000Y-48172200D01*
X105195000Y-43507200D02*
X105195000Y-45010200D01*
X106116000Y-47090200D02*
X106116000Y-48250200D01*
X106516000Y-47090200D02*
X106516000Y-47951200D01*
X105035000Y-43485200D02*
X105035000Y-45010200D01*
X106676000Y-47090200D02*
X106676000Y-47793200D01*
X105155000Y-43500200D02*
X105155000Y-45010200D01*
X105235000Y-47090200D02*
X105235000Y-48586200D01*
X105716000Y-43652200D02*
X105716000Y-45010200D01*
X107276000Y-45373200D02*
X107276000Y-46727200D01*
X105235000Y-43514200D02*
X105235000Y-45010200D01*
X106796000Y-47090200D02*
X106796000Y-47655200D01*
X106556000Y-44186200D02*
X106556000Y-45010200D01*
X105916000Y-43740200D02*
X105916000Y-45010200D01*
X105796000Y-47090200D02*
X105796000Y-48415200D01*
X106156000Y-43875200D02*
X106156000Y-45010200D01*
X106836000Y-47090200D02*
X106836000Y-47604200D01*
X104755000Y-43470200D02*
X104755000Y-48630200D01*
X105556000Y-43595200D02*
X105556000Y-45010200D01*
X106716000Y-47090200D02*
X106716000Y-47749200D01*
X106036000Y-43803200D02*
X106036000Y-45010200D01*
X105516000Y-47090200D02*
X105516000Y-48518200D01*
X106396000Y-44046200D02*
X106396000Y-45010200D01*
X106956000Y-44667200D02*
X106956000Y-45010200D01*
X106516000Y-44149200D02*
X106516000Y-45010200D01*
X105596000Y-47090200D02*
X105596000Y-48492200D01*
X105075000Y-47090200D02*
X105075000Y-48611200D01*
X105115000Y-47090200D02*
X105115000Y-48606200D01*
X105676000Y-47090200D02*
X105676000Y-48464200D01*
X106316000Y-47090200D02*
X106316000Y-48115200D01*
X105876000Y-43721200D02*
X105876000Y-45010200D01*
X105355000Y-43539200D02*
X105355000Y-45010200D01*
X105556000Y-47090200D02*
X105556000Y-48505200D01*
X103505000Y-44403200D02*
X103505000Y-44903200D01*
X106996000Y-44731200D02*
X106996000Y-45010200D01*
X107036000Y-47090200D02*
X107036000Y-47301200D01*
X107236000Y-45245200D02*
X107236000Y-46855200D01*
X106076000Y-47090200D02*
X106076000Y-48274200D01*
X105676000Y-43636200D02*
X105676000Y-45010200D01*
X105395000Y-47090200D02*
X105395000Y-48551200D01*
X105035000Y-47090200D02*
X105035000Y-48615200D01*
X104995000Y-43481200D02*
X104995000Y-45010200D01*
X104995000Y-47090200D02*
X104995000Y-48619200D01*
X105435000Y-47090200D02*
X105435000Y-48541200D01*
X106876000Y-47090200D02*
X106876000Y-47550200D01*
X105636000Y-43622200D02*
X105636000Y-45010200D01*
X106636000Y-47090200D02*
X106636000Y-47835200D01*
X107356000Y-45766200D02*
X107356000Y-46334200D01*
X105956000Y-47090200D02*
X105956000Y-48340200D01*
X105996000Y-47090200D02*
X105996000Y-48318200D01*
X106196000Y-47090200D02*
X106196000Y-48199200D01*
X105315000Y-43530200D02*
X105315000Y-45010200D01*
X106836000Y-44496200D02*
X106836000Y-45010200D01*
X105836000Y-43702200D02*
X105836000Y-45010200D01*
X105275000Y-43522200D02*
X105275000Y-45010200D01*
X106556000Y-47090200D02*
X106556000Y-47914200D01*
X106196000Y-43901200D02*
X106196000Y-45010200D01*
X106076000Y-43826200D02*
X106076000Y-45010200D01*
X105476000Y-47090200D02*
X105476000Y-48530200D01*
X106756000Y-44397200D02*
X106756000Y-45010200D01*
X105195000Y-47090200D02*
X105195000Y-48593200D01*
X106756000Y-47090200D02*
X106756000Y-47703200D01*
X106716000Y-44351200D02*
X106716000Y-45010200D01*
X105075000Y-43489200D02*
X105075000Y-45010200D01*
X105636000Y-47090200D02*
X105636000Y-48478200D01*
X106116000Y-43850200D02*
X106116000Y-45010200D01*
X106356000Y-44015200D02*
X106356000Y-45010200D01*
X106956000Y-47090200D02*
X106956000Y-47433200D01*
X106316000Y-43985200D02*
X106316000Y-45010200D01*
X105756000Y-47090200D02*
X105756000Y-48432200D01*
X106876000Y-44550200D02*
X106876000Y-45010200D01*
X105796000Y-43685200D02*
X105796000Y-45010200D01*
X105435000Y-43559200D02*
X105435000Y-45010200D01*
X106036000Y-47090200D02*
X106036000Y-48297200D01*
X106276000Y-43955200D02*
X106276000Y-45010200D01*
X103255000Y-44653200D02*
X103755000Y-44653200D01*
X105716000Y-47090200D02*
X105716000Y-48448200D01*
X105315000Y-47090200D02*
X105315000Y-48570200D01*
X107076000Y-44872200D02*
X107076000Y-47228200D01*
X105476000Y-43570200D02*
X105476000Y-45010200D01*
X106916000Y-47090200D02*
X106916000Y-47493200D01*
X104955000Y-43477200D02*
X104955000Y-48623200D01*
X105756000Y-43668200D02*
X105756000Y-45010200D01*
X105876000Y-47090200D02*
X105876000Y-48379200D01*
X105355000Y-47090200D02*
X105355000Y-48561200D01*
X106596000Y-47090200D02*
X106596000Y-47876200D01*
X106436000Y-44079200D02*
X106436000Y-45010200D01*
X107196000Y-45135200D02*
X107196000Y-46965200D01*
X105956000Y-43760200D02*
X105956000Y-45010200D01*
X106436000Y-47090200D02*
X106436000Y-48021200D01*
X105836000Y-47090200D02*
X105836000Y-48398200D01*
X106916000Y-44607200D02*
X106916000Y-45010200D01*
X106396000Y-47090200D02*
X106396000Y-48054200D01*
X105115000Y-43494200D02*
X105115000Y-45010200D01*
X107375000Y-46050200D02*
G75*
G03*
X107375000Y-46050200I-2620000J0D01*
G01*
D17*
%TO.C,Q1*%
X108184300Y-56286383D02*
X104922300Y-56286383D01*
X104922299Y-56286382D02*
G75*
G03*
X105584400Y-60274183I1631301J-1778018D01*
G01*
X105584100Y-60274183D02*
G75*
G03*
X107522500Y-60274183I969200J2209800D01*
G01*
X107522199Y-60274182D02*
G75*
G03*
X108184300Y-56286383I-969199J2209782D01*
G01*
D15*
%TO.C,J3*%
X104952800Y-74218800D02*
X107492800Y-74218800D01*
X110032800Y-72948800D02*
X110032800Y-74218800D01*
X104952800Y-74218800D02*
X104952800Y-72948800D01*
X107492800Y-74218800D02*
X110032800Y-74218800D01*
X104952800Y-76758800D02*
X104952800Y-74218800D01*
X110032800Y-74218800D02*
X110032800Y-76758800D01*
X104952800Y-76758800D02*
X107492800Y-76758800D01*
X104952800Y-72948800D02*
X110032800Y-72948800D01*
X107492800Y-74218800D02*
X107492800Y-76758800D01*
X107492800Y-76758800D02*
X110032800Y-76758800D01*
D16*
%TO.C,R5*%
X108299000Y-51890600D02*
X108299000Y-51560600D01*
X101759000Y-51560600D02*
X101759000Y-51890600D01*
X101759000Y-49480600D02*
X101759000Y-49150600D01*
X108299000Y-49150600D02*
X108299000Y-49480600D01*
X101759000Y-51890600D02*
X108299000Y-51890600D01*
X101759000Y-49150600D02*
X108299000Y-49150600D01*
%TO.C,R2*%
X94520000Y-55602000D02*
X94520000Y-55272000D01*
X94520000Y-55272000D02*
X101060000Y-55272000D01*
X94520000Y-57682000D02*
X94520000Y-58012000D01*
X94520000Y-58012000D02*
X101060000Y-58012000D01*
X101060000Y-58012000D02*
X101060000Y-57682000D01*
X101060000Y-55272000D02*
X101060000Y-55602000D01*
D17*
%TO.C,Q2*%
X108209700Y-62153783D02*
X104947700Y-62153783D01*
X107547599Y-66141582D02*
G75*
G03*
X108209700Y-62153783I-969199J2209782D01*
G01*
X104947699Y-62153782D02*
G75*
G03*
X105609800Y-66141583I1631301J-1778018D01*
G01*
X105609500Y-66141583D02*
G75*
G03*
X107547900Y-66141583I969200J2209800D01*
G01*
D15*
%TO.C,SW1*%
X88925400Y-55194200D02*
X91465400Y-55194200D01*
X88925400Y-70434200D02*
X88925400Y-55194200D01*
X92735400Y-55194200D02*
X92735400Y-70434200D01*
X91465400Y-55194200D02*
X91465400Y-70434200D01*
X92735400Y-70434200D02*
X91465400Y-70434200D01*
X91465400Y-70434200D02*
X88925400Y-70434200D01*
X91465400Y-55194200D02*
X92735400Y-55194200D01*
D16*
%TO.C,R8*%
X94494600Y-64543000D02*
X101034600Y-64543000D01*
X101034600Y-64543000D02*
X101034600Y-64873000D01*
X94494600Y-66953000D02*
X94494600Y-67283000D01*
X94494600Y-67283000D02*
X101034600Y-67283000D01*
X94494600Y-64873000D02*
X94494600Y-64543000D01*
X101034600Y-67283000D02*
X101034600Y-66953000D01*
%TO.C,R99*%
X101060000Y-61825000D02*
X101060000Y-61495000D01*
X101060000Y-61495000D02*
X94520000Y-61495000D01*
X94520000Y-64235000D02*
X94520000Y-63905000D01*
X94520000Y-61495000D02*
X94520000Y-61825000D01*
X101060000Y-63905000D02*
X101060000Y-64235000D01*
X101060000Y-64235000D02*
X94520000Y-64235000D01*
%TO.C,R4*%
X97351600Y-52198600D02*
X90811600Y-52198600D01*
X97351600Y-54608600D02*
X97351600Y-54938600D01*
X90811600Y-54938600D02*
X90811600Y-54608600D01*
X97351600Y-54938600D02*
X90811600Y-54938600D01*
X97351600Y-52528600D02*
X97351600Y-52198600D01*
X90811600Y-52198600D02*
X90811600Y-52528600D01*
%TO.C,C2*%
X102843800Y-70004000D02*
X102843800Y-72744000D01*
X110283800Y-70004000D02*
X110283800Y-72744000D01*
X102843800Y-70004000D02*
X110283800Y-70004000D01*
X102843800Y-72744000D02*
X110283800Y-72744000D01*
%TO.C,R1*%
X101060000Y-61187000D02*
X101060000Y-60857000D01*
X94520000Y-58777000D02*
X94520000Y-58447000D01*
X94520000Y-58447000D02*
X101060000Y-58447000D01*
X94520000Y-61187000D02*
X101060000Y-61187000D01*
X94520000Y-60857000D02*
X94520000Y-61187000D01*
X101060000Y-58447000D02*
X101060000Y-58777000D01*
%TO.C,D2*%
X97051600Y-48790200D02*
X97051600Y-45850200D01*
X92631600Y-45850200D02*
X92631600Y-48790200D01*
X97291600Y-48790200D02*
X97291600Y-45850200D01*
X92631600Y-48790200D02*
X98071600Y-48790200D01*
X91611600Y-47320200D02*
X92631600Y-47320200D01*
X98071600Y-45850200D02*
X92631600Y-45850200D01*
X99091600Y-47320200D02*
X98071600Y-47320200D01*
X97171600Y-48790200D02*
X97171600Y-45850200D01*
X98071600Y-48790200D02*
X98071600Y-45850200D01*
%TO.C,R3*%
X101759000Y-54938600D02*
X108299000Y-54938600D01*
X108299000Y-54938600D02*
X108299000Y-54608600D01*
X101759000Y-52198600D02*
X108299000Y-52198600D01*
X101759000Y-52528600D02*
X101759000Y-52198600D01*
X101759000Y-54608600D02*
X101759000Y-54938600D01*
X108299000Y-52198600D02*
X108299000Y-52528600D01*
%TD*%
%LPC*%
D18*
%TO.C,J1*%
X92760800Y-75488800D03*
D19*
X90220800Y-75488800D03*
%TD*%
D20*
%TO.C,R7*%
X90271600Y-50469800D03*
D21*
X97891600Y-50469800D03*
%TD*%
D22*
%TO.C,RV6*%
X94437200Y-41630600D03*
D23*
X99517200Y-41630600D03*
X104597200Y-41630600D03*
%TD*%
D20*
%TO.C,R9*%
X93954600Y-68961000D03*
D21*
X101574600Y-68961000D03*
%TD*%
D20*
%TO.C,C1*%
X90246200Y-72009000D03*
X95246200Y-72009000D03*
%TD*%
D19*
%TO.C,J4*%
X90220800Y-41376600D03*
D18*
X90220800Y-43916600D03*
%TD*%
D19*
%TO.C,J2*%
X95656400Y-75488800D03*
D18*
X98196400Y-75488800D03*
X100736400Y-75488800D03*
X103276400Y-75488800D03*
%TD*%
D20*
%TO.C,C4*%
X109270800Y-42418000D03*
X109270800Y-47418000D03*
%TD*%
%TO.C,C3*%
X109067600Y-68300600D03*
X104067600Y-68300600D03*
%TD*%
D24*
%TO.C,C5*%
X103505000Y-46050200D03*
D20*
X106005000Y-46050200D03*
%TD*%
D19*
%TO.C,Q1*%
X109093000Y-58318400D03*
D18*
X106553000Y-58318400D03*
X104013000Y-58318400D03*
%TD*%
%TO.C,J3*%
X108762800Y-75488800D03*
D19*
X106222800Y-75488800D03*
%TD*%
D20*
%TO.C,R5*%
X101219000Y-50520600D03*
D21*
X108839000Y-50520600D03*
%TD*%
D20*
%TO.C,R2*%
X93980000Y-56642000D03*
D21*
X101600000Y-56642000D03*
%TD*%
D19*
%TO.C,Q2*%
X109118400Y-64185800D03*
D18*
X106578400Y-64185800D03*
X104038400Y-64185800D03*
%TD*%
D25*
%TO.C,SW1*%
X90195400Y-56464200D03*
D26*
X90195400Y-59004200D03*
X90195400Y-61544200D03*
X90195400Y-64084200D03*
X90195400Y-66624200D03*
X90195400Y-69164200D03*
%TD*%
D20*
%TO.C,R8*%
X93954600Y-65913000D03*
D21*
X101574600Y-65913000D03*
%TD*%
D20*
%TO.C,R99*%
X101600000Y-62865000D03*
D21*
X93980000Y-62865000D03*
%TD*%
D20*
%TO.C,R4*%
X97891600Y-53568600D03*
D21*
X90271600Y-53568600D03*
%TD*%
D20*
%TO.C,C2*%
X104063800Y-71374000D03*
X109063800Y-71374000D03*
%TD*%
%TO.C,R1*%
X93980000Y-59817000D03*
D21*
X101600000Y-59817000D03*
%TD*%
D27*
%TO.C,D2*%
X100431600Y-47320200D03*
D28*
X90271600Y-47320200D03*
%TD*%
D20*
%TO.C,R3*%
X101219000Y-53568600D03*
D21*
X108839000Y-53568600D03*
%TD*%
D29*
%TO.C,D1*%
X100711000Y-71628000D03*
D30*
X98171000Y-71628000D03*
%TD*%
M02*
