%TF.GenerationSoftware,KiCad,Pcbnew,(5.99.0-2889-g3ddee6503)*%
%TF.CreationDate,2020-08-20T10:41:49+03:00*%
%TF.ProjectId,leo-fuzz-box,6c656f2d-6675-47a7-9a2d-626f782e6b69,rev?*%
%TF.SameCoordinates,Original*%
%TF.FileFunction,Copper,L2,Bot*%
%TF.FilePolarity,Positive*%
%FSLAX46Y46*%
G04 Gerber Fmt 4.6, Leading zero omitted, Abs format (unit mm)*
G04 Created by KiCad (PCBNEW (5.99.0-2889-g3ddee6503)) date 2020-08-20 10:41:49*
%MOMM*%
%LPD*%
G01*
G04 APERTURE LIST*
%TA.AperFunction,ComponentPad*%
%ADD10O,1.930400X1.930400*%
%TD*%
%TA.AperFunction,ComponentPad*%
%ADD11R,1.930400X1.930400*%
%TD*%
%TA.AperFunction,ComponentPad*%
%ADD12C,1.600000*%
%TD*%
%TA.AperFunction,ComponentPad*%
%ADD13O,1.600000X1.600000*%
%TD*%
%TA.AperFunction,ComponentPad*%
%ADD14R,2.540000X2.540000*%
%TD*%
%TA.AperFunction,ComponentPad*%
%ADD15O,2.540000X2.540000*%
%TD*%
%TA.AperFunction,ComponentPad*%
%ADD16R,1.600000X1.600000*%
%TD*%
%TA.AperFunction,ComponentPad*%
%ADD17R,2.032000X2.032000*%
%TD*%
%TA.AperFunction,ComponentPad*%
%ADD18O,2.032000X2.032000*%
%TD*%
%TA.AperFunction,ComponentPad*%
%ADD19R,2.200000X2.200000*%
%TD*%
%TA.AperFunction,ComponentPad*%
%ADD20O,2.200000X2.200000*%
%TD*%
%TA.AperFunction,ComponentPad*%
%ADD21R,1.800000X1.800000*%
%TD*%
%TA.AperFunction,ComponentPad*%
%ADD22C,1.800000*%
%TD*%
%TA.AperFunction,ViaPad*%
%ADD23C,0.800000*%
%TD*%
%TA.AperFunction,Conductor*%
%ADD24C,0.381000*%
%TD*%
%TA.AperFunction,Conductor*%
%ADD25C,0.609600*%
%TD*%
G04 APERTURE END LIST*
D10*
%TO.P,J1,S*%
%TO.N,GND*%
X92760800Y-75488800D03*
D11*
%TO.P,J1,T*%
%TO.N,IN*%
X90220800Y-75488800D03*
%TD*%
D12*
%TO.P,R7,1*%
%TO.N,Net-(R4-Pad2)*%
X90271600Y-50469800D03*
D13*
%TO.P,R7,2*%
%TO.N,Net-(C3-Pad1)*%
X97891600Y-50469800D03*
%TD*%
D14*
%TO.P,RV6,1,1*%
%TO.N,Net-(Q1-Pad1)*%
X94437200Y-41630600D03*
D15*
%TO.P,RV6,2,2*%
%TO.N,Net-(RV6-Pad2)*%
X99517200Y-41630600D03*
%TO.P,RV6,3,3*%
%TO.N,Net-(Q2-Pad1)*%
X104597200Y-41630600D03*
%TD*%
D12*
%TO.P,R9,1*%
%TO.N,Net-(C2-Pad1)*%
X93954600Y-68961000D03*
D13*
%TO.P,R9,2*%
%TO.N,GND*%
X101574600Y-68961000D03*
%TD*%
D12*
%TO.P,C1,1*%
%TO.N,IN*%
X90246200Y-72009000D03*
%TO.P,C1,2*%
%TO.N,Net-(C1-Pad2)*%
X95246200Y-72009000D03*
%TD*%
D11*
%TO.P,J4,1*%
%TO.N,Net-(D2-Pad2)*%
X90220800Y-41376600D03*
D10*
%TO.P,J4,2*%
%TO.N,GND*%
X90220800Y-43916600D03*
%TD*%
D11*
%TO.P,J2,1,Pin_1*%
%TO.N,IN*%
X95656400Y-75488800D03*
D10*
%TO.P,J2,2,Pin_2*%
%TO.N,GND*%
X98196400Y-75488800D03*
%TO.P,J2,3,Pin_3*%
%TO.N,LED-*%
X100736400Y-75488800D03*
%TO.P,J2,4,Pin_4*%
%TO.N,OUT*%
X103276400Y-75488800D03*
%TD*%
D12*
%TO.P,C4,1*%
%TO.N,+9V*%
X109270800Y-42418000D03*
%TO.P,C4,2*%
%TO.N,GND*%
X109270800Y-47418000D03*
%TD*%
%TO.P,C3,1*%
%TO.N,Net-(C3-Pad1)*%
X109067600Y-68300600D03*
%TO.P,C3,2*%
%TO.N,Net-(C3-Pad2)*%
X104067600Y-68300600D03*
%TD*%
D16*
%TO.P,C5,1*%
%TO.N,+9V*%
X103505000Y-46050200D03*
D12*
%TO.P,C5,2*%
%TO.N,GND*%
X106005000Y-46050200D03*
%TD*%
D11*
%TO.P,Q1,1,E*%
%TO.N,Net-(Q1-Pad1)*%
X109093000Y-58318400D03*
D10*
%TO.P,Q1,2,B*%
%TO.N,Net-(Q1-Pad2)*%
X106553000Y-58318400D03*
%TO.P,Q1,3,C*%
%TO.N,Net-(Q1-Pad3)*%
X104013000Y-58318400D03*
%TD*%
%TO.P,J3,S*%
%TO.N,GND*%
X108762800Y-75488800D03*
D11*
%TO.P,J3,T*%
%TO.N,OUT*%
X106222800Y-75488800D03*
%TD*%
D12*
%TO.P,R5,1*%
%TO.N,Net-(Q1-Pad2)*%
X101219000Y-50520600D03*
D13*
%TO.P,R5,2*%
%TO.N,Net-(Q2-Pad1)*%
X108839000Y-50520600D03*
%TD*%
D12*
%TO.P,R2,1*%
%TO.N,Net-(R2-Pad1)*%
X93980000Y-56642000D03*
D13*
%TO.P,R2,2*%
%TO.N,Net-(Q1-Pad3)*%
X101600000Y-56642000D03*
%TD*%
D11*
%TO.P,Q2,1,E*%
%TO.N,Net-(Q2-Pad1)*%
X109118400Y-64185800D03*
D10*
%TO.P,Q2,2,B*%
%TO.N,Net-(Q1-Pad3)*%
X106578400Y-64185800D03*
%TO.P,Q2,3,C*%
%TO.N,Net-(C3-Pad1)*%
X104038400Y-64185800D03*
%TD*%
D17*
%TO.P,SW1,1,A*%
%TO.N,Net-(R4-Pad2)*%
X90195400Y-56464200D03*
D18*
%TO.P,SW1,2,B*%
%TO.N,+9V*%
X90195400Y-59004200D03*
%TO.P,SW1,3,C*%
%TO.N,Net-(R2-Pad1)*%
X90195400Y-61544200D03*
%TO.P,SW1,4,A*%
%TO.N,Net-(C2-Pad1)*%
X90195400Y-64084200D03*
%TO.P,SW1,5,B*%
%TO.N,Net-(RV6-Pad2)*%
X90195400Y-66624200D03*
%TO.P,SW1,6,C*%
%TO.N,Net-(SW1-Pad6)*%
X90195400Y-69164200D03*
%TD*%
D12*
%TO.P,R8,1*%
%TO.N,Net-(C3-Pad2)*%
X93954600Y-65913000D03*
D13*
%TO.P,R8,2*%
%TO.N,Net-(C2-Pad1)*%
X101574600Y-65913000D03*
%TD*%
D12*
%TO.P,R99,1*%
%TO.N,Net-(D1-Pad2)*%
X101600000Y-62865000D03*
D13*
%TO.P,R99,2*%
%TO.N,+9V*%
X93980000Y-62865000D03*
%TD*%
D12*
%TO.P,R4,1*%
%TO.N,Net-(R2-Pad1)*%
X97891600Y-53568600D03*
D13*
%TO.P,R4,2*%
%TO.N,Net-(R4-Pad2)*%
X90271600Y-53568600D03*
%TD*%
D12*
%TO.P,C2,1*%
%TO.N,Net-(C2-Pad1)*%
X104063800Y-71374000D03*
%TO.P,C2,2*%
%TO.N,OUT*%
X109063800Y-71374000D03*
%TD*%
%TO.P,R1,1*%
%TO.N,Net-(C1-Pad2)*%
X93980000Y-59817000D03*
D13*
%TO.P,R1,2*%
%TO.N,Net-(Q1-Pad2)*%
X101600000Y-59817000D03*
%TD*%
D19*
%TO.P,D2,1,K*%
%TO.N,+9V*%
X100431600Y-47320200D03*
D20*
%TO.P,D2,2,A*%
%TO.N,Net-(D2-Pad2)*%
X90271600Y-47320200D03*
%TD*%
D12*
%TO.P,R3,1*%
%TO.N,Net-(Q1-Pad1)*%
X101219000Y-53568600D03*
D13*
%TO.P,R3,2*%
%TO.N,GND*%
X108839000Y-53568600D03*
%TD*%
D21*
%TO.P,D1,1,K*%
%TO.N,LED-*%
X100711000Y-71628000D03*
D22*
%TO.P,D1,2,A*%
%TO.N,Net-(D1-Pad2)*%
X98171000Y-71628000D03*
%TD*%
D23*
%TO.N,GND*%
X97663000Y-45821600D03*
X108000800Y-61214000D03*
X104724200Y-61264800D03*
X98425000Y-61417200D03*
X107442000Y-40995600D03*
X102133400Y-42545000D03*
X93522800Y-46456600D03*
X94157800Y-53238400D03*
X97002600Y-52019200D03*
%TO.N,Net-(Q1-Pad1)*%
X99034600Y-44653200D03*
%TO.N,GND*%
X106629200Y-69316600D03*
X96672400Y-69672200D03*
%TO.N,Net-(RV6-Pad2)*%
X95859600Y-50012600D03*
%TD*%
D24*
%TO.N,Net-(Q1-Pad1)*%
X99034600Y-44653200D02*
X97459800Y-44653200D01*
X97459800Y-44653200D02*
X94437200Y-41630600D01*
%TO.N,Net-(RV6-Pad2)*%
X95859600Y-50012600D02*
X95859600Y-62280800D01*
X90195400Y-66624200D02*
X92764099Y-64055501D01*
X92764099Y-64055501D02*
X94551441Y-64055501D01*
X94551441Y-64055501D02*
X95859600Y-62747342D01*
X95859600Y-62747342D02*
X95859600Y-62280800D01*
%TO.N,Net-(D1-Pad2)*%
X98171000Y-71628000D02*
X98171000Y-66294000D01*
X98171000Y-66294000D02*
X101600000Y-62865000D01*
%TO.N,Net-(Q1-Pad1)*%
X101219000Y-53568600D02*
X100609400Y-53568600D01*
D25*
%TO.N,+9V*%
X90195400Y-59004200D02*
X90195400Y-59080400D01*
X90195400Y-59080400D02*
X93980000Y-62865000D01*
X96215200Y-47320200D02*
X92100400Y-51435000D01*
X100431600Y-47320200D02*
X96215200Y-47320200D01*
X92100400Y-51435000D02*
X92100400Y-58536040D01*
X92100400Y-58536040D02*
X91632240Y-59004200D01*
X91632240Y-59004200D02*
X90195400Y-59004200D01*
X103581200Y-46050200D02*
X107213400Y-42418000D01*
X107213400Y-42418000D02*
X109270800Y-42418000D01*
X100431600Y-47320200D02*
X102311200Y-47320200D01*
X102311200Y-47320200D02*
X103581200Y-46050200D01*
%TO.N,Net-(D2-Pad2)*%
X90271600Y-47320200D02*
X91690801Y-45900999D01*
X91690801Y-45900999D02*
X91690801Y-42846601D01*
X91690801Y-42846601D02*
X90220800Y-41376600D01*
D24*
%TO.N,OUT*%
X109063800Y-72647800D02*
X109063800Y-71374000D01*
X106222800Y-75488800D02*
X109063800Y-72647800D01*
D25*
%TO.N,LED-*%
X100736400Y-71653400D02*
X100711000Y-71628000D01*
X100736400Y-75488800D02*
X100736400Y-71653400D01*
D24*
%TO.N,Net-(RV6-Pad2)*%
X99491800Y-41097200D02*
X99491800Y-40767000D01*
%TD*%
%TA.AperFunction,Conductor*%
%TO.N,GND*%
G36*
X110436664Y-71899992D02*
G01*
X110477846Y-71957824D01*
X110484776Y-71999035D01*
X110484776Y-76449776D01*
X110464774Y-76517897D01*
X110411118Y-76564390D01*
X110358776Y-76575776D01*
X110045007Y-76575776D01*
X109976886Y-76555774D01*
X109930393Y-76502118D01*
X109920289Y-76431844D01*
X109949053Y-76368113D01*
X109963261Y-76351418D01*
X109963266Y-76351411D01*
X110088026Y-76143774D01*
X110088029Y-76143768D01*
X110177211Y-75918521D01*
X110215202Y-75742800D01*
X108634800Y-75742800D01*
X108566679Y-75722798D01*
X108520186Y-75669142D01*
X108508800Y-75616800D01*
X108508800Y-75360800D01*
X108528802Y-75292679D01*
X108582458Y-75246186D01*
X108634800Y-75234800D01*
X110214080Y-75234800D01*
X110196510Y-75128676D01*
X110118439Y-74899345D01*
X110118437Y-74899340D01*
X110003972Y-74685863D01*
X110003963Y-74685849D01*
X109856157Y-74493921D01*
X109856156Y-74493919D01*
X109678984Y-74328704D01*
X109477210Y-74194645D01*
X109477208Y-74194644D01*
X109256252Y-74095343D01*
X109256254Y-74095343D01*
X109022039Y-74033461D01*
X108963295Y-74027908D01*
X108897359Y-74001584D01*
X108856121Y-73943792D01*
X108852675Y-73872879D01*
X108886057Y-73813372D01*
X109492403Y-73207026D01*
X109514261Y-73189560D01*
X109521166Y-73185203D01*
X109521169Y-73185200D01*
X109571067Y-73128702D01*
X109576415Y-73123012D01*
X109593173Y-73106255D01*
X109602931Y-73093236D01*
X109609312Y-73085399D01*
X109653614Y-73035237D01*
X109653614Y-73035236D01*
X109660228Y-73021148D01*
X109673458Y-72999130D01*
X109682784Y-72986686D01*
X109682786Y-72986683D01*
X109706271Y-72924035D01*
X109710198Y-72914714D01*
X109738648Y-72854119D01*
X109738648Y-72854118D01*
X109740770Y-72839919D01*
X109747404Y-72814315D01*
X109753018Y-72799341D01*
X109753020Y-72799331D01*
X109758789Y-72721697D01*
X109759826Y-72712411D01*
X109762299Y-72695863D01*
X109762300Y-72695850D01*
X109762300Y-72679123D01*
X109762647Y-72669783D01*
X109767848Y-72599805D01*
X109765076Y-72586818D01*
X109762300Y-72560513D01*
X109762300Y-72553369D01*
X109782302Y-72485248D01*
X109812935Y-72453374D01*
X109812689Y-72453080D01*
X109815421Y-72450788D01*
X109816027Y-72450157D01*
X109816906Y-72449541D01*
X109992228Y-72302428D01*
X110139343Y-72127104D01*
X110139345Y-72127101D01*
X110249657Y-71936035D01*
X110301039Y-71887042D01*
X110370753Y-71873606D01*
X110436664Y-71899992D01*
G37*
%TD.AperFunction*%
%TA.AperFunction,Conductor*%
G36*
X108254714Y-43250802D02*
G01*
X108283114Y-43275808D01*
X108342372Y-43346428D01*
X108517696Y-43493543D01*
X108517699Y-43493545D01*
X108715899Y-43607976D01*
X108715908Y-43607980D01*
X108930967Y-43686255D01*
X109156367Y-43726000D01*
X109385233Y-43726000D01*
X109610633Y-43686255D01*
X109825692Y-43607980D01*
X109825701Y-43607976D01*
X110023901Y-43493545D01*
X110023904Y-43493543D01*
X110199228Y-43346428D01*
X110262255Y-43271316D01*
X110321365Y-43231990D01*
X110392352Y-43230864D01*
X110452680Y-43268296D01*
X110484776Y-43352308D01*
X110484776Y-46560987D01*
X110464774Y-46629108D01*
X110411118Y-46675601D01*
X110365588Y-46682424D01*
X109630010Y-47418000D01*
X110365756Y-48153744D01*
X110412479Y-48161030D01*
X110465577Y-48208159D01*
X110484776Y-48275013D01*
X110484776Y-56794657D01*
X110464774Y-56862778D01*
X110411118Y-56909271D01*
X110340844Y-56919375D01*
X110295776Y-56903776D01*
X110234626Y-56868472D01*
X110058199Y-56837363D01*
X108127802Y-56837363D01*
X107869881Y-56906473D01*
X107732646Y-57021626D01*
X107668350Y-57132990D01*
X107616968Y-57181983D01*
X107547254Y-57195419D01*
X107473301Y-57162142D01*
X107469191Y-57158310D01*
X107469185Y-57158305D01*
X107267410Y-57024245D01*
X107267408Y-57024244D01*
X107046452Y-56924943D01*
X107046454Y-56924943D01*
X106812239Y-56863061D01*
X106571055Y-56840262D01*
X106329404Y-56857161D01*
X106329395Y-56857162D01*
X106093739Y-56913304D01*
X105870419Y-57007179D01*
X105665431Y-57136267D01*
X105484271Y-57297108D01*
X105380547Y-57425197D01*
X105322133Y-57465549D01*
X105251176Y-57467915D01*
X105182799Y-57422782D01*
X105106357Y-57323521D01*
X105106356Y-57323519D01*
X104929184Y-57158304D01*
X104727410Y-57024245D01*
X104727408Y-57024244D01*
X104506452Y-56924943D01*
X104506454Y-56924943D01*
X104272239Y-56863061D01*
X104031055Y-56840262D01*
X103789404Y-56857161D01*
X103789395Y-56857162D01*
X103553739Y-56913304D01*
X103330419Y-57007179D01*
X103125431Y-57136267D01*
X103034791Y-57216741D01*
X102970570Y-57247010D01*
X102900179Y-57237754D01*
X102845967Y-57191912D01*
X102825145Y-57124037D01*
X102832735Y-57079423D01*
X102868256Y-56981833D01*
X102908000Y-56756433D01*
X102908000Y-56527567D01*
X102868255Y-56302167D01*
X102789980Y-56087108D01*
X102789976Y-56087099D01*
X102675545Y-55888899D01*
X102675543Y-55888896D01*
X102528428Y-55713572D01*
X102353104Y-55566457D01*
X102353101Y-55566455D01*
X102154901Y-55452024D01*
X102154892Y-55452020D01*
X101939833Y-55373745D01*
X101714433Y-55334000D01*
X101485567Y-55334000D01*
X101260167Y-55373745D01*
X101045108Y-55452020D01*
X101045099Y-55452024D01*
X100846899Y-55566455D01*
X100846896Y-55566457D01*
X100671572Y-55713572D01*
X100524457Y-55888896D01*
X100524455Y-55888899D01*
X100410024Y-56087099D01*
X100410020Y-56087108D01*
X100331745Y-56302167D01*
X100292000Y-56527567D01*
X100292000Y-56756433D01*
X100331745Y-56981833D01*
X100410020Y-57196892D01*
X100410024Y-57196901D01*
X100524455Y-57395101D01*
X100524457Y-57395104D01*
X100671572Y-57570428D01*
X100846896Y-57717543D01*
X100846899Y-57717545D01*
X101045099Y-57831976D01*
X101045108Y-57831980D01*
X101260167Y-57910255D01*
X101485567Y-57950000D01*
X101714433Y-57950000D01*
X101939833Y-57910255D01*
X102154892Y-57831980D01*
X102154901Y-57831976D01*
X102353101Y-57717545D01*
X102353104Y-57717543D01*
X102440439Y-57644260D01*
X102505480Y-57615795D01*
X102575585Y-57627012D01*
X102628496Y-57674350D01*
X102647415Y-57742780D01*
X102639681Y-57784289D01*
X102588516Y-57923350D01*
X102588515Y-57923354D01*
X102543122Y-58161316D01*
X102537203Y-58403480D01*
X102537203Y-58403492D01*
X102569982Y-58636724D01*
X102559655Y-58706966D01*
X102512992Y-58760474D01*
X102444808Y-58780259D01*
X102364216Y-58750781D01*
X102353104Y-58741457D01*
X102353101Y-58741455D01*
X102154901Y-58627024D01*
X102154892Y-58627020D01*
X101939833Y-58548745D01*
X101714433Y-58509000D01*
X101485567Y-58509000D01*
X101260167Y-58548745D01*
X101045108Y-58627020D01*
X101045099Y-58627024D01*
X100846899Y-58741455D01*
X100846896Y-58741457D01*
X100671572Y-58888572D01*
X100524457Y-59063896D01*
X100524455Y-59063899D01*
X100410024Y-59262099D01*
X100410020Y-59262108D01*
X100331745Y-59477167D01*
X100292000Y-59702567D01*
X100292000Y-59931433D01*
X100331745Y-60156833D01*
X100410020Y-60371892D01*
X100410024Y-60371901D01*
X100524455Y-60570101D01*
X100524457Y-60570104D01*
X100671572Y-60745428D01*
X100846896Y-60892543D01*
X100846899Y-60892545D01*
X101045099Y-61006976D01*
X101045108Y-61006980D01*
X101260167Y-61085255D01*
X101485567Y-61125000D01*
X101714433Y-61125000D01*
X101939833Y-61085255D01*
X102154892Y-61006980D01*
X102154901Y-61006976D01*
X102353101Y-60892545D01*
X102353104Y-60892543D01*
X102528428Y-60745428D01*
X102675543Y-60570104D01*
X102675545Y-60570101D01*
X102789976Y-60371901D01*
X102789980Y-60371892D01*
X102868255Y-60156833D01*
X102908000Y-59931433D01*
X102908000Y-59702567D01*
X102888532Y-59592161D01*
X102896401Y-59521602D01*
X102941168Y-59466498D01*
X103008620Y-59444344D01*
X103084889Y-59467068D01*
X103267184Y-59594714D01*
X103485651Y-59699385D01*
X103718279Y-59766970D01*
X103958836Y-59795655D01*
X104200828Y-59784667D01*
X104200842Y-59784665D01*
X104437786Y-59734300D01*
X104437793Y-59734298D01*
X104663340Y-59645906D01*
X104663348Y-59645902D01*
X104871420Y-59521867D01*
X104871426Y-59521862D01*
X105056449Y-59365506D01*
X105056452Y-59365502D01*
X105188106Y-59210810D01*
X105247489Y-59171897D01*
X105318483Y-59171266D01*
X105385737Y-59218057D01*
X105435661Y-59286270D01*
X105608736Y-59455756D01*
X105608749Y-59455767D01*
X105807184Y-59594714D01*
X106025651Y-59699385D01*
X106258279Y-59766970D01*
X106498836Y-59795655D01*
X106740828Y-59784667D01*
X106740842Y-59784665D01*
X106977786Y-59734300D01*
X106977793Y-59734298D01*
X107203340Y-59645906D01*
X107203348Y-59645902D01*
X107411420Y-59521867D01*
X107411426Y-59521862D01*
X107475346Y-59467846D01*
X107540287Y-59439154D01*
X107610431Y-59450127D01*
X107663507Y-59497280D01*
X107678381Y-59531474D01*
X107681073Y-59541520D01*
X107796226Y-59678754D01*
X107951374Y-59768329D01*
X108127801Y-59799437D01*
X110058198Y-59799437D01*
X110326165Y-59727636D01*
X110397141Y-59729326D01*
X110455937Y-59769120D01*
X110484776Y-59849343D01*
X110484776Y-62647393D01*
X110464774Y-62715514D01*
X110411118Y-62762007D01*
X110340844Y-62772111D01*
X110295775Y-62756512D01*
X110260025Y-62735871D01*
X110083599Y-62704763D01*
X108153202Y-62704763D01*
X107895281Y-62773873D01*
X107758046Y-62889026D01*
X107693750Y-63000390D01*
X107642368Y-63049383D01*
X107572654Y-63062819D01*
X107498701Y-63029542D01*
X107494591Y-63025710D01*
X107494585Y-63025705D01*
X107292810Y-62891645D01*
X107292808Y-62891644D01*
X107071852Y-62792343D01*
X107071854Y-62792343D01*
X106837639Y-62730461D01*
X106596455Y-62707662D01*
X106354804Y-62724561D01*
X106354795Y-62724562D01*
X106119139Y-62780704D01*
X105895819Y-62874579D01*
X105690831Y-63003667D01*
X105509671Y-63164508D01*
X105405947Y-63292597D01*
X105347533Y-63332949D01*
X105276576Y-63335315D01*
X105208199Y-63290182D01*
X105131757Y-63190921D01*
X105131756Y-63190919D01*
X104954584Y-63025704D01*
X104752810Y-62891645D01*
X104752808Y-62891644D01*
X104531852Y-62792343D01*
X104531854Y-62792343D01*
X104297639Y-62730461D01*
X104056455Y-62707662D01*
X103814804Y-62724561D01*
X103814795Y-62724562D01*
X103579139Y-62780704D01*
X103355819Y-62874579D01*
X103150831Y-63003667D01*
X103150825Y-63003672D01*
X103117654Y-63033122D01*
X103053433Y-63063391D01*
X102983043Y-63054135D01*
X102928831Y-63008292D01*
X102908000Y-62938899D01*
X102908000Y-62750567D01*
X102868255Y-62525167D01*
X102789980Y-62310108D01*
X102789976Y-62310099D01*
X102675545Y-62111899D01*
X102675543Y-62111896D01*
X102528428Y-61936572D01*
X102353104Y-61789457D01*
X102353101Y-61789455D01*
X102154901Y-61675024D01*
X102154892Y-61675020D01*
X101939833Y-61596745D01*
X101714433Y-61557000D01*
X101485567Y-61557000D01*
X101260167Y-61596745D01*
X101045108Y-61675020D01*
X101045099Y-61675024D01*
X100846899Y-61789455D01*
X100846896Y-61789457D01*
X100671572Y-61936572D01*
X100524457Y-62111896D01*
X100524455Y-62111899D01*
X100410024Y-62310099D01*
X100410020Y-62310108D01*
X100331745Y-62525167D01*
X100292000Y-62750567D01*
X100292000Y-62979434D01*
X100311449Y-63089740D01*
X100303579Y-63160299D01*
X100276458Y-63200714D01*
X97742404Y-65734769D01*
X97720544Y-65752236D01*
X97713634Y-65756596D01*
X97713631Y-65756598D01*
X97663729Y-65813102D01*
X97658381Y-65818793D01*
X97641629Y-65835544D01*
X97641623Y-65835551D01*
X97631878Y-65848554D01*
X97625492Y-65856398D01*
X97581187Y-65906564D01*
X97574574Y-65920650D01*
X97561342Y-65942671D01*
X97552015Y-65955115D01*
X97528521Y-66017784D01*
X97524594Y-66027102D01*
X97496155Y-66087677D01*
X97494032Y-66101879D01*
X97487398Y-66127480D01*
X97481782Y-66142461D01*
X97481781Y-66142468D01*
X97476009Y-66220122D01*
X97474972Y-66229405D01*
X97472501Y-66245941D01*
X97472501Y-66262659D01*
X97472155Y-66271997D01*
X97466953Y-66341997D01*
X97469725Y-66354982D01*
X97472501Y-66381286D01*
X97472500Y-70330660D01*
X97452498Y-70398781D01*
X97420739Y-70432467D01*
X97244861Y-70560719D01*
X97078276Y-70732023D01*
X96942934Y-70928945D01*
X96842708Y-71145855D01*
X96842707Y-71145857D01*
X96780462Y-71376550D01*
X96757975Y-71614437D01*
X96758046Y-71615381D01*
X96757962Y-71615773D01*
X96757924Y-71619766D01*
X96757110Y-71619758D01*
X96743203Y-71684809D01*
X96693180Y-71735190D01*
X96623861Y-71750529D01*
X96557252Y-71725957D01*
X96513999Y-71667914D01*
X96436180Y-71454108D01*
X96436176Y-71454099D01*
X96321745Y-71255899D01*
X96321743Y-71255896D01*
X96174628Y-71080572D01*
X95999304Y-70933457D01*
X95999301Y-70933455D01*
X95801101Y-70819024D01*
X95801092Y-70819020D01*
X95586033Y-70740745D01*
X95360633Y-70701000D01*
X95131767Y-70701000D01*
X94906367Y-70740745D01*
X94691308Y-70819020D01*
X94691299Y-70819024D01*
X94493099Y-70933455D01*
X94493096Y-70933457D01*
X94317772Y-71080572D01*
X94170657Y-71255896D01*
X94170655Y-71255899D01*
X94056224Y-71454099D01*
X94056220Y-71454108D01*
X93977945Y-71669167D01*
X93938200Y-71894567D01*
X93938200Y-72123433D01*
X93977945Y-72348833D01*
X94056220Y-72563892D01*
X94056224Y-72563901D01*
X94170655Y-72762101D01*
X94170657Y-72762104D01*
X94317772Y-72937428D01*
X94493096Y-73084543D01*
X94493099Y-73084545D01*
X94691299Y-73198976D01*
X94691308Y-73198980D01*
X94906367Y-73277255D01*
X95131767Y-73317000D01*
X95360633Y-73317000D01*
X95586033Y-73277255D01*
X95801092Y-73198980D01*
X95801101Y-73198976D01*
X95999301Y-73084545D01*
X95999304Y-73084543D01*
X96174628Y-72937428D01*
X96321743Y-72762104D01*
X96321745Y-72762101D01*
X96436176Y-72563901D01*
X96436180Y-72563892D01*
X96514455Y-72348833D01*
X96554200Y-72123433D01*
X96554200Y-71989742D01*
X96574202Y-71921621D01*
X96627858Y-71875128D01*
X96698132Y-71865024D01*
X96762712Y-71894518D01*
X96802457Y-71959260D01*
X96833696Y-72084552D01*
X96833697Y-72084555D01*
X96929739Y-72303348D01*
X97061278Y-72502836D01*
X97224540Y-72677303D01*
X97224544Y-72677307D01*
X97414868Y-72821770D01*
X97414870Y-72821772D01*
X97626817Y-72932105D01*
X97854321Y-73005148D01*
X98090888Y-73038817D01*
X98329746Y-73032146D01*
X98329742Y-73032146D01*
X98564047Y-72985327D01*
X98564056Y-72985325D01*
X98787127Y-72899696D01*
X98787139Y-72899690D01*
X98992583Y-72777706D01*
X99141675Y-72650819D01*
X99206515Y-72621901D01*
X99276697Y-72632629D01*
X99329937Y-72679597D01*
X99345045Y-72714161D01*
X99364273Y-72785920D01*
X99479426Y-72923154D01*
X99634574Y-73012729D01*
X99816417Y-73044792D01*
X99816104Y-73046568D01*
X99874702Y-73069489D01*
X99916341Y-73126993D01*
X99923601Y-73169146D01*
X99923600Y-74190027D01*
X99903598Y-74258148D01*
X99864742Y-74296647D01*
X99848836Y-74306664D01*
X99848832Y-74306667D01*
X99667671Y-74467508D01*
X99563947Y-74595597D01*
X99505533Y-74635949D01*
X99434576Y-74638315D01*
X99366199Y-74593182D01*
X99289757Y-74493921D01*
X99289756Y-74493919D01*
X99112584Y-74328704D01*
X98910810Y-74194645D01*
X98910808Y-74194644D01*
X98689852Y-74095343D01*
X98689854Y-74095343D01*
X98455639Y-74033461D01*
X98450400Y-74032965D01*
X98450400Y-75616800D01*
X98430398Y-75684921D01*
X98376742Y-75731414D01*
X98324400Y-75742800D01*
X98068400Y-75742800D01*
X98000279Y-75722798D01*
X97953786Y-75669142D01*
X97942400Y-75616800D01*
X97942400Y-74034803D01*
X97737139Y-74083704D01*
X97513819Y-74177579D01*
X97308831Y-74306667D01*
X97308825Y-74306672D01*
X97275977Y-74335835D01*
X97211756Y-74366104D01*
X97141365Y-74356848D01*
X97087153Y-74311005D01*
X97070616Y-74274223D01*
X97068327Y-74265681D01*
X96953174Y-74128446D01*
X96798026Y-74038871D01*
X96621599Y-74007763D01*
X94691202Y-74007763D01*
X94433281Y-74076873D01*
X94296046Y-74192026D01*
X94206471Y-74347174D01*
X94175363Y-74523601D01*
X94175363Y-74540892D01*
X94155361Y-74609013D01*
X94101705Y-74655506D01*
X94031431Y-74665610D01*
X93949535Y-74617770D01*
X93854162Y-74493926D01*
X93854156Y-74493919D01*
X93676984Y-74328704D01*
X93475210Y-74194645D01*
X93475208Y-74194644D01*
X93254252Y-74095343D01*
X93254254Y-74095343D01*
X93020039Y-74033461D01*
X93014800Y-74032965D01*
X93014800Y-75616800D01*
X92994798Y-75684921D01*
X92941142Y-75731414D01*
X92888800Y-75742800D01*
X92632800Y-75742800D01*
X92564679Y-75722798D01*
X92518186Y-75669142D01*
X92506800Y-75616800D01*
X92506800Y-74034803D01*
X92301539Y-74083704D01*
X92078219Y-74177579D01*
X91873231Y-74306667D01*
X91873225Y-74306672D01*
X91840377Y-74335835D01*
X91776156Y-74366104D01*
X91705765Y-74356848D01*
X91651553Y-74311005D01*
X91635016Y-74274223D01*
X91632727Y-74265681D01*
X91517574Y-74128446D01*
X91362426Y-74038871D01*
X91185999Y-74007763D01*
X89255602Y-74007763D01*
X89255597Y-74007764D01*
X89241633Y-74011505D01*
X89170657Y-74009815D01*
X89111862Y-73970020D01*
X89083024Y-73889798D01*
X89083024Y-73003849D01*
X89103026Y-72935728D01*
X89156682Y-72889235D01*
X89226956Y-72879131D01*
X89305544Y-72922856D01*
X89317771Y-72937427D01*
X89493096Y-73084543D01*
X89493099Y-73084545D01*
X89691299Y-73198976D01*
X89691308Y-73198980D01*
X89906367Y-73277255D01*
X90131767Y-73317000D01*
X90360633Y-73317000D01*
X90586033Y-73277255D01*
X90801092Y-73198980D01*
X90801101Y-73198976D01*
X90999301Y-73084545D01*
X90999304Y-73084543D01*
X91174628Y-72937428D01*
X91321743Y-72762104D01*
X91321745Y-72762101D01*
X91436176Y-72563901D01*
X91436180Y-72563892D01*
X91514455Y-72348833D01*
X91554200Y-72123433D01*
X91554200Y-71894567D01*
X91514455Y-71669167D01*
X91436180Y-71454108D01*
X91436176Y-71454099D01*
X91321745Y-71255899D01*
X91321743Y-71255896D01*
X91174628Y-71080572D01*
X90999304Y-70933457D01*
X90999301Y-70933455D01*
X90801101Y-70819024D01*
X90801099Y-70819023D01*
X90778024Y-70810625D01*
X90720853Y-70768531D01*
X90695514Y-70702209D01*
X90710054Y-70632718D01*
X90769067Y-70577477D01*
X90936649Y-70501459D01*
X91140921Y-70365740D01*
X91320852Y-70199124D01*
X91320861Y-70199114D01*
X91471848Y-70005857D01*
X91589994Y-69790952D01*
X91672256Y-69559932D01*
X91672258Y-69559927D01*
X91716530Y-69318707D01*
X91719432Y-69041586D01*
X91719432Y-69041578D01*
X91687848Y-68846567D01*
X92646600Y-68846567D01*
X92646600Y-69075433D01*
X92686345Y-69300833D01*
X92764620Y-69515892D01*
X92764624Y-69515901D01*
X92879055Y-69714101D01*
X92879057Y-69714104D01*
X93026172Y-69889428D01*
X93201496Y-70036543D01*
X93201499Y-70036545D01*
X93399699Y-70150976D01*
X93399708Y-70150980D01*
X93614767Y-70229255D01*
X93840167Y-70269000D01*
X94069033Y-70269000D01*
X94294433Y-70229255D01*
X94509492Y-70150980D01*
X94509501Y-70150976D01*
X94707701Y-70036545D01*
X94707704Y-70036543D01*
X94883028Y-69889428D01*
X95030143Y-69714104D01*
X95030145Y-69714101D01*
X95144576Y-69515901D01*
X95144580Y-69515892D01*
X95222855Y-69300833D01*
X95262600Y-69075433D01*
X95262600Y-68846567D01*
X95222855Y-68621167D01*
X95144580Y-68406108D01*
X95144576Y-68406099D01*
X95030145Y-68207899D01*
X95030143Y-68207896D01*
X94883028Y-68032572D01*
X94707704Y-67885457D01*
X94707701Y-67885455D01*
X94509501Y-67771024D01*
X94509492Y-67771020D01*
X94294433Y-67692745D01*
X94069033Y-67653000D01*
X93840167Y-67653000D01*
X93614767Y-67692745D01*
X93399708Y-67771020D01*
X93399699Y-67771024D01*
X93201499Y-67885455D01*
X93201496Y-67885457D01*
X93026172Y-68032572D01*
X92879057Y-68207896D01*
X92879055Y-68207899D01*
X92764624Y-68406099D01*
X92764620Y-68406108D01*
X92686345Y-68621167D01*
X92646600Y-68846567D01*
X91687848Y-68846567D01*
X91680224Y-68799497D01*
X91680221Y-68799485D01*
X91602814Y-68566795D01*
X91489190Y-68349450D01*
X91342292Y-68153087D01*
X91342291Y-68153087D01*
X91166520Y-67983346D01*
X91131413Y-67921637D01*
X91135241Y-67850743D01*
X91168438Y-67800259D01*
X91320852Y-67659124D01*
X91320861Y-67659114D01*
X91471848Y-67465857D01*
X91589994Y-67250952D01*
X91672256Y-67019932D01*
X91672258Y-67019927D01*
X91716530Y-66778707D01*
X91719432Y-66501586D01*
X91719432Y-66501578D01*
X91680224Y-66259497D01*
X91680221Y-66259485D01*
X91671765Y-66234066D01*
X91669242Y-66163115D01*
X91702228Y-66105199D01*
X92543169Y-65264258D01*
X92605481Y-65230232D01*
X92676296Y-65235297D01*
X92733132Y-65277844D01*
X92757943Y-65344364D01*
X92750665Y-65396448D01*
X92686345Y-65573167D01*
X92646600Y-65798567D01*
X92646600Y-66027433D01*
X92686345Y-66252833D01*
X92764620Y-66467892D01*
X92764624Y-66467901D01*
X92879055Y-66666101D01*
X92879057Y-66666104D01*
X93026172Y-66841428D01*
X93201496Y-66988543D01*
X93201499Y-66988545D01*
X93399699Y-67102976D01*
X93399708Y-67102980D01*
X93614767Y-67181255D01*
X93840167Y-67221000D01*
X94069033Y-67221000D01*
X94294433Y-67181255D01*
X94509492Y-67102980D01*
X94509501Y-67102976D01*
X94707701Y-66988545D01*
X94707704Y-66988543D01*
X94883028Y-66841428D01*
X95030143Y-66666104D01*
X95030145Y-66666101D01*
X95144576Y-66467901D01*
X95144580Y-66467892D01*
X95222855Y-66252833D01*
X95262600Y-66027433D01*
X95262600Y-65798567D01*
X95222855Y-65573167D01*
X95144580Y-65358108D01*
X95144576Y-65358099D01*
X95030145Y-65159899D01*
X95030143Y-65159896D01*
X94883029Y-64984573D01*
X94795658Y-64911260D01*
X94756331Y-64852150D01*
X94755205Y-64781162D01*
X94792636Y-64720835D01*
X94833864Y-64696225D01*
X94882737Y-64678581D01*
X94882738Y-64678581D01*
X94894279Y-64670041D01*
X94917072Y-64656629D01*
X94931640Y-64650005D01*
X94931646Y-64650001D01*
X94990642Y-64599166D01*
X94997945Y-64593331D01*
X95011372Y-64583396D01*
X95011380Y-64583389D01*
X95023185Y-64571584D01*
X95030033Y-64565226D01*
X95083215Y-64519402D01*
X95083216Y-64519401D01*
X95090443Y-64508251D01*
X95107080Y-64487689D01*
X96288200Y-63306570D01*
X96310057Y-63289105D01*
X96316964Y-63284747D01*
X96316969Y-63284742D01*
X96366867Y-63228244D01*
X96372215Y-63222554D01*
X96388972Y-63205798D01*
X96388979Y-63205790D01*
X96398724Y-63192786D01*
X96405113Y-63184938D01*
X96449413Y-63134779D01*
X96449414Y-63134778D01*
X96456026Y-63120694D01*
X96469255Y-63098677D01*
X96478585Y-63086228D01*
X96478586Y-63086226D01*
X96502072Y-63023575D01*
X96505999Y-63014254D01*
X96534448Y-62953661D01*
X96534448Y-62953660D01*
X96536570Y-62939461D01*
X96543203Y-62913858D01*
X96548818Y-62898879D01*
X96554588Y-62821235D01*
X96555627Y-62811945D01*
X96558099Y-62795409D01*
X96558100Y-62795393D01*
X96558100Y-62778670D01*
X96558446Y-62769332D01*
X96563647Y-62699346D01*
X96560876Y-62686366D01*
X96558100Y-62660061D01*
X96558100Y-54345148D01*
X96578102Y-54277027D01*
X96631758Y-54230534D01*
X96702032Y-54220430D01*
X96766612Y-54249924D01*
X96793219Y-54282148D01*
X96816055Y-54321701D01*
X96816057Y-54321704D01*
X96963172Y-54497028D01*
X97138496Y-54644143D01*
X97138499Y-54644145D01*
X97336699Y-54758576D01*
X97336708Y-54758580D01*
X97551767Y-54836855D01*
X97777167Y-54876600D01*
X98006033Y-54876600D01*
X98231433Y-54836855D01*
X98446492Y-54758580D01*
X98446501Y-54758576D01*
X98644701Y-54644145D01*
X98644704Y-54644143D01*
X98820028Y-54497028D01*
X98967143Y-54321704D01*
X98967145Y-54321701D01*
X99081576Y-54123501D01*
X99081580Y-54123492D01*
X99159855Y-53908433D01*
X99199600Y-53683033D01*
X99199600Y-53667173D01*
X99910231Y-53667173D01*
X99911000Y-53678455D01*
X99911000Y-53683033D01*
X99950745Y-53908433D01*
X100029020Y-54123492D01*
X100029024Y-54123501D01*
X100143455Y-54321701D01*
X100143457Y-54321704D01*
X100290572Y-54497028D01*
X100465896Y-54644143D01*
X100465899Y-54644145D01*
X100664099Y-54758576D01*
X100664108Y-54758580D01*
X100879167Y-54836855D01*
X101104567Y-54876600D01*
X101333433Y-54876600D01*
X101558833Y-54836855D01*
X101773892Y-54758580D01*
X101773901Y-54758576D01*
X101972101Y-54644145D01*
X101972104Y-54644143D01*
X102147428Y-54497028D01*
X102294543Y-54321704D01*
X102294545Y-54321701D01*
X102408976Y-54123501D01*
X102408980Y-54123492D01*
X102487255Y-53908433D01*
X102502390Y-53822600D01*
X107555609Y-53822600D01*
X107570745Y-53908434D01*
X107649020Y-54123492D01*
X107649024Y-54123501D01*
X107763455Y-54321701D01*
X107763457Y-54321704D01*
X107910572Y-54497028D01*
X108085896Y-54644143D01*
X108085899Y-54644145D01*
X108284099Y-54758576D01*
X108284108Y-54758580D01*
X108499166Y-54836855D01*
X108585000Y-54851991D01*
X108585000Y-53822600D01*
X109093000Y-53822600D01*
X109093000Y-54851991D01*
X109178834Y-54836855D01*
X109393892Y-54758580D01*
X109393901Y-54758576D01*
X109592101Y-54644145D01*
X109592104Y-54644143D01*
X109767428Y-54497028D01*
X109914543Y-54321704D01*
X109914545Y-54321701D01*
X110028976Y-54123501D01*
X110028980Y-54123492D01*
X110107255Y-53908434D01*
X110122391Y-53822600D01*
X109093000Y-53822600D01*
X108585000Y-53822600D01*
X107555609Y-53822600D01*
X102502390Y-53822600D01*
X102527000Y-53683033D01*
X102527000Y-53454167D01*
X102502391Y-53314600D01*
X107555609Y-53314600D01*
X108585000Y-53314600D01*
X109093000Y-53314600D01*
X110122391Y-53314600D01*
X110107255Y-53228766D01*
X110028980Y-53013708D01*
X110028976Y-53013699D01*
X109914545Y-52815499D01*
X109914543Y-52815496D01*
X109767428Y-52640172D01*
X109592104Y-52493057D01*
X109592101Y-52493055D01*
X109393901Y-52378624D01*
X109393892Y-52378620D01*
X109178834Y-52300345D01*
X109093000Y-52285209D01*
X109093000Y-53314600D01*
X108585000Y-53314600D01*
X108585000Y-52285209D01*
X108499166Y-52300345D01*
X108284108Y-52378620D01*
X108284099Y-52378624D01*
X108085899Y-52493055D01*
X108085896Y-52493057D01*
X107910572Y-52640172D01*
X107763457Y-52815496D01*
X107763455Y-52815499D01*
X107649024Y-53013699D01*
X107649020Y-53013708D01*
X107570745Y-53228766D01*
X107555609Y-53314600D01*
X102502391Y-53314600D01*
X102487255Y-53228767D01*
X102408980Y-53013708D01*
X102408976Y-53013699D01*
X102294545Y-52815499D01*
X102294543Y-52815496D01*
X102147428Y-52640172D01*
X101972104Y-52493057D01*
X101972101Y-52493055D01*
X101773901Y-52378624D01*
X101773892Y-52378620D01*
X101558833Y-52300345D01*
X101333433Y-52260600D01*
X101104567Y-52260600D01*
X100879167Y-52300345D01*
X100664108Y-52378620D01*
X100664099Y-52378624D01*
X100465899Y-52493055D01*
X100465896Y-52493057D01*
X100290572Y-52640172D01*
X100143457Y-52815496D01*
X100143455Y-52815499D01*
X100029024Y-53013699D01*
X100029020Y-53013708D01*
X99950745Y-53228767D01*
X99911000Y-53454167D01*
X99911000Y-53540641D01*
X99910998Y-53541410D01*
X99910231Y-53667173D01*
X99199600Y-53667173D01*
X99199600Y-53454167D01*
X99159855Y-53228767D01*
X99081580Y-53013708D01*
X99081576Y-53013699D01*
X98967145Y-52815499D01*
X98967143Y-52815496D01*
X98820028Y-52640172D01*
X98644704Y-52493057D01*
X98644701Y-52493055D01*
X98446501Y-52378624D01*
X98446492Y-52378620D01*
X98231433Y-52300345D01*
X98006033Y-52260600D01*
X97777167Y-52260600D01*
X97551767Y-52300345D01*
X97336708Y-52378620D01*
X97336699Y-52378624D01*
X97138499Y-52493055D01*
X97138496Y-52493057D01*
X96963172Y-52640172D01*
X96816057Y-52815496D01*
X96816055Y-52815499D01*
X96793219Y-52855052D01*
X96741837Y-52904045D01*
X96672123Y-52917481D01*
X96606212Y-52891095D01*
X96565030Y-52833263D01*
X96558100Y-52792052D01*
X96558100Y-51246348D01*
X96578102Y-51178227D01*
X96631758Y-51131734D01*
X96702032Y-51121630D01*
X96766612Y-51151124D01*
X96793219Y-51183348D01*
X96816055Y-51222901D01*
X96816057Y-51222904D01*
X96963172Y-51398228D01*
X97138496Y-51545343D01*
X97138499Y-51545345D01*
X97336699Y-51659776D01*
X97336708Y-51659780D01*
X97551767Y-51738055D01*
X97777167Y-51777800D01*
X98006033Y-51777800D01*
X98231433Y-51738055D01*
X98446492Y-51659780D01*
X98446501Y-51659776D01*
X98644701Y-51545345D01*
X98644704Y-51545343D01*
X98820028Y-51398228D01*
X98967143Y-51222904D01*
X98967145Y-51222901D01*
X99081576Y-51024701D01*
X99081580Y-51024692D01*
X99159855Y-50809633D01*
X99199600Y-50584233D01*
X99199600Y-50406167D01*
X99911000Y-50406167D01*
X99911000Y-50635033D01*
X99950745Y-50860433D01*
X100029020Y-51075492D01*
X100029024Y-51075501D01*
X100143455Y-51273701D01*
X100143457Y-51273704D01*
X100290572Y-51449028D01*
X100465896Y-51596143D01*
X100465899Y-51596145D01*
X100664099Y-51710576D01*
X100664108Y-51710580D01*
X100879167Y-51788855D01*
X101104567Y-51828600D01*
X101333433Y-51828600D01*
X101558833Y-51788855D01*
X101773892Y-51710580D01*
X101773901Y-51710576D01*
X101972101Y-51596145D01*
X101972104Y-51596143D01*
X102147428Y-51449028D01*
X102294543Y-51273704D01*
X102294545Y-51273701D01*
X102408976Y-51075501D01*
X102408980Y-51075492D01*
X102487255Y-50860433D01*
X102527000Y-50635033D01*
X102527000Y-50406167D01*
X107531000Y-50406167D01*
X107531000Y-50635033D01*
X107570745Y-50860433D01*
X107649020Y-51075492D01*
X107649024Y-51075501D01*
X107763455Y-51273701D01*
X107763457Y-51273704D01*
X107910572Y-51449028D01*
X108085896Y-51596143D01*
X108085899Y-51596145D01*
X108284099Y-51710576D01*
X108284108Y-51710580D01*
X108499167Y-51788855D01*
X108724567Y-51828600D01*
X108953433Y-51828600D01*
X109178833Y-51788855D01*
X109393892Y-51710580D01*
X109393901Y-51710576D01*
X109592101Y-51596145D01*
X109592104Y-51596143D01*
X109767428Y-51449028D01*
X109914543Y-51273704D01*
X109914545Y-51273701D01*
X110028976Y-51075501D01*
X110028980Y-51075492D01*
X110107255Y-50860433D01*
X110147000Y-50635033D01*
X110147000Y-50406167D01*
X110107255Y-50180767D01*
X110028980Y-49965708D01*
X110028976Y-49965699D01*
X109914545Y-49767499D01*
X109914543Y-49767496D01*
X109767428Y-49592172D01*
X109592104Y-49445057D01*
X109592101Y-49445055D01*
X109393901Y-49330624D01*
X109393892Y-49330620D01*
X109178833Y-49252345D01*
X108953433Y-49212600D01*
X108724567Y-49212600D01*
X108499167Y-49252345D01*
X108284108Y-49330620D01*
X108284099Y-49330624D01*
X108085899Y-49445055D01*
X108085896Y-49445057D01*
X107910572Y-49592172D01*
X107763457Y-49767496D01*
X107763455Y-49767499D01*
X107649024Y-49965699D01*
X107649020Y-49965708D01*
X107570745Y-50180767D01*
X107531000Y-50406167D01*
X102527000Y-50406167D01*
X102487255Y-50180767D01*
X102408980Y-49965708D01*
X102408976Y-49965699D01*
X102294545Y-49767499D01*
X102294543Y-49767496D01*
X102147428Y-49592172D01*
X101972104Y-49445057D01*
X101972101Y-49445055D01*
X101773901Y-49330624D01*
X101773892Y-49330620D01*
X101558833Y-49252345D01*
X101333433Y-49212600D01*
X101104567Y-49212600D01*
X100879167Y-49252345D01*
X100664108Y-49330620D01*
X100664099Y-49330624D01*
X100465899Y-49445055D01*
X100465896Y-49445057D01*
X100290572Y-49592172D01*
X100143457Y-49767496D01*
X100143455Y-49767499D01*
X100029024Y-49965699D01*
X100029020Y-49965708D01*
X99950745Y-50180767D01*
X99911000Y-50406167D01*
X99199600Y-50406167D01*
X99199600Y-50355367D01*
X99159855Y-50129967D01*
X99081580Y-49914908D01*
X99081576Y-49914899D01*
X98967145Y-49716699D01*
X98967143Y-49716696D01*
X98820028Y-49541372D01*
X98644704Y-49394257D01*
X98644701Y-49394255D01*
X98446501Y-49279824D01*
X98446492Y-49279820D01*
X98231433Y-49201545D01*
X98006033Y-49161800D01*
X97777167Y-49161800D01*
X97551767Y-49201545D01*
X97336708Y-49279820D01*
X97336699Y-49279824D01*
X97138499Y-49394255D01*
X97138496Y-49394257D01*
X96963172Y-49541372D01*
X96885026Y-49634502D01*
X96825916Y-49673828D01*
X96754929Y-49674954D01*
X96679386Y-49616510D01*
X96586183Y-49455079D01*
X96586176Y-49455069D01*
X96417131Y-49286024D01*
X96417121Y-49286017D01*
X96210079Y-49166482D01*
X96210073Y-49166479D01*
X95979138Y-49104600D01*
X95884462Y-49104600D01*
X95816341Y-49084598D01*
X95769848Y-49030942D01*
X95759744Y-48960668D01*
X95795367Y-48889505D01*
X96514967Y-48169905D01*
X96604062Y-48133000D01*
X98689763Y-48133000D01*
X98757884Y-48153002D01*
X98804377Y-48206658D01*
X98815763Y-48259000D01*
X98815763Y-48420198D01*
X98884873Y-48678120D01*
X99000026Y-48815354D01*
X99155174Y-48904929D01*
X99331601Y-48936037D01*
X101531598Y-48936037D01*
X101789520Y-48866927D01*
X101926754Y-48751774D01*
X102016329Y-48596626D01*
X102016328Y-48596626D01*
X102032131Y-48507003D01*
X108541009Y-48507003D01*
X108715900Y-48607976D01*
X108715908Y-48607980D01*
X108930967Y-48686255D01*
X109156367Y-48726000D01*
X109385233Y-48726000D01*
X109610633Y-48686255D01*
X109825692Y-48607980D01*
X109825700Y-48607976D01*
X110000591Y-48507003D01*
X109270800Y-47777210D01*
X108541009Y-48507003D01*
X102032131Y-48507003D01*
X102047437Y-48420199D01*
X102047437Y-48259000D01*
X102067439Y-48190879D01*
X102121095Y-48144386D01*
X102173437Y-48133000D01*
X102249680Y-48133000D01*
X102266126Y-48134078D01*
X102311200Y-48140012D01*
X102311201Y-48140012D01*
X102360370Y-48133539D01*
X102360392Y-48133537D01*
X102523382Y-48112079D01*
X102721104Y-48030179D01*
X102721113Y-48030174D01*
X102890893Y-47899897D01*
X102918581Y-47863813D01*
X102929449Y-47851422D01*
X103377929Y-47402942D01*
X103467024Y-47366037D01*
X104304998Y-47366037D01*
X104562920Y-47296927D01*
X104700154Y-47181774D01*
X104724732Y-47139203D01*
X105275209Y-47139203D01*
X105450100Y-47240176D01*
X105450108Y-47240180D01*
X105665167Y-47318455D01*
X105890567Y-47358200D01*
X106119433Y-47358200D01*
X106344833Y-47318455D01*
X106385737Y-47303567D01*
X107962800Y-47303567D01*
X107962800Y-47532433D01*
X108002545Y-47757833D01*
X108080820Y-47972892D01*
X108080824Y-47972900D01*
X108181798Y-48147790D01*
X108911590Y-47418000D01*
X108181798Y-46688210D01*
X108080824Y-46863100D01*
X108080820Y-46863108D01*
X108002545Y-47078167D01*
X107962800Y-47303567D01*
X106385737Y-47303567D01*
X106559892Y-47240180D01*
X106559900Y-47240176D01*
X106734791Y-47139203D01*
X106005000Y-46409410D01*
X105275209Y-47139203D01*
X104724732Y-47139203D01*
X104789729Y-47026626D01*
X104789728Y-47026626D01*
X104814149Y-46888127D01*
X104845676Y-46824514D01*
X104906590Y-46788045D01*
X104908033Y-46787956D01*
X105645789Y-46050200D01*
X106364210Y-46050200D01*
X107094003Y-46779991D01*
X107194976Y-46605100D01*
X107194980Y-46605092D01*
X107273255Y-46390033D01*
X107284017Y-46328997D01*
X108541009Y-46328997D01*
X109270800Y-47058790D01*
X110000591Y-46328997D01*
X109825700Y-46228024D01*
X109825692Y-46228020D01*
X109610633Y-46149745D01*
X109385233Y-46110000D01*
X109156367Y-46110000D01*
X108930967Y-46149745D01*
X108715908Y-46228020D01*
X108715900Y-46228024D01*
X108541009Y-46328997D01*
X107284017Y-46328997D01*
X107313000Y-46164633D01*
X107313000Y-45935767D01*
X107273255Y-45710367D01*
X107194980Y-45495308D01*
X107194976Y-45495300D01*
X107094003Y-45320409D01*
X106364210Y-46050200D01*
X105645789Y-46050200D01*
X106005000Y-45690990D01*
X106734791Y-44961199D01*
X106734791Y-44961198D01*
X106559900Y-44860224D01*
X106559892Y-44860220D01*
X106344831Y-44781944D01*
X106344833Y-44781944D01*
X106289144Y-44772125D01*
X106225531Y-44740598D01*
X106189062Y-44679684D01*
X106191314Y-44608723D01*
X106221928Y-44558944D01*
X107513168Y-43267705D01*
X107602263Y-43230800D01*
X108186593Y-43230800D01*
X108254714Y-43250802D01*
G37*
%TD.AperFunction*%
%TA.AperFunction,Conductor*%
G36*
X105411137Y-65085457D02*
G01*
X105461061Y-65153670D01*
X105634136Y-65323156D01*
X105634149Y-65323167D01*
X105832584Y-65462114D01*
X106051051Y-65566785D01*
X106283679Y-65634370D01*
X106524236Y-65663055D01*
X106766228Y-65652067D01*
X106766242Y-65652065D01*
X107003186Y-65601700D01*
X107003193Y-65601698D01*
X107228740Y-65513306D01*
X107228748Y-65513302D01*
X107436820Y-65389267D01*
X107436826Y-65389262D01*
X107500746Y-65335246D01*
X107565687Y-65306554D01*
X107635831Y-65317527D01*
X107688907Y-65364680D01*
X107703781Y-65398874D01*
X107706473Y-65408920D01*
X107821626Y-65546154D01*
X107976774Y-65635729D01*
X108153201Y-65666837D01*
X110083598Y-65666837D01*
X110326165Y-65601842D01*
X110397142Y-65603532D01*
X110455937Y-65643326D01*
X110484776Y-65723549D01*
X110484776Y-67668983D01*
X110464774Y-67737104D01*
X110411118Y-67783597D01*
X110340844Y-67793701D01*
X110276264Y-67764207D01*
X110249657Y-67731983D01*
X110143145Y-67547499D01*
X110143143Y-67547496D01*
X109996028Y-67372172D01*
X109820704Y-67225057D01*
X109820701Y-67225055D01*
X109622501Y-67110624D01*
X109622492Y-67110620D01*
X109407433Y-67032345D01*
X109182033Y-66992600D01*
X108953167Y-66992600D01*
X108727767Y-67032345D01*
X108512708Y-67110620D01*
X108512699Y-67110624D01*
X108314499Y-67225055D01*
X108314496Y-67225057D01*
X108139172Y-67372172D01*
X107992057Y-67547496D01*
X107992055Y-67547499D01*
X107877624Y-67745699D01*
X107877620Y-67745708D01*
X107799345Y-67960767D01*
X107759600Y-68186167D01*
X107759600Y-68415033D01*
X107799345Y-68640433D01*
X107877620Y-68855492D01*
X107877624Y-68855501D01*
X107992055Y-69053701D01*
X107992057Y-69053704D01*
X108139172Y-69229028D01*
X108314496Y-69376143D01*
X108314499Y-69376145D01*
X108512699Y-69490576D01*
X108512708Y-69490580D01*
X108727767Y-69568855D01*
X108953167Y-69608600D01*
X109182033Y-69608600D01*
X109407433Y-69568855D01*
X109622492Y-69490580D01*
X109622501Y-69490576D01*
X109820701Y-69376145D01*
X109820704Y-69376143D01*
X109996028Y-69229028D01*
X110143143Y-69053704D01*
X110143145Y-69053701D01*
X110249657Y-68869217D01*
X110301039Y-68820224D01*
X110370753Y-68806788D01*
X110436664Y-68833174D01*
X110477846Y-68891006D01*
X110484776Y-68932217D01*
X110484776Y-70748965D01*
X110464774Y-70817086D01*
X110411118Y-70863579D01*
X110340844Y-70873683D01*
X110276264Y-70844189D01*
X110249657Y-70811965D01*
X110139345Y-70620899D01*
X110139343Y-70620896D01*
X109992228Y-70445572D01*
X109816904Y-70298457D01*
X109816901Y-70298455D01*
X109618701Y-70184024D01*
X109618692Y-70184020D01*
X109403633Y-70105745D01*
X109178233Y-70066000D01*
X108949367Y-70066000D01*
X108723967Y-70105745D01*
X108508908Y-70184020D01*
X108508899Y-70184024D01*
X108310699Y-70298455D01*
X108310696Y-70298457D01*
X108135372Y-70445572D01*
X107988257Y-70620896D01*
X107988255Y-70620899D01*
X107873824Y-70819099D01*
X107873820Y-70819108D01*
X107795545Y-71034167D01*
X107755800Y-71259567D01*
X107755800Y-71488433D01*
X107795545Y-71713833D01*
X107873820Y-71928892D01*
X107873824Y-71928901D01*
X107988255Y-72127101D01*
X107988257Y-72127104D01*
X108135369Y-72302425D01*
X108185533Y-72344517D01*
X108224860Y-72403627D01*
X108225986Y-72474615D01*
X108193637Y-72530134D01*
X106752914Y-73970858D01*
X106663819Y-74007763D01*
X105257602Y-74007763D01*
X104999681Y-74076873D01*
X104862446Y-74192026D01*
X104772871Y-74347174D01*
X104741763Y-74523601D01*
X104741763Y-74606856D01*
X104721761Y-74674977D01*
X104668105Y-74721470D01*
X104597831Y-74731574D01*
X104515935Y-74683735D01*
X104369757Y-74493921D01*
X104369756Y-74493919D01*
X104192584Y-74328704D01*
X103990810Y-74194645D01*
X103990808Y-74194644D01*
X103769852Y-74095343D01*
X103769854Y-74095343D01*
X103535639Y-74033461D01*
X103294455Y-74010662D01*
X103052804Y-74027561D01*
X103052795Y-74027562D01*
X102817139Y-74083704D01*
X102593819Y-74177579D01*
X102388831Y-74306667D01*
X102207671Y-74467508D01*
X102103947Y-74595597D01*
X102045533Y-74635949D01*
X101974576Y-74638315D01*
X101906199Y-74593182D01*
X101829757Y-74493921D01*
X101829756Y-74493919D01*
X101652584Y-74328704D01*
X101652580Y-74328701D01*
X101605473Y-74297403D01*
X101559802Y-74243046D01*
X101549200Y-74192455D01*
X101549200Y-73157079D01*
X101569202Y-73088958D01*
X101642589Y-73035372D01*
X101868920Y-72974727D01*
X102006154Y-72859574D01*
X102095729Y-72704426D01*
X102095728Y-72704426D01*
X102126837Y-72527999D01*
X102126837Y-71259567D01*
X102755800Y-71259567D01*
X102755800Y-71488433D01*
X102795545Y-71713833D01*
X102873820Y-71928892D01*
X102873824Y-71928901D01*
X102988255Y-72127101D01*
X102988257Y-72127104D01*
X103135372Y-72302428D01*
X103310696Y-72449543D01*
X103310699Y-72449545D01*
X103508899Y-72563976D01*
X103508908Y-72563980D01*
X103723967Y-72642255D01*
X103949367Y-72682000D01*
X104178233Y-72682000D01*
X104403633Y-72642255D01*
X104618692Y-72563980D01*
X104618701Y-72563976D01*
X104816901Y-72449545D01*
X104816904Y-72449543D01*
X104992228Y-72302428D01*
X105139343Y-72127104D01*
X105139345Y-72127101D01*
X105253776Y-71928901D01*
X105253780Y-71928892D01*
X105332055Y-71713833D01*
X105371800Y-71488433D01*
X105371800Y-71259567D01*
X105332055Y-71034167D01*
X105253780Y-70819108D01*
X105253776Y-70819099D01*
X105139345Y-70620899D01*
X105139343Y-70620896D01*
X104992228Y-70445572D01*
X104816904Y-70298457D01*
X104816901Y-70298455D01*
X104618701Y-70184024D01*
X104618692Y-70184020D01*
X104403633Y-70105745D01*
X104178233Y-70066000D01*
X103949367Y-70066000D01*
X103723967Y-70105745D01*
X103508908Y-70184020D01*
X103508899Y-70184024D01*
X103310699Y-70298455D01*
X103310696Y-70298457D01*
X103135372Y-70445572D01*
X102988257Y-70620896D01*
X102988255Y-70620899D01*
X102873824Y-70819099D01*
X102873820Y-70819108D01*
X102795545Y-71034167D01*
X102755800Y-71259567D01*
X102126837Y-71259567D01*
X102126837Y-70728002D01*
X102057727Y-70470081D01*
X101985070Y-70383491D01*
X101956606Y-70318450D01*
X101967823Y-70248345D01*
X102038498Y-70184099D01*
X102129489Y-70150981D01*
X102129501Y-70150976D01*
X102327701Y-70036545D01*
X102327704Y-70036543D01*
X102503028Y-69889428D01*
X102650143Y-69714104D01*
X102650145Y-69714101D01*
X102764576Y-69515901D01*
X102764580Y-69515892D01*
X102842856Y-69300833D01*
X102857852Y-69215785D01*
X102889380Y-69152173D01*
X102950294Y-69115703D01*
X103021255Y-69117956D01*
X103078460Y-69156674D01*
X103139173Y-69229029D01*
X103314496Y-69376143D01*
X103314499Y-69376145D01*
X103512699Y-69490576D01*
X103512708Y-69490580D01*
X103727767Y-69568855D01*
X103953167Y-69608600D01*
X104182033Y-69608600D01*
X104407433Y-69568855D01*
X104622492Y-69490580D01*
X104622501Y-69490576D01*
X104820701Y-69376145D01*
X104820704Y-69376143D01*
X104996028Y-69229028D01*
X105143143Y-69053704D01*
X105143145Y-69053701D01*
X105257576Y-68855501D01*
X105257580Y-68855492D01*
X105335855Y-68640433D01*
X105375600Y-68415033D01*
X105375600Y-68186167D01*
X105335855Y-67960767D01*
X105257580Y-67745708D01*
X105257576Y-67745699D01*
X105143145Y-67547499D01*
X105143143Y-67547496D01*
X104996028Y-67372172D01*
X104820704Y-67225057D01*
X104820701Y-67225055D01*
X104622501Y-67110624D01*
X104622492Y-67110620D01*
X104407433Y-67032345D01*
X104182033Y-66992600D01*
X103953167Y-66992600D01*
X103727767Y-67032345D01*
X103512708Y-67110620D01*
X103512699Y-67110624D01*
X103314499Y-67225055D01*
X103314496Y-67225057D01*
X103139172Y-67372172D01*
X102992057Y-67547496D01*
X102992055Y-67547499D01*
X102877624Y-67745699D01*
X102877620Y-67745708D01*
X102799344Y-67960767D01*
X102784348Y-68045815D01*
X102752820Y-68109427D01*
X102691906Y-68145897D01*
X102620945Y-68143644D01*
X102563740Y-68104926D01*
X102503027Y-68032571D01*
X102327704Y-67885457D01*
X102327701Y-67885455D01*
X102129501Y-67771024D01*
X102129492Y-67771020D01*
X101914434Y-67692745D01*
X101828600Y-67677609D01*
X101828600Y-69089000D01*
X101808598Y-69157121D01*
X101754942Y-69203614D01*
X101702600Y-69215000D01*
X100291209Y-69215000D01*
X100306345Y-69300834D01*
X100384620Y-69515892D01*
X100384624Y-69515901D01*
X100499055Y-69714101D01*
X100499057Y-69714104D01*
X100646174Y-69889431D01*
X100765601Y-69989642D01*
X100804928Y-70048751D01*
X100806054Y-70119739D01*
X100768623Y-70180066D01*
X100684610Y-70212163D01*
X99811002Y-70212163D01*
X99553081Y-70281273D01*
X99415846Y-70396426D01*
X99320760Y-70561120D01*
X99317452Y-70559210D01*
X99287293Y-70600161D01*
X99220969Y-70625491D01*
X99127508Y-70594255D01*
X99014508Y-70494282D01*
X98929104Y-70441329D01*
X98881749Y-70388432D01*
X98869500Y-70334242D01*
X98869500Y-68707000D01*
X100291209Y-68707000D01*
X101320600Y-68707000D01*
X101320600Y-67677609D01*
X101234766Y-67692745D01*
X101019708Y-67771020D01*
X101019699Y-67771024D01*
X100821499Y-67885455D01*
X100821496Y-67885457D01*
X100646172Y-68032572D01*
X100499057Y-68207896D01*
X100499055Y-68207899D01*
X100384624Y-68406099D01*
X100384620Y-68406108D01*
X100306345Y-68621166D01*
X100291209Y-68707000D01*
X98869500Y-68707000D01*
X98869500Y-66635517D01*
X98906405Y-66546422D01*
X100148634Y-65304194D01*
X100210946Y-65270168D01*
X100281762Y-65275233D01*
X100338597Y-65317780D01*
X100363408Y-65384300D01*
X100356130Y-65436384D01*
X100306345Y-65573167D01*
X100266600Y-65798567D01*
X100266600Y-66027433D01*
X100306345Y-66252833D01*
X100384620Y-66467892D01*
X100384624Y-66467901D01*
X100499055Y-66666101D01*
X100499057Y-66666104D01*
X100646172Y-66841428D01*
X100821496Y-66988543D01*
X100821499Y-66988545D01*
X101019699Y-67102976D01*
X101019708Y-67102980D01*
X101234767Y-67181255D01*
X101460167Y-67221000D01*
X101689033Y-67221000D01*
X101914433Y-67181255D01*
X102129492Y-67102980D01*
X102129501Y-67102976D01*
X102327701Y-66988545D01*
X102327704Y-66988543D01*
X102503028Y-66841428D01*
X102650143Y-66666104D01*
X102650145Y-66666101D01*
X102764576Y-66467901D01*
X102764580Y-66467892D01*
X102842855Y-66252833D01*
X102882600Y-66027433D01*
X102882600Y-65798567D01*
X102842855Y-65573167D01*
X102764580Y-65358108D01*
X102764574Y-65358096D01*
X102749352Y-65331731D01*
X102732613Y-65262736D01*
X102755833Y-65195644D01*
X102811639Y-65151756D01*
X102882314Y-65145007D01*
X102946627Y-65178706D01*
X103094136Y-65323156D01*
X103094149Y-65323167D01*
X103292584Y-65462114D01*
X103511051Y-65566785D01*
X103743679Y-65634370D01*
X103984236Y-65663055D01*
X104226228Y-65652067D01*
X104226242Y-65652065D01*
X104463186Y-65601700D01*
X104463193Y-65601698D01*
X104688740Y-65513306D01*
X104688748Y-65513302D01*
X104896820Y-65389267D01*
X104896826Y-65389262D01*
X105081849Y-65232906D01*
X105081852Y-65232902D01*
X105213506Y-65078210D01*
X105272889Y-65039297D01*
X105343883Y-65038666D01*
X105411137Y-65085457D01*
G37*
%TD.AperFunction*%
%TA.AperFunction,Conductor*%
G36*
X94869633Y-49919406D02*
G01*
X94926468Y-49961953D01*
X94951600Y-50037462D01*
X94951600Y-50132138D01*
X95013479Y-50363073D01*
X95013482Y-50363079D01*
X95133020Y-50570126D01*
X95135062Y-50572788D01*
X95135784Y-50574914D01*
X95137148Y-50577277D01*
X95136678Y-50577548D01*
X95161100Y-50649492D01*
X95161100Y-55668512D01*
X95141098Y-55736633D01*
X95087442Y-55783126D01*
X95017168Y-55793230D01*
X94938579Y-55749504D01*
X94908428Y-55713572D01*
X94733104Y-55566457D01*
X94733101Y-55566455D01*
X94534901Y-55452024D01*
X94534892Y-55452020D01*
X94319833Y-55373745D01*
X94094433Y-55334000D01*
X93865567Y-55334000D01*
X93640167Y-55373745D01*
X93425108Y-55452020D01*
X93425099Y-55452024D01*
X93226899Y-55566455D01*
X93226896Y-55566457D01*
X93120192Y-55655993D01*
X93055151Y-55684458D01*
X92985046Y-55673241D01*
X92932135Y-55625903D01*
X92913200Y-55559472D01*
X92913200Y-51823861D01*
X92950105Y-51734766D01*
X94736505Y-49948367D01*
X94798817Y-49914341D01*
X94869633Y-49919406D01*
G37*
%TD.AperFunction*%
%TA.AperFunction,Conductor*%
G36*
X92726123Y-43165253D02*
G01*
X92835626Y-43295754D01*
X92990774Y-43385329D01*
X93167201Y-43416437D01*
X95183020Y-43416437D01*
X95272115Y-43453342D01*
X96900569Y-45081797D01*
X96918036Y-45103657D01*
X96922396Y-45110567D01*
X96922398Y-45110570D01*
X96978902Y-45160472D01*
X96984593Y-45165820D01*
X97001341Y-45182569D01*
X97001346Y-45182573D01*
X97014356Y-45192324D01*
X97022197Y-45198708D01*
X97072365Y-45243015D01*
X97086450Y-45249628D01*
X97108461Y-45262853D01*
X97120911Y-45272183D01*
X97120916Y-45272186D01*
X97183567Y-45295672D01*
X97192888Y-45299599D01*
X97253482Y-45328048D01*
X97267681Y-45330170D01*
X97293284Y-45336803D01*
X97308263Y-45342418D01*
X97385907Y-45348188D01*
X97395197Y-45349227D01*
X97411733Y-45351699D01*
X97411749Y-45351700D01*
X97428472Y-45351700D01*
X97437809Y-45352046D01*
X97507797Y-45357247D01*
X97520777Y-45354476D01*
X97547082Y-45351700D01*
X98397708Y-45351700D01*
X98469652Y-45376122D01*
X98469923Y-45375652D01*
X98472286Y-45377016D01*
X98474412Y-45377738D01*
X98477074Y-45379780D01*
X98684121Y-45499318D01*
X98684127Y-45499321D01*
X98915062Y-45561200D01*
X98980475Y-45561200D01*
X99048596Y-45581202D01*
X99095089Y-45634858D01*
X99105193Y-45705132D01*
X99061466Y-45783722D01*
X98936446Y-45888626D01*
X98846871Y-46043774D01*
X98815763Y-46220201D01*
X98815763Y-46381400D01*
X98795761Y-46449521D01*
X98742105Y-46496014D01*
X98689763Y-46507400D01*
X96276720Y-46507400D01*
X96260274Y-46506322D01*
X96215200Y-46500388D01*
X96215199Y-46500388D01*
X96166030Y-46506861D01*
X96166008Y-46506863D01*
X96003018Y-46528321D01*
X95887193Y-46576297D01*
X95805295Y-46610221D01*
X95805286Y-46610226D01*
X95700075Y-46690958D01*
X95635505Y-46740504D01*
X95607823Y-46776581D01*
X95596955Y-46788973D01*
X91794695Y-50591234D01*
X91732383Y-50625260D01*
X91661568Y-50620195D01*
X91604732Y-50577648D01*
X91579600Y-50502139D01*
X91579600Y-50355367D01*
X91539855Y-50129967D01*
X91461580Y-49914908D01*
X91461576Y-49914899D01*
X91347145Y-49716699D01*
X91347143Y-49716696D01*
X91200028Y-49541372D01*
X91024704Y-49394257D01*
X91024701Y-49394255D01*
X90826501Y-49279824D01*
X90826492Y-49279820D01*
X90611433Y-49201545D01*
X90435360Y-49170498D01*
X90371748Y-49138970D01*
X90335278Y-49078057D01*
X90337531Y-49007096D01*
X90377790Y-48948617D01*
X90437529Y-48921963D01*
X90648147Y-48888603D01*
X90888854Y-48810393D01*
X90888860Y-48810391D01*
X91114379Y-48695483D01*
X91319145Y-48546712D01*
X91498112Y-48367745D01*
X91646883Y-48162979D01*
X91761791Y-47937460D01*
X91761793Y-47937454D01*
X91840003Y-47696747D01*
X91879600Y-47446749D01*
X91879600Y-47193651D01*
X91844251Y-46970474D01*
X91853350Y-46900063D01*
X91879605Y-46861667D01*
X92222033Y-46519240D01*
X92234423Y-46508374D01*
X92270496Y-46480694D01*
X92303202Y-46438071D01*
X92400780Y-46310905D01*
X92401350Y-46309832D01*
X92402489Y-46306780D01*
X92482680Y-46113182D01*
X92504139Y-45950180D01*
X92504140Y-45950172D01*
X92510613Y-45901002D01*
X92510613Y-45901000D01*
X92504679Y-45855926D01*
X92503601Y-45839480D01*
X92503601Y-43246244D01*
X92523603Y-43178123D01*
X92577259Y-43131630D01*
X92647533Y-43121526D01*
X92726123Y-43165253D01*
G37*
%TD.AperFunction*%
%TA.AperFunction,Conductor*%
G36*
X90348800Y-43662601D02*
G01*
X90416921Y-43682603D01*
X90463414Y-43736259D01*
X90474800Y-43788601D01*
X90474799Y-45368801D01*
X90645595Y-45332497D01*
X90706026Y-45308814D01*
X90776748Y-45302581D01*
X90839614Y-45335573D01*
X90878001Y-45426127D01*
X90878001Y-45512135D01*
X90841097Y-45601230D01*
X90730133Y-45712195D01*
X90667821Y-45746220D01*
X90621326Y-45747549D01*
X90398149Y-45712200D01*
X90145051Y-45712200D01*
X89895053Y-45751797D01*
X89654346Y-45830007D01*
X89654340Y-45830009D01*
X89428821Y-45944917D01*
X89283085Y-46050801D01*
X89216218Y-46074659D01*
X89147066Y-46058579D01*
X89097586Y-46007665D01*
X89083024Y-45948865D01*
X89083024Y-45160503D01*
X89103026Y-45092382D01*
X89156682Y-45045889D01*
X89226956Y-45035785D01*
X89281295Y-45057290D01*
X89474984Y-45192914D01*
X89693451Y-45297585D01*
X89926079Y-45365170D01*
X89966800Y-45370027D01*
X89966801Y-43788600D01*
X89986803Y-43720479D01*
X90040459Y-43673986D01*
X90092801Y-43662600D01*
X90348800Y-43662601D01*
G37*
%TD.AperFunction*%
%TA.AperFunction,Conductor*%
G36*
X98258795Y-40157226D02*
G01*
X98305288Y-40210882D01*
X98315392Y-40281156D01*
X98281311Y-40350751D01*
X98146366Y-40490490D01*
X97992906Y-40705635D01*
X97872931Y-40941100D01*
X97789076Y-41191715D01*
X97743187Y-41451961D01*
X97736268Y-41716148D01*
X97768475Y-41978442D01*
X97768478Y-41978455D01*
X97839094Y-42233089D01*
X97839097Y-42233100D01*
X97946586Y-42474524D01*
X97946587Y-42474525D01*
X98088577Y-42697405D01*
X98261951Y-42896848D01*
X98462907Y-43068482D01*
X98687011Y-43208517D01*
X98929365Y-43313896D01*
X98929370Y-43313898D01*
X99184631Y-43382294D01*
X99184634Y-43382295D01*
X99447197Y-43412209D01*
X99447205Y-43412210D01*
X99711305Y-43402988D01*
X99711308Y-43402988D01*
X99971151Y-43354828D01*
X100221011Y-43268795D01*
X100221032Y-43268786D01*
X100455429Y-43146767D01*
X100669229Y-42991432D01*
X100857717Y-42806206D01*
X100857718Y-42806204D01*
X101016758Y-42595152D01*
X101016760Y-42595148D01*
X101142859Y-42362905D01*
X101142859Y-42362904D01*
X101233242Y-42114577D01*
X101233243Y-42114572D01*
X101285930Y-41855612D01*
X101295282Y-41498469D01*
X101295282Y-41498465D01*
X101256221Y-41237100D01*
X101178956Y-40984380D01*
X101065185Y-40745854D01*
X100917408Y-40526766D01*
X100917401Y-40526757D01*
X100753920Y-40348348D01*
X100722645Y-40284611D01*
X100730794Y-40214084D01*
X100775780Y-40159158D01*
X100846817Y-40137224D01*
X103270674Y-40137224D01*
X103338795Y-40157226D01*
X103385288Y-40210882D01*
X103395392Y-40281156D01*
X103361311Y-40350751D01*
X103226366Y-40490490D01*
X103072906Y-40705635D01*
X102952931Y-40941100D01*
X102869076Y-41191715D01*
X102823187Y-41451961D01*
X102816268Y-41716148D01*
X102848475Y-41978442D01*
X102848478Y-41978455D01*
X102919094Y-42233089D01*
X102919097Y-42233100D01*
X103026586Y-42474524D01*
X103026587Y-42474525D01*
X103168577Y-42697405D01*
X103341951Y-42896848D01*
X103542907Y-43068482D01*
X103767011Y-43208517D01*
X104009365Y-43313896D01*
X104009370Y-43313898D01*
X104264631Y-43382294D01*
X104264634Y-43382295D01*
X104527197Y-43412209D01*
X104527205Y-43412210D01*
X104769675Y-43403744D01*
X104838453Y-43421357D01*
X104886789Y-43473357D01*
X104899339Y-43543236D01*
X104863167Y-43618762D01*
X103784471Y-44697458D01*
X103695376Y-44734363D01*
X102705002Y-44734363D01*
X102447081Y-44803473D01*
X102309846Y-44918626D01*
X102220271Y-45073774D01*
X102189163Y-45250201D01*
X102189163Y-45867363D01*
X102169161Y-45935484D01*
X102115505Y-45981977D01*
X102045231Y-45992081D01*
X101966641Y-45948354D01*
X101863174Y-45825046D01*
X101708026Y-45735471D01*
X101531599Y-45704363D01*
X99500170Y-45704363D01*
X99432049Y-45684361D01*
X99385556Y-45630705D01*
X99375452Y-45560431D01*
X99404946Y-45495851D01*
X99437170Y-45469244D01*
X99592121Y-45379783D01*
X99592131Y-45379776D01*
X99761176Y-45210731D01*
X99761183Y-45210721D01*
X99880718Y-45003679D01*
X99880721Y-45003673D01*
X99942600Y-44772738D01*
X99942600Y-44533662D01*
X99880721Y-44302727D01*
X99880718Y-44302721D01*
X99761183Y-44095679D01*
X99761176Y-44095669D01*
X99592131Y-43926624D01*
X99592121Y-43926617D01*
X99385079Y-43807082D01*
X99385073Y-43807079D01*
X99154138Y-43745200D01*
X98915062Y-43745200D01*
X98684127Y-43807079D01*
X98684121Y-43807082D01*
X98477074Y-43926620D01*
X98474412Y-43928662D01*
X98472286Y-43929384D01*
X98469923Y-43930748D01*
X98469652Y-43930278D01*
X98397708Y-43954700D01*
X97801318Y-43954700D01*
X97712223Y-43917795D01*
X96259942Y-42465515D01*
X96223037Y-42376420D01*
X96223037Y-40360602D01*
X96205683Y-40295835D01*
X96207373Y-40224858D01*
X96247167Y-40166063D01*
X96327390Y-40137224D01*
X98190674Y-40137224D01*
X98258795Y-40157226D01*
G37*
%TD.AperFunction*%
%TA.AperFunction,Conductor*%
G36*
X110426897Y-40157226D02*
G01*
X110473390Y-40210882D01*
X110484776Y-40263224D01*
X110484776Y-41483692D01*
X110464774Y-41551813D01*
X110411118Y-41598306D01*
X110340844Y-41608410D01*
X110262255Y-41564684D01*
X110199228Y-41489572D01*
X110023904Y-41342457D01*
X110023901Y-41342455D01*
X109825701Y-41228024D01*
X109825692Y-41228020D01*
X109610633Y-41149745D01*
X109385233Y-41110000D01*
X109156367Y-41110000D01*
X108930967Y-41149745D01*
X108715908Y-41228020D01*
X108715899Y-41228024D01*
X108517699Y-41342455D01*
X108517696Y-41342457D01*
X108342372Y-41489572D01*
X108283114Y-41560192D01*
X108224004Y-41599518D01*
X108186593Y-41605200D01*
X107274920Y-41605200D01*
X107258474Y-41604122D01*
X107213400Y-41598188D01*
X107213399Y-41598188D01*
X107164230Y-41604661D01*
X107164208Y-41604663D01*
X107001218Y-41626121D01*
X106885393Y-41674097D01*
X106803495Y-41708021D01*
X106803486Y-41708026D01*
X106676327Y-41805599D01*
X106633705Y-41838304D01*
X106606026Y-41874377D01*
X106595158Y-41886769D01*
X106582247Y-41899680D01*
X106519935Y-41933706D01*
X106449120Y-41928641D01*
X106392284Y-41886094D01*
X106367195Y-41807287D01*
X106375282Y-41498469D01*
X106375282Y-41498465D01*
X106336221Y-41237100D01*
X106258956Y-40984380D01*
X106145185Y-40745854D01*
X105997408Y-40526766D01*
X105997401Y-40526757D01*
X105833920Y-40348348D01*
X105802645Y-40284611D01*
X105810794Y-40214084D01*
X105855780Y-40159158D01*
X105926817Y-40137224D01*
X110358776Y-40137224D01*
X110426897Y-40157226D01*
G37*
%TD.AperFunction*%
%TD*%
M02*
