%TF.GenerationSoftware,KiCad,Pcbnew,6.0.0+dfsg1-2*%
%TF.CreationDate,2022-01-11T20:53:15+02:00*%
%TF.ProjectId,leo-fuzz-box,6c656f2d-6675-47a7-9a2d-626f782e6b69,rev?*%
%TF.SameCoordinates,Original*%
%TF.FileFunction,Copper,L2,Bot*%
%TF.FilePolarity,Positive*%
%FSLAX46Y46*%
G04 Gerber Fmt 4.6, Leading zero omitted, Abs format (unit mm)*
G04 Created by KiCad (PCBNEW 6.0.0+dfsg1-2) date 2022-01-11 20:53:15*
%MOMM*%
%LPD*%
G01*
G04 APERTURE LIST*
%TA.AperFunction,ComponentPad*%
%ADD10O,1.930400X1.930400*%
%TD*%
%TA.AperFunction,ComponentPad*%
%ADD11R,1.930400X1.930400*%
%TD*%
%TA.AperFunction,ComponentPad*%
%ADD12C,1.600000*%
%TD*%
%TA.AperFunction,ComponentPad*%
%ADD13O,1.600000X1.600000*%
%TD*%
%TA.AperFunction,ComponentPad*%
%ADD14R,2.540000X2.540000*%
%TD*%
%TA.AperFunction,ComponentPad*%
%ADD15O,2.540000X2.540000*%
%TD*%
%TA.AperFunction,ComponentPad*%
%ADD16R,1.600000X1.600000*%
%TD*%
%TA.AperFunction,ComponentPad*%
%ADD17R,2.032000X2.032000*%
%TD*%
%TA.AperFunction,ComponentPad*%
%ADD18O,2.032000X2.032000*%
%TD*%
%TA.AperFunction,ComponentPad*%
%ADD19R,2.200000X2.200000*%
%TD*%
%TA.AperFunction,ComponentPad*%
%ADD20O,2.200000X2.200000*%
%TD*%
%TA.AperFunction,ComponentPad*%
%ADD21R,1.800000X1.800000*%
%TD*%
%TA.AperFunction,ComponentPad*%
%ADD22C,1.800000*%
%TD*%
%TA.AperFunction,ViaPad*%
%ADD23C,0.800000*%
%TD*%
%TA.AperFunction,Conductor*%
%ADD24C,0.381000*%
%TD*%
%TA.AperFunction,Conductor*%
%ADD25C,0.609600*%
%TD*%
G04 APERTURE END LIST*
D10*
%TO.P,J1,S*%
%TO.N,GND*%
X92760800Y-75488800D03*
D11*
%TO.P,J1,T*%
%TO.N,IN*%
X90220800Y-75488800D03*
%TD*%
D12*
%TO.P,R7,1*%
%TO.N,Net-(R4-Pad2)*%
X90271600Y-50622200D03*
D13*
%TO.P,R7,2*%
%TO.N,Net-(C3-Pad1)*%
X97891600Y-50622200D03*
%TD*%
D14*
%TO.P,RV6,1,1*%
%TO.N,Net-(Q1-Pad1)*%
X94411800Y-41376600D03*
D15*
%TO.P,RV6,2,2*%
%TO.N,Net-(C2-Pad1)*%
X99491800Y-41376600D03*
%TO.P,RV6,3,3*%
%TO.N,Net-(Q2-Pad1)*%
X104571800Y-41376600D03*
%TD*%
D12*
%TO.P,R9,1*%
%TO.N,OUT*%
X93954600Y-68961000D03*
D13*
%TO.P,R9,2*%
%TO.N,GND*%
X101574600Y-68961000D03*
%TD*%
D12*
%TO.P,C1,1*%
%TO.N,IN*%
X90246200Y-72009000D03*
%TO.P,C1,2*%
%TO.N,Net-(C1-Pad2)*%
X95246200Y-72009000D03*
%TD*%
D11*
%TO.P,J4,1*%
%TO.N,Net-(D2-Pad2)*%
X90220800Y-41376600D03*
D10*
%TO.P,J4,2*%
%TO.N,GND*%
X90220800Y-43916600D03*
%TD*%
D11*
%TO.P,J2,1,Pin_1*%
%TO.N,IN*%
X95656400Y-75488800D03*
D10*
%TO.P,J2,2,Pin_2*%
%TO.N,GND*%
X98196400Y-75488800D03*
%TO.P,J2,3,Pin_3*%
%TO.N,LED-*%
X100736400Y-75488800D03*
%TO.P,J2,4,Pin_4*%
%TO.N,OUT*%
X103276400Y-75488800D03*
%TD*%
D12*
%TO.P,C4,1*%
%TO.N,+9V*%
X109270800Y-42418000D03*
%TO.P,C4,2*%
%TO.N,GND*%
X109270800Y-47418000D03*
%TD*%
%TO.P,C3,1*%
%TO.N,Net-(C3-Pad1)*%
X109067600Y-68300600D03*
%TO.P,C3,2*%
%TO.N,Net-(C3-Pad2)*%
X104067600Y-68300600D03*
%TD*%
D16*
%TO.P,C5,1*%
%TO.N,+9V*%
X103505000Y-46050200D03*
D12*
%TO.P,C5,2*%
%TO.N,GND*%
X106005000Y-46050200D03*
%TD*%
D11*
%TO.P,Q1,1,E*%
%TO.N,Net-(Q1-Pad1)*%
X109093000Y-58318400D03*
D10*
%TO.P,Q1,2,B*%
%TO.N,Net-(Q1-Pad2)*%
X106553000Y-58318400D03*
%TO.P,Q1,3,C*%
%TO.N,Net-(Q1-Pad3)*%
X104013000Y-58318400D03*
%TD*%
%TO.P,J3,S*%
%TO.N,GND*%
X108762800Y-75488800D03*
D11*
%TO.P,J3,T*%
%TO.N,OUT*%
X106222800Y-75488800D03*
%TD*%
D12*
%TO.P,R5,1*%
%TO.N,Net-(Q1-Pad2)*%
X101219000Y-50622200D03*
D13*
%TO.P,R5,2*%
%TO.N,Net-(Q2-Pad1)*%
X108839000Y-50622200D03*
%TD*%
D12*
%TO.P,R2,1*%
%TO.N,Net-(R2-Pad1)*%
X93980000Y-56769000D03*
D13*
%TO.P,R2,2*%
%TO.N,Net-(Q1-Pad3)*%
X101600000Y-56769000D03*
%TD*%
D11*
%TO.P,Q2,1,E*%
%TO.N,Net-(Q2-Pad1)*%
X109118400Y-64185800D03*
D10*
%TO.P,Q2,2,B*%
%TO.N,Net-(Q1-Pad3)*%
X106578400Y-64185800D03*
%TO.P,Q2,3,C*%
%TO.N,Net-(C3-Pad1)*%
X104038400Y-64185800D03*
%TD*%
D17*
%TO.P,SW1,1,A*%
%TO.N,Net-(R4-Pad2)*%
X90195400Y-56464200D03*
D18*
%TO.P,SW1,2,B*%
%TO.N,+9V*%
X90195400Y-59004200D03*
%TO.P,SW1,3,C*%
%TO.N,Net-(R2-Pad1)*%
X90195400Y-61544200D03*
%TO.P,SW1,4,A*%
%TO.N,OUT*%
X90195400Y-64084200D03*
%TO.P,SW1,5,B*%
%TO.N,Net-(C2-Pad2)*%
X90195400Y-66624200D03*
%TO.P,SW1,6,C*%
%TO.N,Net-(SW1-Pad6)*%
X90195400Y-69164200D03*
%TD*%
D12*
%TO.P,R8,1*%
%TO.N,Net-(C3-Pad2)*%
X101574600Y-65938400D03*
D13*
%TO.P,R8,2*%
%TO.N,OUT*%
X93954600Y-65938400D03*
%TD*%
D12*
%TO.P,R99,1*%
%TO.N,Net-(D1-Pad2)*%
X101600000Y-62865000D03*
D13*
%TO.P,R99,2*%
%TO.N,+9V*%
X93980000Y-62865000D03*
%TD*%
D12*
%TO.P,R4,1*%
%TO.N,Net-(R2-Pad1)*%
X97891600Y-53670200D03*
D13*
%TO.P,R4,2*%
%TO.N,Net-(R4-Pad2)*%
X90271600Y-53670200D03*
%TD*%
D12*
%TO.P,C2,1*%
%TO.N,Net-(C2-Pad1)*%
X99212400Y-44323000D03*
%TO.P,C2,2*%
%TO.N,Net-(C2-Pad2)*%
X94212400Y-44323000D03*
%TD*%
%TO.P,R1,1*%
%TO.N,Net-(C1-Pad2)*%
X93980000Y-59817000D03*
D13*
%TO.P,R1,2*%
%TO.N,Net-(Q1-Pad2)*%
X101600000Y-59817000D03*
%TD*%
D19*
%TO.P,D2,1,K*%
%TO.N,+9V*%
X100431600Y-47472600D03*
D20*
%TO.P,D2,2,A*%
%TO.N,Net-(D2-Pad2)*%
X90271600Y-47472600D03*
%TD*%
D12*
%TO.P,R3,1*%
%TO.N,Net-(Q1-Pad1)*%
X101219000Y-53670200D03*
D13*
%TO.P,R3,2*%
%TO.N,GND*%
X108839000Y-53670200D03*
%TD*%
D21*
%TO.P,D1,1,K*%
%TO.N,LED-*%
X100711000Y-71628000D03*
D22*
%TO.P,D1,2,A*%
%TO.N,Net-(D1-Pad2)*%
X98171000Y-71628000D03*
%TD*%
D23*
%TO.N,GND*%
X108026200Y-61239400D03*
X96901000Y-45440600D03*
X104317800Y-61112400D03*
X93395800Y-48463200D03*
X96951800Y-52222400D03*
X92227400Y-67792600D03*
X96748600Y-72948800D03*
X94208600Y-52908200D03*
X107442000Y-40995600D03*
%TO.N,Net-(C2-Pad2)*%
X95859600Y-50012600D03*
%TD*%
D24*
%TO.N,Net-(C2-Pad1)*%
X99491800Y-41097200D02*
X99491800Y-40767000D01*
%TO.N,Net-(D1-Pad2)*%
X98171000Y-71628000D02*
X98171000Y-66294000D01*
X98171000Y-66294000D02*
X101600000Y-62865000D01*
D25*
%TO.N,LED-*%
X100736400Y-71653400D02*
X100711000Y-71628000D01*
X100736400Y-75488800D02*
X100736400Y-71653400D01*
%TO.N,+9V*%
X92100400Y-58536040D02*
X91632240Y-59004200D01*
X107213400Y-42418000D02*
X109270800Y-42418000D01*
X90195400Y-59080400D02*
X93980000Y-62865000D01*
X103581200Y-46050200D02*
X107213400Y-42418000D01*
X100431600Y-47320200D02*
X96215200Y-47320200D01*
X90195400Y-59004200D02*
X90195400Y-59080400D01*
X96215200Y-47320200D02*
X92100400Y-51435000D01*
X92100400Y-51435000D02*
X92100400Y-58536040D01*
X100431600Y-47320200D02*
X102311200Y-47320200D01*
X91632240Y-59004200D02*
X90195400Y-59004200D01*
X102311200Y-47320200D02*
X103581200Y-46050200D01*
D24*
%TO.N,Net-(Q1-Pad1)*%
X101219000Y-53568600D02*
X100609400Y-53568600D01*
%TO.N,Net-(C2-Pad2)*%
X92764099Y-64055501D02*
X94551441Y-64055501D01*
X94551441Y-64055501D02*
X95859600Y-62747342D01*
X95859600Y-50012600D02*
X95859600Y-62280800D01*
X90195400Y-66624200D02*
X92764099Y-64055501D01*
X95859600Y-62747342D02*
X95859600Y-62280800D01*
D25*
%TO.N,Net-(D2-Pad2)*%
X91690801Y-42846601D02*
X90220800Y-41376600D01*
X91690801Y-45900999D02*
X91690801Y-42846601D01*
X90271600Y-47320200D02*
X91690801Y-45900999D01*
%TD*%
%TA.AperFunction,Conductor*%
%TO.N,GND*%
G36*
X105394506Y-65070807D02*
G01*
X105402401Y-65079124D01*
X105543772Y-65242327D01*
X105730223Y-65397122D01*
X105939453Y-65519386D01*
X105944273Y-65521226D01*
X105944278Y-65521229D01*
X106052620Y-65562600D01*
X106165842Y-65605835D01*
X106170910Y-65606866D01*
X106170913Y-65606867D01*
X106288180Y-65630725D01*
X106403310Y-65654149D01*
X106408485Y-65654339D01*
X106408487Y-65654339D01*
X106640317Y-65662840D01*
X106640321Y-65662840D01*
X106645481Y-65663029D01*
X106650601Y-65662373D01*
X106650603Y-65662373D01*
X106725760Y-65652745D01*
X106885850Y-65632237D01*
X106890801Y-65630752D01*
X106890804Y-65630751D01*
X107113012Y-65564085D01*
X107113011Y-65564085D01*
X107117962Y-65562600D01*
X107267878Y-65489157D01*
X107330933Y-65458267D01*
X107330938Y-65458264D01*
X107335584Y-65455988D01*
X107339794Y-65452985D01*
X107339799Y-65452982D01*
X107508830Y-65332412D01*
X107575903Y-65309138D01*
X107644912Y-65325821D01*
X107693946Y-65377164D01*
X107698900Y-65388324D01*
X107699433Y-65389298D01*
X107702585Y-65397705D01*
X107789939Y-65514261D01*
X107906495Y-65601615D01*
X108042884Y-65652745D01*
X108105066Y-65659500D01*
X110131734Y-65659500D01*
X110193916Y-65652745D01*
X110319771Y-65605564D01*
X110390577Y-65600381D01*
X110452946Y-65634302D01*
X110487076Y-65696557D01*
X110490000Y-65723546D01*
X110490000Y-67686422D01*
X110469998Y-67754543D01*
X110416342Y-67801036D01*
X110346068Y-67811140D01*
X110281488Y-67781646D01*
X110249805Y-67739672D01*
X110207449Y-67648838D01*
X110207446Y-67648833D01*
X110205123Y-67643851D01*
X110073798Y-67456300D01*
X109911900Y-67294402D01*
X109907392Y-67291245D01*
X109907389Y-67291243D01*
X109738069Y-67172684D01*
X109724349Y-67163077D01*
X109719367Y-67160754D01*
X109719362Y-67160751D01*
X109521825Y-67068639D01*
X109521824Y-67068639D01*
X109516843Y-67066316D01*
X109511535Y-67064894D01*
X109511533Y-67064893D01*
X109301002Y-67008481D01*
X109301000Y-67008481D01*
X109295687Y-67007057D01*
X109067600Y-66987102D01*
X108839513Y-67007057D01*
X108834200Y-67008481D01*
X108834198Y-67008481D01*
X108623667Y-67064893D01*
X108623665Y-67064894D01*
X108618357Y-67066316D01*
X108613376Y-67068639D01*
X108613375Y-67068639D01*
X108415838Y-67160751D01*
X108415833Y-67160754D01*
X108410851Y-67163077D01*
X108397131Y-67172684D01*
X108227811Y-67291243D01*
X108227808Y-67291245D01*
X108223300Y-67294402D01*
X108061402Y-67456300D01*
X107930077Y-67643851D01*
X107927754Y-67648833D01*
X107927751Y-67648838D01*
X107835639Y-67846375D01*
X107833316Y-67851357D01*
X107831894Y-67856665D01*
X107831893Y-67856667D01*
X107804450Y-67959084D01*
X107774057Y-68072513D01*
X107754102Y-68300600D01*
X107774057Y-68528687D01*
X107775481Y-68534000D01*
X107775481Y-68534002D01*
X107828780Y-68732913D01*
X107833316Y-68749843D01*
X107835639Y-68754824D01*
X107835639Y-68754825D01*
X107927751Y-68952362D01*
X107927754Y-68952367D01*
X107930077Y-68957349D01*
X108003502Y-69062211D01*
X108050267Y-69128997D01*
X108061402Y-69144900D01*
X108223300Y-69306798D01*
X108227808Y-69309955D01*
X108227811Y-69309957D01*
X108305989Y-69364698D01*
X108410851Y-69438123D01*
X108415833Y-69440446D01*
X108415838Y-69440449D01*
X108613375Y-69532561D01*
X108618357Y-69534884D01*
X108623665Y-69536306D01*
X108623667Y-69536307D01*
X108834198Y-69592719D01*
X108834200Y-69592719D01*
X108839513Y-69594143D01*
X109067600Y-69614098D01*
X109295687Y-69594143D01*
X109301000Y-69592719D01*
X109301002Y-69592719D01*
X109511533Y-69536307D01*
X109511535Y-69536306D01*
X109516843Y-69534884D01*
X109521825Y-69532561D01*
X109719362Y-69440449D01*
X109719367Y-69440446D01*
X109724349Y-69438123D01*
X109829211Y-69364698D01*
X109907389Y-69309957D01*
X109907392Y-69309955D01*
X109911900Y-69306798D01*
X110073798Y-69144900D01*
X110084934Y-69128997D01*
X110131698Y-69062211D01*
X110205123Y-68957349D01*
X110207446Y-68952367D01*
X110207449Y-68952362D01*
X110249805Y-68861528D01*
X110296722Y-68808243D01*
X110365000Y-68788782D01*
X110432959Y-68809324D01*
X110479025Y-68863347D01*
X110490000Y-68914778D01*
X110490000Y-76455000D01*
X110469998Y-76523121D01*
X110416342Y-76569614D01*
X110364000Y-76581000D01*
X110037866Y-76581000D01*
X109969745Y-76560998D01*
X109923252Y-76507342D01*
X109913148Y-76437068D01*
X109935544Y-76381473D01*
X110026892Y-76254349D01*
X110032198Y-76245519D01*
X110134947Y-76037621D01*
X110138746Y-76028026D01*
X110206160Y-75806143D01*
X110208339Y-75796062D01*
X110212986Y-75760761D01*
X110210775Y-75746579D01*
X110197617Y-75742800D01*
X108634800Y-75742800D01*
X108566679Y-75722798D01*
X108520186Y-75669142D01*
X108508800Y-75616800D01*
X108508800Y-75216685D01*
X109016800Y-75216685D01*
X109021275Y-75231924D01*
X109022665Y-75233129D01*
X109030348Y-75234800D01*
X110199928Y-75234800D01*
X110213459Y-75230827D01*
X110214764Y-75221747D01*
X110163442Y-75017422D01*
X110160124Y-75007674D01*
X110067646Y-74794989D01*
X110062780Y-74785914D01*
X109936812Y-74591198D01*
X109930519Y-74583027D01*
X109774441Y-74411500D01*
X109766908Y-74404474D01*
X109584904Y-74260736D01*
X109576332Y-74255040D01*
X109373292Y-74142956D01*
X109363895Y-74138733D01*
X109145280Y-74061318D01*
X109135330Y-74058689D01*
X109034636Y-74040753D01*
X109021340Y-74042212D01*
X109016800Y-74056768D01*
X109016800Y-75216685D01*
X108508800Y-75216685D01*
X108508800Y-74055355D01*
X108504882Y-74042011D01*
X108490606Y-74040024D01*
X108425332Y-74050013D01*
X108415304Y-74052402D01*
X108194873Y-74124450D01*
X108185364Y-74128447D01*
X107979665Y-74235527D01*
X107970940Y-74241021D01*
X107835681Y-74342577D01*
X107769196Y-74367483D01*
X107699801Y-74352491D01*
X107649527Y-74302360D01*
X107642046Y-74286047D01*
X107641767Y-74285303D01*
X107638615Y-74276895D01*
X107551261Y-74160339D01*
X107434705Y-74072985D01*
X107298316Y-74021855D01*
X107236134Y-74015100D01*
X105209466Y-74015100D01*
X105147284Y-74021855D01*
X105010895Y-74072985D01*
X104894339Y-74160339D01*
X104806985Y-74276895D01*
X104755855Y-74413284D01*
X104749100Y-74475466D01*
X104749100Y-74625243D01*
X104729098Y-74693364D01*
X104675442Y-74739857D01*
X104605168Y-74749961D01*
X104540588Y-74720467D01*
X104517308Y-74693683D01*
X104450807Y-74590887D01*
X104450805Y-74590884D01*
X104447999Y-74586547D01*
X104284906Y-74407310D01*
X104094728Y-74257117D01*
X103976949Y-74192099D01*
X103887105Y-74142502D01*
X103887102Y-74142501D01*
X103882574Y-74140001D01*
X103747062Y-74092014D01*
X103659013Y-74060834D01*
X103659010Y-74060833D01*
X103654141Y-74059109D01*
X103649052Y-74058202D01*
X103649050Y-74058202D01*
X103546998Y-74040024D01*
X103415563Y-74016612D01*
X103322025Y-74015469D01*
X103178418Y-74013714D01*
X103178416Y-74013714D01*
X103173248Y-74013651D01*
X102933703Y-74050307D01*
X102703361Y-74125594D01*
X102488409Y-74237491D01*
X102484276Y-74240594D01*
X102484273Y-74240596D01*
X102315275Y-74367483D01*
X102294618Y-74382993D01*
X102127195Y-74558192D01*
X102111634Y-74581004D01*
X102056724Y-74626005D01*
X101986199Y-74634176D01*
X101922452Y-74602922D01*
X101909387Y-74588693D01*
X101907999Y-74586547D01*
X101902955Y-74581003D01*
X101748381Y-74411129D01*
X101744906Y-74407310D01*
X101601804Y-74294295D01*
X101597608Y-74290981D01*
X101556545Y-74233064D01*
X101549700Y-74192099D01*
X101549700Y-73161442D01*
X101569702Y-73093321D01*
X101623358Y-73046828D01*
X101662092Y-73036179D01*
X101684947Y-73033696D01*
X101721316Y-73029745D01*
X101857705Y-72978615D01*
X101974261Y-72891261D01*
X102061615Y-72774705D01*
X102112745Y-72638316D01*
X102119500Y-72576134D01*
X102119500Y-70679866D01*
X102112745Y-70617684D01*
X102061615Y-70481295D01*
X101985751Y-70380070D01*
X101960903Y-70313564D01*
X101975956Y-70244181D01*
X102026130Y-70193951D01*
X102033327Y-70190310D01*
X102226111Y-70100414D01*
X102235607Y-70094931D01*
X102414067Y-69969972D01*
X102422475Y-69962916D01*
X102576516Y-69808875D01*
X102583572Y-69800467D01*
X102708531Y-69622007D01*
X102714014Y-69612511D01*
X102806090Y-69415053D01*
X102809836Y-69404761D01*
X102861429Y-69212213D01*
X102898381Y-69151590D01*
X102962241Y-69120569D01*
X103032736Y-69128997D01*
X103072231Y-69155729D01*
X103223300Y-69306798D01*
X103227808Y-69309955D01*
X103227811Y-69309957D01*
X103305989Y-69364698D01*
X103410851Y-69438123D01*
X103415833Y-69440446D01*
X103415838Y-69440449D01*
X103613375Y-69532561D01*
X103618357Y-69534884D01*
X103623665Y-69536306D01*
X103623667Y-69536307D01*
X103834198Y-69592719D01*
X103834200Y-69592719D01*
X103839513Y-69594143D01*
X104067600Y-69614098D01*
X104295687Y-69594143D01*
X104301000Y-69592719D01*
X104301002Y-69592719D01*
X104511533Y-69536307D01*
X104511535Y-69536306D01*
X104516843Y-69534884D01*
X104521825Y-69532561D01*
X104719362Y-69440449D01*
X104719367Y-69440446D01*
X104724349Y-69438123D01*
X104829211Y-69364698D01*
X104907389Y-69309957D01*
X104907392Y-69309955D01*
X104911900Y-69306798D01*
X105073798Y-69144900D01*
X105084934Y-69128997D01*
X105131698Y-69062211D01*
X105205123Y-68957349D01*
X105207446Y-68952367D01*
X105207449Y-68952362D01*
X105299561Y-68754825D01*
X105299561Y-68754824D01*
X105301884Y-68749843D01*
X105306421Y-68732913D01*
X105359719Y-68534002D01*
X105359719Y-68534000D01*
X105361143Y-68528687D01*
X105381098Y-68300600D01*
X105361143Y-68072513D01*
X105330750Y-67959084D01*
X105303307Y-67856667D01*
X105303306Y-67856665D01*
X105301884Y-67851357D01*
X105299561Y-67846375D01*
X105207449Y-67648838D01*
X105207446Y-67648833D01*
X105205123Y-67643851D01*
X105073798Y-67456300D01*
X104911900Y-67294402D01*
X104907392Y-67291245D01*
X104907389Y-67291243D01*
X104738069Y-67172684D01*
X104724349Y-67163077D01*
X104719367Y-67160754D01*
X104719362Y-67160751D01*
X104521825Y-67068639D01*
X104521824Y-67068639D01*
X104516843Y-67066316D01*
X104511535Y-67064894D01*
X104511533Y-67064893D01*
X104301002Y-67008481D01*
X104301000Y-67008481D01*
X104295687Y-67007057D01*
X104067600Y-66987102D01*
X103839513Y-67007057D01*
X103834200Y-67008481D01*
X103834198Y-67008481D01*
X103623667Y-67064893D01*
X103623665Y-67064894D01*
X103618357Y-67066316D01*
X103613376Y-67068639D01*
X103613375Y-67068639D01*
X103415838Y-67160751D01*
X103415833Y-67160754D01*
X103410851Y-67163077D01*
X103397131Y-67172684D01*
X103227811Y-67291243D01*
X103227808Y-67291245D01*
X103223300Y-67294402D01*
X103061402Y-67456300D01*
X102930077Y-67643851D01*
X102927754Y-67648833D01*
X102927751Y-67648838D01*
X102835639Y-67846375D01*
X102833316Y-67851357D01*
X102780213Y-68049539D01*
X102743262Y-68110160D01*
X102679402Y-68141181D01*
X102608907Y-68132753D01*
X102569412Y-68106021D01*
X102422475Y-67959084D01*
X102414067Y-67952028D01*
X102235607Y-67827069D01*
X102226111Y-67821586D01*
X102028653Y-67729510D01*
X102018361Y-67725764D01*
X101846097Y-67679606D01*
X101832001Y-67679942D01*
X101828600Y-67687884D01*
X101828600Y-69089000D01*
X101808598Y-69157121D01*
X101754942Y-69203614D01*
X101702600Y-69215000D01*
X100306633Y-69215000D01*
X100293102Y-69218973D01*
X100291873Y-69227522D01*
X100339364Y-69404761D01*
X100343110Y-69415053D01*
X100435186Y-69612511D01*
X100440669Y-69622007D01*
X100565628Y-69800467D01*
X100572684Y-69808875D01*
X100726725Y-69962916D01*
X100735133Y-69969972D01*
X100764146Y-69990287D01*
X100808474Y-70045745D01*
X100815783Y-70116364D01*
X100783752Y-70179724D01*
X100722551Y-70215709D01*
X100691875Y-70219500D01*
X99762866Y-70219500D01*
X99700684Y-70226255D01*
X99564295Y-70277385D01*
X99447739Y-70364739D01*
X99360385Y-70481295D01*
X99357233Y-70489703D01*
X99357232Y-70489705D01*
X99336538Y-70544906D01*
X99293897Y-70601671D01*
X99227335Y-70626371D01*
X99157986Y-70611164D01*
X99135167Y-70594666D01*
X99134887Y-70594358D01*
X99051666Y-70528634D01*
X98957178Y-70454012D01*
X98957175Y-70454010D01*
X98953123Y-70450810D01*
X98948599Y-70448313D01*
X98948595Y-70448310D01*
X98935108Y-70440865D01*
X98885137Y-70390434D01*
X98870000Y-70330556D01*
X98870000Y-68689503D01*
X100293206Y-68689503D01*
X100293542Y-68703599D01*
X100301484Y-68707000D01*
X101302485Y-68707000D01*
X101317724Y-68702525D01*
X101318929Y-68701135D01*
X101320600Y-68693452D01*
X101320600Y-67693033D01*
X101316627Y-67679502D01*
X101308078Y-67678273D01*
X101130839Y-67725764D01*
X101120547Y-67729510D01*
X100923089Y-67821586D01*
X100913593Y-67827069D01*
X100735133Y-67952028D01*
X100726725Y-67959084D01*
X100572684Y-68113125D01*
X100565628Y-68121533D01*
X100440669Y-68299993D01*
X100435186Y-68309489D01*
X100343110Y-68506947D01*
X100339364Y-68517239D01*
X100293206Y-68689503D01*
X98870000Y-68689503D01*
X98870000Y-66635725D01*
X98890002Y-66567604D01*
X98906905Y-66546630D01*
X100163503Y-65290032D01*
X100225815Y-65256006D01*
X100296630Y-65261071D01*
X100353466Y-65303618D01*
X100378277Y-65370138D01*
X100366793Y-65432376D01*
X100340316Y-65489157D01*
X100338894Y-65494465D01*
X100338893Y-65494467D01*
X100293777Y-65662840D01*
X100281057Y-65710313D01*
X100261102Y-65938400D01*
X100281057Y-66166487D01*
X100282481Y-66171800D01*
X100282481Y-66171802D01*
X100305409Y-66257368D01*
X100340316Y-66387643D01*
X100342639Y-66392624D01*
X100342639Y-66392625D01*
X100434751Y-66590162D01*
X100434754Y-66590167D01*
X100437077Y-66595149D01*
X100568402Y-66782700D01*
X100730300Y-66944598D01*
X100734808Y-66947755D01*
X100734811Y-66947757D01*
X100791002Y-66987102D01*
X100917851Y-67075923D01*
X100922833Y-67078246D01*
X100922838Y-67078249D01*
X101111525Y-67166234D01*
X101125357Y-67172684D01*
X101130665Y-67174106D01*
X101130667Y-67174107D01*
X101341198Y-67230519D01*
X101341200Y-67230519D01*
X101346513Y-67231943D01*
X101574600Y-67251898D01*
X101802687Y-67231943D01*
X101808000Y-67230519D01*
X101808002Y-67230519D01*
X102018533Y-67174107D01*
X102018535Y-67174106D01*
X102023843Y-67172684D01*
X102037675Y-67166234D01*
X102226362Y-67078249D01*
X102226367Y-67078246D01*
X102231349Y-67075923D01*
X102358198Y-66987102D01*
X102414389Y-66947757D01*
X102414392Y-66947755D01*
X102418900Y-66944598D01*
X102580798Y-66782700D01*
X102712123Y-66595149D01*
X102714446Y-66590167D01*
X102714449Y-66590162D01*
X102806561Y-66392625D01*
X102806561Y-66392624D01*
X102808884Y-66387643D01*
X102843792Y-66257368D01*
X102866719Y-66171802D01*
X102866719Y-66171800D01*
X102868143Y-66166487D01*
X102888098Y-65938400D01*
X102868143Y-65710313D01*
X102855423Y-65662840D01*
X102810307Y-65494467D01*
X102810306Y-65494465D01*
X102808884Y-65489157D01*
X102713648Y-65284921D01*
X102702987Y-65214730D01*
X102731967Y-65149917D01*
X102791387Y-65111061D01*
X102862381Y-65110498D01*
X102923080Y-65149175D01*
X103000381Y-65238413D01*
X103000385Y-65238417D01*
X103003772Y-65242327D01*
X103190223Y-65397122D01*
X103399453Y-65519386D01*
X103404273Y-65521226D01*
X103404278Y-65521229D01*
X103512620Y-65562600D01*
X103625842Y-65605835D01*
X103630910Y-65606866D01*
X103630913Y-65606867D01*
X103748180Y-65630725D01*
X103863310Y-65654149D01*
X103868485Y-65654339D01*
X103868487Y-65654339D01*
X104100317Y-65662840D01*
X104100321Y-65662840D01*
X104105481Y-65663029D01*
X104110601Y-65662373D01*
X104110603Y-65662373D01*
X104185760Y-65652745D01*
X104345850Y-65632237D01*
X104350801Y-65630752D01*
X104350804Y-65630751D01*
X104573012Y-65564085D01*
X104573011Y-65564085D01*
X104577962Y-65562600D01*
X104727878Y-65489157D01*
X104790933Y-65458267D01*
X104790938Y-65458264D01*
X104795584Y-65455988D01*
X104799794Y-65452985D01*
X104799799Y-65452982D01*
X104988659Y-65318269D01*
X104988664Y-65318265D01*
X104992871Y-65315264D01*
X105164526Y-65144208D01*
X105204845Y-65088099D01*
X105260839Y-65044451D01*
X105331542Y-65038005D01*
X105394506Y-65070807D01*
G37*
%TD.AperFunction*%
%TA.AperFunction,Conductor*%
G36*
X110408032Y-43235432D02*
G01*
X110464868Y-43277979D01*
X110489679Y-43344499D01*
X110490000Y-43353488D01*
X110490000Y-46569201D01*
X110469998Y-46637322D01*
X110416342Y-46683815D01*
X110366547Y-46691985D01*
X110344366Y-46703644D01*
X109642822Y-47405188D01*
X109635208Y-47419132D01*
X109635339Y-47420965D01*
X109639590Y-47427580D01*
X110345087Y-48133077D01*
X110362568Y-48142623D01*
X110424385Y-48156070D01*
X110474587Y-48206272D01*
X110490000Y-48266658D01*
X110490000Y-56792742D01*
X110469998Y-56860863D01*
X110416342Y-56907356D01*
X110346068Y-56917460D01*
X110307664Y-56904653D01*
X110304905Y-56902585D01*
X110168516Y-56851455D01*
X110106334Y-56844700D01*
X108079666Y-56844700D01*
X108017484Y-56851455D01*
X107881095Y-56902585D01*
X107764539Y-56989939D01*
X107677185Y-57106495D01*
X107673637Y-57115959D01*
X107672964Y-57116855D01*
X107669723Y-57122775D01*
X107668869Y-57122307D01*
X107630998Y-57172724D01*
X107564438Y-57197426D01*
X107495088Y-57182222D01*
X107477562Y-57170615D01*
X107419383Y-57124668D01*
X107371328Y-57086717D01*
X107218593Y-57002402D01*
X107163705Y-56972102D01*
X107163702Y-56972101D01*
X107159174Y-56969601D01*
X107011932Y-56917460D01*
X106935613Y-56890434D01*
X106935610Y-56890433D01*
X106930741Y-56888709D01*
X106925652Y-56887802D01*
X106925650Y-56887802D01*
X106852394Y-56874753D01*
X106692163Y-56846212D01*
X106598625Y-56845069D01*
X106455018Y-56843314D01*
X106455016Y-56843314D01*
X106449848Y-56843251D01*
X106210303Y-56879907D01*
X105979961Y-56955194D01*
X105765009Y-57067091D01*
X105760876Y-57070194D01*
X105760873Y-57070196D01*
X105585212Y-57202086D01*
X105571218Y-57212593D01*
X105403795Y-57387792D01*
X105388234Y-57410604D01*
X105333324Y-57455605D01*
X105262799Y-57463776D01*
X105199052Y-57432522D01*
X105185987Y-57418293D01*
X105184599Y-57416147D01*
X105179555Y-57410603D01*
X105024981Y-57240729D01*
X105021506Y-57236910D01*
X104831328Y-57086717D01*
X104678593Y-57002402D01*
X104623705Y-56972102D01*
X104623702Y-56972101D01*
X104619174Y-56969601D01*
X104471932Y-56917460D01*
X104395613Y-56890434D01*
X104395610Y-56890433D01*
X104390741Y-56888709D01*
X104385652Y-56887802D01*
X104385650Y-56887802D01*
X104312394Y-56874753D01*
X104152163Y-56846212D01*
X104058625Y-56845069D01*
X103915018Y-56843314D01*
X103915016Y-56843314D01*
X103909848Y-56843251D01*
X103670303Y-56879907D01*
X103439961Y-56955194D01*
X103225009Y-57067091D01*
X103220876Y-57070194D01*
X103220873Y-57070196D01*
X103078384Y-57177180D01*
X103011899Y-57202086D01*
X102942504Y-57187094D01*
X102892230Y-57136963D01*
X102877039Y-57067611D01*
X102881024Y-57043809D01*
X102892119Y-57002402D01*
X102892119Y-57002400D01*
X102893543Y-56997087D01*
X102913498Y-56769000D01*
X102893543Y-56540913D01*
X102834284Y-56319757D01*
X102831961Y-56314775D01*
X102739849Y-56117238D01*
X102739846Y-56117233D01*
X102737523Y-56112251D01*
X102606198Y-55924700D01*
X102444300Y-55762802D01*
X102439792Y-55759645D01*
X102439789Y-55759643D01*
X102326921Y-55680612D01*
X102256749Y-55631477D01*
X102251767Y-55629154D01*
X102251762Y-55629151D01*
X102054225Y-55537039D01*
X102054224Y-55537039D01*
X102049243Y-55534716D01*
X102043935Y-55533294D01*
X102043933Y-55533293D01*
X101833402Y-55476881D01*
X101833400Y-55476881D01*
X101828087Y-55475457D01*
X101600000Y-55455502D01*
X101371913Y-55475457D01*
X101366600Y-55476881D01*
X101366598Y-55476881D01*
X101156067Y-55533293D01*
X101156065Y-55533294D01*
X101150757Y-55534716D01*
X101145776Y-55537039D01*
X101145775Y-55537039D01*
X100948238Y-55629151D01*
X100948233Y-55629154D01*
X100943251Y-55631477D01*
X100873079Y-55680612D01*
X100760211Y-55759643D01*
X100760208Y-55759645D01*
X100755700Y-55762802D01*
X100593802Y-55924700D01*
X100462477Y-56112251D01*
X100460154Y-56117233D01*
X100460151Y-56117238D01*
X100368039Y-56314775D01*
X100365716Y-56319757D01*
X100306457Y-56540913D01*
X100286502Y-56769000D01*
X100306457Y-56997087D01*
X100307881Y-57002400D01*
X100307881Y-57002402D01*
X100357370Y-57187094D01*
X100365716Y-57218243D01*
X100368039Y-57223224D01*
X100368039Y-57223225D01*
X100460151Y-57420762D01*
X100460154Y-57420767D01*
X100462477Y-57425749D01*
X100593802Y-57613300D01*
X100755700Y-57775198D01*
X100760208Y-57778355D01*
X100760211Y-57778357D01*
X100802246Y-57807790D01*
X100943251Y-57906523D01*
X100948233Y-57908846D01*
X100948238Y-57908849D01*
X101145775Y-58000961D01*
X101150757Y-58003284D01*
X101156065Y-58004706D01*
X101156067Y-58004707D01*
X101366598Y-58061119D01*
X101366600Y-58061119D01*
X101371913Y-58062543D01*
X101600000Y-58082498D01*
X101828087Y-58062543D01*
X101833400Y-58061119D01*
X101833402Y-58061119D01*
X102043933Y-58004707D01*
X102043935Y-58004706D01*
X102049243Y-58003284D01*
X102054225Y-58000961D01*
X102251762Y-57908849D01*
X102251767Y-57908846D01*
X102256749Y-57906523D01*
X102392541Y-57811440D01*
X102459815Y-57788752D01*
X102528675Y-57806037D01*
X102577260Y-57857807D01*
X102590143Y-57927624D01*
X102586229Y-57948325D01*
X102570988Y-58003284D01*
X102560442Y-58041310D01*
X102534690Y-58282271D01*
X102534987Y-58287423D01*
X102534987Y-58287427D01*
X102546435Y-58485955D01*
X102548640Y-58524202D01*
X102549779Y-58529255D01*
X102549779Y-58529257D01*
X102573277Y-58633528D01*
X102568741Y-58704379D01*
X102526619Y-58761531D01*
X102460285Y-58786836D01*
X102390801Y-58772263D01*
X102378096Y-58764445D01*
X102256749Y-58679477D01*
X102251767Y-58677154D01*
X102251762Y-58677151D01*
X102054225Y-58585039D01*
X102054224Y-58585039D01*
X102049243Y-58582716D01*
X102043935Y-58581294D01*
X102043933Y-58581293D01*
X101833402Y-58524881D01*
X101833400Y-58524881D01*
X101828087Y-58523457D01*
X101600000Y-58503502D01*
X101371913Y-58523457D01*
X101366600Y-58524881D01*
X101366598Y-58524881D01*
X101156067Y-58581293D01*
X101156065Y-58581294D01*
X101150757Y-58582716D01*
X101145776Y-58585039D01*
X101145775Y-58585039D01*
X100948238Y-58677151D01*
X100948233Y-58677154D01*
X100943251Y-58679477D01*
X100873252Y-58728491D01*
X100760211Y-58807643D01*
X100760208Y-58807645D01*
X100755700Y-58810802D01*
X100593802Y-58972700D01*
X100590645Y-58977208D01*
X100590643Y-58977211D01*
X100537350Y-59053322D01*
X100462477Y-59160251D01*
X100460154Y-59165233D01*
X100460151Y-59165238D01*
X100410083Y-59272611D01*
X100365716Y-59367757D01*
X100364294Y-59373065D01*
X100364293Y-59373067D01*
X100315434Y-59555410D01*
X100306457Y-59588913D01*
X100286502Y-59817000D01*
X100306457Y-60045087D01*
X100307881Y-60050400D01*
X100307881Y-60050402D01*
X100361553Y-60250705D01*
X100365716Y-60266243D01*
X100368039Y-60271224D01*
X100368039Y-60271225D01*
X100460151Y-60468762D01*
X100460154Y-60468767D01*
X100462477Y-60473749D01*
X100593802Y-60661300D01*
X100755700Y-60823198D01*
X100760208Y-60826355D01*
X100760211Y-60826357D01*
X100838389Y-60881098D01*
X100943251Y-60954523D01*
X100948233Y-60956846D01*
X100948238Y-60956849D01*
X101145775Y-61048961D01*
X101150757Y-61051284D01*
X101156065Y-61052706D01*
X101156067Y-61052707D01*
X101366598Y-61109119D01*
X101366600Y-61109119D01*
X101371913Y-61110543D01*
X101600000Y-61130498D01*
X101828087Y-61110543D01*
X101833400Y-61109119D01*
X101833402Y-61109119D01*
X102043933Y-61052707D01*
X102043935Y-61052706D01*
X102049243Y-61051284D01*
X102054225Y-61048961D01*
X102251762Y-60956849D01*
X102251767Y-60956846D01*
X102256749Y-60954523D01*
X102361611Y-60881098D01*
X102439789Y-60826357D01*
X102439792Y-60826355D01*
X102444300Y-60823198D01*
X102606198Y-60661300D01*
X102737523Y-60473749D01*
X102739846Y-60468767D01*
X102739849Y-60468762D01*
X102831961Y-60271225D01*
X102831961Y-60271224D01*
X102834284Y-60266243D01*
X102838448Y-60250705D01*
X102892119Y-60050402D01*
X102892119Y-60050400D01*
X102893543Y-60045087D01*
X102913498Y-59817000D01*
X102893543Y-59588913D01*
X102894360Y-59588842D01*
X102901722Y-59522854D01*
X102946492Y-59467752D01*
X103013944Y-59445601D01*
X103082665Y-59463435D01*
X103098416Y-59474590D01*
X103164823Y-59529722D01*
X103374053Y-59651986D01*
X103378873Y-59653826D01*
X103378878Y-59653829D01*
X103487220Y-59695200D01*
X103600442Y-59738435D01*
X103605510Y-59739466D01*
X103605513Y-59739467D01*
X103722780Y-59763325D01*
X103837910Y-59786749D01*
X103843085Y-59786939D01*
X103843087Y-59786939D01*
X104074917Y-59795440D01*
X104074921Y-59795440D01*
X104080081Y-59795629D01*
X104085201Y-59794973D01*
X104085203Y-59794973D01*
X104173279Y-59783690D01*
X104320450Y-59764837D01*
X104325401Y-59763352D01*
X104325404Y-59763351D01*
X104547612Y-59696685D01*
X104547611Y-59696685D01*
X104552562Y-59695200D01*
X104665890Y-59639681D01*
X104765533Y-59590867D01*
X104765538Y-59590864D01*
X104770184Y-59588588D01*
X104774394Y-59585585D01*
X104774399Y-59585582D01*
X104963259Y-59450869D01*
X104963264Y-59450865D01*
X104967471Y-59447864D01*
X105139126Y-59276808D01*
X105179445Y-59220699D01*
X105235439Y-59177051D01*
X105306142Y-59170605D01*
X105369106Y-59203407D01*
X105377001Y-59211724D01*
X105518372Y-59374927D01*
X105704823Y-59529722D01*
X105914053Y-59651986D01*
X105918873Y-59653826D01*
X105918878Y-59653829D01*
X106027220Y-59695200D01*
X106140442Y-59738435D01*
X106145510Y-59739466D01*
X106145513Y-59739467D01*
X106262780Y-59763325D01*
X106377910Y-59786749D01*
X106383085Y-59786939D01*
X106383087Y-59786939D01*
X106614917Y-59795440D01*
X106614921Y-59795440D01*
X106620081Y-59795629D01*
X106625201Y-59794973D01*
X106625203Y-59794973D01*
X106713279Y-59783690D01*
X106860450Y-59764837D01*
X106865401Y-59763352D01*
X106865404Y-59763351D01*
X107087612Y-59696685D01*
X107087611Y-59696685D01*
X107092562Y-59695200D01*
X107205890Y-59639681D01*
X107305533Y-59590867D01*
X107305538Y-59590864D01*
X107310184Y-59588588D01*
X107314394Y-59585585D01*
X107314399Y-59585582D01*
X107483430Y-59465012D01*
X107550503Y-59441738D01*
X107619512Y-59458421D01*
X107668546Y-59509764D01*
X107673500Y-59520924D01*
X107674033Y-59521898D01*
X107677185Y-59530305D01*
X107764539Y-59646861D01*
X107881095Y-59734215D01*
X108017484Y-59785345D01*
X108079666Y-59792100D01*
X110106334Y-59792100D01*
X110168516Y-59785345D01*
X110304905Y-59734215D01*
X110306761Y-59732824D01*
X110372845Y-59718369D01*
X110439394Y-59743103D01*
X110482005Y-59799890D01*
X110490000Y-59844058D01*
X110490000Y-62648054D01*
X110469998Y-62716175D01*
X110416342Y-62762668D01*
X110346068Y-62772772D01*
X110319773Y-62766037D01*
X110193916Y-62718855D01*
X110131734Y-62712100D01*
X108105066Y-62712100D01*
X108042884Y-62718855D01*
X107906495Y-62769985D01*
X107789939Y-62857339D01*
X107702585Y-62973895D01*
X107699037Y-62983359D01*
X107698364Y-62984255D01*
X107695123Y-62990175D01*
X107694269Y-62989707D01*
X107656398Y-63040124D01*
X107589838Y-63064826D01*
X107520488Y-63049622D01*
X107502962Y-63038015D01*
X107444783Y-62992068D01*
X107396728Y-62954117D01*
X107235294Y-62865000D01*
X107189105Y-62839502D01*
X107189102Y-62839501D01*
X107184574Y-62837001D01*
X107022382Y-62779566D01*
X106961013Y-62757834D01*
X106961010Y-62757833D01*
X106956141Y-62756109D01*
X106951052Y-62755202D01*
X106951050Y-62755202D01*
X106840925Y-62735586D01*
X106717563Y-62713612D01*
X106624025Y-62712469D01*
X106480418Y-62710714D01*
X106480416Y-62710714D01*
X106475248Y-62710651D01*
X106235703Y-62747307D01*
X106005361Y-62822594D01*
X105790409Y-62934491D01*
X105786276Y-62937594D01*
X105786273Y-62937596D01*
X105600753Y-63076888D01*
X105596618Y-63079993D01*
X105429195Y-63255192D01*
X105413634Y-63278004D01*
X105358724Y-63323005D01*
X105288199Y-63331176D01*
X105224452Y-63299922D01*
X105211387Y-63285693D01*
X105209999Y-63283547D01*
X105204955Y-63278003D01*
X105050381Y-63108129D01*
X105046906Y-63104310D01*
X104856728Y-62954117D01*
X104695294Y-62865000D01*
X104649105Y-62839502D01*
X104649102Y-62839501D01*
X104644574Y-62837001D01*
X104482382Y-62779566D01*
X104421013Y-62757834D01*
X104421010Y-62757833D01*
X104416141Y-62756109D01*
X104411052Y-62755202D01*
X104411050Y-62755202D01*
X104300925Y-62735586D01*
X104177563Y-62713612D01*
X104084025Y-62712469D01*
X103940418Y-62710714D01*
X103940416Y-62710714D01*
X103935248Y-62710651D01*
X103695703Y-62747307D01*
X103465361Y-62822594D01*
X103250409Y-62934491D01*
X103246276Y-62937594D01*
X103246273Y-62937596D01*
X103109085Y-63040600D01*
X103042600Y-63065506D01*
X102973205Y-63050514D01*
X102922931Y-63000383D01*
X102907911Y-62928858D01*
X102908472Y-62922453D01*
X102913498Y-62865000D01*
X102893543Y-62636913D01*
X102834284Y-62415757D01*
X102831961Y-62410775D01*
X102739849Y-62213238D01*
X102739846Y-62213233D01*
X102737523Y-62208251D01*
X102606198Y-62020700D01*
X102444300Y-61858802D01*
X102439792Y-61855645D01*
X102439789Y-61855643D01*
X102361611Y-61800902D01*
X102256749Y-61727477D01*
X102251767Y-61725154D01*
X102251762Y-61725151D01*
X102054225Y-61633039D01*
X102054224Y-61633039D01*
X102049243Y-61630716D01*
X102043935Y-61629294D01*
X102043933Y-61629293D01*
X101833402Y-61572881D01*
X101833400Y-61572881D01*
X101828087Y-61571457D01*
X101600000Y-61551502D01*
X101371913Y-61571457D01*
X101366600Y-61572881D01*
X101366598Y-61572881D01*
X101156067Y-61629293D01*
X101156065Y-61629294D01*
X101150757Y-61630716D01*
X101145776Y-61633039D01*
X101145775Y-61633039D01*
X100948238Y-61725151D01*
X100948233Y-61725154D01*
X100943251Y-61727477D01*
X100838389Y-61800902D01*
X100760211Y-61855643D01*
X100760208Y-61855645D01*
X100755700Y-61858802D01*
X100593802Y-62020700D01*
X100462477Y-62208251D01*
X100460154Y-62213233D01*
X100460151Y-62213238D01*
X100368039Y-62410775D01*
X100365716Y-62415757D01*
X100306457Y-62636913D01*
X100286502Y-62865000D01*
X100306457Y-63093087D01*
X100306878Y-63094659D01*
X100299142Y-63164028D01*
X100272020Y-63204444D01*
X97696962Y-65779503D01*
X97690697Y-65785356D01*
X97647726Y-65822842D01*
X97643359Y-65829056D01*
X97611506Y-65874378D01*
X97607573Y-65879674D01*
X97573394Y-65923263D01*
X97573392Y-65923266D01*
X97568708Y-65929240D01*
X97565582Y-65936164D01*
X97563744Y-65939199D01*
X97556500Y-65951898D01*
X97554812Y-65955046D01*
X97550444Y-65961261D01*
X97547684Y-65968340D01*
X97527567Y-66019939D01*
X97525022Y-66025995D01*
X97499087Y-66083435D01*
X97497702Y-66090908D01*
X97496631Y-66094326D01*
X97492646Y-66108315D01*
X97491749Y-66111807D01*
X97488988Y-66118889D01*
X97487996Y-66126422D01*
X97487996Y-66126423D01*
X97480767Y-66181330D01*
X97479735Y-66187843D01*
X97472723Y-66225678D01*
X97468255Y-66249787D01*
X97468692Y-66257367D01*
X97468692Y-66257368D01*
X97471791Y-66311112D01*
X97472000Y-66318365D01*
X97472000Y-70328911D01*
X97451998Y-70397032D01*
X97417352Y-70431360D01*
X97417872Y-70432052D01*
X97267565Y-70544906D01*
X97232655Y-70571117D01*
X97229083Y-70574855D01*
X97094721Y-70715457D01*
X97072639Y-70738564D01*
X96942119Y-70929899D01*
X96844602Y-71139981D01*
X96782707Y-71363169D01*
X96758095Y-71593469D01*
X96758392Y-71598622D01*
X96758392Y-71598625D01*
X96760946Y-71642915D01*
X96744898Y-71712074D01*
X96694008Y-71761579D01*
X96624432Y-71775711D01*
X96558261Y-71749984D01*
X96516503Y-71692567D01*
X96513448Y-71682780D01*
X96481906Y-71565064D01*
X96480484Y-71559757D01*
X96414600Y-71418467D01*
X96386049Y-71357238D01*
X96386046Y-71357233D01*
X96383723Y-71352251D01*
X96252398Y-71164700D01*
X96090500Y-71002802D01*
X96085992Y-70999645D01*
X96085989Y-70999643D01*
X95980277Y-70925623D01*
X95902949Y-70871477D01*
X95897967Y-70869154D01*
X95897962Y-70869151D01*
X95700425Y-70777039D01*
X95700424Y-70777039D01*
X95695443Y-70774716D01*
X95690135Y-70773294D01*
X95690133Y-70773293D01*
X95479602Y-70716881D01*
X95479600Y-70716881D01*
X95474287Y-70715457D01*
X95246200Y-70695502D01*
X95018113Y-70715457D01*
X95012800Y-70716881D01*
X95012798Y-70716881D01*
X94802267Y-70773293D01*
X94802265Y-70773294D01*
X94796957Y-70774716D01*
X94791976Y-70777039D01*
X94791975Y-70777039D01*
X94594438Y-70869151D01*
X94594433Y-70869154D01*
X94589451Y-70871477D01*
X94512123Y-70925623D01*
X94406411Y-70999643D01*
X94406408Y-70999645D01*
X94401900Y-71002802D01*
X94240002Y-71164700D01*
X94108677Y-71352251D01*
X94106354Y-71357233D01*
X94106351Y-71357238D01*
X94077800Y-71418467D01*
X94011916Y-71559757D01*
X94010494Y-71565064D01*
X94010493Y-71565067D01*
X93954081Y-71775598D01*
X93952657Y-71780913D01*
X93932702Y-72009000D01*
X93952657Y-72237087D01*
X94011916Y-72458243D01*
X94014239Y-72463224D01*
X94014239Y-72463225D01*
X94106351Y-72660762D01*
X94106354Y-72660767D01*
X94108677Y-72665749D01*
X94179080Y-72766295D01*
X94233674Y-72844262D01*
X94240002Y-72853300D01*
X94401900Y-73015198D01*
X94406408Y-73018355D01*
X94406411Y-73018357D01*
X94422675Y-73029745D01*
X94589451Y-73146523D01*
X94594433Y-73148846D01*
X94594438Y-73148849D01*
X94791975Y-73240961D01*
X94796957Y-73243284D01*
X94802265Y-73244706D01*
X94802267Y-73244707D01*
X95012798Y-73301119D01*
X95012800Y-73301119D01*
X95018113Y-73302543D01*
X95246200Y-73322498D01*
X95474287Y-73302543D01*
X95479600Y-73301119D01*
X95479602Y-73301119D01*
X95690133Y-73244707D01*
X95690135Y-73244706D01*
X95695443Y-73243284D01*
X95700425Y-73240961D01*
X95897962Y-73148849D01*
X95897967Y-73148846D01*
X95902949Y-73146523D01*
X96069725Y-73029745D01*
X96085989Y-73018357D01*
X96085992Y-73018355D01*
X96090500Y-73015198D01*
X96252398Y-72853300D01*
X96258727Y-72844262D01*
X96313320Y-72766295D01*
X96383723Y-72665749D01*
X96386046Y-72660767D01*
X96386049Y-72660762D01*
X96478161Y-72463225D01*
X96478161Y-72463224D01*
X96480484Y-72458243D01*
X96539743Y-72237087D01*
X96559698Y-72009000D01*
X96561031Y-72009117D01*
X96579221Y-71947167D01*
X96632877Y-71900674D01*
X96703151Y-71890570D01*
X96767731Y-71920064D01*
X96806115Y-71979790D01*
X96808135Y-71987585D01*
X96822346Y-72050642D01*
X96824288Y-72055424D01*
X96824289Y-72055428D01*
X96907540Y-72260450D01*
X96909484Y-72265237D01*
X97030501Y-72462719D01*
X97182147Y-72637784D01*
X97360349Y-72785730D01*
X97560322Y-72902584D01*
X97776694Y-72985209D01*
X97781760Y-72986240D01*
X97781761Y-72986240D01*
X97826234Y-72995288D01*
X98003656Y-73031385D01*
X98133089Y-73036131D01*
X98229949Y-73039683D01*
X98229953Y-73039683D01*
X98235113Y-73039872D01*
X98240233Y-73039216D01*
X98240235Y-73039216D01*
X98314166Y-73029745D01*
X98464847Y-73010442D01*
X98469795Y-73008957D01*
X98469802Y-73008956D01*
X98681747Y-72945369D01*
X98686690Y-72943886D01*
X98720818Y-72927167D01*
X98890049Y-72844262D01*
X98890052Y-72844260D01*
X98894684Y-72841991D01*
X99083243Y-72707494D01*
X99128309Y-72662585D01*
X99190681Y-72628669D01*
X99261487Y-72633857D01*
X99318249Y-72676503D01*
X99335231Y-72707607D01*
X99360385Y-72774705D01*
X99447739Y-72891261D01*
X99564295Y-72978615D01*
X99700684Y-73029745D01*
X99762866Y-73036500D01*
X99797100Y-73036500D01*
X99865221Y-73056502D01*
X99911714Y-73110158D01*
X99923100Y-73162500D01*
X99923100Y-74193535D01*
X99903098Y-74261656D01*
X99872754Y-74294294D01*
X99754618Y-74382993D01*
X99587195Y-74558192D01*
X99584284Y-74562460D01*
X99584278Y-74562467D01*
X99571335Y-74581440D01*
X99516423Y-74626442D01*
X99445898Y-74634612D01*
X99382151Y-74603356D01*
X99367421Y-74587315D01*
X99364118Y-74583027D01*
X99208041Y-74411500D01*
X99200508Y-74404474D01*
X99018504Y-74260736D01*
X99009932Y-74255040D01*
X98806892Y-74142956D01*
X98797495Y-74138733D01*
X98578880Y-74061318D01*
X98568930Y-74058689D01*
X98468236Y-74040753D01*
X98454940Y-74042212D01*
X98450400Y-74056768D01*
X98450400Y-75616800D01*
X98430398Y-75684921D01*
X98376742Y-75731414D01*
X98324400Y-75742800D01*
X98068400Y-75742800D01*
X98000279Y-75722798D01*
X97953786Y-75669142D01*
X97942400Y-75616800D01*
X97942400Y-74055355D01*
X97938482Y-74042011D01*
X97924206Y-74040024D01*
X97858932Y-74050013D01*
X97848904Y-74052402D01*
X97628473Y-74124450D01*
X97618964Y-74128447D01*
X97413265Y-74235527D01*
X97404540Y-74241021D01*
X97269281Y-74342577D01*
X97202796Y-74367483D01*
X97133401Y-74352491D01*
X97083127Y-74302360D01*
X97075646Y-74286047D01*
X97075367Y-74285303D01*
X97072215Y-74276895D01*
X96984861Y-74160339D01*
X96868305Y-74072985D01*
X96731916Y-74021855D01*
X96669734Y-74015100D01*
X94643066Y-74015100D01*
X94580884Y-74021855D01*
X94444495Y-74072985D01*
X94327939Y-74160339D01*
X94240585Y-74276895D01*
X94189455Y-74413284D01*
X94182700Y-74475466D01*
X94182700Y-74547640D01*
X94162698Y-74615761D01*
X94109042Y-74662254D01*
X94038768Y-74672358D01*
X93974188Y-74642864D01*
X93950908Y-74616080D01*
X93934811Y-74591198D01*
X93928519Y-74583027D01*
X93772441Y-74411500D01*
X93764908Y-74404474D01*
X93582904Y-74260736D01*
X93574332Y-74255040D01*
X93371292Y-74142956D01*
X93361895Y-74138733D01*
X93143280Y-74061318D01*
X93133330Y-74058689D01*
X93032636Y-74040753D01*
X93019340Y-74042212D01*
X93014800Y-74056768D01*
X93014800Y-75616800D01*
X92994798Y-75684921D01*
X92941142Y-75731414D01*
X92888800Y-75742800D01*
X92632800Y-75742800D01*
X92564679Y-75722798D01*
X92518186Y-75669142D01*
X92506800Y-75616800D01*
X92506800Y-74055355D01*
X92502882Y-74042011D01*
X92488606Y-74040024D01*
X92423332Y-74050013D01*
X92413304Y-74052402D01*
X92192873Y-74124450D01*
X92183364Y-74128447D01*
X91977665Y-74235527D01*
X91968940Y-74241021D01*
X91833681Y-74342577D01*
X91767196Y-74367483D01*
X91697801Y-74352491D01*
X91647527Y-74302360D01*
X91640046Y-74286047D01*
X91639767Y-74285303D01*
X91636615Y-74276895D01*
X91549261Y-74160339D01*
X91432705Y-74072985D01*
X91296316Y-74021855D01*
X91234134Y-74015100D01*
X89207466Y-74015100D01*
X89207466Y-74014369D01*
X89141525Y-73998833D01*
X89092192Y-73947777D01*
X89077800Y-73889299D01*
X89077800Y-72995288D01*
X89097802Y-72927167D01*
X89151458Y-72880674D01*
X89221732Y-72870570D01*
X89286312Y-72900064D01*
X89292895Y-72906193D01*
X89401900Y-73015198D01*
X89406408Y-73018355D01*
X89406411Y-73018357D01*
X89422675Y-73029745D01*
X89589451Y-73146523D01*
X89594433Y-73148846D01*
X89594438Y-73148849D01*
X89791975Y-73240961D01*
X89796957Y-73243284D01*
X89802265Y-73244706D01*
X89802267Y-73244707D01*
X90012798Y-73301119D01*
X90012800Y-73301119D01*
X90018113Y-73302543D01*
X90246200Y-73322498D01*
X90474287Y-73302543D01*
X90479600Y-73301119D01*
X90479602Y-73301119D01*
X90690133Y-73244707D01*
X90690135Y-73244706D01*
X90695443Y-73243284D01*
X90700425Y-73240961D01*
X90897962Y-73148849D01*
X90897967Y-73148846D01*
X90902949Y-73146523D01*
X91069725Y-73029745D01*
X91085989Y-73018357D01*
X91085992Y-73018355D01*
X91090500Y-73015198D01*
X91252398Y-72853300D01*
X91258727Y-72844262D01*
X91313320Y-72766295D01*
X91383723Y-72665749D01*
X91386046Y-72660767D01*
X91386049Y-72660762D01*
X91478161Y-72463225D01*
X91478161Y-72463224D01*
X91480484Y-72458243D01*
X91539743Y-72237087D01*
X91559698Y-72009000D01*
X91539743Y-71780913D01*
X91538319Y-71775598D01*
X91481907Y-71565067D01*
X91481906Y-71565064D01*
X91480484Y-71559757D01*
X91414600Y-71418467D01*
X91386049Y-71357238D01*
X91386046Y-71357233D01*
X91383723Y-71352251D01*
X91252398Y-71164700D01*
X91090500Y-71002802D01*
X91085992Y-70999645D01*
X91085989Y-70999643D01*
X90980277Y-70925623D01*
X90902949Y-70871477D01*
X90897967Y-70869154D01*
X90897962Y-70869151D01*
X90764705Y-70807013D01*
X90711420Y-70760096D01*
X90691959Y-70691819D01*
X90712501Y-70623859D01*
X90769737Y-70576409D01*
X90885077Y-70528634D01*
X90885079Y-70528633D01*
X90889649Y-70526740D01*
X91094249Y-70401360D01*
X91099317Y-70397032D01*
X91272956Y-70248731D01*
X91276718Y-70245518D01*
X91404959Y-70095366D01*
X91429342Y-70066817D01*
X91429343Y-70066816D01*
X91432560Y-70063049D01*
X91557940Y-69858449D01*
X91581824Y-69800789D01*
X91647875Y-69641326D01*
X91647876Y-69641324D01*
X91649769Y-69636753D01*
X91698214Y-69434966D01*
X91704632Y-69408235D01*
X91704633Y-69408229D01*
X91705787Y-69403422D01*
X91724614Y-69164200D01*
X91708622Y-68961000D01*
X92641102Y-68961000D01*
X92661057Y-69189087D01*
X92662481Y-69194400D01*
X92662481Y-69194402D01*
X92691554Y-69302901D01*
X92720316Y-69410243D01*
X92722639Y-69415224D01*
X92722639Y-69415225D01*
X92814751Y-69612762D01*
X92814754Y-69612767D01*
X92817077Y-69617749D01*
X92948402Y-69805300D01*
X93110300Y-69967198D01*
X93114808Y-69970355D01*
X93114811Y-69970357D01*
X93143274Y-69990287D01*
X93297851Y-70098523D01*
X93302833Y-70100846D01*
X93302838Y-70100849D01*
X93471988Y-70179724D01*
X93505357Y-70195284D01*
X93510665Y-70196706D01*
X93510667Y-70196707D01*
X93721198Y-70253119D01*
X93721200Y-70253119D01*
X93726513Y-70254543D01*
X93954600Y-70274498D01*
X94182687Y-70254543D01*
X94188000Y-70253119D01*
X94188002Y-70253119D01*
X94398533Y-70196707D01*
X94398535Y-70196706D01*
X94403843Y-70195284D01*
X94437212Y-70179724D01*
X94606362Y-70100849D01*
X94606367Y-70100846D01*
X94611349Y-70098523D01*
X94765926Y-69990287D01*
X94794389Y-69970357D01*
X94794392Y-69970355D01*
X94798900Y-69967198D01*
X94960798Y-69805300D01*
X95092123Y-69617749D01*
X95094446Y-69612767D01*
X95094449Y-69612762D01*
X95186561Y-69415225D01*
X95186561Y-69415224D01*
X95188884Y-69410243D01*
X95217647Y-69302901D01*
X95246719Y-69194402D01*
X95246719Y-69194400D01*
X95248143Y-69189087D01*
X95268098Y-68961000D01*
X95248143Y-68732913D01*
X95238375Y-68696459D01*
X95190307Y-68517067D01*
X95190306Y-68517065D01*
X95188884Y-68511757D01*
X95169390Y-68469951D01*
X95094449Y-68309238D01*
X95094446Y-68309233D01*
X95092123Y-68304251D01*
X94977940Y-68141181D01*
X94963957Y-68121211D01*
X94963955Y-68121208D01*
X94960798Y-68116700D01*
X94798900Y-67954802D01*
X94794392Y-67951645D01*
X94794389Y-67951643D01*
X94658749Y-67856667D01*
X94611349Y-67823477D01*
X94606367Y-67821154D01*
X94606362Y-67821151D01*
X94408825Y-67729039D01*
X94408824Y-67729039D01*
X94403843Y-67726716D01*
X94398535Y-67725294D01*
X94398533Y-67725293D01*
X94188002Y-67668881D01*
X94188000Y-67668881D01*
X94182687Y-67667457D01*
X93954600Y-67647502D01*
X93726513Y-67667457D01*
X93721200Y-67668881D01*
X93721198Y-67668881D01*
X93510667Y-67725293D01*
X93510665Y-67725294D01*
X93505357Y-67726716D01*
X93500376Y-67729039D01*
X93500375Y-67729039D01*
X93302838Y-67821151D01*
X93302833Y-67821154D01*
X93297851Y-67823477D01*
X93250451Y-67856667D01*
X93114811Y-67951643D01*
X93114808Y-67951645D01*
X93110300Y-67954802D01*
X92948402Y-68116700D01*
X92945245Y-68121208D01*
X92945243Y-68121211D01*
X92931260Y-68141181D01*
X92817077Y-68304251D01*
X92814754Y-68309233D01*
X92814751Y-68309238D01*
X92739810Y-68469951D01*
X92720316Y-68511757D01*
X92718894Y-68517065D01*
X92718893Y-68517067D01*
X92670825Y-68696459D01*
X92661057Y-68732913D01*
X92641102Y-68961000D01*
X91708622Y-68961000D01*
X91705787Y-68924978D01*
X91704633Y-68920171D01*
X91704632Y-68920165D01*
X91652638Y-68703599D01*
X91649769Y-68691647D01*
X91557940Y-68469951D01*
X91432560Y-68265351D01*
X91276718Y-68082882D01*
X91167977Y-67990009D01*
X91129170Y-67930561D01*
X91128662Y-67859566D01*
X91167977Y-67798391D01*
X91276718Y-67705518D01*
X91432560Y-67523049D01*
X91557940Y-67318449D01*
X91566287Y-67298299D01*
X91647875Y-67101326D01*
X91647876Y-67101324D01*
X91649769Y-67096753D01*
X91685540Y-66947757D01*
X91704632Y-66868235D01*
X91704633Y-66868229D01*
X91705787Y-66863422D01*
X91724614Y-66624200D01*
X91705787Y-66384978D01*
X91667542Y-66225676D01*
X91671089Y-66154770D01*
X91700966Y-66107169D01*
X92565695Y-65242440D01*
X92628007Y-65208414D01*
X92698822Y-65213479D01*
X92755658Y-65256026D01*
X92780469Y-65322546D01*
X92768985Y-65384784D01*
X92735450Y-65456701D01*
X92720316Y-65489157D01*
X92718894Y-65494465D01*
X92718893Y-65494467D01*
X92673777Y-65662840D01*
X92661057Y-65710313D01*
X92641102Y-65938400D01*
X92661057Y-66166487D01*
X92662481Y-66171800D01*
X92662481Y-66171802D01*
X92685409Y-66257368D01*
X92720316Y-66387643D01*
X92722639Y-66392624D01*
X92722639Y-66392625D01*
X92814751Y-66590162D01*
X92814754Y-66590167D01*
X92817077Y-66595149D01*
X92948402Y-66782700D01*
X93110300Y-66944598D01*
X93114808Y-66947755D01*
X93114811Y-66947757D01*
X93171002Y-66987102D01*
X93297851Y-67075923D01*
X93302833Y-67078246D01*
X93302838Y-67078249D01*
X93491525Y-67166234D01*
X93505357Y-67172684D01*
X93510665Y-67174106D01*
X93510667Y-67174107D01*
X93721198Y-67230519D01*
X93721200Y-67230519D01*
X93726513Y-67231943D01*
X93954600Y-67251898D01*
X94182687Y-67231943D01*
X94188000Y-67230519D01*
X94188002Y-67230519D01*
X94398533Y-67174107D01*
X94398535Y-67174106D01*
X94403843Y-67172684D01*
X94417675Y-67166234D01*
X94606362Y-67078249D01*
X94606367Y-67078246D01*
X94611349Y-67075923D01*
X94738198Y-66987102D01*
X94794389Y-66947757D01*
X94794392Y-66947755D01*
X94798900Y-66944598D01*
X94960798Y-66782700D01*
X95092123Y-66595149D01*
X95094446Y-66590167D01*
X95094449Y-66590162D01*
X95186561Y-66392625D01*
X95186561Y-66392624D01*
X95188884Y-66387643D01*
X95223792Y-66257368D01*
X95246719Y-66171802D01*
X95246719Y-66171800D01*
X95248143Y-66166487D01*
X95268098Y-65938400D01*
X95248143Y-65710313D01*
X95235423Y-65662840D01*
X95190307Y-65494467D01*
X95190306Y-65494465D01*
X95188884Y-65489157D01*
X95173417Y-65455988D01*
X95094449Y-65286638D01*
X95094446Y-65286633D01*
X95092123Y-65281651D01*
X94999362Y-65149175D01*
X94963957Y-65098611D01*
X94963955Y-65098608D01*
X94960798Y-65094100D01*
X94798900Y-64932202D01*
X94787649Y-64924324D01*
X94743322Y-64868865D01*
X94736014Y-64798246D01*
X94768046Y-64734886D01*
X94809271Y-64705741D01*
X94812633Y-64704265D01*
X94818745Y-64701771D01*
X94870558Y-64682192D01*
X94870559Y-64682191D01*
X94877663Y-64679507D01*
X94883918Y-64675208D01*
X94887059Y-64673566D01*
X94899813Y-64666468D01*
X94902919Y-64664631D01*
X94909874Y-64661578D01*
X94915901Y-64656953D01*
X94915905Y-64656951D01*
X94959843Y-64623236D01*
X94965161Y-64619372D01*
X95017093Y-64583680D01*
X95057960Y-64537812D01*
X95062940Y-64532537D01*
X96333638Y-63261839D01*
X96339904Y-63255985D01*
X96377147Y-63223496D01*
X96382874Y-63218500D01*
X96419099Y-63166956D01*
X96423025Y-63161671D01*
X96457201Y-63118084D01*
X96457203Y-63118081D01*
X96461891Y-63112102D01*
X96465017Y-63105180D01*
X96466885Y-63102095D01*
X96474107Y-63089433D01*
X96475790Y-63086293D01*
X96480156Y-63080081D01*
X96503036Y-63021396D01*
X96505592Y-63015314D01*
X96509507Y-63006644D01*
X96531513Y-62957907D01*
X96532897Y-62950439D01*
X96533957Y-62947057D01*
X96537975Y-62932951D01*
X96538854Y-62929527D01*
X96541612Y-62922453D01*
X96549834Y-62860002D01*
X96550865Y-62853489D01*
X96553458Y-62839502D01*
X96562344Y-62791555D01*
X96558809Y-62730241D01*
X96558600Y-62722989D01*
X96558600Y-54447400D01*
X96578602Y-54379279D01*
X96632258Y-54332786D01*
X96702532Y-54322682D01*
X96767112Y-54352176D01*
X96787813Y-54375129D01*
X96876100Y-54501215D01*
X96885402Y-54514500D01*
X97047300Y-54676398D01*
X97051808Y-54679555D01*
X97051811Y-54679557D01*
X97074372Y-54695354D01*
X97234851Y-54807723D01*
X97239833Y-54810046D01*
X97239838Y-54810049D01*
X97432578Y-54899924D01*
X97442357Y-54904484D01*
X97447665Y-54905906D01*
X97447667Y-54905907D01*
X97658198Y-54962319D01*
X97658200Y-54962319D01*
X97663513Y-54963743D01*
X97891600Y-54983698D01*
X98119687Y-54963743D01*
X98125000Y-54962319D01*
X98125002Y-54962319D01*
X98335533Y-54905907D01*
X98335535Y-54905906D01*
X98340843Y-54904484D01*
X98350622Y-54899924D01*
X98543362Y-54810049D01*
X98543367Y-54810046D01*
X98548349Y-54807723D01*
X98708828Y-54695354D01*
X98731389Y-54679557D01*
X98731392Y-54679555D01*
X98735900Y-54676398D01*
X98897798Y-54514500D01*
X98907101Y-54501215D01*
X98995387Y-54375129D01*
X99029123Y-54326949D01*
X99031446Y-54321967D01*
X99031449Y-54321962D01*
X99123561Y-54124425D01*
X99123561Y-54124424D01*
X99125884Y-54119443D01*
X99174570Y-53937748D01*
X99183719Y-53903602D01*
X99183719Y-53903600D01*
X99185143Y-53898287D01*
X99205098Y-53670200D01*
X99905502Y-53670200D01*
X99925457Y-53898287D01*
X99926881Y-53903600D01*
X99926881Y-53903602D01*
X99936031Y-53937748D01*
X99984716Y-54119443D01*
X99987039Y-54124424D01*
X99987039Y-54124425D01*
X100079151Y-54321962D01*
X100079154Y-54321967D01*
X100081477Y-54326949D01*
X100115213Y-54375129D01*
X100203500Y-54501215D01*
X100212802Y-54514500D01*
X100374700Y-54676398D01*
X100379208Y-54679555D01*
X100379211Y-54679557D01*
X100401772Y-54695354D01*
X100562251Y-54807723D01*
X100567233Y-54810046D01*
X100567238Y-54810049D01*
X100759978Y-54899924D01*
X100769757Y-54904484D01*
X100775065Y-54905906D01*
X100775067Y-54905907D01*
X100985598Y-54962319D01*
X100985600Y-54962319D01*
X100990913Y-54963743D01*
X101219000Y-54983698D01*
X101447087Y-54963743D01*
X101452400Y-54962319D01*
X101452402Y-54962319D01*
X101662933Y-54905907D01*
X101662935Y-54905906D01*
X101668243Y-54904484D01*
X101678022Y-54899924D01*
X101870762Y-54810049D01*
X101870767Y-54810046D01*
X101875749Y-54807723D01*
X102036228Y-54695354D01*
X102058789Y-54679557D01*
X102058792Y-54679555D01*
X102063300Y-54676398D01*
X102225198Y-54514500D01*
X102234501Y-54501215D01*
X102322787Y-54375129D01*
X102356523Y-54326949D01*
X102358846Y-54321967D01*
X102358849Y-54321962D01*
X102450961Y-54124425D01*
X102450961Y-54124424D01*
X102453284Y-54119443D01*
X102501970Y-53937748D01*
X102502245Y-53936722D01*
X107556273Y-53936722D01*
X107603764Y-54113961D01*
X107607510Y-54124253D01*
X107699586Y-54321711D01*
X107705069Y-54331207D01*
X107830028Y-54509667D01*
X107837084Y-54518075D01*
X107991125Y-54672116D01*
X107999533Y-54679172D01*
X108177993Y-54804131D01*
X108187489Y-54809614D01*
X108384947Y-54901690D01*
X108395239Y-54905436D01*
X108567503Y-54951594D01*
X108581599Y-54951258D01*
X108585000Y-54943316D01*
X108585000Y-54938167D01*
X109093000Y-54938167D01*
X109096973Y-54951698D01*
X109105522Y-54952927D01*
X109282761Y-54905436D01*
X109293053Y-54901690D01*
X109490511Y-54809614D01*
X109500007Y-54804131D01*
X109678467Y-54679172D01*
X109686875Y-54672116D01*
X109840916Y-54518075D01*
X109847972Y-54509667D01*
X109972931Y-54331207D01*
X109978414Y-54321711D01*
X110070490Y-54124253D01*
X110074236Y-54113961D01*
X110120394Y-53941697D01*
X110120058Y-53927601D01*
X110112116Y-53924200D01*
X109111115Y-53924200D01*
X109095876Y-53928675D01*
X109094671Y-53930065D01*
X109093000Y-53937748D01*
X109093000Y-54938167D01*
X108585000Y-54938167D01*
X108585000Y-53942315D01*
X108580525Y-53927076D01*
X108579135Y-53925871D01*
X108571452Y-53924200D01*
X107571033Y-53924200D01*
X107557502Y-53928173D01*
X107556273Y-53936722D01*
X102502245Y-53936722D01*
X102511119Y-53903602D01*
X102511119Y-53903600D01*
X102512543Y-53898287D01*
X102532498Y-53670200D01*
X102512543Y-53442113D01*
X102502244Y-53403678D01*
X102500911Y-53398703D01*
X107557606Y-53398703D01*
X107557942Y-53412799D01*
X107565884Y-53416200D01*
X108566885Y-53416200D01*
X108582124Y-53411725D01*
X108583329Y-53410335D01*
X108585000Y-53402652D01*
X108585000Y-53398085D01*
X109093000Y-53398085D01*
X109097475Y-53413324D01*
X109098865Y-53414529D01*
X109106548Y-53416200D01*
X110106967Y-53416200D01*
X110120498Y-53412227D01*
X110121727Y-53403678D01*
X110074236Y-53226439D01*
X110070490Y-53216147D01*
X109978414Y-53018689D01*
X109972931Y-53009193D01*
X109847972Y-52830733D01*
X109840916Y-52822325D01*
X109686875Y-52668284D01*
X109678467Y-52661228D01*
X109500007Y-52536269D01*
X109490511Y-52530786D01*
X109293053Y-52438710D01*
X109282761Y-52434964D01*
X109110497Y-52388806D01*
X109096401Y-52389142D01*
X109093000Y-52397084D01*
X109093000Y-53398085D01*
X108585000Y-53398085D01*
X108585000Y-52402233D01*
X108581027Y-52388702D01*
X108572478Y-52387473D01*
X108395239Y-52434964D01*
X108384947Y-52438710D01*
X108187489Y-52530786D01*
X108177993Y-52536269D01*
X107999533Y-52661228D01*
X107991125Y-52668284D01*
X107837084Y-52822325D01*
X107830028Y-52830733D01*
X107705069Y-53009193D01*
X107699586Y-53018689D01*
X107607510Y-53216147D01*
X107603764Y-53226439D01*
X107557606Y-53398703D01*
X102500911Y-53398703D01*
X102454707Y-53226267D01*
X102454706Y-53226265D01*
X102453284Y-53220957D01*
X102358966Y-53018689D01*
X102358849Y-53018438D01*
X102358846Y-53018433D01*
X102356523Y-53013451D01*
X102272182Y-52893000D01*
X102228357Y-52830411D01*
X102228355Y-52830408D01*
X102225198Y-52825900D01*
X102063300Y-52664002D01*
X102058792Y-52660845D01*
X102058789Y-52660843D01*
X101980611Y-52606102D01*
X101875749Y-52532677D01*
X101870767Y-52530354D01*
X101870762Y-52530351D01*
X101673225Y-52438239D01*
X101673224Y-52438239D01*
X101668243Y-52435916D01*
X101662935Y-52434494D01*
X101662933Y-52434493D01*
X101452402Y-52378081D01*
X101452400Y-52378081D01*
X101447087Y-52376657D01*
X101219000Y-52356702D01*
X100990913Y-52376657D01*
X100985600Y-52378081D01*
X100985598Y-52378081D01*
X100775067Y-52434493D01*
X100775065Y-52434494D01*
X100769757Y-52435916D01*
X100764776Y-52438239D01*
X100764775Y-52438239D01*
X100567238Y-52530351D01*
X100567233Y-52530354D01*
X100562251Y-52532677D01*
X100457389Y-52606102D01*
X100379211Y-52660843D01*
X100379208Y-52660845D01*
X100374700Y-52664002D01*
X100212802Y-52825900D01*
X100209645Y-52830408D01*
X100209643Y-52830411D01*
X100165818Y-52893000D01*
X100081477Y-53013451D01*
X100079154Y-53018433D01*
X100079151Y-53018438D01*
X100079034Y-53018689D01*
X99984716Y-53220957D01*
X99983294Y-53226265D01*
X99983293Y-53226267D01*
X99970187Y-53275181D01*
X99959833Y-53301531D01*
X99955590Y-53309544D01*
X99955589Y-53309548D01*
X99952034Y-53316261D01*
X99950183Y-53323630D01*
X99919046Y-53447593D01*
X99910818Y-53480349D01*
X99910778Y-53487948D01*
X99910778Y-53487950D01*
X99910126Y-53612477D01*
X99909649Y-53622798D01*
X99905502Y-53670200D01*
X99205098Y-53670200D01*
X99185143Y-53442113D01*
X99174844Y-53403678D01*
X99127307Y-53226267D01*
X99127306Y-53226265D01*
X99125884Y-53220957D01*
X99031566Y-53018689D01*
X99031449Y-53018438D01*
X99031446Y-53018433D01*
X99029123Y-53013451D01*
X98944782Y-52893000D01*
X98900957Y-52830411D01*
X98900955Y-52830408D01*
X98897798Y-52825900D01*
X98735900Y-52664002D01*
X98731392Y-52660845D01*
X98731389Y-52660843D01*
X98653211Y-52606102D01*
X98548349Y-52532677D01*
X98543367Y-52530354D01*
X98543362Y-52530351D01*
X98345825Y-52438239D01*
X98345824Y-52438239D01*
X98340843Y-52435916D01*
X98335535Y-52434494D01*
X98335533Y-52434493D01*
X98125002Y-52378081D01*
X98125000Y-52378081D01*
X98119687Y-52376657D01*
X97891600Y-52356702D01*
X97663513Y-52376657D01*
X97658200Y-52378081D01*
X97658198Y-52378081D01*
X97447667Y-52434493D01*
X97447665Y-52434494D01*
X97442357Y-52435916D01*
X97437376Y-52438239D01*
X97437375Y-52438239D01*
X97239838Y-52530351D01*
X97239833Y-52530354D01*
X97234851Y-52532677D01*
X97129989Y-52606102D01*
X97051811Y-52660843D01*
X97051808Y-52660845D01*
X97047300Y-52664002D01*
X96885402Y-52825900D01*
X96882245Y-52830408D01*
X96882243Y-52830411D01*
X96787813Y-52965271D01*
X96732356Y-53009599D01*
X96661736Y-53016908D01*
X96598376Y-52984877D01*
X96562391Y-52923676D01*
X96558600Y-52893000D01*
X96558600Y-51399400D01*
X96578602Y-51331279D01*
X96632258Y-51284786D01*
X96702532Y-51274682D01*
X96767112Y-51304176D01*
X96787813Y-51327129D01*
X96876215Y-51453379D01*
X96885402Y-51466500D01*
X97047300Y-51628398D01*
X97051808Y-51631555D01*
X97051811Y-51631557D01*
X97066654Y-51641950D01*
X97234851Y-51759723D01*
X97239833Y-51762046D01*
X97239838Y-51762049D01*
X97372844Y-51824070D01*
X97442357Y-51856484D01*
X97447665Y-51857906D01*
X97447667Y-51857907D01*
X97658198Y-51914319D01*
X97658200Y-51914319D01*
X97663513Y-51915743D01*
X97891600Y-51935698D01*
X98119687Y-51915743D01*
X98125000Y-51914319D01*
X98125002Y-51914319D01*
X98335533Y-51857907D01*
X98335535Y-51857906D01*
X98340843Y-51856484D01*
X98410356Y-51824070D01*
X98543362Y-51762049D01*
X98543367Y-51762046D01*
X98548349Y-51759723D01*
X98716546Y-51641950D01*
X98731389Y-51631557D01*
X98731392Y-51631555D01*
X98735900Y-51628398D01*
X98897798Y-51466500D01*
X98906986Y-51453379D01*
X98995387Y-51327129D01*
X99029123Y-51278949D01*
X99031446Y-51273967D01*
X99031449Y-51273962D01*
X99123561Y-51076425D01*
X99123561Y-51076424D01*
X99125884Y-51071443D01*
X99185143Y-50850287D01*
X99205098Y-50622200D01*
X99185143Y-50394113D01*
X99125884Y-50172957D01*
X99051109Y-50012600D01*
X99031449Y-49970438D01*
X99031446Y-49970433D01*
X99029123Y-49965451D01*
X98929148Y-49822672D01*
X98900957Y-49782411D01*
X98900955Y-49782408D01*
X98897798Y-49777900D01*
X98735900Y-49616002D01*
X98731392Y-49612845D01*
X98731389Y-49612843D01*
X98653211Y-49558102D01*
X98548349Y-49484677D01*
X98543367Y-49482354D01*
X98543362Y-49482351D01*
X98345825Y-49390239D01*
X98345824Y-49390239D01*
X98340843Y-49387916D01*
X98335535Y-49386494D01*
X98335533Y-49386493D01*
X98125002Y-49330081D01*
X98125000Y-49330081D01*
X98119687Y-49328657D01*
X97891600Y-49308702D01*
X97663513Y-49328657D01*
X97658200Y-49330081D01*
X97658198Y-49330081D01*
X97447667Y-49386493D01*
X97447665Y-49386494D01*
X97442357Y-49387916D01*
X97437376Y-49390239D01*
X97437375Y-49390239D01*
X97239838Y-49482351D01*
X97239833Y-49482354D01*
X97234851Y-49484677D01*
X97129989Y-49558102D01*
X97051811Y-49612843D01*
X97051808Y-49612845D01*
X97047300Y-49616002D01*
X96919987Y-49743315D01*
X96857675Y-49777341D01*
X96786860Y-49772276D01*
X96730024Y-49729729D01*
X96711059Y-49693156D01*
X96696169Y-49647328D01*
X96696168Y-49647326D01*
X96694127Y-49641044D01*
X96598640Y-49475656D01*
X96518358Y-49386493D01*
X96475275Y-49338645D01*
X96475274Y-49338644D01*
X96470853Y-49333734D01*
X96371757Y-49261736D01*
X96321694Y-49225363D01*
X96321693Y-49225362D01*
X96316352Y-49221482D01*
X96310324Y-49218798D01*
X96310322Y-49218797D01*
X96147919Y-49146491D01*
X96147918Y-49146491D01*
X96141888Y-49143806D01*
X96048487Y-49123953D01*
X95961544Y-49105472D01*
X95961539Y-49105472D01*
X95955087Y-49104100D01*
X95885670Y-49104100D01*
X95817549Y-49084098D01*
X95771056Y-49030442D01*
X95760952Y-48960168D01*
X95790446Y-48895588D01*
X95796575Y-48889005D01*
X96515175Y-48170405D01*
X96577487Y-48136379D01*
X96604270Y-48133500D01*
X98697100Y-48133500D01*
X98765221Y-48153502D01*
X98811714Y-48207158D01*
X98823100Y-48259500D01*
X98823100Y-48620734D01*
X98829855Y-48682916D01*
X98880985Y-48819305D01*
X98968339Y-48935861D01*
X99084895Y-49023215D01*
X99221284Y-49074345D01*
X99283466Y-49081100D01*
X100957742Y-49081100D01*
X101025863Y-49101102D01*
X101072356Y-49154758D01*
X101082460Y-49225032D01*
X101052966Y-49289612D01*
X100990353Y-49328807D01*
X100775067Y-49386493D01*
X100775065Y-49386494D01*
X100769757Y-49387916D01*
X100764776Y-49390239D01*
X100764775Y-49390239D01*
X100567238Y-49482351D01*
X100567233Y-49482354D01*
X100562251Y-49484677D01*
X100457389Y-49558102D01*
X100379211Y-49612843D01*
X100379208Y-49612845D01*
X100374700Y-49616002D01*
X100212802Y-49777900D01*
X100209645Y-49782408D01*
X100209643Y-49782411D01*
X100181452Y-49822672D01*
X100081477Y-49965451D01*
X100079154Y-49970433D01*
X100079151Y-49970438D01*
X100059491Y-50012600D01*
X99984716Y-50172957D01*
X99925457Y-50394113D01*
X99905502Y-50622200D01*
X99925457Y-50850287D01*
X99984716Y-51071443D01*
X99987039Y-51076424D01*
X99987039Y-51076425D01*
X100079151Y-51273962D01*
X100079154Y-51273967D01*
X100081477Y-51278949D01*
X100115213Y-51327129D01*
X100203615Y-51453379D01*
X100212802Y-51466500D01*
X100374700Y-51628398D01*
X100379208Y-51631555D01*
X100379211Y-51631557D01*
X100394054Y-51641950D01*
X100562251Y-51759723D01*
X100567233Y-51762046D01*
X100567238Y-51762049D01*
X100700244Y-51824070D01*
X100769757Y-51856484D01*
X100775065Y-51857906D01*
X100775067Y-51857907D01*
X100985598Y-51914319D01*
X100985600Y-51914319D01*
X100990913Y-51915743D01*
X101219000Y-51935698D01*
X101447087Y-51915743D01*
X101452400Y-51914319D01*
X101452402Y-51914319D01*
X101662933Y-51857907D01*
X101662935Y-51857906D01*
X101668243Y-51856484D01*
X101737756Y-51824070D01*
X101870762Y-51762049D01*
X101870767Y-51762046D01*
X101875749Y-51759723D01*
X102043946Y-51641950D01*
X102058789Y-51631557D01*
X102058792Y-51631555D01*
X102063300Y-51628398D01*
X102225198Y-51466500D01*
X102234386Y-51453379D01*
X102322787Y-51327129D01*
X102356523Y-51278949D01*
X102358846Y-51273967D01*
X102358849Y-51273962D01*
X102450961Y-51076425D01*
X102450961Y-51076424D01*
X102453284Y-51071443D01*
X102512543Y-50850287D01*
X102532498Y-50622200D01*
X107525502Y-50622200D01*
X107545457Y-50850287D01*
X107604716Y-51071443D01*
X107607039Y-51076424D01*
X107607039Y-51076425D01*
X107699151Y-51273962D01*
X107699154Y-51273967D01*
X107701477Y-51278949D01*
X107735213Y-51327129D01*
X107823615Y-51453379D01*
X107832802Y-51466500D01*
X107994700Y-51628398D01*
X107999208Y-51631555D01*
X107999211Y-51631557D01*
X108014054Y-51641950D01*
X108182251Y-51759723D01*
X108187233Y-51762046D01*
X108187238Y-51762049D01*
X108320244Y-51824070D01*
X108389757Y-51856484D01*
X108395065Y-51857906D01*
X108395067Y-51857907D01*
X108605598Y-51914319D01*
X108605600Y-51914319D01*
X108610913Y-51915743D01*
X108839000Y-51935698D01*
X109067087Y-51915743D01*
X109072400Y-51914319D01*
X109072402Y-51914319D01*
X109282933Y-51857907D01*
X109282935Y-51857906D01*
X109288243Y-51856484D01*
X109357756Y-51824070D01*
X109490762Y-51762049D01*
X109490767Y-51762046D01*
X109495749Y-51759723D01*
X109663946Y-51641950D01*
X109678789Y-51631557D01*
X109678792Y-51631555D01*
X109683300Y-51628398D01*
X109845198Y-51466500D01*
X109854386Y-51453379D01*
X109942787Y-51327129D01*
X109976523Y-51278949D01*
X109978846Y-51273967D01*
X109978849Y-51273962D01*
X110070961Y-51076425D01*
X110070961Y-51076424D01*
X110073284Y-51071443D01*
X110132543Y-50850287D01*
X110152498Y-50622200D01*
X110132543Y-50394113D01*
X110073284Y-50172957D01*
X109998509Y-50012600D01*
X109978849Y-49970438D01*
X109978846Y-49970433D01*
X109976523Y-49965451D01*
X109876548Y-49822672D01*
X109848357Y-49782411D01*
X109848355Y-49782408D01*
X109845198Y-49777900D01*
X109683300Y-49616002D01*
X109678792Y-49612845D01*
X109678789Y-49612843D01*
X109600611Y-49558102D01*
X109495749Y-49484677D01*
X109490767Y-49482354D01*
X109490762Y-49482351D01*
X109293225Y-49390239D01*
X109293224Y-49390239D01*
X109288243Y-49387916D01*
X109282935Y-49386494D01*
X109282933Y-49386493D01*
X109072402Y-49330081D01*
X109072400Y-49330081D01*
X109067087Y-49328657D01*
X108839000Y-49308702D01*
X108610913Y-49328657D01*
X108605600Y-49330081D01*
X108605598Y-49330081D01*
X108395067Y-49386493D01*
X108395065Y-49386494D01*
X108389757Y-49387916D01*
X108384776Y-49390239D01*
X108384775Y-49390239D01*
X108187238Y-49482351D01*
X108187233Y-49482354D01*
X108182251Y-49484677D01*
X108077389Y-49558102D01*
X107999211Y-49612843D01*
X107999208Y-49612845D01*
X107994700Y-49616002D01*
X107832802Y-49777900D01*
X107829645Y-49782408D01*
X107829643Y-49782411D01*
X107801452Y-49822672D01*
X107701477Y-49965451D01*
X107699154Y-49970433D01*
X107699151Y-49970438D01*
X107679491Y-50012600D01*
X107604716Y-50172957D01*
X107545457Y-50394113D01*
X107525502Y-50622200D01*
X102532498Y-50622200D01*
X102512543Y-50394113D01*
X102453284Y-50172957D01*
X102378509Y-50012600D01*
X102358849Y-49970438D01*
X102358846Y-49970433D01*
X102356523Y-49965451D01*
X102256548Y-49822672D01*
X102228357Y-49782411D01*
X102228355Y-49782408D01*
X102225198Y-49777900D01*
X102063300Y-49616002D01*
X102058792Y-49612845D01*
X102058789Y-49612843D01*
X101980611Y-49558102D01*
X101875749Y-49484677D01*
X101870767Y-49482354D01*
X101870762Y-49482351D01*
X101673225Y-49390239D01*
X101673224Y-49390239D01*
X101668243Y-49387916D01*
X101662935Y-49386494D01*
X101662933Y-49386493D01*
X101447647Y-49328807D01*
X101387024Y-49291855D01*
X101356003Y-49227994D01*
X101364431Y-49157500D01*
X101409634Y-49102753D01*
X101480258Y-49081100D01*
X101579734Y-49081100D01*
X101641916Y-49074345D01*
X101778305Y-49023215D01*
X101894861Y-48935861D01*
X101982215Y-48819305D01*
X102033345Y-48682916D01*
X102040100Y-48620734D01*
X102040100Y-48504062D01*
X108549293Y-48504062D01*
X108558589Y-48516077D01*
X108609794Y-48551931D01*
X108619289Y-48557414D01*
X108816747Y-48649490D01*
X108827039Y-48653236D01*
X109037488Y-48709625D01*
X109048281Y-48711528D01*
X109265325Y-48730517D01*
X109276275Y-48730517D01*
X109493319Y-48711528D01*
X109504112Y-48709625D01*
X109714561Y-48653236D01*
X109724853Y-48649490D01*
X109922311Y-48557414D01*
X109931806Y-48551931D01*
X109983848Y-48515491D01*
X109992224Y-48505012D01*
X109985156Y-48491566D01*
X109283612Y-47790022D01*
X109269668Y-47782408D01*
X109267835Y-47782539D01*
X109261220Y-47786790D01*
X108555723Y-48492287D01*
X108549293Y-48504062D01*
X102040100Y-48504062D01*
X102040100Y-48259500D01*
X102060102Y-48191379D01*
X102113758Y-48144886D01*
X102166100Y-48133500D01*
X102301983Y-48133500D01*
X102303304Y-48133507D01*
X102393909Y-48134456D01*
X102436570Y-48125232D01*
X102449149Y-48123172D01*
X102485529Y-48119092D01*
X102485532Y-48119091D01*
X102492525Y-48118307D01*
X102524426Y-48107198D01*
X102539236Y-48103036D01*
X102572251Y-48095898D01*
X102578640Y-48092919D01*
X102611819Y-48077448D01*
X102623629Y-48072652D01*
X102664839Y-48058301D01*
X102693483Y-48040402D01*
X102706992Y-48033067D01*
X102737619Y-48018785D01*
X102772110Y-47992031D01*
X102782566Y-47984737D01*
X102796926Y-47975764D01*
X102819576Y-47961611D01*
X102848544Y-47932844D01*
X102849182Y-47932247D01*
X102849853Y-47931727D01*
X102876111Y-47905469D01*
X102949046Y-47833041D01*
X102949706Y-47832000D01*
X102950815Y-47830765D01*
X103358105Y-47423475D01*
X107958283Y-47423475D01*
X107977272Y-47640519D01*
X107979175Y-47651312D01*
X108035564Y-47861761D01*
X108039310Y-47872053D01*
X108131386Y-48069511D01*
X108136869Y-48079006D01*
X108173309Y-48131048D01*
X108183788Y-48139424D01*
X108197234Y-48132356D01*
X108898778Y-47430812D01*
X108906392Y-47416868D01*
X108906261Y-47415035D01*
X108902010Y-47408420D01*
X108196513Y-46702923D01*
X108184738Y-46696493D01*
X108172723Y-46705789D01*
X108136869Y-46756994D01*
X108131386Y-46766489D01*
X108039310Y-46963947D01*
X108035564Y-46974239D01*
X107979175Y-47184688D01*
X107977272Y-47195481D01*
X107958283Y-47412525D01*
X107958283Y-47423475D01*
X103358105Y-47423475D01*
X103385975Y-47395605D01*
X103448287Y-47361579D01*
X103475070Y-47358700D01*
X104353134Y-47358700D01*
X104415316Y-47351945D01*
X104551705Y-47300815D01*
X104668261Y-47213461D01*
X104726119Y-47136262D01*
X105283493Y-47136262D01*
X105292789Y-47148277D01*
X105343994Y-47184131D01*
X105353489Y-47189614D01*
X105550947Y-47281690D01*
X105561239Y-47285436D01*
X105771688Y-47341825D01*
X105782481Y-47343728D01*
X105999525Y-47362717D01*
X106010475Y-47362717D01*
X106227519Y-47343728D01*
X106238312Y-47341825D01*
X106448761Y-47285436D01*
X106459053Y-47281690D01*
X106656511Y-47189614D01*
X106666006Y-47184131D01*
X106718048Y-47147691D01*
X106726424Y-47137212D01*
X106719356Y-47123766D01*
X106017812Y-46422222D01*
X106003868Y-46414608D01*
X106002035Y-46414739D01*
X105995420Y-46418990D01*
X105289923Y-47124487D01*
X105283493Y-47136262D01*
X104726119Y-47136262D01*
X104755615Y-47096905D01*
X104806745Y-46960516D01*
X104813500Y-46898334D01*
X104813500Y-46895015D01*
X104837153Y-46828090D01*
X104883156Y-46792396D01*
X104882141Y-46790466D01*
X104893000Y-46784758D01*
X104893245Y-46784568D01*
X104893403Y-46784547D01*
X104931434Y-46764556D01*
X105644658Y-46051332D01*
X106369408Y-46051332D01*
X106369539Y-46053165D01*
X106373790Y-46059780D01*
X107079287Y-46765277D01*
X107091062Y-46771707D01*
X107103077Y-46762411D01*
X107138931Y-46711206D01*
X107144414Y-46701711D01*
X107236490Y-46504253D01*
X107240236Y-46493961D01*
X107283904Y-46330988D01*
X108549376Y-46330988D01*
X108556444Y-46344434D01*
X109257988Y-47045978D01*
X109271932Y-47053592D01*
X109273765Y-47053461D01*
X109280380Y-47049210D01*
X109985877Y-46343713D01*
X109992307Y-46331938D01*
X109983011Y-46319923D01*
X109931806Y-46284069D01*
X109922311Y-46278586D01*
X109724853Y-46186510D01*
X109714561Y-46182764D01*
X109504112Y-46126375D01*
X109493319Y-46124472D01*
X109276275Y-46105483D01*
X109265325Y-46105483D01*
X109048281Y-46124472D01*
X109037488Y-46126375D01*
X108827039Y-46182764D01*
X108816747Y-46186510D01*
X108619289Y-46278586D01*
X108609794Y-46284069D01*
X108557752Y-46320509D01*
X108549376Y-46330988D01*
X107283904Y-46330988D01*
X107296625Y-46283512D01*
X107298528Y-46272719D01*
X107317517Y-46055675D01*
X107317517Y-46044725D01*
X107298528Y-45827681D01*
X107296625Y-45816888D01*
X107240236Y-45606439D01*
X107236490Y-45596147D01*
X107144414Y-45398689D01*
X107138931Y-45389194D01*
X107102491Y-45337152D01*
X107092012Y-45328776D01*
X107078566Y-45335844D01*
X106377022Y-46037388D01*
X106369408Y-46051332D01*
X105644658Y-46051332D01*
X106720077Y-44975913D01*
X106726507Y-44964138D01*
X106717211Y-44952123D01*
X106666006Y-44916269D01*
X106656511Y-44910786D01*
X106459053Y-44818710D01*
X106448761Y-44814964D01*
X106279307Y-44769559D01*
X106218684Y-44732607D01*
X106187663Y-44668746D01*
X106196091Y-44598252D01*
X106222823Y-44558757D01*
X107513375Y-43268205D01*
X107575687Y-43234179D01*
X107602470Y-43231300D01*
X108181412Y-43231300D01*
X108249533Y-43251302D01*
X108270507Y-43268205D01*
X108426500Y-43424198D01*
X108431008Y-43427355D01*
X108431011Y-43427357D01*
X108498771Y-43474803D01*
X108614051Y-43555523D01*
X108619033Y-43557846D01*
X108619038Y-43557849D01*
X108816575Y-43649961D01*
X108821557Y-43652284D01*
X108826865Y-43653706D01*
X108826867Y-43653707D01*
X109037398Y-43710119D01*
X109037400Y-43710119D01*
X109042713Y-43711543D01*
X109270800Y-43731498D01*
X109498887Y-43711543D01*
X109504200Y-43710119D01*
X109504202Y-43710119D01*
X109714733Y-43653707D01*
X109714735Y-43653706D01*
X109720043Y-43652284D01*
X109725025Y-43649961D01*
X109922562Y-43557849D01*
X109922567Y-43557846D01*
X109927549Y-43555523D01*
X110042829Y-43474803D01*
X110110589Y-43427357D01*
X110110592Y-43427355D01*
X110115100Y-43424198D01*
X110274905Y-43264393D01*
X110337217Y-43230367D01*
X110408032Y-43235432D01*
G37*
%TD.AperFunction*%
%TA.AperFunction,Conductor*%
G36*
X94866455Y-49923291D02*
G01*
X94923291Y-49965838D01*
X94947733Y-50028176D01*
X94966058Y-50202528D01*
X95025073Y-50384156D01*
X95028376Y-50389878D01*
X95028377Y-50389879D01*
X95062286Y-50448610D01*
X95120560Y-50549544D01*
X95128237Y-50558070D01*
X95158953Y-50622076D01*
X95160600Y-50642379D01*
X95160600Y-55794912D01*
X95140598Y-55863033D01*
X95086942Y-55909526D01*
X95016668Y-55919630D01*
X94952088Y-55890136D01*
X94945505Y-55884007D01*
X94824300Y-55762802D01*
X94819792Y-55759645D01*
X94819789Y-55759643D01*
X94706921Y-55680612D01*
X94636749Y-55631477D01*
X94631767Y-55629154D01*
X94631762Y-55629151D01*
X94434225Y-55537039D01*
X94434224Y-55537039D01*
X94429243Y-55534716D01*
X94423935Y-55533294D01*
X94423933Y-55533293D01*
X94213402Y-55476881D01*
X94213400Y-55476881D01*
X94208087Y-55475457D01*
X93980000Y-55455502D01*
X93751913Y-55475457D01*
X93746600Y-55476881D01*
X93746598Y-55476881D01*
X93536067Y-55533293D01*
X93536065Y-55533294D01*
X93530757Y-55534716D01*
X93525776Y-55537039D01*
X93525775Y-55537039D01*
X93328238Y-55629151D01*
X93328233Y-55629154D01*
X93323251Y-55631477D01*
X93253079Y-55680612D01*
X93140211Y-55759643D01*
X93140208Y-55759645D01*
X93135700Y-55762802D01*
X93128795Y-55769707D01*
X93066483Y-55803733D01*
X92995668Y-55798668D01*
X92938832Y-55756121D01*
X92914021Y-55689601D01*
X92913700Y-55680612D01*
X92913700Y-51824070D01*
X92933702Y-51755949D01*
X92950605Y-51734975D01*
X94733328Y-49952252D01*
X94795640Y-49918226D01*
X94866455Y-49923291D01*
G37*
%TD.AperFunction*%
%TA.AperFunction,Conductor*%
G36*
X98013042Y-40152002D02*
G01*
X98059535Y-40205658D01*
X98069639Y-40275932D01*
X98044396Y-40332712D01*
X98045538Y-40333527D01*
X98042825Y-40337330D01*
X98039836Y-40340924D01*
X97902701Y-40566914D01*
X97800477Y-40810691D01*
X97799326Y-40815223D01*
X97799325Y-40815226D01*
X97788026Y-40859716D01*
X97735408Y-41066901D01*
X97708924Y-41329914D01*
X97709148Y-41334580D01*
X97709148Y-41334585D01*
X97711318Y-41379760D01*
X97721607Y-41593952D01*
X97738242Y-41677583D01*
X97763751Y-41805821D01*
X97773178Y-41853216D01*
X97774757Y-41857614D01*
X97774759Y-41857621D01*
X97832344Y-42018007D01*
X97862504Y-42102010D01*
X97864721Y-42106136D01*
X97932101Y-42231536D01*
X97987622Y-42334867D01*
X97990417Y-42338611D01*
X97990419Y-42338613D01*
X98073543Y-42449929D01*
X98145785Y-42546673D01*
X98149092Y-42549951D01*
X98149097Y-42549957D01*
X98248679Y-42648673D01*
X98333518Y-42732774D01*
X98546696Y-42889083D01*
X98550831Y-42891259D01*
X98550835Y-42891261D01*
X98624679Y-42930112D01*
X98675651Y-42979531D01*
X98691814Y-43048664D01*
X98668035Y-43115560D01*
X98619261Y-43155815D01*
X98560638Y-43183151D01*
X98560633Y-43183154D01*
X98555651Y-43185477D01*
X98481972Y-43237068D01*
X98372611Y-43313643D01*
X98372608Y-43313645D01*
X98368100Y-43316802D01*
X98206202Y-43478700D01*
X98074877Y-43666251D01*
X98072554Y-43671233D01*
X98072551Y-43671238D01*
X98049590Y-43720479D01*
X97978116Y-43873757D01*
X97918857Y-44094913D01*
X97898902Y-44323000D01*
X97918857Y-44551087D01*
X97920281Y-44556400D01*
X97920281Y-44556402D01*
X97969161Y-44738821D01*
X97978116Y-44772243D01*
X97980439Y-44777224D01*
X97980439Y-44777225D01*
X98072551Y-44974762D01*
X98072554Y-44974767D01*
X98074877Y-44979749D01*
X98097392Y-45011903D01*
X98194702Y-45150876D01*
X98206202Y-45167300D01*
X98368100Y-45329198D01*
X98372608Y-45332355D01*
X98372611Y-45332357D01*
X98416664Y-45363203D01*
X98555651Y-45460523D01*
X98560633Y-45462846D01*
X98560638Y-45462849D01*
X98665892Y-45511929D01*
X98763157Y-45557284D01*
X98768465Y-45558706D01*
X98768467Y-45558707D01*
X98978998Y-45615119D01*
X98979000Y-45615119D01*
X98984313Y-45616543D01*
X99172865Y-45633039D01*
X99238983Y-45658902D01*
X99280622Y-45716406D01*
X99284563Y-45787293D01*
X99249554Y-45849058D01*
X99206113Y-45876542D01*
X99103455Y-45915027D01*
X99084895Y-45921985D01*
X98968339Y-46009339D01*
X98880985Y-46125895D01*
X98829855Y-46262284D01*
X98823100Y-46324466D01*
X98823100Y-46380900D01*
X98803098Y-46449021D01*
X98749442Y-46495514D01*
X98697100Y-46506900D01*
X96224463Y-46506900D01*
X96223144Y-46506893D01*
X96132491Y-46505944D01*
X96125605Y-46507433D01*
X96125603Y-46507433D01*
X96106870Y-46511484D01*
X96089830Y-46515168D01*
X96077251Y-46517228D01*
X96040871Y-46521308D01*
X96040868Y-46521309D01*
X96033875Y-46522093D01*
X96001974Y-46533202D01*
X95987164Y-46537364D01*
X95954149Y-46544502D01*
X95947762Y-46547480D01*
X95947760Y-46547481D01*
X95914581Y-46562952D01*
X95902773Y-46567747D01*
X95861561Y-46582099D01*
X95855586Y-46585832D01*
X95855587Y-46585832D01*
X95832918Y-46599997D01*
X95819408Y-46607333D01*
X95788781Y-46621615D01*
X95768532Y-46637322D01*
X95754290Y-46648369D01*
X95743836Y-46655662D01*
X95706824Y-46678789D01*
X95701825Y-46683754D01*
X95701823Y-46683755D01*
X95677856Y-46707556D01*
X95677218Y-46708153D01*
X95676547Y-46708673D01*
X95650289Y-46734931D01*
X95592422Y-46792396D01*
X95577354Y-46807359D01*
X95576694Y-46808400D01*
X95575585Y-46809635D01*
X91790478Y-50594742D01*
X91728166Y-50628768D01*
X91657351Y-50623703D01*
X91600515Y-50581156D01*
X91575862Y-50516629D01*
X91565622Y-50399593D01*
X91565143Y-50394113D01*
X91505884Y-50172957D01*
X91431109Y-50012600D01*
X91411449Y-49970438D01*
X91411446Y-49970433D01*
X91409123Y-49965451D01*
X91309148Y-49822672D01*
X91280957Y-49782411D01*
X91280955Y-49782408D01*
X91277798Y-49777900D01*
X91115900Y-49616002D01*
X91111392Y-49612845D01*
X91111389Y-49612843D01*
X91033211Y-49558102D01*
X90928349Y-49484677D01*
X90923367Y-49482354D01*
X90923362Y-49482351D01*
X90725825Y-49390239D01*
X90725824Y-49390239D01*
X90720843Y-49387916D01*
X90715535Y-49386494D01*
X90715533Y-49386493D01*
X90505002Y-49330081D01*
X90505000Y-49330081D01*
X90499687Y-49328657D01*
X90494203Y-49328177D01*
X90494196Y-49328176D01*
X90442598Y-49323661D01*
X90376480Y-49297798D01*
X90334841Y-49240294D01*
X90330901Y-49169407D01*
X90365911Y-49107642D01*
X90428756Y-49074611D01*
X90443689Y-49072530D01*
X90524003Y-49066209D01*
X90528810Y-49065055D01*
X90528816Y-49065054D01*
X90703087Y-49023215D01*
X90770191Y-49007105D01*
X90774764Y-49005211D01*
X90999528Y-48912111D01*
X90999532Y-48912109D01*
X91004102Y-48910216D01*
X91219976Y-48777928D01*
X91412498Y-48613498D01*
X91576928Y-48420976D01*
X91709216Y-48205102D01*
X91714901Y-48191379D01*
X91804211Y-47975764D01*
X91804212Y-47975762D01*
X91806105Y-47971191D01*
X91839818Y-47830765D01*
X91864054Y-47729816D01*
X91864055Y-47729810D01*
X91865209Y-47725003D01*
X91885074Y-47472600D01*
X91865209Y-47220197D01*
X91861869Y-47206281D01*
X91815195Y-47011870D01*
X91818742Y-46940962D01*
X91848619Y-46893361D01*
X92259270Y-46482710D01*
X92260207Y-46481781D01*
X92320019Y-46423209D01*
X92320020Y-46423208D01*
X92325051Y-46418281D01*
X92328865Y-46412363D01*
X92328869Y-46412358D01*
X92348696Y-46381592D01*
X92356135Y-46371239D01*
X92378971Y-46342633D01*
X92383364Y-46337130D01*
X92386429Y-46330790D01*
X92386432Y-46330785D01*
X92398066Y-46306720D01*
X92405593Y-46293307D01*
X92420075Y-46270835D01*
X92420078Y-46270828D01*
X92423893Y-46264909D01*
X92438824Y-46223888D01*
X92443783Y-46212148D01*
X92459712Y-46179198D01*
X92459713Y-46179196D01*
X92462778Y-46172855D01*
X92470378Y-46139935D01*
X92474744Y-46125200D01*
X92483890Y-46100071D01*
X92483892Y-46100065D01*
X92486299Y-46093450D01*
X92491770Y-46050140D01*
X92494004Y-46037599D01*
X92503823Y-45995069D01*
X92503918Y-45968080D01*
X92503966Y-45954260D01*
X92503995Y-45953367D01*
X92504101Y-45952529D01*
X92504101Y-45915314D01*
X92504280Y-45864100D01*
X92504447Y-45816140D01*
X92504447Y-45816135D01*
X92504459Y-45812607D01*
X92504190Y-45811404D01*
X92504101Y-45809759D01*
X92504101Y-43021898D01*
X92524103Y-42953777D01*
X92577759Y-42907284D01*
X92648033Y-42897180D01*
X92712613Y-42926674D01*
X92730927Y-42946333D01*
X92755808Y-42979531D01*
X92778539Y-43009861D01*
X92895095Y-43097215D01*
X93031484Y-43148345D01*
X93093666Y-43155100D01*
X93225612Y-43155100D01*
X93293733Y-43175102D01*
X93340226Y-43228758D01*
X93350330Y-43299032D01*
X93320836Y-43363612D01*
X93314707Y-43370195D01*
X93206202Y-43478700D01*
X93074877Y-43666251D01*
X93072554Y-43671233D01*
X93072551Y-43671238D01*
X93049590Y-43720479D01*
X92978116Y-43873757D01*
X92918857Y-44094913D01*
X92898902Y-44323000D01*
X92918857Y-44551087D01*
X92920281Y-44556400D01*
X92920281Y-44556402D01*
X92969161Y-44738821D01*
X92978116Y-44772243D01*
X92980439Y-44777224D01*
X92980439Y-44777225D01*
X93072551Y-44974762D01*
X93072554Y-44974767D01*
X93074877Y-44979749D01*
X93097392Y-45011903D01*
X93194702Y-45150876D01*
X93206202Y-45167300D01*
X93368100Y-45329198D01*
X93372608Y-45332355D01*
X93372611Y-45332357D01*
X93416664Y-45363203D01*
X93555651Y-45460523D01*
X93560633Y-45462846D01*
X93560638Y-45462849D01*
X93665892Y-45511929D01*
X93763157Y-45557284D01*
X93768465Y-45558706D01*
X93768467Y-45558707D01*
X93978998Y-45615119D01*
X93979000Y-45615119D01*
X93984313Y-45616543D01*
X94212400Y-45636498D01*
X94440487Y-45616543D01*
X94445800Y-45615119D01*
X94445802Y-45615119D01*
X94656333Y-45558707D01*
X94656335Y-45558706D01*
X94661643Y-45557284D01*
X94758908Y-45511929D01*
X94864162Y-45462849D01*
X94864167Y-45462846D01*
X94869149Y-45460523D01*
X95008136Y-45363203D01*
X95052189Y-45332357D01*
X95052192Y-45332355D01*
X95056700Y-45329198D01*
X95218598Y-45167300D01*
X95230099Y-45150876D01*
X95327408Y-45011903D01*
X95349923Y-44979749D01*
X95352246Y-44974767D01*
X95352249Y-44974762D01*
X95444361Y-44777225D01*
X95444361Y-44777224D01*
X95446684Y-44772243D01*
X95455640Y-44738821D01*
X95504519Y-44556402D01*
X95504519Y-44556400D01*
X95505943Y-44551087D01*
X95525898Y-44323000D01*
X95505943Y-44094913D01*
X95446684Y-43873757D01*
X95375210Y-43720479D01*
X95352249Y-43671238D01*
X95352246Y-43671233D01*
X95349923Y-43666251D01*
X95218598Y-43478700D01*
X95110093Y-43370195D01*
X95076067Y-43307883D01*
X95081132Y-43237068D01*
X95123679Y-43180232D01*
X95190199Y-43155421D01*
X95199188Y-43155100D01*
X95729934Y-43155100D01*
X95792116Y-43148345D01*
X95928505Y-43097215D01*
X96045061Y-43009861D01*
X96132415Y-42893305D01*
X96183545Y-42756916D01*
X96190300Y-42694734D01*
X96190300Y-40258000D01*
X96210302Y-40189879D01*
X96263958Y-40143386D01*
X96316300Y-40132000D01*
X97944921Y-40132000D01*
X98013042Y-40152002D01*
G37*
%TD.AperFunction*%
%TA.AperFunction,Conductor*%
G36*
X90416921Y-43682602D02*
G01*
X90463414Y-43736258D01*
X90474800Y-43788600D01*
X90474800Y-45351265D01*
X90478864Y-45365107D01*
X90492278Y-45367141D01*
X90523016Y-45363203D01*
X90533101Y-45361060D01*
X90715294Y-45306399D01*
X90786289Y-45305983D01*
X90846239Y-45344015D01*
X90876111Y-45408422D01*
X90877501Y-45427085D01*
X90877501Y-45511929D01*
X90857499Y-45580050D01*
X90840596Y-45601024D01*
X90600885Y-45840735D01*
X90538573Y-45874761D01*
X90501906Y-45877252D01*
X90271600Y-45859126D01*
X90019197Y-45878991D01*
X90014390Y-45880145D01*
X90014384Y-45880146D01*
X89867266Y-45915466D01*
X89773009Y-45938095D01*
X89768438Y-45939988D01*
X89768436Y-45939989D01*
X89543672Y-46033089D01*
X89543668Y-46033091D01*
X89539098Y-46034984D01*
X89323224Y-46167272D01*
X89319467Y-46170480D01*
X89319457Y-46170488D01*
X89285631Y-46199379D01*
X89220842Y-46228411D01*
X89150642Y-46217806D01*
X89097319Y-46170932D01*
X89077800Y-46103569D01*
X89077800Y-45150876D01*
X89097802Y-45082755D01*
X89151458Y-45036262D01*
X89221732Y-45026158D01*
X89284285Y-45053932D01*
X89368931Y-45124206D01*
X89377378Y-45130121D01*
X89577609Y-45247126D01*
X89586896Y-45251576D01*
X89803551Y-45334308D01*
X89813453Y-45337185D01*
X89949048Y-45364772D01*
X89963100Y-45363577D01*
X89966800Y-45353232D01*
X89966800Y-43788600D01*
X89986802Y-43720479D01*
X90040458Y-43673986D01*
X90092800Y-43662600D01*
X90348800Y-43662600D01*
X90416921Y-43682602D01*
G37*
%TD.AperFunction*%
%TA.AperFunction,Conductor*%
G36*
X110432121Y-40152002D02*
G01*
X110478614Y-40205658D01*
X110490000Y-40258000D01*
X110490000Y-41482512D01*
X110469998Y-41550633D01*
X110416342Y-41597126D01*
X110346068Y-41607230D01*
X110281488Y-41577736D01*
X110274905Y-41571607D01*
X110115100Y-41411802D01*
X110110592Y-41408645D01*
X110110589Y-41408643D01*
X109998152Y-41329914D01*
X109927549Y-41280477D01*
X109922567Y-41278154D01*
X109922562Y-41278151D01*
X109725025Y-41186039D01*
X109725024Y-41186039D01*
X109720043Y-41183716D01*
X109714735Y-41182294D01*
X109714733Y-41182293D01*
X109504202Y-41125881D01*
X109504200Y-41125881D01*
X109498887Y-41124457D01*
X109270800Y-41104502D01*
X109042713Y-41124457D01*
X109037400Y-41125881D01*
X109037398Y-41125881D01*
X108826867Y-41182293D01*
X108826865Y-41182294D01*
X108821557Y-41183716D01*
X108816576Y-41186039D01*
X108816575Y-41186039D01*
X108619038Y-41278151D01*
X108619033Y-41278154D01*
X108614051Y-41280477D01*
X108543448Y-41329914D01*
X108431011Y-41408643D01*
X108431008Y-41408645D01*
X108426500Y-41411802D01*
X108270507Y-41567795D01*
X108208195Y-41601821D01*
X108181412Y-41604700D01*
X107222663Y-41604700D01*
X107221344Y-41604693D01*
X107130691Y-41603744D01*
X107123805Y-41605233D01*
X107123803Y-41605233D01*
X107105070Y-41609284D01*
X107088030Y-41612968D01*
X107075451Y-41615028D01*
X107039071Y-41619108D01*
X107039068Y-41619109D01*
X107032075Y-41619893D01*
X107000174Y-41631002D01*
X106985364Y-41635164D01*
X106959239Y-41640812D01*
X106959236Y-41640813D01*
X106952349Y-41642302D01*
X106945962Y-41645280D01*
X106945960Y-41645281D01*
X106912790Y-41660749D01*
X106900981Y-41665545D01*
X106859761Y-41679899D01*
X106853786Y-41683633D01*
X106853781Y-41683635D01*
X106831120Y-41697795D01*
X106817601Y-41705136D01*
X106786982Y-41719414D01*
X106752484Y-41746174D01*
X106742051Y-41753452D01*
X106705024Y-41776589D01*
X106700028Y-41781551D01*
X106700026Y-41781552D01*
X106676057Y-41805355D01*
X106675419Y-41805952D01*
X106674748Y-41806472D01*
X106648489Y-41832731D01*
X106627861Y-41853216D01*
X106575554Y-41905159D01*
X106574894Y-41906200D01*
X106573785Y-41907435D01*
X106492174Y-41989046D01*
X106429862Y-42023072D01*
X106359047Y-42018007D01*
X106302211Y-41975460D01*
X106277400Y-41908940D01*
X106281810Y-41865750D01*
X106314432Y-41750079D01*
X106319483Y-41732170D01*
X106333472Y-41622208D01*
X106352445Y-41473071D01*
X106352445Y-41473065D01*
X106352843Y-41469940D01*
X106355287Y-41376600D01*
X106351472Y-41325260D01*
X106336043Y-41117636D01*
X106336042Y-41117632D01*
X106335697Y-41112984D01*
X106277357Y-40855159D01*
X106261828Y-40815226D01*
X106183242Y-40613142D01*
X106183241Y-40613140D01*
X106181549Y-40608789D01*
X106155335Y-40562923D01*
X106052697Y-40383345D01*
X106050378Y-40379287D01*
X106016258Y-40336006D01*
X105989793Y-40270126D01*
X106003146Y-40200397D01*
X106052078Y-40148956D01*
X106115208Y-40132000D01*
X110364000Y-40132000D01*
X110432121Y-40152002D01*
G37*
%TD.AperFunction*%
%TD*%
M02*
