M48
; DRILL file {KiCad 6.0.0+dfsg1-2} date ti 11. tammikuuta 2022 20.53.08
; FORMAT={-:-/ absolute / inch / decimal}
; #@! TF.CreationDate,2022-01-11T20:53:08+02:00
; #@! TF.GenerationSoftware,Kicad,Pcbnew,6.0.0+dfsg1-2
; #@! TF.FileFunction,Plated,1,2,PTH
FMAT,2
INCH
; #@! TA.AperFunction,Plated,PTH,ViaDrill
T1C0.0157
; #@! TA.AperFunction,Plated,PTH,ComponentDrill
T2C0.0315
; #@! TA.AperFunction,Plated,PTH,ComponentDrill
T3C0.0354
; #@! TA.AperFunction,Plated,PTH,ComponentDrill
T4C0.0394
; #@! TA.AperFunction,Plated,PTH,ComponentDrill
T5C0.0433
; #@! TA.AperFunction,Plated,PTH,ComponentDrill
T6C0.0472
; #@! TA.AperFunction,Plated,PTH,ComponentDrill
T7C0.0551
%
G90
G05
T1
X3.631Y-2.669
X3.677Y-1.908
X3.709Y-2.083
X3.774Y-1.969
X3.809Y-2.872
X3.815Y-1.789
X3.817Y-2.056
X4.107Y-2.406
X4.23Y-1.614
X4.253Y-2.411
T2
X3.553Y-2.835
X3.554Y-1.993
X3.554Y-2.113
X3.699Y-2.596
X3.699Y-2.715
X3.7Y-2.235
X3.7Y-2.355
X3.7Y-2.475
X3.7091Y-1.745
X3.7499Y-2.835
X3.854Y-1.993
X3.854Y-2.113
X3.906Y-1.745
X3.985Y-1.993
X3.985Y-2.113
X3.999Y-2.596
X3.999Y-2.715
X4.0Y-2.235
X4.0Y-2.355
X4.0Y-2.475
X4.075Y-1.813
X4.0971Y-2.689
X4.1734Y-1.813
X4.285Y-1.993
X4.285Y-2.113
X4.294Y-2.689
X4.302Y-1.67
X4.302Y-1.8669
T3
X3.865Y-2.82
X3.965Y-2.82
T4
X4.095Y-2.296
X4.096Y-2.527
X4.195Y-2.296
X4.196Y-2.527
X4.295Y-2.296
X4.296Y-2.527
T5
X3.552Y-1.629
X3.552Y-1.729
X3.554Y-1.869
X3.766Y-2.972
X3.866Y-2.972
X3.954Y-1.869
X3.966Y-2.972
X4.066Y-2.972
T6
X3.551Y-2.223
X3.551Y-2.323
X3.551Y-2.423
X3.551Y-2.523
X3.551Y-2.623
X3.551Y-2.723
X3.552Y-2.972
X3.652Y-2.972
X4.182Y-2.972
X4.282Y-2.972
T7
X3.717Y-1.629
X3.917Y-1.629
X4.117Y-1.629
T0
M30
