%TF.GenerationSoftware,KiCad,Pcbnew,(5.99.0-2889-g3ddee6503)*%
%TF.CreationDate,2020-08-20T10:41:49+03:00*%
%TF.ProjectId,leo-fuzz-box,6c656f2d-6675-47a7-9a2d-626f782e6b69,rev?*%
%TF.SameCoordinates,Original*%
%TF.FileFunction,Copper,L1,Top*%
%TF.FilePolarity,Positive*%
%FSLAX46Y46*%
G04 Gerber Fmt 4.6, Leading zero omitted, Abs format (unit mm)*
G04 Created by KiCad (PCBNEW (5.99.0-2889-g3ddee6503)) date 2020-08-20 10:41:49*
%MOMM*%
%LPD*%
G01*
G04 APERTURE LIST*
%TA.AperFunction,ComponentPad*%
%ADD10O,1.930400X1.930400*%
%TD*%
%TA.AperFunction,ComponentPad*%
%ADD11R,1.930400X1.930400*%
%TD*%
%TA.AperFunction,ComponentPad*%
%ADD12C,1.600000*%
%TD*%
%TA.AperFunction,ComponentPad*%
%ADD13O,1.600000X1.600000*%
%TD*%
%TA.AperFunction,ComponentPad*%
%ADD14R,2.540000X2.540000*%
%TD*%
%TA.AperFunction,ComponentPad*%
%ADD15O,2.540000X2.540000*%
%TD*%
%TA.AperFunction,ComponentPad*%
%ADD16R,1.600000X1.600000*%
%TD*%
%TA.AperFunction,ComponentPad*%
%ADD17R,2.032000X2.032000*%
%TD*%
%TA.AperFunction,ComponentPad*%
%ADD18O,2.032000X2.032000*%
%TD*%
%TA.AperFunction,ComponentPad*%
%ADD19R,2.200000X2.200000*%
%TD*%
%TA.AperFunction,ComponentPad*%
%ADD20O,2.200000X2.200000*%
%TD*%
%TA.AperFunction,ComponentPad*%
%ADD21R,1.800000X1.800000*%
%TD*%
%TA.AperFunction,ComponentPad*%
%ADD22C,1.800000*%
%TD*%
%TA.AperFunction,ViaPad*%
%ADD23C,0.800000*%
%TD*%
%TA.AperFunction,Conductor*%
%ADD24C,0.381000*%
%TD*%
G04 APERTURE END LIST*
D10*
%TO.P,J1,S*%
%TO.N,GND*%
X92760800Y-75488800D03*
D11*
%TO.P,J1,T*%
%TO.N,IN*%
X90220800Y-75488800D03*
%TD*%
D12*
%TO.P,R7,1*%
%TO.N,Net-(R4-Pad2)*%
X90271600Y-50469800D03*
D13*
%TO.P,R7,2*%
%TO.N,Net-(C3-Pad1)*%
X97891600Y-50469800D03*
%TD*%
D14*
%TO.P,RV6,1,1*%
%TO.N,Net-(Q1-Pad1)*%
X94437200Y-41630600D03*
D15*
%TO.P,RV6,2,2*%
%TO.N,Net-(RV6-Pad2)*%
X99517200Y-41630600D03*
%TO.P,RV6,3,3*%
%TO.N,Net-(Q2-Pad1)*%
X104597200Y-41630600D03*
%TD*%
D12*
%TO.P,R9,1*%
%TO.N,Net-(C2-Pad1)*%
X93954600Y-68961000D03*
D13*
%TO.P,R9,2*%
%TO.N,GND*%
X101574600Y-68961000D03*
%TD*%
D12*
%TO.P,C1,1*%
%TO.N,IN*%
X90246200Y-72009000D03*
%TO.P,C1,2*%
%TO.N,Net-(C1-Pad2)*%
X95246200Y-72009000D03*
%TD*%
D11*
%TO.P,J4,1*%
%TO.N,Net-(D2-Pad2)*%
X90220800Y-41376600D03*
D10*
%TO.P,J4,2*%
%TO.N,GND*%
X90220800Y-43916600D03*
%TD*%
D11*
%TO.P,J2,1,Pin_1*%
%TO.N,IN*%
X95656400Y-75488800D03*
D10*
%TO.P,J2,2,Pin_2*%
%TO.N,GND*%
X98196400Y-75488800D03*
%TO.P,J2,3,Pin_3*%
%TO.N,LED-*%
X100736400Y-75488800D03*
%TO.P,J2,4,Pin_4*%
%TO.N,OUT*%
X103276400Y-75488800D03*
%TD*%
D12*
%TO.P,C4,1*%
%TO.N,+9V*%
X109270800Y-42418000D03*
%TO.P,C4,2*%
%TO.N,GND*%
X109270800Y-47418000D03*
%TD*%
%TO.P,C3,1*%
%TO.N,Net-(C3-Pad1)*%
X109067600Y-68300600D03*
%TO.P,C3,2*%
%TO.N,Net-(C3-Pad2)*%
X104067600Y-68300600D03*
%TD*%
D16*
%TO.P,C5,1*%
%TO.N,+9V*%
X103505000Y-46050200D03*
D12*
%TO.P,C5,2*%
%TO.N,GND*%
X106005000Y-46050200D03*
%TD*%
D11*
%TO.P,Q1,1,E*%
%TO.N,Net-(Q1-Pad1)*%
X109093000Y-58318400D03*
D10*
%TO.P,Q1,2,B*%
%TO.N,Net-(Q1-Pad2)*%
X106553000Y-58318400D03*
%TO.P,Q1,3,C*%
%TO.N,Net-(Q1-Pad3)*%
X104013000Y-58318400D03*
%TD*%
%TO.P,J3,S*%
%TO.N,GND*%
X108762800Y-75488800D03*
D11*
%TO.P,J3,T*%
%TO.N,OUT*%
X106222800Y-75488800D03*
%TD*%
D12*
%TO.P,R5,1*%
%TO.N,Net-(Q1-Pad2)*%
X101219000Y-50520600D03*
D13*
%TO.P,R5,2*%
%TO.N,Net-(Q2-Pad1)*%
X108839000Y-50520600D03*
%TD*%
D12*
%TO.P,R2,1*%
%TO.N,Net-(R2-Pad1)*%
X93980000Y-56642000D03*
D13*
%TO.P,R2,2*%
%TO.N,Net-(Q1-Pad3)*%
X101600000Y-56642000D03*
%TD*%
D11*
%TO.P,Q2,1,E*%
%TO.N,Net-(Q2-Pad1)*%
X109118400Y-64185800D03*
D10*
%TO.P,Q2,2,B*%
%TO.N,Net-(Q1-Pad3)*%
X106578400Y-64185800D03*
%TO.P,Q2,3,C*%
%TO.N,Net-(C3-Pad1)*%
X104038400Y-64185800D03*
%TD*%
D17*
%TO.P,SW1,1,A*%
%TO.N,Net-(R4-Pad2)*%
X90195400Y-56464200D03*
D18*
%TO.P,SW1,2,B*%
%TO.N,+9V*%
X90195400Y-59004200D03*
%TO.P,SW1,3,C*%
%TO.N,Net-(R2-Pad1)*%
X90195400Y-61544200D03*
%TO.P,SW1,4,A*%
%TO.N,Net-(C2-Pad1)*%
X90195400Y-64084200D03*
%TO.P,SW1,5,B*%
%TO.N,Net-(RV6-Pad2)*%
X90195400Y-66624200D03*
%TO.P,SW1,6,C*%
%TO.N,Net-(SW1-Pad6)*%
X90195400Y-69164200D03*
%TD*%
D12*
%TO.P,R8,1*%
%TO.N,Net-(C3-Pad2)*%
X93954600Y-65913000D03*
D13*
%TO.P,R8,2*%
%TO.N,Net-(C2-Pad1)*%
X101574600Y-65913000D03*
%TD*%
D12*
%TO.P,R99,1*%
%TO.N,Net-(D1-Pad2)*%
X101600000Y-62865000D03*
D13*
%TO.P,R99,2*%
%TO.N,+9V*%
X93980000Y-62865000D03*
%TD*%
D12*
%TO.P,R4,1*%
%TO.N,Net-(R2-Pad1)*%
X97891600Y-53568600D03*
D13*
%TO.P,R4,2*%
%TO.N,Net-(R4-Pad2)*%
X90271600Y-53568600D03*
%TD*%
D12*
%TO.P,C2,1*%
%TO.N,Net-(C2-Pad1)*%
X104063800Y-71374000D03*
%TO.P,C2,2*%
%TO.N,OUT*%
X109063800Y-71374000D03*
%TD*%
%TO.P,R1,1*%
%TO.N,Net-(C1-Pad2)*%
X93980000Y-59817000D03*
D13*
%TO.P,R1,2*%
%TO.N,Net-(Q1-Pad2)*%
X101600000Y-59817000D03*
%TD*%
D19*
%TO.P,D2,1,K*%
%TO.N,+9V*%
X100431600Y-47320200D03*
D20*
%TO.P,D2,2,A*%
%TO.N,Net-(D2-Pad2)*%
X90271600Y-47320200D03*
%TD*%
D12*
%TO.P,R3,1*%
%TO.N,Net-(Q1-Pad1)*%
X101219000Y-53568600D03*
D13*
%TO.P,R3,2*%
%TO.N,GND*%
X108839000Y-53568600D03*
%TD*%
D21*
%TO.P,D1,1,K*%
%TO.N,LED-*%
X100711000Y-71628000D03*
D22*
%TO.P,D1,2,A*%
%TO.N,Net-(D1-Pad2)*%
X98171000Y-71628000D03*
%TD*%
D23*
%TO.N,GND*%
X97663000Y-45821600D03*
X108000800Y-61214000D03*
X104724200Y-61264800D03*
X98425000Y-61417200D03*
X107442000Y-40995600D03*
X102133400Y-42545000D03*
X93522800Y-46456600D03*
X94157800Y-53238400D03*
X97002600Y-52019200D03*
%TO.N,Net-(Q1-Pad1)*%
X99034600Y-44653200D03*
%TO.N,GND*%
X106629200Y-69316600D03*
X96672400Y-69672200D03*
%TO.N,Net-(RV6-Pad2)*%
X95859600Y-50012600D03*
%TD*%
D24*
%TO.N,Net-(Q1-Pad1)*%
X101922101Y-45907799D02*
X100667502Y-44653200D01*
X101922101Y-47007301D02*
X101922101Y-45907799D01*
X102409501Y-47494701D02*
X101922101Y-47007301D01*
X102409501Y-52378099D02*
X102409501Y-47494701D01*
X101219000Y-53568600D02*
X102409501Y-52378099D01*
X100667502Y-44653200D02*
X99034600Y-44653200D01*
%TO.N,Net-(C3-Pad2)*%
X96943469Y-67770499D02*
X99418899Y-67770499D01*
X99418899Y-67770499D02*
X103435899Y-67770499D01*
X104067600Y-68300600D02*
X103537499Y-67770499D01*
X103537499Y-67770499D02*
X99418899Y-67770499D01*
%TO.N,Net-(C3-Pad1)*%
X109067600Y-68300600D02*
X108153200Y-68300600D01*
X108153200Y-68300600D02*
X104038400Y-64185800D01*
%TO.N,Net-(C2-Pad1)*%
X104711500Y-70726300D02*
X104063800Y-71374000D01*
X105258101Y-67729159D02*
X105258101Y-70179699D01*
X101574600Y-65913000D02*
X103441942Y-65913000D01*
X103441942Y-65913000D02*
X105258101Y-67729159D01*
X105258101Y-70179699D02*
X104711500Y-70726300D01*
X93954600Y-68961000D02*
X91601901Y-66608301D01*
X91601901Y-66608301D02*
X91601901Y-65490701D01*
X91601901Y-65490701D02*
X90195400Y-64084200D01*
%TO.N,Net-(RV6-Pad2)*%
X99517200Y-41630600D02*
X96151700Y-44996100D01*
X96151700Y-44996100D02*
X95885000Y-45262800D01*
X95859600Y-50012600D02*
X95859600Y-45288200D01*
X95859600Y-45288200D02*
X96151700Y-44996100D01*
%TO.N,Net-(C3-Pad1)*%
X104038400Y-64185800D02*
X104038400Y-62820802D01*
X104038400Y-62820802D02*
X102225099Y-61007501D01*
X102225099Y-61007501D02*
X101028559Y-61007501D01*
X101028559Y-61007501D02*
X99082101Y-59061043D01*
X99082101Y-59061043D02*
X99082101Y-51660301D01*
X99082101Y-51660301D02*
X97891600Y-50469800D01*
%TO.N,Net-(C3-Pad2)*%
X93954600Y-65913000D02*
X95085970Y-65913000D01*
X95085970Y-65913000D02*
X96943469Y-67770499D01*
X103435899Y-67770499D02*
X104042200Y-68376800D01*
%TO.N,Net-(Q2-Pad1)*%
X110448701Y-52130301D02*
X110448701Y-60594899D01*
X109118400Y-64185800D02*
X109118400Y-61925200D01*
X109118400Y-61925200D02*
X110448701Y-60594899D01*
%TO.N,Net-(Q1-Pad3)*%
X106578400Y-64185800D02*
X106578400Y-60883800D01*
X106578400Y-60883800D02*
X104013000Y-58318400D01*
%TO.N,Net-(Q1-Pad2)*%
X100409499Y-56070559D02*
X101188929Y-55291129D01*
X101188929Y-55291129D02*
X101336658Y-55143400D01*
X101219000Y-50520600D02*
X100028499Y-51711101D01*
X100028499Y-51711101D02*
X100028499Y-54130699D01*
X100028499Y-54130699D02*
X101188929Y-55291129D01*
X100409499Y-58626499D02*
X100409499Y-56070559D01*
X101600000Y-59817000D02*
X100409499Y-58626499D01*
X101336658Y-55143400D02*
X103378000Y-55143400D01*
X103378000Y-55143400D02*
X106553000Y-58318400D01*
%TO.N,Net-(Q1-Pad1)*%
X101219000Y-53568600D02*
X104343200Y-53568600D01*
X104343200Y-53568600D02*
X109093000Y-58318400D01*
%TO.N,Net-(Q1-Pad3)*%
X104013000Y-58318400D02*
X103276400Y-58318400D01*
X103276400Y-58318400D02*
X101600000Y-56642000D01*
%TO.N,Net-(R2-Pad1)*%
X93980000Y-56642000D02*
X97053400Y-53568600D01*
X97053400Y-53568600D02*
X97891600Y-53568600D01*
%TO.N,Net-(C1-Pad2)*%
X94059499Y-67770499D02*
X95024699Y-67770499D01*
X92764099Y-66475099D02*
X94059499Y-67770499D01*
X92764099Y-61032901D02*
X92764099Y-66475099D01*
X93980000Y-59817000D02*
X92764099Y-61032901D01*
X95024699Y-67770499D02*
X95246200Y-67992000D01*
X95246200Y-67992000D02*
X95246200Y-72009000D01*
%TO.N,Net-(R2-Pad1)*%
X90195400Y-61544200D02*
X93980000Y-57759600D01*
X93980000Y-57759600D02*
X93980000Y-56642000D01*
%TO.N,Net-(Q2-Pad1)*%
X108839000Y-50520600D02*
X110448701Y-52130301D01*
X108839000Y-50520600D02*
X108039001Y-49720601D01*
X108039001Y-49720601D02*
X108039001Y-45072401D01*
X108039001Y-45072401D02*
X104597200Y-41630600D01*
%TO.N,IN*%
X94300699Y-74133099D02*
X95656400Y-75488800D01*
X90246200Y-72009000D02*
X90246200Y-75463400D01*
X90246200Y-75463400D02*
X90220800Y-75488800D01*
X90220800Y-75488800D02*
X91576501Y-74133099D01*
X91576501Y-74133099D02*
X94300699Y-74133099D01*
%TO.N,OUT*%
X103276400Y-75488800D02*
X106222800Y-75488800D01*
%TO.N,Net-(C2-Pad1)*%
X93954600Y-72479342D02*
X94674759Y-73199501D01*
X102238299Y-73199501D02*
X104063800Y-71374000D01*
X93954600Y-68961000D02*
X93954600Y-72479342D01*
X94674759Y-73199501D02*
X102238299Y-73199501D01*
%TO.N,Net-(R4-Pad2)*%
X90195400Y-53644800D02*
X90271600Y-53568600D01*
X90271600Y-53568600D02*
X90271600Y-50469800D01*
X90195400Y-56464200D02*
X90195400Y-53644800D01*
%TD*%
%TA.AperFunction,Conductor*%
%TO.N,GND*%
G36*
X106004541Y-67139769D02*
G01*
X107593969Y-68729197D01*
X107611436Y-68751057D01*
X107615796Y-68757967D01*
X107615798Y-68757970D01*
X107672302Y-68807872D01*
X107677993Y-68813220D01*
X107694741Y-68829969D01*
X107694746Y-68829973D01*
X107707756Y-68839724D01*
X107715597Y-68846108D01*
X107765765Y-68890415D01*
X107779850Y-68897028D01*
X107801861Y-68910253D01*
X107814311Y-68919583D01*
X107814314Y-68919585D01*
X107876962Y-68943070D01*
X107886283Y-68946998D01*
X107911079Y-68958640D01*
X107966648Y-69009693D01*
X107992061Y-69053709D01*
X108139172Y-69229028D01*
X108314496Y-69376143D01*
X108314499Y-69376145D01*
X108512699Y-69490576D01*
X108512708Y-69490580D01*
X108727767Y-69568855D01*
X108953167Y-69608600D01*
X109182033Y-69608600D01*
X109407433Y-69568855D01*
X109622492Y-69490580D01*
X109622501Y-69490576D01*
X109820701Y-69376145D01*
X109820704Y-69376143D01*
X109996028Y-69229028D01*
X110143143Y-69053704D01*
X110143145Y-69053701D01*
X110249657Y-68869217D01*
X110301039Y-68820224D01*
X110370753Y-68806788D01*
X110436664Y-68833174D01*
X110477846Y-68891006D01*
X110484776Y-68932217D01*
X110484776Y-70748965D01*
X110464774Y-70817086D01*
X110411118Y-70863579D01*
X110340844Y-70873683D01*
X110276264Y-70844189D01*
X110249657Y-70811965D01*
X110139345Y-70620899D01*
X110139343Y-70620896D01*
X109992228Y-70445572D01*
X109816904Y-70298457D01*
X109816901Y-70298455D01*
X109618701Y-70184024D01*
X109618692Y-70184020D01*
X109403633Y-70105745D01*
X109178233Y-70066000D01*
X108949367Y-70066000D01*
X108723967Y-70105745D01*
X108508908Y-70184020D01*
X108508899Y-70184024D01*
X108310699Y-70298455D01*
X108310696Y-70298457D01*
X108135372Y-70445572D01*
X107988257Y-70620896D01*
X107988255Y-70620899D01*
X107873824Y-70819099D01*
X107873820Y-70819108D01*
X107795545Y-71034167D01*
X107755800Y-71259567D01*
X107755800Y-71488433D01*
X107795545Y-71713833D01*
X107873820Y-71928892D01*
X107873824Y-71928901D01*
X107988255Y-72127101D01*
X107988257Y-72127104D01*
X108135372Y-72302428D01*
X108310696Y-72449543D01*
X108310699Y-72449545D01*
X108508899Y-72563976D01*
X108508908Y-72563980D01*
X108723967Y-72642255D01*
X108949367Y-72682000D01*
X109178233Y-72682000D01*
X109403633Y-72642255D01*
X109618692Y-72563980D01*
X109618701Y-72563976D01*
X109816901Y-72449545D01*
X109816904Y-72449543D01*
X109992228Y-72302428D01*
X110139343Y-72127104D01*
X110139345Y-72127101D01*
X110249657Y-71936035D01*
X110301039Y-71887042D01*
X110370753Y-71873606D01*
X110436664Y-71899992D01*
X110477846Y-71957824D01*
X110484776Y-71999035D01*
X110484776Y-76449776D01*
X110464774Y-76517897D01*
X110411118Y-76564390D01*
X110358776Y-76575776D01*
X110045007Y-76575776D01*
X109976886Y-76555774D01*
X109930393Y-76502118D01*
X109920289Y-76431844D01*
X109949053Y-76368113D01*
X109963261Y-76351418D01*
X109963266Y-76351411D01*
X110088026Y-76143774D01*
X110088029Y-76143768D01*
X110177211Y-75918521D01*
X110215202Y-75742800D01*
X108634800Y-75742800D01*
X108566679Y-75722798D01*
X108520186Y-75669142D01*
X108508800Y-75616800D01*
X108508800Y-75234800D01*
X109016800Y-75234800D01*
X110214080Y-75234800D01*
X110196510Y-75128676D01*
X110118439Y-74899345D01*
X110118437Y-74899340D01*
X110003972Y-74685863D01*
X110003963Y-74685849D01*
X109856157Y-74493921D01*
X109856156Y-74493919D01*
X109678984Y-74328704D01*
X109477210Y-74194645D01*
X109477208Y-74194644D01*
X109256252Y-74095343D01*
X109256254Y-74095343D01*
X109022039Y-74033461D01*
X109016800Y-74032965D01*
X109016800Y-75234800D01*
X108508800Y-75234800D01*
X108508800Y-74034803D01*
X108303539Y-74083704D01*
X108080219Y-74177579D01*
X107875231Y-74306667D01*
X107875225Y-74306672D01*
X107842377Y-74335835D01*
X107778156Y-74366104D01*
X107707765Y-74356848D01*
X107653553Y-74311005D01*
X107637016Y-74274223D01*
X107634727Y-74265681D01*
X107519574Y-74128446D01*
X107364426Y-74038871D01*
X107187999Y-74007763D01*
X105257602Y-74007763D01*
X104999681Y-74076873D01*
X104862446Y-74192026D01*
X104772871Y-74347174D01*
X104741763Y-74523601D01*
X104741763Y-74606856D01*
X104721761Y-74674977D01*
X104668105Y-74721470D01*
X104597831Y-74731574D01*
X104515935Y-74683735D01*
X104369757Y-74493921D01*
X104369756Y-74493919D01*
X104192584Y-74328704D01*
X103990810Y-74194645D01*
X103990808Y-74194644D01*
X103769852Y-74095343D01*
X103769854Y-74095343D01*
X103535639Y-74033461D01*
X103294455Y-74010662D01*
X103052804Y-74027561D01*
X103052795Y-74027562D01*
X102817139Y-74083704D01*
X102593819Y-74177579D01*
X102388831Y-74306667D01*
X102207671Y-74467508D01*
X102103947Y-74595597D01*
X102045533Y-74635949D01*
X101974576Y-74638315D01*
X101906199Y-74593182D01*
X101829757Y-74493921D01*
X101829756Y-74493919D01*
X101652584Y-74328704D01*
X101450810Y-74194645D01*
X101450808Y-74194644D01*
X101326834Y-74138928D01*
X101272899Y-74092760D01*
X101252486Y-74024761D01*
X101272077Y-73956521D01*
X101325451Y-73909705D01*
X101378484Y-73898001D01*
X102145934Y-73898001D01*
X102173741Y-73901108D01*
X102181704Y-73902910D01*
X102181707Y-73902910D01*
X102256931Y-73898243D01*
X102264733Y-73898001D01*
X102288448Y-73898001D01*
X102304543Y-73895695D01*
X102314610Y-73894664D01*
X102381405Y-73890521D01*
X102381402Y-73890521D01*
X102396036Y-73885238D01*
X102420960Y-73879024D01*
X102436355Y-73876819D01*
X102436361Y-73876817D01*
X102497293Y-73849114D01*
X102506658Y-73845301D01*
X102569598Y-73822579D01*
X102581137Y-73814041D01*
X102603930Y-73800629D01*
X102618498Y-73794005D01*
X102618504Y-73794001D01*
X102677499Y-73743167D01*
X102684805Y-73737330D01*
X102698228Y-73727398D01*
X102698234Y-73727394D01*
X102710052Y-73715576D01*
X102716897Y-73709221D01*
X102770072Y-73663401D01*
X102770076Y-73663397D01*
X102777301Y-73652251D01*
X102793937Y-73631689D01*
X103728086Y-72697541D01*
X103790398Y-72663516D01*
X103839060Y-72662551D01*
X103949366Y-72682000D01*
X104178233Y-72682000D01*
X104403633Y-72642255D01*
X104618692Y-72563980D01*
X104618701Y-72563976D01*
X104816901Y-72449545D01*
X104816904Y-72449543D01*
X104992228Y-72302428D01*
X105139343Y-72127104D01*
X105139345Y-72127101D01*
X105253776Y-71928901D01*
X105253780Y-71928892D01*
X105332055Y-71713833D01*
X105371800Y-71488433D01*
X105371800Y-71259566D01*
X105352351Y-71149261D01*
X105360221Y-71078702D01*
X105387342Y-71038286D01*
X105686704Y-70738925D01*
X105708563Y-70721460D01*
X105715467Y-70717104D01*
X105715468Y-70717103D01*
X105765366Y-70660604D01*
X105770714Y-70654914D01*
X105787474Y-70638155D01*
X105787482Y-70638145D01*
X105797233Y-70625135D01*
X105803618Y-70617292D01*
X105847915Y-70567135D01*
X105854528Y-70553049D01*
X105867760Y-70531028D01*
X105877087Y-70518583D01*
X105877089Y-70518581D01*
X105900577Y-70455924D01*
X105904504Y-70446603D01*
X105932948Y-70386019D01*
X105932949Y-70386016D01*
X105935069Y-70371829D01*
X105941703Y-70346220D01*
X105947321Y-70331234D01*
X105947321Y-70331232D01*
X105953093Y-70253577D01*
X105954130Y-70244294D01*
X105956601Y-70227758D01*
X105956601Y-70211040D01*
X105956947Y-70201703D01*
X105962149Y-70131702D01*
X105959377Y-70118717D01*
X105956601Y-70092412D01*
X105956601Y-67821524D01*
X105959708Y-67793717D01*
X105961510Y-67785754D01*
X105961510Y-67785751D01*
X105956843Y-67710526D01*
X105956601Y-67702724D01*
X105956601Y-67679013D01*
X105956600Y-67678999D01*
X105954296Y-67662917D01*
X105953264Y-67652847D01*
X105949122Y-67586063D01*
X105949121Y-67586056D01*
X105943837Y-67571420D01*
X105937623Y-67546497D01*
X105935418Y-67531098D01*
X105907717Y-67470173D01*
X105903904Y-67460805D01*
X105881182Y-67397864D01*
X105872643Y-67386324D01*
X105859227Y-67363525D01*
X105852605Y-67348960D01*
X105852603Y-67348957D01*
X105819994Y-67311113D01*
X105790679Y-67246450D01*
X105800978Y-67176205D01*
X105847619Y-67122678D01*
X105915795Y-67102864D01*
X106004541Y-67139769D01*
G37*
%TD.AperFunction*%
%TA.AperFunction,Conductor*%
G36*
X96163587Y-67978445D02*
G01*
X96384238Y-68199096D01*
X96401705Y-68220956D01*
X96406062Y-68227862D01*
X96406068Y-68227868D01*
X96462565Y-68277764D01*
X96468256Y-68283113D01*
X96485013Y-68299871D01*
X96485021Y-68299878D01*
X96498024Y-68309623D01*
X96505867Y-68316008D01*
X96556034Y-68360313D01*
X96556034Y-68360314D01*
X96570119Y-68366927D01*
X96592130Y-68380152D01*
X96604580Y-68389482D01*
X96604585Y-68389485D01*
X96667236Y-68412971D01*
X96676557Y-68416898D01*
X96737151Y-68445347D01*
X96751350Y-68447469D01*
X96776953Y-68454102D01*
X96791932Y-68459717D01*
X96869576Y-68465487D01*
X96878866Y-68466526D01*
X96895402Y-68468998D01*
X96895418Y-68468999D01*
X96912141Y-68468999D01*
X96921479Y-68469345D01*
X96991465Y-68474546D01*
X97004445Y-68471775D01*
X97030750Y-68468999D01*
X100183015Y-68468999D01*
X100251136Y-68489001D01*
X100297629Y-68542657D01*
X100307101Y-68616880D01*
X100291209Y-68707000D01*
X101702600Y-68707000D01*
X101770721Y-68727002D01*
X101817214Y-68780658D01*
X101828600Y-68833000D01*
X101828600Y-69089000D01*
X101808598Y-69157121D01*
X101754942Y-69203614D01*
X101702600Y-69215000D01*
X100291209Y-69215000D01*
X100306345Y-69300834D01*
X100384620Y-69515892D01*
X100384624Y-69515901D01*
X100499055Y-69714101D01*
X100499057Y-69714104D01*
X100646174Y-69889431D01*
X100765601Y-69989642D01*
X100804928Y-70048751D01*
X100806054Y-70119739D01*
X100768623Y-70180066D01*
X100684610Y-70212163D01*
X99811002Y-70212163D01*
X99553081Y-70281273D01*
X99415846Y-70396426D01*
X99320760Y-70561120D01*
X99317452Y-70559210D01*
X99287293Y-70600161D01*
X99220969Y-70625491D01*
X99127508Y-70594255D01*
X99014508Y-70494282D01*
X98811428Y-70368368D01*
X98590039Y-70278471D01*
X98590038Y-70278471D01*
X98356666Y-70227161D01*
X98117989Y-70215905D01*
X97880826Y-70245024D01*
X97651952Y-70313690D01*
X97437928Y-70419933D01*
X97244861Y-70560719D01*
X97078276Y-70732023D01*
X96942934Y-70928945D01*
X96842708Y-71145855D01*
X96842707Y-71145857D01*
X96780462Y-71376550D01*
X96757975Y-71614437D01*
X96758046Y-71615381D01*
X96757962Y-71615773D01*
X96757924Y-71619766D01*
X96757110Y-71619758D01*
X96743203Y-71684809D01*
X96693180Y-71735190D01*
X96623861Y-71750529D01*
X96557252Y-71725957D01*
X96513999Y-71667914D01*
X96436180Y-71454108D01*
X96436176Y-71454099D01*
X96321745Y-71255899D01*
X96321743Y-71255896D01*
X96174628Y-71080572D01*
X95999306Y-70933459D01*
X95998427Y-70932843D01*
X95998131Y-70932472D01*
X95995089Y-70929920D01*
X95995602Y-70929309D01*
X95954100Y-70877384D01*
X95944700Y-70829631D01*
X95944700Y-68084365D01*
X95947807Y-68056558D01*
X95951590Y-68039839D01*
X95955239Y-68040665D01*
X95974637Y-67990696D01*
X96032034Y-67948909D01*
X96102911Y-67944787D01*
X96163587Y-67978445D01*
G37*
%TD.AperFunction*%
%TA.AperFunction,Conductor*%
G36*
X97096017Y-54617977D02*
G01*
X97132977Y-54639512D01*
X97138496Y-54644143D01*
X97138499Y-54644145D01*
X97336699Y-54758576D01*
X97336708Y-54758580D01*
X97551767Y-54836855D01*
X97777167Y-54876600D01*
X98006033Y-54876600D01*
X98235722Y-54836099D01*
X98306281Y-54843968D01*
X98361385Y-54888735D01*
X98383602Y-54960185D01*
X98383601Y-58968678D01*
X98380494Y-58996485D01*
X98378692Y-59004448D01*
X98378692Y-59004451D01*
X98383359Y-59079675D01*
X98383601Y-59087477D01*
X98383601Y-59111188D01*
X98383602Y-59111202D01*
X98385906Y-59127284D01*
X98386938Y-59137352D01*
X98391081Y-59204145D01*
X98391081Y-59204146D01*
X98396365Y-59218782D01*
X98402578Y-59243704D01*
X98404783Y-59259100D01*
X98404783Y-59259101D01*
X98432484Y-59320028D01*
X98436296Y-59329392D01*
X98459020Y-59392335D01*
X98459023Y-59392341D01*
X98467561Y-59403880D01*
X98480972Y-59426670D01*
X98487600Y-59441245D01*
X98487600Y-59441246D01*
X98538434Y-59500241D01*
X98544270Y-59507546D01*
X98554203Y-59520970D01*
X98554210Y-59520979D01*
X98566019Y-59532788D01*
X98572378Y-59539636D01*
X98618203Y-59592819D01*
X98629351Y-59600045D01*
X98649913Y-59616682D01*
X100469328Y-61436098D01*
X100486795Y-61457958D01*
X100491152Y-61464864D01*
X100491158Y-61464870D01*
X100547655Y-61514766D01*
X100553346Y-61520115D01*
X100570103Y-61536873D01*
X100570111Y-61536880D01*
X100583114Y-61546625D01*
X100590957Y-61553010D01*
X100641124Y-61597315D01*
X100641124Y-61597316D01*
X100655209Y-61603929D01*
X100677220Y-61617154D01*
X100689670Y-61626484D01*
X100689674Y-61626486D01*
X100730486Y-61641786D01*
X100787251Y-61684427D01*
X100811951Y-61750989D01*
X100796744Y-61820338D01*
X100767249Y-61856289D01*
X100671572Y-61936572D01*
X100524457Y-62111896D01*
X100524455Y-62111899D01*
X100410024Y-62310099D01*
X100410020Y-62310108D01*
X100331745Y-62525167D01*
X100292000Y-62750567D01*
X100292000Y-62979433D01*
X100331745Y-63204833D01*
X100410020Y-63419892D01*
X100410024Y-63419901D01*
X100524455Y-63618101D01*
X100524457Y-63618104D01*
X100671572Y-63793428D01*
X100846896Y-63940543D01*
X100846899Y-63940545D01*
X101045099Y-64054976D01*
X101045108Y-64054980D01*
X101260167Y-64133255D01*
X101485567Y-64173000D01*
X101714433Y-64173000D01*
X101939833Y-64133255D01*
X102154892Y-64054980D01*
X102154901Y-64054976D01*
X102353101Y-63940545D01*
X102353103Y-63940544D01*
X102361462Y-63933530D01*
X102426503Y-63905066D01*
X102496608Y-63916285D01*
X102549518Y-63963624D01*
X102568414Y-64033132D01*
X102562603Y-64270880D01*
X102562603Y-64270892D01*
X102596319Y-64510794D01*
X102668759Y-64741947D01*
X102668762Y-64741954D01*
X102736369Y-64875794D01*
X102749229Y-64945616D01*
X102722300Y-65011307D01*
X102664130Y-65052010D01*
X102593188Y-65054803D01*
X102527381Y-65013595D01*
X102503027Y-64984571D01*
X102327704Y-64837457D01*
X102327701Y-64837455D01*
X102129501Y-64723024D01*
X102129492Y-64723020D01*
X101914433Y-64644745D01*
X101689033Y-64605000D01*
X101460167Y-64605000D01*
X101234767Y-64644745D01*
X101019708Y-64723020D01*
X101019699Y-64723024D01*
X100821499Y-64837455D01*
X100821496Y-64837457D01*
X100646172Y-64984572D01*
X100499057Y-65159896D01*
X100499055Y-65159899D01*
X100384624Y-65358099D01*
X100384620Y-65358108D01*
X100306345Y-65573167D01*
X100266600Y-65798567D01*
X100266600Y-66027433D01*
X100306345Y-66252833D01*
X100384620Y-66467892D01*
X100384624Y-66467901D01*
X100499055Y-66666101D01*
X100499057Y-66666104D01*
X100646171Y-66841427D01*
X100655764Y-66849476D01*
X100695091Y-66908586D01*
X100696219Y-66979573D01*
X100658788Y-67039901D01*
X100574774Y-67071999D01*
X97284987Y-67071999D01*
X97195892Y-67035094D01*
X95645203Y-65484406D01*
X95627736Y-65462547D01*
X95623373Y-65455632D01*
X95566858Y-65405720D01*
X95561168Y-65400372D01*
X95544426Y-65383629D01*
X95544419Y-65383623D01*
X95531424Y-65373884D01*
X95523580Y-65367498D01*
X95473406Y-65323186D01*
X95459315Y-65316570D01*
X95437299Y-65303341D01*
X95424857Y-65294016D01*
X95424855Y-65294015D01*
X95362196Y-65270525D01*
X95352878Y-65266599D01*
X95292286Y-65238152D01*
X95278093Y-65236031D01*
X95252483Y-65229396D01*
X95237508Y-65223782D01*
X95237503Y-65223781D01*
X95159859Y-65218010D01*
X95150574Y-65216973D01*
X95134027Y-65214500D01*
X95133969Y-65214500D01*
X95133947Y-65214494D01*
X95129364Y-65214153D01*
X95129437Y-65213169D01*
X95065848Y-65194498D01*
X95033974Y-65163865D01*
X95033680Y-65164111D01*
X95031388Y-65161379D01*
X95030757Y-65160773D01*
X95030141Y-65159894D01*
X94883028Y-64984572D01*
X94707704Y-64837457D01*
X94707701Y-64837455D01*
X94509501Y-64723024D01*
X94509492Y-64723020D01*
X94294433Y-64644745D01*
X94069033Y-64605000D01*
X93840167Y-64605000D01*
X93610479Y-64645501D01*
X93539920Y-64637632D01*
X93484816Y-64592865D01*
X93462599Y-64521415D01*
X93462599Y-64248572D01*
X93482601Y-64180451D01*
X93536257Y-64133958D01*
X93631698Y-64130172D01*
X93640171Y-64133256D01*
X93865567Y-64173000D01*
X94094433Y-64173000D01*
X94319833Y-64133255D01*
X94534892Y-64054980D01*
X94534901Y-64054976D01*
X94733101Y-63940545D01*
X94733104Y-63940543D01*
X94908428Y-63793428D01*
X95055543Y-63618104D01*
X95055545Y-63618101D01*
X95169976Y-63419901D01*
X95169980Y-63419892D01*
X95248255Y-63204833D01*
X95288000Y-62979433D01*
X95288000Y-62750567D01*
X95248255Y-62525167D01*
X95169980Y-62310108D01*
X95169976Y-62310099D01*
X95055545Y-62111899D01*
X95055543Y-62111896D01*
X94908428Y-61936572D01*
X94733104Y-61789457D01*
X94733101Y-61789455D01*
X94534901Y-61675024D01*
X94534892Y-61675020D01*
X94319833Y-61596745D01*
X94094433Y-61557000D01*
X93865567Y-61557000D01*
X93640171Y-61596744D01*
X93631698Y-61599828D01*
X93560844Y-61604333D01*
X93498803Y-61569817D01*
X93462599Y-61481428D01*
X93462599Y-61374419D01*
X93499504Y-61285323D01*
X93644287Y-61140541D01*
X93706599Y-61106516D01*
X93755261Y-61105551D01*
X93865566Y-61125000D01*
X94094433Y-61125000D01*
X94319833Y-61085255D01*
X94534892Y-61006980D01*
X94534901Y-61006976D01*
X94733101Y-60892545D01*
X94733104Y-60892543D01*
X94908428Y-60745428D01*
X95055543Y-60570104D01*
X95055545Y-60570101D01*
X95169976Y-60371901D01*
X95169980Y-60371892D01*
X95248255Y-60156833D01*
X95288000Y-59931433D01*
X95288000Y-59702567D01*
X95248255Y-59477167D01*
X95169980Y-59262108D01*
X95169976Y-59262099D01*
X95055545Y-59063899D01*
X95055543Y-59063896D01*
X94908428Y-58888572D01*
X94733104Y-58741457D01*
X94733101Y-58741455D01*
X94534901Y-58627024D01*
X94534892Y-58627020D01*
X94402201Y-58578724D01*
X94345030Y-58536629D01*
X94319692Y-58470308D01*
X94334233Y-58400816D01*
X94356201Y-58371228D01*
X94408600Y-58318829D01*
X94430457Y-58301364D01*
X94437364Y-58297006D01*
X94437365Y-58297005D01*
X94487260Y-58240510D01*
X94492608Y-58234820D01*
X94509370Y-58218059D01*
X94509374Y-58218054D01*
X94519131Y-58205036D01*
X94525515Y-58197195D01*
X94569814Y-58147036D01*
X94569814Y-58147035D01*
X94576431Y-58132944D01*
X94589653Y-58110939D01*
X94598983Y-58098488D01*
X94598984Y-58098486D01*
X94622473Y-58035830D01*
X94626400Y-58026512D01*
X94654846Y-57965923D01*
X94656967Y-57951729D01*
X94663604Y-57926114D01*
X94669219Y-57911139D01*
X94669221Y-57911130D01*
X94674992Y-57833478D01*
X94676029Y-57824196D01*
X94679158Y-57803256D01*
X94729534Y-57721848D01*
X94728889Y-57721080D01*
X94731219Y-57719125D01*
X94731505Y-57718663D01*
X94733102Y-57717545D01*
X94908428Y-57570428D01*
X95055543Y-57395104D01*
X95055545Y-57395101D01*
X95169976Y-57196901D01*
X95169980Y-57196892D01*
X95248255Y-56981833D01*
X95288000Y-56756433D01*
X95288000Y-56527566D01*
X95268551Y-56417260D01*
X95276421Y-56346701D01*
X95303542Y-56306286D01*
X96962890Y-54646938D01*
X97025202Y-54612912D01*
X97096017Y-54617977D01*
G37*
%TD.AperFunction*%
%TA.AperFunction,Conductor*%
G36*
X103084889Y-59467068D02*
G01*
X103267184Y-59594714D01*
X103485651Y-59699385D01*
X103718279Y-59766970D01*
X103958836Y-59795655D01*
X104200828Y-59784667D01*
X104200830Y-59784667D01*
X104373580Y-59747947D01*
X104444371Y-59753349D01*
X104488872Y-59782099D01*
X105842996Y-61136224D01*
X105879901Y-61225319D01*
X105879900Y-62815048D01*
X105859898Y-62883169D01*
X105821043Y-62921668D01*
X105690831Y-63003667D01*
X105509671Y-63164508D01*
X105405947Y-63292597D01*
X105347533Y-63332949D01*
X105276576Y-63335315D01*
X105208199Y-63290182D01*
X105131757Y-63190921D01*
X105131756Y-63190919D01*
X104954584Y-63025704D01*
X104794411Y-62919285D01*
X104748741Y-62864927D01*
X104738381Y-62822139D01*
X104737142Y-62802169D01*
X104736900Y-62794367D01*
X104736900Y-62770656D01*
X104736899Y-62770642D01*
X104734595Y-62754560D01*
X104733563Y-62744492D01*
X104729420Y-62677699D01*
X104729420Y-62677698D01*
X104724136Y-62663062D01*
X104717923Y-62638140D01*
X104715718Y-62622744D01*
X104715718Y-62622743D01*
X104688017Y-62561816D01*
X104684205Y-62552452D01*
X104661481Y-62489509D01*
X104661478Y-62489503D01*
X104652940Y-62477964D01*
X104639529Y-62455174D01*
X104632903Y-62440602D01*
X104632901Y-62440599D01*
X104582072Y-62381609D01*
X104576237Y-62374305D01*
X104566299Y-62360873D01*
X104566296Y-62360871D01*
X104554477Y-62349052D01*
X104548116Y-62342201D01*
X104502299Y-62289028D01*
X104491153Y-62281803D01*
X104470590Y-62265165D01*
X102784332Y-60578907D01*
X102766869Y-60557053D01*
X102763717Y-60552058D01*
X102744279Y-60483774D01*
X102761156Y-60421816D01*
X102789979Y-60371895D01*
X102789980Y-60371892D01*
X102868255Y-60156833D01*
X102908000Y-59931433D01*
X102908000Y-59702567D01*
X102888532Y-59592161D01*
X102896401Y-59521602D01*
X102941168Y-59466498D01*
X103008620Y-59444344D01*
X103084889Y-59467068D01*
G37*
%TD.AperFunction*%
%TA.AperFunction,Conductor*%
G36*
X107610431Y-59450127D02*
G01*
X107663507Y-59497280D01*
X107678381Y-59531474D01*
X107681073Y-59541520D01*
X107796226Y-59678754D01*
X107951374Y-59768329D01*
X108127801Y-59799437D01*
X109624202Y-59799437D01*
X109692323Y-59819439D01*
X109738816Y-59873095D01*
X109750202Y-59925437D01*
X109750202Y-60253378D01*
X109713298Y-60342473D01*
X108689802Y-61365971D01*
X108667940Y-61383438D01*
X108661037Y-61387794D01*
X108661031Y-61387798D01*
X108611129Y-61444302D01*
X108605781Y-61449993D01*
X108589029Y-61466744D01*
X108589023Y-61466751D01*
X108579278Y-61479754D01*
X108572892Y-61487598D01*
X108528587Y-61537764D01*
X108521974Y-61551850D01*
X108508742Y-61573871D01*
X108499415Y-61586315D01*
X108475921Y-61648984D01*
X108471994Y-61658302D01*
X108443555Y-61718877D01*
X108441432Y-61733079D01*
X108434798Y-61758680D01*
X108429182Y-61773661D01*
X108429181Y-61773668D01*
X108423409Y-61851322D01*
X108422372Y-61860605D01*
X108419901Y-61877141D01*
X108419901Y-61893859D01*
X108419555Y-61903197D01*
X108414353Y-61973197D01*
X108417125Y-61986182D01*
X108419901Y-62012486D01*
X108419901Y-62578763D01*
X108399899Y-62646884D01*
X108346243Y-62693377D01*
X108293901Y-62704763D01*
X108153202Y-62704763D01*
X107895281Y-62773873D01*
X107758046Y-62889026D01*
X107693750Y-63000390D01*
X107642368Y-63049383D01*
X107572654Y-63062819D01*
X107498701Y-63029542D01*
X107494591Y-63025710D01*
X107494580Y-63025700D01*
X107333173Y-62918462D01*
X107287502Y-62864104D01*
X107276900Y-62813514D01*
X107276900Y-60976161D01*
X107280007Y-60948353D01*
X107281808Y-60940394D01*
X107281808Y-60940393D01*
X107277142Y-60865183D01*
X107276900Y-60857381D01*
X107276900Y-60833658D01*
X107276899Y-60833649D01*
X107274592Y-60817536D01*
X107273562Y-60807477D01*
X107269419Y-60740697D01*
X107269418Y-60740691D01*
X107264136Y-60726060D01*
X107257923Y-60701139D01*
X107255718Y-60685744D01*
X107255717Y-60685741D01*
X107228015Y-60624812D01*
X107224202Y-60615445D01*
X107201480Y-60552503D01*
X107201478Y-60552500D01*
X107192940Y-60540961D01*
X107179528Y-60518168D01*
X107172905Y-60503601D01*
X107122071Y-60444606D01*
X107116236Y-60437302D01*
X107106301Y-60423874D01*
X107106291Y-60423863D01*
X107094477Y-60412049D01*
X107088119Y-60405201D01*
X107042301Y-60352026D01*
X107042300Y-60352025D01*
X107031153Y-60344800D01*
X107010591Y-60328163D01*
X106679173Y-59996745D01*
X106645147Y-59934433D01*
X106650212Y-59863618D01*
X106692759Y-59806782D01*
X106742071Y-59784404D01*
X106977786Y-59734300D01*
X106977793Y-59734298D01*
X107203340Y-59645906D01*
X107203348Y-59645902D01*
X107411420Y-59521867D01*
X107411426Y-59521862D01*
X107475346Y-59467846D01*
X107540287Y-59439154D01*
X107610431Y-59450127D01*
G37*
%TD.AperFunction*%
%TA.AperFunction,Conductor*%
G36*
X92608710Y-40157226D02*
G01*
X92655203Y-40210882D01*
X92664675Y-40285103D01*
X92651363Y-40360601D01*
X92651363Y-42900598D01*
X92720473Y-43158520D01*
X92835626Y-43295754D01*
X92990774Y-43385329D01*
X93167201Y-43416437D01*
X95707198Y-43416437D01*
X95965120Y-43347327D01*
X96102354Y-43232174D01*
X96191929Y-43077026D01*
X96191928Y-43077026D01*
X96223037Y-42900599D01*
X96223037Y-40360602D01*
X96205683Y-40295835D01*
X96207373Y-40224858D01*
X96247167Y-40166063D01*
X96327390Y-40137224D01*
X98190674Y-40137224D01*
X98258795Y-40157226D01*
X98305288Y-40210882D01*
X98315392Y-40281156D01*
X98281311Y-40350751D01*
X98146366Y-40490490D01*
X97992906Y-40705635D01*
X97872931Y-40941100D01*
X97789076Y-41191715D01*
X97743187Y-41451961D01*
X97736268Y-41716148D01*
X97768475Y-41978442D01*
X97768475Y-41978443D01*
X97838518Y-42231011D01*
X97837447Y-42302000D01*
X97806195Y-42353778D01*
X95431004Y-44728969D01*
X95409144Y-44746436D01*
X95402234Y-44750796D01*
X95402231Y-44750798D01*
X95352329Y-44807302D01*
X95346981Y-44812993D01*
X95330229Y-44829744D01*
X95330223Y-44829751D01*
X95320478Y-44842754D01*
X95314092Y-44850598D01*
X95269787Y-44900764D01*
X95263174Y-44914850D01*
X95249942Y-44936871D01*
X95240615Y-44949315D01*
X95217121Y-45011984D01*
X95213194Y-45021302D01*
X95184755Y-45081877D01*
X95182632Y-45096079D01*
X95175998Y-45121680D01*
X95170382Y-45136661D01*
X95170381Y-45136668D01*
X95164609Y-45214322D01*
X95163572Y-45223605D01*
X95161101Y-45240141D01*
X95161101Y-45256859D01*
X95160755Y-45266197D01*
X95155553Y-45336197D01*
X95158325Y-45349182D01*
X95161101Y-45375486D01*
X95161100Y-49375708D01*
X95136678Y-49447652D01*
X95137148Y-49447923D01*
X95135784Y-49450286D01*
X95135062Y-49452412D01*
X95133020Y-49455074D01*
X95013482Y-49662121D01*
X95013479Y-49662127D01*
X94951600Y-49893062D01*
X94951600Y-50132138D01*
X95013479Y-50363073D01*
X95013482Y-50363079D01*
X95133017Y-50570121D01*
X95133024Y-50570131D01*
X95302069Y-50739176D01*
X95302079Y-50739183D01*
X95509121Y-50858718D01*
X95509127Y-50858721D01*
X95740062Y-50920600D01*
X95979138Y-50920600D01*
X96210073Y-50858721D01*
X96210079Y-50858718D01*
X96417126Y-50739180D01*
X96423093Y-50734602D01*
X96489313Y-50709001D01*
X96558862Y-50723266D01*
X96609658Y-50772867D01*
X96620981Y-50804572D01*
X96621921Y-50804320D01*
X96623344Y-50809631D01*
X96701620Y-51024692D01*
X96701624Y-51024701D01*
X96816055Y-51222901D01*
X96816057Y-51222904D01*
X96963172Y-51398228D01*
X97138496Y-51545343D01*
X97138499Y-51545345D01*
X97336699Y-51659776D01*
X97336708Y-51659780D01*
X97551767Y-51738055D01*
X97777167Y-51777800D01*
X98006034Y-51777800D01*
X98116339Y-51758351D01*
X98186898Y-51766221D01*
X98227313Y-51793342D01*
X98346697Y-51912726D01*
X98383602Y-52001821D01*
X98383602Y-52177015D01*
X98363600Y-52245136D01*
X98309944Y-52291629D01*
X98235722Y-52301101D01*
X98006033Y-52260600D01*
X97777167Y-52260600D01*
X97551767Y-52300345D01*
X97336708Y-52378620D01*
X97336699Y-52378624D01*
X97138499Y-52493055D01*
X97138496Y-52493057D01*
X96963172Y-52640172D01*
X96816057Y-52815496D01*
X96816055Y-52815499D01*
X96767403Y-52899767D01*
X96727939Y-52937996D01*
X96729472Y-52940068D01*
X96710560Y-52954061D01*
X96687773Y-52967470D01*
X96673202Y-52974096D01*
X96673197Y-52974099D01*
X96614207Y-53024928D01*
X96606903Y-53030763D01*
X96593471Y-53040701D01*
X96593469Y-53040704D01*
X96581650Y-53052523D01*
X96574799Y-53058884D01*
X96521624Y-53104702D01*
X96514400Y-53115847D01*
X96497763Y-53136409D01*
X94315714Y-55318458D01*
X94253402Y-55352484D01*
X94204740Y-55353449D01*
X94094434Y-55334000D01*
X93865567Y-55334000D01*
X93640167Y-55373745D01*
X93425108Y-55452020D01*
X93425099Y-55452024D01*
X93226899Y-55566455D01*
X93226896Y-55566457D01*
X93051572Y-55713572D01*
X92904457Y-55888896D01*
X92904455Y-55888899D01*
X92790024Y-56087099D01*
X92790020Y-56087108D01*
X92711745Y-56302167D01*
X92672000Y-56527567D01*
X92672000Y-56756433D01*
X92711745Y-56981833D01*
X92790020Y-57196892D01*
X92790024Y-57196901D01*
X92904455Y-57395101D01*
X92904457Y-57395104D01*
X93036566Y-57552544D01*
X93065031Y-57617585D01*
X93053814Y-57687690D01*
X93029140Y-57722631D01*
X91914554Y-58837218D01*
X91852242Y-58871243D01*
X91781427Y-58866179D01*
X91724591Y-58823632D01*
X91701080Y-58768268D01*
X91680224Y-58639497D01*
X91680221Y-58639485D01*
X91602814Y-58406795D01*
X91489190Y-58189450D01*
X91431116Y-58111821D01*
X91406326Y-58045293D01*
X91421440Y-57975924D01*
X91460389Y-57937753D01*
X91458748Y-57935798D01*
X91606554Y-57811774D01*
X91696129Y-57656626D01*
X91696128Y-57656626D01*
X91727237Y-57480199D01*
X91727237Y-55448202D01*
X91658127Y-55190281D01*
X91542974Y-55053046D01*
X91387826Y-54963471D01*
X91211399Y-54932363D01*
X91019900Y-54932363D01*
X90951779Y-54912361D01*
X90905286Y-54858705D01*
X90893900Y-54806363D01*
X90893900Y-54792409D01*
X90913902Y-54724288D01*
X90956900Y-54683290D01*
X91024701Y-54644145D01*
X91024704Y-54644143D01*
X91200028Y-54497028D01*
X91347143Y-54321704D01*
X91347145Y-54321701D01*
X91461576Y-54123501D01*
X91461580Y-54123492D01*
X91539855Y-53908433D01*
X91579600Y-53683033D01*
X91579600Y-53454167D01*
X91539855Y-53228767D01*
X91461580Y-53013708D01*
X91461576Y-53013699D01*
X91347145Y-52815499D01*
X91347143Y-52815496D01*
X91200028Y-52640172D01*
X91024706Y-52493059D01*
X91023827Y-52492443D01*
X91023531Y-52492072D01*
X91020489Y-52489520D01*
X91021002Y-52488909D01*
X90979500Y-52436984D01*
X90970100Y-52389231D01*
X90970100Y-51649169D01*
X90990102Y-51581048D01*
X91020735Y-51549174D01*
X91020489Y-51548880D01*
X91023221Y-51546588D01*
X91023827Y-51545957D01*
X91024706Y-51545341D01*
X91200028Y-51398228D01*
X91347143Y-51222904D01*
X91347145Y-51222901D01*
X91461576Y-51024701D01*
X91461580Y-51024692D01*
X91539855Y-50809633D01*
X91579600Y-50584233D01*
X91579600Y-50355367D01*
X91539855Y-50129967D01*
X91461580Y-49914908D01*
X91461576Y-49914899D01*
X91347145Y-49716699D01*
X91347143Y-49716696D01*
X91200028Y-49541372D01*
X91024704Y-49394257D01*
X91024701Y-49394255D01*
X90826501Y-49279824D01*
X90826492Y-49279820D01*
X90611433Y-49201545D01*
X90435360Y-49170498D01*
X90371748Y-49138970D01*
X90335278Y-49078057D01*
X90337531Y-49007096D01*
X90377790Y-48948617D01*
X90437529Y-48921963D01*
X90648147Y-48888603D01*
X90888854Y-48810393D01*
X90888860Y-48810391D01*
X91114379Y-48695483D01*
X91319145Y-48546712D01*
X91498112Y-48367745D01*
X91646883Y-48162979D01*
X91761791Y-47937460D01*
X91761793Y-47937454D01*
X91840003Y-47696747D01*
X91879600Y-47446749D01*
X91879600Y-47193651D01*
X91840003Y-46943653D01*
X91761793Y-46702946D01*
X91761791Y-46702940D01*
X91646883Y-46477421D01*
X91498112Y-46272655D01*
X91319145Y-46093688D01*
X91114379Y-45944917D01*
X90888860Y-45830009D01*
X90888854Y-45830007D01*
X90648147Y-45751797D01*
X90398149Y-45712200D01*
X90145051Y-45712200D01*
X89895053Y-45751797D01*
X89654346Y-45830007D01*
X89654340Y-45830009D01*
X89428821Y-45944917D01*
X89283085Y-46050801D01*
X89216218Y-46074659D01*
X89147066Y-46058579D01*
X89097586Y-46007665D01*
X89083024Y-45948865D01*
X89083024Y-45160503D01*
X89103026Y-45092382D01*
X89156682Y-45045889D01*
X89226956Y-45035785D01*
X89281295Y-45057290D01*
X89474984Y-45192914D01*
X89693451Y-45297585D01*
X89926079Y-45365170D01*
X89966800Y-45370027D01*
X89966800Y-45368801D01*
X90474799Y-45368801D01*
X90645595Y-45332497D01*
X90871140Y-45244106D01*
X90871148Y-45244102D01*
X91079220Y-45120067D01*
X91079226Y-45120062D01*
X91264249Y-44963706D01*
X91264253Y-44963702D01*
X91421261Y-44779218D01*
X91421266Y-44779211D01*
X91546026Y-44571574D01*
X91546029Y-44571568D01*
X91635211Y-44346321D01*
X91673202Y-44170600D01*
X90474800Y-44170599D01*
X90474799Y-45368801D01*
X89966800Y-45368801D01*
X89966801Y-44118409D01*
X89966800Y-44118407D01*
X89966801Y-43788600D01*
X89986803Y-43720479D01*
X90040459Y-43673986D01*
X90092801Y-43662600D01*
X91672080Y-43662601D01*
X91654513Y-43556483D01*
X91576439Y-43327145D01*
X91576437Y-43327140D01*
X91461972Y-43113663D01*
X91461963Y-43113649D01*
X91366601Y-42989820D01*
X91340884Y-42923644D01*
X91355028Y-42854071D01*
X91433818Y-42791234D01*
X91443920Y-42788527D01*
X91581154Y-42673374D01*
X91670729Y-42518226D01*
X91670728Y-42518226D01*
X91701837Y-42341799D01*
X91701837Y-40411402D01*
X91670871Y-40295835D01*
X91672561Y-40224859D01*
X91712355Y-40166063D01*
X91792578Y-40137224D01*
X92540589Y-40137224D01*
X92608710Y-40157226D01*
G37*
%TD.AperFunction*%
%TA.AperFunction,Conductor*%
G36*
X103338795Y-40157226D02*
G01*
X103385288Y-40210882D01*
X103395392Y-40281156D01*
X103361311Y-40350751D01*
X103226366Y-40490490D01*
X103072906Y-40705635D01*
X102952931Y-40941100D01*
X102869076Y-41191715D01*
X102823187Y-41451961D01*
X102816268Y-41716148D01*
X102848475Y-41978442D01*
X102848478Y-41978455D01*
X102919094Y-42233089D01*
X102919097Y-42233100D01*
X103026586Y-42474524D01*
X103026587Y-42474525D01*
X103168577Y-42697405D01*
X103341951Y-42896848D01*
X103542907Y-43068482D01*
X103767011Y-43208517D01*
X104009365Y-43313896D01*
X104009370Y-43313898D01*
X104264631Y-43382294D01*
X104264634Y-43382295D01*
X104527197Y-43412209D01*
X104527205Y-43412210D01*
X104791305Y-43402988D01*
X104791308Y-43402988D01*
X105051149Y-43354828D01*
X105051162Y-43354825D01*
X105186812Y-43308117D01*
X105257734Y-43304851D01*
X105316929Y-43338157D01*
X106596824Y-44618053D01*
X106630850Y-44680365D01*
X106625785Y-44751181D01*
X106583238Y-44808016D01*
X106516718Y-44832827D01*
X106464634Y-44825549D01*
X106344833Y-44781945D01*
X106119433Y-44742200D01*
X105890567Y-44742200D01*
X105665167Y-44781945D01*
X105450108Y-44860220D01*
X105450100Y-44860224D01*
X105275209Y-44961197D01*
X106005000Y-45690990D01*
X107094002Y-46779991D01*
X107105383Y-46760279D01*
X107156766Y-46711286D01*
X107226480Y-46697851D01*
X107292391Y-46724238D01*
X107333572Y-46782070D01*
X107340502Y-46823280D01*
X107340501Y-49628236D01*
X107337394Y-49656043D01*
X107335592Y-49664006D01*
X107335592Y-49664009D01*
X107340259Y-49739233D01*
X107340501Y-49747035D01*
X107340501Y-49770746D01*
X107340502Y-49770760D01*
X107342806Y-49786842D01*
X107343838Y-49796910D01*
X107347981Y-49863703D01*
X107347981Y-49863704D01*
X107353265Y-49878340D01*
X107359478Y-49903262D01*
X107361683Y-49918658D01*
X107361683Y-49918659D01*
X107389384Y-49979586D01*
X107393196Y-49988950D01*
X107415920Y-50051893D01*
X107415923Y-50051899D01*
X107424461Y-50063438D01*
X107437872Y-50086228D01*
X107444500Y-50100803D01*
X107444500Y-50100804D01*
X107495334Y-50159799D01*
X107501170Y-50167104D01*
X107511103Y-50180528D01*
X107511110Y-50180537D01*
X107515459Y-50184886D01*
X107549485Y-50247198D01*
X107550450Y-50295861D01*
X107531000Y-50406167D01*
X107531000Y-50635033D01*
X107570745Y-50860433D01*
X107649020Y-51075492D01*
X107649024Y-51075501D01*
X107763455Y-51273701D01*
X107763457Y-51273704D01*
X107910572Y-51449028D01*
X108085896Y-51596143D01*
X108085899Y-51596145D01*
X108284099Y-51710576D01*
X108284108Y-51710580D01*
X108499167Y-51788855D01*
X108724567Y-51828600D01*
X108953434Y-51828600D01*
X109063740Y-51809151D01*
X109134299Y-51817021D01*
X109174714Y-51844142D01*
X109487741Y-52157169D01*
X109521767Y-52219481D01*
X109516702Y-52290296D01*
X109474155Y-52347132D01*
X109407635Y-52371943D01*
X109355551Y-52364665D01*
X109178834Y-52300345D01*
X109093000Y-52285209D01*
X109093000Y-54851991D01*
X109178834Y-54836855D01*
X109393892Y-54758580D01*
X109393901Y-54758576D01*
X109561201Y-54661985D01*
X109630196Y-54645247D01*
X109697288Y-54668467D01*
X109741175Y-54724275D01*
X109750201Y-54771104D01*
X109750202Y-56711363D01*
X109730200Y-56779484D01*
X109676544Y-56825977D01*
X109624202Y-56837363D01*
X108651982Y-56837363D01*
X108562887Y-56800458D01*
X105585028Y-53822600D01*
X107555609Y-53822600D01*
X107570745Y-53908434D01*
X107649020Y-54123492D01*
X107649024Y-54123501D01*
X107763455Y-54321701D01*
X107763457Y-54321704D01*
X107910572Y-54497028D01*
X108085896Y-54644143D01*
X108085899Y-54644145D01*
X108284099Y-54758576D01*
X108284108Y-54758580D01*
X108499166Y-54836855D01*
X108585000Y-54851991D01*
X108585000Y-53822600D01*
X107555609Y-53822600D01*
X105585028Y-53822600D01*
X105077028Y-53314600D01*
X107555609Y-53314600D01*
X108585000Y-53314600D01*
X108585000Y-52285209D01*
X108499166Y-52300345D01*
X108284108Y-52378620D01*
X108284099Y-52378624D01*
X108085899Y-52493055D01*
X108085896Y-52493057D01*
X107910572Y-52640172D01*
X107763457Y-52815496D01*
X107763455Y-52815499D01*
X107649024Y-53013699D01*
X107649020Y-53013708D01*
X107570745Y-53228766D01*
X107555609Y-53314600D01*
X105077028Y-53314600D01*
X104902433Y-53140006D01*
X104884966Y-53118147D01*
X104880603Y-53111232D01*
X104824088Y-53061320D01*
X104818398Y-53055972D01*
X104801656Y-53039229D01*
X104801649Y-53039223D01*
X104788654Y-53029484D01*
X104780810Y-53023098D01*
X104730636Y-52978786D01*
X104716545Y-52972170D01*
X104694529Y-52958941D01*
X104682087Y-52949616D01*
X104682085Y-52949615D01*
X104619426Y-52926125D01*
X104610108Y-52922199D01*
X104549516Y-52893752D01*
X104535323Y-52891631D01*
X104509713Y-52884996D01*
X104494738Y-52879382D01*
X104494733Y-52879381D01*
X104417089Y-52873610D01*
X104407804Y-52872573D01*
X104391257Y-52870100D01*
X104374528Y-52870100D01*
X104365190Y-52869754D01*
X104295204Y-52864553D01*
X104282224Y-52867324D01*
X104255919Y-52870100D01*
X103152883Y-52870100D01*
X103084762Y-52850098D01*
X103038269Y-52796442D01*
X103034901Y-52699870D01*
X103051974Y-52654329D01*
X103055901Y-52645011D01*
X103084347Y-52584422D01*
X103086468Y-52570228D01*
X103093105Y-52544613D01*
X103098720Y-52529638D01*
X103098722Y-52529629D01*
X103104493Y-52451977D01*
X103105530Y-52442694D01*
X103108001Y-52426158D01*
X103108001Y-52409440D01*
X103108347Y-52400103D01*
X103113549Y-52330102D01*
X103110777Y-52317117D01*
X103108001Y-52290812D01*
X103108001Y-47587066D01*
X103111108Y-47559259D01*
X103112910Y-47551296D01*
X103112910Y-47551293D01*
X103109718Y-47499839D01*
X103125464Y-47430610D01*
X103176137Y-47380884D01*
X103235476Y-47366037D01*
X104304998Y-47366037D01*
X104562920Y-47296927D01*
X104700154Y-47181774D01*
X104724732Y-47139203D01*
X105275209Y-47139203D01*
X105450100Y-47240176D01*
X105450108Y-47240180D01*
X105665167Y-47318455D01*
X105890567Y-47358200D01*
X106119433Y-47358200D01*
X106344833Y-47318455D01*
X106559892Y-47240180D01*
X106559900Y-47240176D01*
X106734791Y-47139203D01*
X106005000Y-46409410D01*
X105275209Y-47139203D01*
X104724732Y-47139203D01*
X104789729Y-47026626D01*
X104789728Y-47026626D01*
X104814149Y-46888127D01*
X104845676Y-46824514D01*
X104906590Y-46788045D01*
X104908032Y-46787956D01*
X105645790Y-46050200D01*
X104903796Y-45308208D01*
X104881654Y-45304755D01*
X104828556Y-45257626D01*
X104813651Y-45223384D01*
X104751727Y-44992281D01*
X104636574Y-44855046D01*
X104481426Y-44765471D01*
X104304999Y-44734363D01*
X102705002Y-44734363D01*
X102447081Y-44803473D01*
X102309846Y-44918626D01*
X102249532Y-45023093D01*
X102198150Y-45072086D01*
X102128436Y-45085522D01*
X102051318Y-45049189D01*
X101226735Y-44224607D01*
X101209268Y-44202747D01*
X101204905Y-44195832D01*
X101148390Y-44145920D01*
X101142700Y-44140572D01*
X101125958Y-44123829D01*
X101125951Y-44123823D01*
X101112956Y-44114084D01*
X101105112Y-44107698D01*
X101054938Y-44063386D01*
X101040847Y-44056770D01*
X101018831Y-44043541D01*
X101006389Y-44034216D01*
X101006387Y-44034215D01*
X100943728Y-44010725D01*
X100934410Y-44006799D01*
X100873818Y-43978352D01*
X100859625Y-43976231D01*
X100834015Y-43969596D01*
X100819040Y-43963982D01*
X100819035Y-43963981D01*
X100741391Y-43958210D01*
X100732106Y-43957173D01*
X100715559Y-43954700D01*
X100698830Y-43954700D01*
X100689492Y-43954354D01*
X100619506Y-43949153D01*
X100606526Y-43951924D01*
X100580221Y-43954700D01*
X99671492Y-43954700D01*
X99599548Y-43930278D01*
X99599277Y-43930748D01*
X99596914Y-43929384D01*
X99594788Y-43928662D01*
X99592126Y-43926620D01*
X99385079Y-43807082D01*
X99385073Y-43807079D01*
X99154138Y-43745200D01*
X98915062Y-43745200D01*
X98684127Y-43807079D01*
X98684121Y-43807082D01*
X98671660Y-43814276D01*
X98602665Y-43831014D01*
X98535573Y-43807794D01*
X98491686Y-43751987D01*
X98484937Y-43681312D01*
X98519565Y-43616062D01*
X98793686Y-43341941D01*
X98855998Y-43307915D01*
X98924156Y-43314644D01*
X98924955Y-43312356D01*
X98929370Y-43313898D01*
X99184631Y-43382294D01*
X99184634Y-43382295D01*
X99447197Y-43412209D01*
X99447205Y-43412210D01*
X99711305Y-43402988D01*
X99711308Y-43402988D01*
X99971151Y-43354828D01*
X100221011Y-43268795D01*
X100221032Y-43268786D01*
X100455429Y-43146767D01*
X100669229Y-42991432D01*
X100857717Y-42806206D01*
X100857718Y-42806204D01*
X101016758Y-42595152D01*
X101016760Y-42595148D01*
X101142859Y-42362905D01*
X101142859Y-42362904D01*
X101233242Y-42114577D01*
X101233243Y-42114572D01*
X101285930Y-41855612D01*
X101295282Y-41498469D01*
X101295282Y-41498465D01*
X101256221Y-41237100D01*
X101178956Y-40984380D01*
X101065185Y-40745854D01*
X100917408Y-40526766D01*
X100917401Y-40526757D01*
X100753920Y-40348348D01*
X100722645Y-40284611D01*
X100730794Y-40214084D01*
X100775780Y-40159158D01*
X100846817Y-40137224D01*
X103270674Y-40137224D01*
X103338795Y-40157226D01*
G37*
%TD.AperFunction*%
%TA.AperFunction,Conductor*%
G36*
X98130589Y-44109204D02*
G01*
X98187425Y-44151751D01*
X98212236Y-44218271D01*
X98195676Y-44290260D01*
X98188482Y-44302721D01*
X98188479Y-44302727D01*
X98126600Y-44533662D01*
X98126600Y-44772738D01*
X98188479Y-45003673D01*
X98188482Y-45003679D01*
X98308017Y-45210721D01*
X98308024Y-45210731D01*
X98477069Y-45379776D01*
X98477079Y-45379783D01*
X98684121Y-45499318D01*
X98684127Y-45499321D01*
X98915062Y-45561200D01*
X98980475Y-45561200D01*
X99048596Y-45581202D01*
X99095089Y-45634858D01*
X99105193Y-45705132D01*
X99061466Y-45783722D01*
X98936446Y-45888626D01*
X98846871Y-46043774D01*
X98815763Y-46220201D01*
X98815763Y-48420198D01*
X98884873Y-48678120D01*
X99000026Y-48815354D01*
X99155174Y-48904929D01*
X99331601Y-48936037D01*
X101531601Y-48936037D01*
X101552392Y-48930466D01*
X101623369Y-48932156D01*
X101682164Y-48971951D01*
X101711002Y-49052173D01*
X101711002Y-49129015D01*
X101691000Y-49197136D01*
X101637344Y-49243629D01*
X101563122Y-49253101D01*
X101333433Y-49212600D01*
X101104567Y-49212600D01*
X100879167Y-49252345D01*
X100664108Y-49330620D01*
X100664099Y-49330624D01*
X100465899Y-49445055D01*
X100465896Y-49445057D01*
X100290572Y-49592172D01*
X100143457Y-49767496D01*
X100143455Y-49767499D01*
X100029024Y-49965699D01*
X100029020Y-49965708D01*
X99950745Y-50180767D01*
X99911000Y-50406167D01*
X99911000Y-50635034D01*
X99930449Y-50745339D01*
X99922579Y-50815898D01*
X99895458Y-50856313D01*
X99669795Y-51081976D01*
X99607483Y-51116002D01*
X99536668Y-51110937D01*
X99491605Y-51081976D01*
X99215142Y-50805513D01*
X99181116Y-50743201D01*
X99180151Y-50694539D01*
X99199600Y-50584234D01*
X99199600Y-50355367D01*
X99159855Y-50129967D01*
X99081580Y-49914908D01*
X99081576Y-49914899D01*
X98967145Y-49716699D01*
X98967143Y-49716696D01*
X98820028Y-49541372D01*
X98644704Y-49394257D01*
X98644701Y-49394255D01*
X98446501Y-49279824D01*
X98446492Y-49279820D01*
X98231433Y-49201545D01*
X98006033Y-49161800D01*
X97777167Y-49161800D01*
X97551767Y-49201545D01*
X97336708Y-49279820D01*
X97336699Y-49279824D01*
X97138499Y-49394255D01*
X97138496Y-49394257D01*
X96963172Y-49541372D01*
X96885026Y-49634502D01*
X96825916Y-49673828D01*
X96754929Y-49674954D01*
X96679386Y-49616510D01*
X96586181Y-49455074D01*
X96584138Y-49452412D01*
X96583416Y-49450286D01*
X96582052Y-49447923D01*
X96582522Y-49447652D01*
X96558100Y-49375708D01*
X96558100Y-45629717D01*
X96595005Y-45540622D01*
X97997462Y-44138165D01*
X98059774Y-44104139D01*
X98130589Y-44109204D01*
G37*
%TD.AperFunction*%
%TA.AperFunction,Conductor*%
G36*
X110426897Y-40157226D02*
G01*
X110473390Y-40210882D01*
X110484776Y-40263224D01*
X110484776Y-41483692D01*
X110464774Y-41551813D01*
X110411118Y-41598306D01*
X110340844Y-41608410D01*
X110262255Y-41564684D01*
X110199228Y-41489572D01*
X110023904Y-41342457D01*
X110023901Y-41342455D01*
X109825701Y-41228024D01*
X109825692Y-41228020D01*
X109610633Y-41149745D01*
X109385233Y-41110000D01*
X109156367Y-41110000D01*
X108930967Y-41149745D01*
X108715908Y-41228020D01*
X108715899Y-41228024D01*
X108517699Y-41342455D01*
X108517696Y-41342457D01*
X108342372Y-41489572D01*
X108195257Y-41664896D01*
X108195255Y-41664899D01*
X108080824Y-41863099D01*
X108080820Y-41863108D01*
X108002545Y-42078167D01*
X107962800Y-42303567D01*
X107962800Y-42532433D01*
X108002545Y-42757833D01*
X108080820Y-42972892D01*
X108080824Y-42972901D01*
X108195255Y-43171101D01*
X108195257Y-43171104D01*
X108342372Y-43346428D01*
X108517696Y-43493543D01*
X108517699Y-43493545D01*
X108715899Y-43607976D01*
X108715908Y-43607980D01*
X108930967Y-43686255D01*
X109156367Y-43726000D01*
X109385233Y-43726000D01*
X109610633Y-43686255D01*
X109825692Y-43607980D01*
X109825701Y-43607976D01*
X110023901Y-43493545D01*
X110023904Y-43493543D01*
X110199228Y-43346428D01*
X110262255Y-43271316D01*
X110321365Y-43231990D01*
X110392352Y-43230864D01*
X110452680Y-43268296D01*
X110484776Y-43352308D01*
X110484776Y-46560987D01*
X110464774Y-46629108D01*
X110411118Y-46675601D01*
X110365588Y-46682424D01*
X109630010Y-47418000D01*
X110365756Y-48153744D01*
X110412479Y-48161030D01*
X110465577Y-48208159D01*
X110484776Y-48275013D01*
X110484776Y-50874358D01*
X110464774Y-50942479D01*
X110411118Y-50988972D01*
X110340844Y-50999076D01*
X110269681Y-50963453D01*
X110162542Y-50856314D01*
X110128516Y-50794002D01*
X110127551Y-50745340D01*
X110147000Y-50635034D01*
X110147000Y-50406167D01*
X110107255Y-50180767D01*
X110028980Y-49965708D01*
X110028976Y-49965699D01*
X109914545Y-49767499D01*
X109914543Y-49767496D01*
X109767428Y-49592172D01*
X109592104Y-49445057D01*
X109592101Y-49445055D01*
X109393901Y-49330624D01*
X109393892Y-49330620D01*
X109178833Y-49252345D01*
X108953433Y-49212600D01*
X108863501Y-49212600D01*
X108795380Y-49192598D01*
X108748887Y-49138942D01*
X108737501Y-49086600D01*
X108737501Y-48795786D01*
X108757503Y-48727665D01*
X108811159Y-48681172D01*
X108906596Y-48677385D01*
X108930966Y-48686255D01*
X109156367Y-48726000D01*
X109385233Y-48726000D01*
X109610633Y-48686255D01*
X109825692Y-48607980D01*
X109825700Y-48607976D01*
X110000591Y-48507002D01*
X109000685Y-47507095D01*
X108966659Y-47444783D01*
X108971724Y-47373967D01*
X109000685Y-47328905D01*
X109270800Y-47058790D01*
X110000591Y-46328998D01*
X109825700Y-46228024D01*
X109825692Y-46228020D01*
X109610633Y-46149745D01*
X109385233Y-46110000D01*
X109156367Y-46110000D01*
X108930966Y-46149745D01*
X108906596Y-46158615D01*
X108835742Y-46163118D01*
X108773702Y-46128600D01*
X108737501Y-46040214D01*
X108737501Y-45164766D01*
X108740608Y-45136959D01*
X108742410Y-45128996D01*
X108742410Y-45128993D01*
X108737743Y-45053768D01*
X108737501Y-45045966D01*
X108737501Y-45022255D01*
X108737500Y-45022241D01*
X108735196Y-45006159D01*
X108734164Y-44996089D01*
X108730022Y-44929305D01*
X108730021Y-44929298D01*
X108724737Y-44914662D01*
X108718523Y-44889739D01*
X108716318Y-44874340D01*
X108688617Y-44813415D01*
X108684804Y-44804047D01*
X108662082Y-44741106D01*
X108653543Y-44729566D01*
X108640127Y-44706767D01*
X108633505Y-44692202D01*
X108633503Y-44692199D01*
X108582684Y-44633220D01*
X108576854Y-44625923D01*
X108566900Y-44612471D01*
X108566898Y-44612470D01*
X108555072Y-44600644D01*
X108548711Y-44593793D01*
X108502899Y-44540625D01*
X108491757Y-44533403D01*
X108471195Y-44516766D01*
X106304828Y-42350401D01*
X106270803Y-42288089D01*
X106275522Y-42218212D01*
X106313242Y-42114577D01*
X106313243Y-42114572D01*
X106365930Y-41855612D01*
X106375282Y-41498469D01*
X106375282Y-41498465D01*
X106336221Y-41237100D01*
X106258956Y-40984380D01*
X106145185Y-40745854D01*
X105997408Y-40526766D01*
X105997401Y-40526757D01*
X105833920Y-40348348D01*
X105802645Y-40284611D01*
X105810794Y-40214084D01*
X105855780Y-40159158D01*
X105926817Y-40137224D01*
X110358776Y-40137224D01*
X110426897Y-40157226D01*
G37*
%TD.AperFunction*%
%TD*%
M02*
