M48
; DRILL file {KiCad (5.99.0-2889-g3ddee6503)} date Thu Aug 20 10:41:52 2020
; FORMAT={-:-/ absolute / inch / decimal}
; #@! TF.CreationDate,2020-08-20T10:41:52+03:00
; #@! TF.GenerationSoftware,Kicad,Pcbnew,(5.99.0-2889-g3ddee6503)
; #@! TF.FileFunction,Plated,1,2,PTH
FMAT,2
INCH
T1C0.0157
T2C0.0315
T3C0.0354
T4C0.0394
T5C0.0433
T6C0.0472
T7C0.0551
%
G90
G05
T1
X3.682Y-1.829
X3.707Y-2.096
X3.774Y-1.969
X3.806Y-2.743
X3.819Y-2.048
X3.845Y-1.804
X3.875Y-2.418
X3.899Y-1.758
X4.021Y-1.675
X4.123Y-2.412
X4.198Y-2.729
X4.23Y-1.614
X4.252Y-2.41
T2
X4.0971Y-2.689
X4.294Y-2.689
X3.553Y-2.835
X3.7499Y-2.835
X3.699Y-2.595
X3.999Y-2.595
X3.985Y-2.109
X4.285Y-2.109
X4.097Y-2.81
X4.2939Y-2.81
X3.7Y-2.475
X4.0Y-2.475
X3.699Y-2.715
X3.999Y-2.715
X3.554Y-2.109
X3.854Y-2.109
X3.7Y-2.23
X4.0Y-2.23
X4.075Y-1.813
X4.1734Y-1.813
X4.302Y-1.67
X4.302Y-1.8669
X3.7Y-2.355
X4.0Y-2.355
X3.554Y-1.987
X3.854Y-1.987
X3.985Y-1.989
X4.285Y-1.989
T3
X3.865Y-2.82
X3.965Y-2.82
T4
X4.096Y-2.527
X4.196Y-2.527
X4.296Y-2.527
X4.095Y-2.296
X4.195Y-2.296
X4.295Y-2.296
T5
X3.552Y-1.629
X3.552Y-1.729
X3.766Y-2.972
X3.866Y-2.972
X3.966Y-2.972
X4.066Y-2.972
X3.554Y-1.863
X3.954Y-1.863
T6
X4.282Y-2.972
X3.551Y-2.223
X3.551Y-2.323
X3.551Y-2.423
X3.551Y-2.523
X3.551Y-2.623
X3.551Y-2.723
X3.552Y-2.972
X3.652Y-2.972
X4.182Y-2.972
T7
X3.718Y-1.639
X3.918Y-1.639
X4.118Y-1.639
T0
M30
