%TF.GenerationSoftware,KiCad,Pcbnew,(5.99.0-2858-ga3fc028c9)*%
%TF.CreationDate,2020-08-19T12:09:39+03:00*%
%TF.ProjectId,leo-fuzz-box,6c656f2d-6675-47a7-9a2d-626f782e6b69,rev?*%
%TF.SameCoordinates,Original*%
%TF.FileFunction,Soldermask,Bot*%
%TF.FilePolarity,Negative*%
%FSLAX46Y46*%
G04 Gerber Fmt 4.6, Leading zero omitted, Abs format (unit mm)*
G04 Created by KiCad (PCBNEW (5.99.0-2858-ga3fc028c9)) date 2020-08-19 12:09:39*
%MOMM*%
%LPD*%
G01*
G04 APERTURE LIST*
%ADD10O,2.200000X2.200000*%
%ADD11R,2.200000X2.200000*%
%ADD12C,1.600000*%
%ADD13R,1.600000X1.600000*%
%ADD14O,1.930400X1.930400*%
%ADD15R,1.930400X1.930400*%
%ADD16O,2.032000X2.032000*%
%ADD17R,2.032000X2.032000*%
%ADD18O,2.540000X2.540000*%
%ADD19R,2.540000X2.540000*%
%ADD20O,1.600000X1.600000*%
%ADD21C,1.800000*%
%ADD22R,1.800000X1.800000*%
G04 APERTURE END LIST*
D10*
%TO.C,D2*%
X105537000Y-44069000D03*
D11*
X95377000Y-44069000D03*
%TD*%
D12*
%TO.C,C5*%
X89956000Y-42799000D03*
D13*
X92456000Y-42799000D03*
%TD*%
D12*
%TO.C,C4*%
X95449400Y-47320200D03*
X90449400Y-47320200D03*
%TD*%
D14*
%TO.C,Q2*%
X109093000Y-60325000D03*
X106553000Y-60325000D03*
D15*
X104013000Y-60325000D03*
%TD*%
D14*
%TO.C,Q1*%
X108966000Y-54737000D03*
X106426000Y-54737000D03*
D15*
X103886000Y-54737000D03*
%TD*%
D16*
%TO.C,SW1*%
X90220800Y-71399400D03*
X90220800Y-68859400D03*
X90220800Y-66319400D03*
X90220800Y-63779400D03*
X90220800Y-61239400D03*
D17*
X90220800Y-58699400D03*
%TD*%
D18*
%TO.C,RV6*%
X104546400Y-39471600D03*
X99466400Y-39471600D03*
D19*
X94386400Y-39471600D03*
%TD*%
D20*
%TO.C,R99*%
X93954600Y-65913000D03*
D12*
X101574600Y-65913000D03*
%TD*%
D20*
%TO.C,R9*%
X101574600Y-68961000D03*
D12*
X93954600Y-68961000D03*
%TD*%
D20*
%TO.C,R8*%
X107823000Y-47345600D03*
D12*
X100203000Y-47345600D03*
%TD*%
D20*
%TO.C,R7*%
X97790000Y-50419000D03*
D12*
X90170000Y-50419000D03*
%TD*%
D20*
%TO.C,R5*%
X100203000Y-50419000D03*
D12*
X107823000Y-50419000D03*
%TD*%
D20*
%TO.C,R4*%
X97790000Y-53594000D03*
D12*
X90170000Y-53594000D03*
%TD*%
D20*
%TO.C,R3*%
X93980000Y-56642000D03*
D12*
X101600000Y-56642000D03*
%TD*%
D20*
%TO.C,R2*%
X101574600Y-59690000D03*
D12*
X93954600Y-59690000D03*
%TD*%
D20*
%TO.C,R1*%
X101574600Y-62865000D03*
D12*
X93954600Y-62865000D03*
%TD*%
D14*
%TO.C,J4*%
X109474000Y-39243000D03*
D15*
X109474000Y-41783000D03*
%TD*%
%TO.C,J3*%
X106222800Y-75488800D03*
D14*
X108762800Y-75488800D03*
%TD*%
%TO.C,J2*%
X103276400Y-75488800D03*
X100736400Y-75488800D03*
X98196400Y-75488800D03*
D15*
X95656400Y-75488800D03*
%TD*%
%TO.C,J1*%
X90220800Y-75488800D03*
D14*
X92760800Y-75488800D03*
%TD*%
D21*
%TO.C,D1*%
X98171000Y-71628000D03*
D22*
X100711000Y-71628000D03*
%TD*%
D12*
%TO.C,C3*%
X104067600Y-65278000D03*
X109067600Y-65278000D03*
%TD*%
%TO.C,C2*%
X109063800Y-68326000D03*
X104063800Y-68326000D03*
%TD*%
%TO.C,C1*%
X104056800Y-71374000D03*
X109056800Y-71374000D03*
%TD*%
M02*
