M48
; DRILL file {KiCad (5.99.0-2858-ga3fc028c9)} date Wed Aug 19 12:09:41 2020
; FORMAT={-:-/ absolute / inch / decimal}
; #@! TF.CreationDate,2020-08-19T12:09:41+03:00
; #@! TF.GenerationSoftware,Kicad,Pcbnew,(5.99.0-2858-ga3fc028c9)
; #@! TF.FileFunction,Plated,1,2,PTH
FMAT,2
INCH
T1C0.0315
T2C0.0354
T3C0.0394
T4C0.0433
T5C0.0472
T6C0.0551
%
G90
G05
T1
X3.945Y-1.864
X4.0971Y-2.57
X4.294Y-2.57
X3.561Y-1.863
X3.7579Y-1.863
X4.0967Y-2.81
X4.2936Y-2.81
X4.097Y-2.69
X4.2939Y-2.69
X3.7Y-2.23
X4.0Y-2.23
X3.699Y-2.475
X3.55Y-2.11
X3.85Y-2.11
X3.5416Y-1.685
X3.64Y-1.685
X3.999Y-2.475
X3.945Y-1.985
X4.245Y-1.985
X3.699Y-2.35
X3.999Y-2.35
X3.55Y-1.985
X3.85Y-1.985
X4.245Y-1.864
X3.699Y-2.595
X3.999Y-2.595
X3.699Y-2.715
X3.999Y-2.715
T2
X3.865Y-2.82
X3.965Y-2.82
T3
X4.09Y-2.155
X4.19Y-2.155
X4.29Y-2.155
X4.095Y-2.375
X4.195Y-2.375
X4.295Y-2.375
T4
X4.155Y-1.735
X4.31Y-1.645
X3.755Y-1.735
X4.31Y-1.545
X3.766Y-2.972
X3.866Y-2.972
X3.966Y-2.972
X4.066Y-2.972
T5
X4.182Y-2.972
X4.282Y-2.972
X3.552Y-2.311
X3.552Y-2.411
X3.552Y-2.511
X3.552Y-2.611
X3.552Y-2.711
X3.552Y-2.811
X3.552Y-2.972
X3.652Y-2.972
T6
X3.716Y-1.554
X3.916Y-1.554
X4.116Y-1.554
T0
M30
