%TF.GenerationSoftware,KiCad,Pcbnew,(5.99.0-2889-g3ddee6503)*%
%TF.CreationDate,2020-08-20T10:41:50+03:00*%
%TF.ProjectId,leo-fuzz-box,6c656f2d-6675-47a7-9a2d-626f782e6b69,rev?*%
%TF.SameCoordinates,Original*%
%TF.FileFunction,Legend,Bot*%
%TF.FilePolarity,Positive*%
%FSLAX46Y46*%
G04 Gerber Fmt 4.6, Leading zero omitted, Abs format (unit mm)*
G04 Created by KiCad (PCBNEW (5.99.0-2889-g3ddee6503)) date 2020-08-20 10:41:50*
%MOMM*%
%LPD*%
G01*
G04 APERTURE LIST*
%ADD10C,0.127000*%
%ADD11C,0.150000*%
%ADD12C,0.300000*%
%ADD13C,0.100000*%
%ADD14C,0.120000*%
%ADD15O,1.930400X1.930400*%
%ADD16R,1.930400X1.930400*%
%ADD17C,1.600000*%
%ADD18O,1.600000X1.600000*%
%ADD19R,2.540000X2.540000*%
%ADD20O,2.540000X2.540000*%
%ADD21R,1.600000X1.600000*%
%ADD22R,2.032000X2.032000*%
%ADD23O,2.032000X2.032000*%
%ADD24R,2.200000X2.200000*%
%ADD25O,2.200000X2.200000*%
%ADD26R,1.800000X1.800000*%
%ADD27C,1.800000*%
G04 APERTURE END LIST*
D10*
X104956085Y-53370028D02*
X104289419Y-53191457D01*
X104956085Y-53012885D01*
X105289419Y-52584314D02*
X105289419Y-52512885D01*
X105241800Y-52441457D01*
X105194180Y-52405742D01*
X105098942Y-52370028D01*
X104908466Y-52334314D01*
X104670371Y-52334314D01*
X104479895Y-52370028D01*
X104384657Y-52405742D01*
X104337038Y-52441457D01*
X104289419Y-52512885D01*
X104289419Y-52584314D01*
X104337038Y-52655742D01*
X104384657Y-52691457D01*
X104479895Y-52727171D01*
X104670371Y-52762885D01*
X104908466Y-52762885D01*
X105098942Y-52727171D01*
X105194180Y-52691457D01*
X105241800Y-52655742D01*
X105289419Y-52584314D01*
X104384657Y-52012885D02*
X104337038Y-51977171D01*
X104289419Y-52012885D01*
X104337038Y-52048600D01*
X104384657Y-52012885D01*
X104289419Y-52012885D01*
X105194180Y-51691457D02*
X105241800Y-51655742D01*
X105289419Y-51584314D01*
X105289419Y-51405742D01*
X105241800Y-51334314D01*
X105194180Y-51298600D01*
X105098942Y-51262885D01*
X105003704Y-51262885D01*
X104860847Y-51298600D01*
X104289419Y-51727171D01*
X104289419Y-51262885D01*
X103584180Y-55941457D02*
X103631800Y-55905742D01*
X103679419Y-55834314D01*
X103679419Y-55655742D01*
X103631800Y-55584314D01*
X103584180Y-55548600D01*
X103488942Y-55512885D01*
X103393704Y-55512885D01*
X103250847Y-55548600D01*
X102679419Y-55977171D01*
X102679419Y-55512885D01*
X103679419Y-55048600D02*
X103679419Y-54977171D01*
X103631800Y-54905742D01*
X103584180Y-54870028D01*
X103488942Y-54834314D01*
X103298466Y-54798600D01*
X103060371Y-54798600D01*
X102869895Y-54834314D01*
X102774657Y-54870028D01*
X102727038Y-54905742D01*
X102679419Y-54977171D01*
X102679419Y-55048600D01*
X102727038Y-55120028D01*
X102774657Y-55155742D01*
X102869895Y-55191457D01*
X103060371Y-55227171D01*
X103298466Y-55227171D01*
X103488942Y-55191457D01*
X103584180Y-55155742D01*
X103631800Y-55120028D01*
X103679419Y-55048600D01*
X103584180Y-54512885D02*
X103631800Y-54477171D01*
X103679419Y-54405742D01*
X103679419Y-54227171D01*
X103631800Y-54155742D01*
X103584180Y-54120028D01*
X103488942Y-54084314D01*
X103393704Y-54084314D01*
X103250847Y-54120028D01*
X102679419Y-54548600D01*
X102679419Y-54084314D01*
X103679419Y-53620028D02*
X103679419Y-53548600D01*
X103631800Y-53477171D01*
X103584180Y-53441457D01*
X103488942Y-53405742D01*
X103298466Y-53370028D01*
X103060371Y-53370028D01*
X102869895Y-53405742D01*
X102774657Y-53441457D01*
X102727038Y-53477171D01*
X102679419Y-53548600D01*
X102679419Y-53620028D01*
X102727038Y-53691457D01*
X102774657Y-53727171D01*
X102869895Y-53762885D01*
X103060371Y-53798600D01*
X103298466Y-53798600D01*
X103488942Y-53762885D01*
X103584180Y-53727171D01*
X103631800Y-53691457D01*
X103679419Y-53620028D01*
X103060371Y-53048600D02*
X103060371Y-52477171D01*
X103679419Y-51977171D02*
X103679419Y-51905742D01*
X103631800Y-51834314D01*
X103584180Y-51798600D01*
X103488942Y-51762885D01*
X103298466Y-51727171D01*
X103060371Y-51727171D01*
X102869895Y-51762885D01*
X102774657Y-51798600D01*
X102727038Y-51834314D01*
X102679419Y-51905742D01*
X102679419Y-51977171D01*
X102727038Y-52048600D01*
X102774657Y-52084314D01*
X102869895Y-52120028D01*
X103060371Y-52155742D01*
X103298466Y-52155742D01*
X103488942Y-52120028D01*
X103584180Y-52084314D01*
X103631800Y-52048600D01*
X103679419Y-51977171D01*
X103250847Y-51298600D02*
X103298466Y-51370028D01*
X103346085Y-51405742D01*
X103441323Y-51441457D01*
X103488942Y-51441457D01*
X103584180Y-51405742D01*
X103631800Y-51370028D01*
X103679419Y-51298600D01*
X103679419Y-51155742D01*
X103631800Y-51084314D01*
X103584180Y-51048600D01*
X103488942Y-51012885D01*
X103441323Y-51012885D01*
X103346085Y-51048600D01*
X103298466Y-51084314D01*
X103250847Y-51155742D01*
X103250847Y-51298600D01*
X103203228Y-51370028D01*
X103155609Y-51405742D01*
X103060371Y-51441457D01*
X102869895Y-51441457D01*
X102774657Y-51405742D01*
X102727038Y-51370028D01*
X102679419Y-51298600D01*
X102679419Y-51155742D01*
X102727038Y-51084314D01*
X102774657Y-51048600D01*
X102869895Y-51012885D01*
X103060371Y-51012885D01*
X103155609Y-51048600D01*
X103203228Y-51084314D01*
X103250847Y-51155742D01*
X103060371Y-50691457D02*
X103060371Y-50120028D01*
X103584180Y-49798600D02*
X103631800Y-49762885D01*
X103679419Y-49691457D01*
X103679419Y-49512885D01*
X103631800Y-49441457D01*
X103584180Y-49405742D01*
X103488942Y-49370028D01*
X103393704Y-49370028D01*
X103250847Y-49405742D01*
X102679419Y-49834314D01*
X102679419Y-49370028D01*
X103679419Y-48905742D02*
X103679419Y-48834314D01*
X103631800Y-48762885D01*
X103584180Y-48727171D01*
X103488942Y-48691457D01*
X103298466Y-48655742D01*
X103060371Y-48655742D01*
X102869895Y-48691457D01*
X102774657Y-48727171D01*
X102727038Y-48762885D01*
X102679419Y-48834314D01*
X102679419Y-48905742D01*
X102727038Y-48977171D01*
X102774657Y-49012885D01*
X102869895Y-49048600D01*
X103060371Y-49084314D01*
X103298466Y-49084314D01*
X103488942Y-49048600D01*
X103584180Y-49012885D01*
X103631800Y-48977171D01*
X103679419Y-48905742D01*
X96246971Y-40962228D02*
X96589828Y-40962228D01*
X96418400Y-40962228D02*
X96418400Y-40362228D01*
X96475542Y-40447942D01*
X96532685Y-40505085D01*
X96589828Y-40533657D01*
D11*
X92006742Y-59902628D02*
X92006742Y-59445485D01*
X91778171Y-59674057D02*
X92235314Y-59674057D01*
X91778171Y-59131200D02*
X91778171Y-59016914D01*
X91806742Y-58959771D01*
X91835314Y-58931200D01*
X91921028Y-58874057D01*
X92035314Y-58845485D01*
X92263885Y-58845485D01*
X92321028Y-58874057D01*
X92349600Y-58902628D01*
X92378171Y-58959771D01*
X92378171Y-59074057D01*
X92349600Y-59131200D01*
X92321028Y-59159771D01*
X92263885Y-59188342D01*
X92121028Y-59188342D01*
X92063885Y-59159771D01*
X92035314Y-59131200D01*
X92006742Y-59074057D01*
X92006742Y-58959771D01*
X92035314Y-58902628D01*
X92063885Y-58874057D01*
X92121028Y-58845485D01*
X92378171Y-58674057D02*
X91778171Y-58474057D01*
X92378171Y-58274057D01*
D12*
X96705028Y-67702933D02*
X96705028Y-68369600D01*
X98205028Y-68369600D01*
X96776457Y-66702933D02*
X96705028Y-66836266D01*
X96705028Y-67102933D01*
X96776457Y-67236266D01*
X96919314Y-67302933D01*
X97490742Y-67302933D01*
X97633600Y-67236266D01*
X97705028Y-67102933D01*
X97705028Y-66836266D01*
X97633600Y-66702933D01*
X97490742Y-66636266D01*
X97347885Y-66636266D01*
X97205028Y-67302933D01*
X96705028Y-65836266D02*
X96776457Y-65969600D01*
X96847885Y-66036266D01*
X96990742Y-66102933D01*
X97419314Y-66102933D01*
X97562171Y-66036266D01*
X97633600Y-65969600D01*
X97705028Y-65836266D01*
X97705028Y-65636266D01*
X97633600Y-65502933D01*
X97562171Y-65436266D01*
X97419314Y-65369600D01*
X96990742Y-65369600D01*
X96847885Y-65436266D01*
X96776457Y-65502933D01*
X96705028Y-65636266D01*
X96705028Y-65836266D01*
X97490742Y-63236266D02*
X97490742Y-63702933D01*
X96705028Y-63702933D02*
X98205028Y-63702933D01*
X98205028Y-63036266D01*
X97705028Y-61902933D02*
X96705028Y-61902933D01*
X97705028Y-62502933D02*
X96919314Y-62502933D01*
X96776457Y-62436266D01*
X96705028Y-62302933D01*
X96705028Y-62102933D01*
X96776457Y-61969600D01*
X96847885Y-61902933D01*
X97705028Y-61369600D02*
X97705028Y-60636266D01*
X96705028Y-61369600D01*
X96705028Y-60636266D01*
X97705028Y-60236266D02*
X97705028Y-59502933D01*
X96705028Y-60236266D01*
X96705028Y-59502933D01*
X97490742Y-57436266D02*
X97419314Y-57236266D01*
X97347885Y-57169600D01*
X97205028Y-57102933D01*
X96990742Y-57102933D01*
X96847885Y-57169600D01*
X96776457Y-57236266D01*
X96705028Y-57369600D01*
X96705028Y-57902933D01*
X98205028Y-57902933D01*
X98205028Y-57436266D01*
X98133600Y-57302933D01*
X98062171Y-57236266D01*
X97919314Y-57169600D01*
X97776457Y-57169600D01*
X97633600Y-57236266D01*
X97562171Y-57302933D01*
X97490742Y-57436266D01*
X97490742Y-57902933D01*
X96705028Y-56302933D02*
X96776457Y-56436266D01*
X96847885Y-56502933D01*
X96990742Y-56569600D01*
X97419314Y-56569600D01*
X97562171Y-56502933D01*
X97633600Y-56436266D01*
X97705028Y-56302933D01*
X97705028Y-56102933D01*
X97633600Y-55969600D01*
X97562171Y-55902933D01*
X97419314Y-55836266D01*
X96990742Y-55836266D01*
X96847885Y-55902933D01*
X96776457Y-55969600D01*
X96705028Y-56102933D01*
X96705028Y-56302933D01*
X96705028Y-55369600D02*
X97705028Y-54636266D01*
X97705028Y-55369600D02*
X96705028Y-54636266D01*
D11*
X92432933Y-69894466D02*
X92432933Y-70027800D01*
X92399600Y-70094466D01*
X92366266Y-70127800D01*
X92266266Y-70194466D01*
X92132933Y-70227800D01*
X91866266Y-70227800D01*
X91799600Y-70194466D01*
X91766266Y-70161133D01*
X91732933Y-70094466D01*
X91732933Y-69961133D01*
X91766266Y-69894466D01*
X91799600Y-69861133D01*
X91866266Y-69827800D01*
X92032933Y-69827800D01*
X92099600Y-69861133D01*
X92132933Y-69894466D01*
X92166266Y-69961133D01*
X92166266Y-70094466D01*
X92132933Y-70161133D01*
X92099600Y-70194466D01*
X92032933Y-70227800D01*
D10*
X110593171Y-70085600D02*
X110107457Y-70085600D01*
X110050314Y-70114171D01*
X110021742Y-70142742D01*
X109993171Y-70199885D01*
X109993171Y-70285600D01*
X110021742Y-70342742D01*
X110221742Y-70085600D02*
X110193171Y-70142742D01*
X110193171Y-70257028D01*
X110221742Y-70314171D01*
X110250314Y-70342742D01*
X110307457Y-70371314D01*
X110478885Y-70371314D01*
X110536028Y-70342742D01*
X110564600Y-70314171D01*
X110593171Y-70257028D01*
X110593171Y-70142742D01*
X110564600Y-70085600D01*
X110193171Y-69799885D02*
X110593171Y-69799885D01*
X110793171Y-69799885D02*
X110764600Y-69828457D01*
X110736028Y-69799885D01*
X110764600Y-69771314D01*
X110793171Y-69799885D01*
X110736028Y-69799885D01*
X110593171Y-69599885D02*
X110593171Y-69371314D01*
X110793171Y-69514171D02*
X110278885Y-69514171D01*
X110221742Y-69485600D01*
X110193171Y-69428457D01*
X110193171Y-69371314D01*
X110193171Y-69171314D02*
X110793171Y-69171314D01*
X110193171Y-68914171D02*
X110507457Y-68914171D01*
X110564600Y-68942742D01*
X110593171Y-68999885D01*
X110593171Y-69085600D01*
X110564600Y-69142742D01*
X110536028Y-69171314D01*
X110593171Y-68371314D02*
X110193171Y-68371314D01*
X110593171Y-68628457D02*
X110278885Y-68628457D01*
X110221742Y-68599885D01*
X110193171Y-68542742D01*
X110193171Y-68457028D01*
X110221742Y-68399885D01*
X110250314Y-68371314D01*
X110193171Y-68085600D02*
X110793171Y-68085600D01*
X110564600Y-68085600D02*
X110593171Y-68028457D01*
X110593171Y-67914171D01*
X110564600Y-67857028D01*
X110536028Y-67828457D01*
X110478885Y-67799885D01*
X110307457Y-67799885D01*
X110250314Y-67828457D01*
X110221742Y-67857028D01*
X110193171Y-67914171D01*
X110193171Y-68028457D01*
X110221742Y-68085600D01*
X110250314Y-67542742D02*
X110221742Y-67514171D01*
X110193171Y-67542742D01*
X110221742Y-67571314D01*
X110250314Y-67542742D01*
X110193171Y-67542742D01*
X110221742Y-66999885D02*
X110193171Y-67057028D01*
X110193171Y-67171314D01*
X110221742Y-67228457D01*
X110250314Y-67257028D01*
X110307457Y-67285600D01*
X110478885Y-67285600D01*
X110536028Y-67257028D01*
X110564600Y-67228457D01*
X110593171Y-67171314D01*
X110593171Y-67057028D01*
X110564600Y-66999885D01*
X110193171Y-66657028D02*
X110221742Y-66714171D01*
X110250314Y-66742742D01*
X110307457Y-66771314D01*
X110478885Y-66771314D01*
X110536028Y-66742742D01*
X110564600Y-66714171D01*
X110593171Y-66657028D01*
X110593171Y-66571314D01*
X110564600Y-66514171D01*
X110536028Y-66485600D01*
X110478885Y-66457028D01*
X110307457Y-66457028D01*
X110250314Y-66485600D01*
X110221742Y-66514171D01*
X110193171Y-66571314D01*
X110193171Y-66657028D01*
X110193171Y-66199885D02*
X110593171Y-66199885D01*
X110536028Y-66199885D02*
X110564600Y-66171314D01*
X110593171Y-66114171D01*
X110593171Y-66028457D01*
X110564600Y-65971314D01*
X110507457Y-65942742D01*
X110193171Y-65942742D01*
X110507457Y-65942742D02*
X110564600Y-65914171D01*
X110593171Y-65857028D01*
X110593171Y-65771314D01*
X110564600Y-65714171D01*
X110507457Y-65685600D01*
X110193171Y-65685600D01*
X110821742Y-64971314D02*
X110050314Y-65485600D01*
X110193171Y-64771314D02*
X110593171Y-64771314D01*
X110478885Y-64771314D02*
X110536028Y-64742742D01*
X110564600Y-64714171D01*
X110593171Y-64657028D01*
X110593171Y-64599885D01*
X110193171Y-64314171D02*
X110221742Y-64371314D01*
X110250314Y-64399885D01*
X110307457Y-64428457D01*
X110478885Y-64428457D01*
X110536028Y-64399885D01*
X110564600Y-64371314D01*
X110593171Y-64314171D01*
X110593171Y-64228457D01*
X110564600Y-64171314D01*
X110536028Y-64142742D01*
X110478885Y-64114171D01*
X110307457Y-64114171D01*
X110250314Y-64142742D01*
X110221742Y-64171314D01*
X110193171Y-64228457D01*
X110193171Y-64314171D01*
X110221742Y-63599885D02*
X110193171Y-63657028D01*
X110193171Y-63771314D01*
X110221742Y-63828457D01*
X110250314Y-63857028D01*
X110307457Y-63885600D01*
X110478885Y-63885600D01*
X110536028Y-63857028D01*
X110564600Y-63828457D01*
X110593171Y-63771314D01*
X110593171Y-63657028D01*
X110564600Y-63599885D01*
X110193171Y-63342742D02*
X110793171Y-63342742D01*
X110421742Y-63285600D02*
X110193171Y-63114171D01*
X110593171Y-63114171D02*
X110364600Y-63342742D01*
X110193171Y-62771314D02*
X110221742Y-62828457D01*
X110250314Y-62857028D01*
X110307457Y-62885600D01*
X110478885Y-62885600D01*
X110536028Y-62857028D01*
X110564600Y-62828457D01*
X110593171Y-62771314D01*
X110593171Y-62685600D01*
X110564600Y-62628457D01*
X110536028Y-62599885D01*
X110478885Y-62571314D01*
X110307457Y-62571314D01*
X110250314Y-62599885D01*
X110221742Y-62628457D01*
X110193171Y-62685600D01*
X110193171Y-62771314D01*
X110193171Y-62228457D02*
X110221742Y-62285600D01*
X110278885Y-62314171D01*
X110793171Y-62314171D01*
X110193171Y-61742742D02*
X110507457Y-61742742D01*
X110564600Y-61771314D01*
X110593171Y-61828457D01*
X110593171Y-61942742D01*
X110564600Y-61999885D01*
X110221742Y-61742742D02*
X110193171Y-61799885D01*
X110193171Y-61942742D01*
X110221742Y-61999885D01*
X110278885Y-62028457D01*
X110336028Y-62028457D01*
X110393171Y-61999885D01*
X110421742Y-61942742D01*
X110421742Y-61799885D01*
X110450314Y-61742742D01*
X110821742Y-61028457D02*
X110050314Y-61542742D01*
X110193171Y-60742742D02*
X110221742Y-60799885D01*
X110278885Y-60828457D01*
X110793171Y-60828457D01*
X110221742Y-60285600D02*
X110193171Y-60342742D01*
X110193171Y-60457028D01*
X110221742Y-60514171D01*
X110278885Y-60542742D01*
X110507457Y-60542742D01*
X110564600Y-60514171D01*
X110593171Y-60457028D01*
X110593171Y-60342742D01*
X110564600Y-60285600D01*
X110507457Y-60257028D01*
X110450314Y-60257028D01*
X110393171Y-60542742D01*
X110193171Y-59914171D02*
X110221742Y-59971314D01*
X110250314Y-59999885D01*
X110307457Y-60028457D01*
X110478885Y-60028457D01*
X110536028Y-59999885D01*
X110564600Y-59971314D01*
X110593171Y-59914171D01*
X110593171Y-59828457D01*
X110564600Y-59771314D01*
X110536028Y-59742742D01*
X110478885Y-59714171D01*
X110307457Y-59714171D01*
X110250314Y-59742742D01*
X110221742Y-59771314D01*
X110193171Y-59828457D01*
X110193171Y-59914171D01*
X110421742Y-59457028D02*
X110421742Y-58999885D01*
X110593171Y-58799885D02*
X110593171Y-58571314D01*
X110193171Y-58714171D02*
X110707457Y-58714171D01*
X110764600Y-58685600D01*
X110793171Y-58628457D01*
X110793171Y-58571314D01*
X110593171Y-58114171D02*
X110193171Y-58114171D01*
X110593171Y-58371314D02*
X110278885Y-58371314D01*
X110221742Y-58342742D01*
X110193171Y-58285600D01*
X110193171Y-58199885D01*
X110221742Y-58142742D01*
X110250314Y-58114171D01*
X110593171Y-57885600D02*
X110593171Y-57571314D01*
X110193171Y-57885600D01*
X110193171Y-57571314D01*
X110593171Y-57399885D02*
X110593171Y-57085600D01*
X110193171Y-57399885D01*
X110193171Y-57085600D01*
X110421742Y-56857028D02*
X110421742Y-56399885D01*
X110193171Y-56114171D02*
X110793171Y-56114171D01*
X110564600Y-56114171D02*
X110593171Y-56057028D01*
X110593171Y-55942742D01*
X110564600Y-55885600D01*
X110536028Y-55857028D01*
X110478885Y-55828457D01*
X110307457Y-55828457D01*
X110250314Y-55857028D01*
X110221742Y-55885600D01*
X110193171Y-55942742D01*
X110193171Y-56057028D01*
X110221742Y-56114171D01*
X110193171Y-55485600D02*
X110221742Y-55542742D01*
X110250314Y-55571314D01*
X110307457Y-55599885D01*
X110478885Y-55599885D01*
X110536028Y-55571314D01*
X110564600Y-55542742D01*
X110593171Y-55485600D01*
X110593171Y-55399885D01*
X110564600Y-55342742D01*
X110536028Y-55314171D01*
X110478885Y-55285600D01*
X110307457Y-55285600D01*
X110250314Y-55314171D01*
X110221742Y-55342742D01*
X110193171Y-55399885D01*
X110193171Y-55485600D01*
X110193171Y-55085600D02*
X110593171Y-54771314D01*
X110593171Y-55085600D02*
X110193171Y-54771314D01*
D11*
X91783733Y-55324400D02*
X91783733Y-55724400D01*
X91783733Y-55524400D02*
X92483733Y-55524400D01*
X92383733Y-55591066D01*
X92317066Y-55657733D01*
X92283733Y-55724400D01*
%TO.C,J1*%
X92036847Y-73945704D02*
X92036847Y-73145704D01*
X91655895Y-73945704D02*
X91655895Y-73145704D01*
X91198752Y-73945704D01*
X91198752Y-73145704D01*
%TO.C,RV6*%
X102188542Y-43997571D02*
X102521876Y-43997571D01*
X102521876Y-44521380D02*
X102521876Y-43521380D01*
X102045685Y-43521380D01*
X101236161Y-43854714D02*
X101236161Y-44521380D01*
X101664733Y-43854714D02*
X101664733Y-44378523D01*
X101617114Y-44473761D01*
X101521876Y-44521380D01*
X101379019Y-44521380D01*
X101283780Y-44473761D01*
X101236161Y-44426142D01*
X100855209Y-43854714D02*
X100331400Y-43854714D01*
X100855209Y-44521380D01*
X100331400Y-44521380D01*
X100045685Y-43854714D02*
X99521876Y-43854714D01*
X100045685Y-44521380D01*
X99521876Y-44521380D01*
X98045685Y-43997571D02*
X97902828Y-44045190D01*
X97855209Y-44092809D01*
X97807590Y-44188047D01*
X97807590Y-44330904D01*
X97855209Y-44426142D01*
X97902828Y-44473761D01*
X97998066Y-44521380D01*
X98379019Y-44521380D01*
X98379019Y-43521380D01*
X98045685Y-43521380D01*
X97950447Y-43569000D01*
X97902828Y-43616619D01*
X97855209Y-43711857D01*
X97855209Y-43807095D01*
X97902828Y-43902333D01*
X97950447Y-43949952D01*
X98045685Y-43997571D01*
X98379019Y-43997571D01*
X96902828Y-43521380D02*
X97379019Y-43521380D01*
X97426638Y-43997571D01*
X97379019Y-43949952D01*
X97283780Y-43902333D01*
X97045685Y-43902333D01*
X96950447Y-43949952D01*
X96902828Y-43997571D01*
X96855209Y-44092809D01*
X96855209Y-44330904D01*
X96902828Y-44426142D01*
X96950447Y-44473761D01*
X97045685Y-44521380D01*
X97283780Y-44521380D01*
X97379019Y-44473761D01*
X97426638Y-44426142D01*
X96236161Y-43521380D02*
X96140923Y-43521380D01*
X96045685Y-43569000D01*
X95998066Y-43616619D01*
X95950447Y-43711857D01*
X95902828Y-43902333D01*
X95902828Y-44140428D01*
X95950447Y-44330904D01*
X95998066Y-44426142D01*
X96045685Y-44473761D01*
X96140923Y-44521380D01*
X96236161Y-44521380D01*
X96331400Y-44473761D01*
X96379019Y-44426142D01*
X96426638Y-44330904D01*
X96474257Y-44140428D01*
X96474257Y-43902333D01*
X96426638Y-43711857D01*
X96379019Y-43616619D01*
X96331400Y-43569000D01*
X96236161Y-43521380D01*
X95474257Y-44521380D02*
X95474257Y-43521380D01*
X95379019Y-44140428D02*
X95093304Y-44521380D01*
X95093304Y-43854714D02*
X95474257Y-44235666D01*
%TO.C,J4*%
X92563895Y-42011504D02*
X91763895Y-41744838D01*
X92563895Y-41478171D01*
X92068657Y-41211504D02*
X92068657Y-40601980D01*
X91763895Y-40906742D02*
X92373419Y-40906742D01*
X92525800Y-44399123D02*
X92563895Y-44475314D01*
X92563895Y-44589600D01*
X92525800Y-44703885D01*
X92449609Y-44780076D01*
X92373419Y-44818171D01*
X92221038Y-44856266D01*
X92106752Y-44856266D01*
X91954371Y-44818171D01*
X91878180Y-44780076D01*
X91801990Y-44703885D01*
X91763895Y-44589600D01*
X91763895Y-44513409D01*
X91801990Y-44399123D01*
X91840085Y-44361028D01*
X92106752Y-44361028D01*
X92106752Y-44513409D01*
X91763895Y-44018171D02*
X92563895Y-44018171D01*
X91763895Y-43561028D01*
X92563895Y-43561028D01*
X91763895Y-43180076D02*
X92563895Y-43180076D01*
X92563895Y-42989600D01*
X92525800Y-42875314D01*
X92449609Y-42799123D01*
X92373419Y-42761028D01*
X92221038Y-42722933D01*
X92106752Y-42722933D01*
X91954371Y-42761028D01*
X91878180Y-42799123D01*
X91801990Y-42875314D01*
X91763895Y-42989600D01*
X91763895Y-43180076D01*
%TO.C,J2*%
X101422114Y-73907609D02*
X101307828Y-73945704D01*
X101117352Y-73945704D01*
X101041161Y-73907609D01*
X101003066Y-73869514D01*
X100964971Y-73793323D01*
X100964971Y-73717133D01*
X101003066Y-73640942D01*
X101041161Y-73602847D01*
X101117352Y-73564752D01*
X101269733Y-73526657D01*
X101345923Y-73488561D01*
X101384019Y-73450466D01*
X101422114Y-73374276D01*
X101422114Y-73298085D01*
X101384019Y-73221895D01*
X101345923Y-73183800D01*
X101269733Y-73145704D01*
X101079257Y-73145704D01*
X100964971Y-73183800D01*
X100698304Y-73145704D02*
X100507828Y-73945704D01*
X100355447Y-73374276D01*
X100203066Y-73945704D01*
X100012590Y-73145704D01*
X104076400Y-73145704D02*
X103924019Y-73145704D01*
X103847828Y-73183800D01*
X103771638Y-73259990D01*
X103733542Y-73412371D01*
X103733542Y-73679038D01*
X103771638Y-73831419D01*
X103847828Y-73907609D01*
X103924019Y-73945704D01*
X104076400Y-73945704D01*
X104152590Y-73907609D01*
X104228780Y-73831419D01*
X104266876Y-73679038D01*
X104266876Y-73412371D01*
X104228780Y-73259990D01*
X104152590Y-73183800D01*
X104076400Y-73145704D01*
X103390685Y-73145704D02*
X103390685Y-73793323D01*
X103352590Y-73869514D01*
X103314495Y-73907609D01*
X103238304Y-73945704D01*
X103085923Y-73945704D01*
X103009733Y-73907609D01*
X102971638Y-73869514D01*
X102933542Y-73793323D01*
X102933542Y-73145704D01*
X102666876Y-73145704D02*
X102209733Y-73145704D01*
X102438304Y-73945704D02*
X102438304Y-73145704D01*
X96075447Y-73945704D02*
X96075447Y-73145704D01*
X95694495Y-73945704D02*
X95694495Y-73145704D01*
X95237352Y-73945704D01*
X95237352Y-73145704D01*
X98805923Y-73183800D02*
X98882114Y-73145704D01*
X98996400Y-73145704D01*
X99110685Y-73183800D01*
X99186876Y-73259990D01*
X99224971Y-73336180D01*
X99263066Y-73488561D01*
X99263066Y-73602847D01*
X99224971Y-73755228D01*
X99186876Y-73831419D01*
X99110685Y-73907609D01*
X98996400Y-73945704D01*
X98920209Y-73945704D01*
X98805923Y-73907609D01*
X98767828Y-73869514D01*
X98767828Y-73602847D01*
X98920209Y-73602847D01*
X98424971Y-73945704D02*
X98424971Y-73145704D01*
X97967828Y-73945704D01*
X97967828Y-73145704D01*
X97586876Y-73945704D02*
X97586876Y-73145704D01*
X97396400Y-73145704D01*
X97282114Y-73183800D01*
X97205923Y-73259990D01*
X97167828Y-73336180D01*
X97129733Y-73488561D01*
X97129733Y-73602847D01*
X97167828Y-73755228D01*
X97205923Y-73831419D01*
X97282114Y-73907609D01*
X97396400Y-73945704D01*
X97586876Y-73945704D01*
%TO.C,J3*%
X108419800Y-73145704D02*
X108267419Y-73145704D01*
X108191228Y-73183800D01*
X108115038Y-73259990D01*
X108076942Y-73412371D01*
X108076942Y-73679038D01*
X108115038Y-73831419D01*
X108191228Y-73907609D01*
X108267419Y-73945704D01*
X108419800Y-73945704D01*
X108495990Y-73907609D01*
X108572180Y-73831419D01*
X108610276Y-73679038D01*
X108610276Y-73412371D01*
X108572180Y-73259990D01*
X108495990Y-73183800D01*
X108419800Y-73145704D01*
X107734085Y-73145704D02*
X107734085Y-73793323D01*
X107695990Y-73869514D01*
X107657895Y-73907609D01*
X107581704Y-73945704D01*
X107429323Y-73945704D01*
X107353133Y-73907609D01*
X107315038Y-73869514D01*
X107276942Y-73793323D01*
X107276942Y-73145704D01*
X107010276Y-73145704D02*
X106553133Y-73145704D01*
X106781704Y-73945704D02*
X106781704Y-73145704D01*
%TO.C,D1*%
X100179095Y-69120380D02*
X100179095Y-68120380D01*
X99941000Y-68120380D01*
X99798142Y-68168000D01*
X99702904Y-68263238D01*
X99655285Y-68358476D01*
X99607666Y-68548952D01*
X99607666Y-68691809D01*
X99655285Y-68882285D01*
X99702904Y-68977523D01*
X99798142Y-69072761D01*
X99941000Y-69120380D01*
X100179095Y-69120380D01*
X98655285Y-69120380D02*
X99226714Y-69120380D01*
X98941000Y-69120380D02*
X98941000Y-68120380D01*
X99036238Y-68263238D01*
X99131476Y-68358476D01*
X99226714Y-68406095D01*
D13*
X99240209Y-71949428D02*
X99240209Y-72187523D01*
X99740209Y-72187523D01*
X99502114Y-71782761D02*
X99502114Y-71616095D01*
X99240209Y-71544666D02*
X99240209Y-71782761D01*
X99740209Y-71782761D01*
X99740209Y-71544666D01*
X99240209Y-71330380D02*
X99740209Y-71330380D01*
X99740209Y-71211333D01*
X99716400Y-71139904D01*
X99668780Y-71092285D01*
X99621161Y-71068476D01*
X99525923Y-71044666D01*
X99454495Y-71044666D01*
X99359257Y-71068476D01*
X99311638Y-71092285D01*
X99264019Y-71139904D01*
X99240209Y-71211333D01*
X99240209Y-71330380D01*
D10*
X101528542Y-69934171D02*
X101528542Y-70534171D01*
X101185685Y-69934171D02*
X101442828Y-70277028D01*
X101185685Y-70534171D02*
X101528542Y-70191314D01*
%TO.C,J1*%
X94030800Y-76758800D02*
X91490800Y-76758800D01*
X91490800Y-74218800D02*
X88950800Y-74218800D01*
X94030800Y-72948800D02*
X88950800Y-72948800D01*
X94030800Y-74218800D02*
X91490800Y-74218800D01*
X94030800Y-74218800D02*
X94030800Y-72948800D01*
X94030800Y-76758800D02*
X94030800Y-74218800D01*
X91490800Y-74218800D02*
X91490800Y-76758800D01*
X88950800Y-72948800D02*
X88950800Y-74218800D01*
X88950800Y-74218800D02*
X88950800Y-76758800D01*
X91490800Y-76758800D02*
X88950800Y-76758800D01*
%TO.C,RV6*%
X103073200Y-40106600D02*
X103073200Y-43154600D01*
X101041200Y-40106600D02*
X97993200Y-40106600D01*
X95961200Y-40106600D02*
X92913200Y-40106600D01*
X95961200Y-43154600D02*
X92913200Y-43154600D01*
X106121200Y-43154600D02*
X106121200Y-40106600D01*
X99517200Y-47345600D02*
X99517200Y-65125600D01*
X106121200Y-40106600D02*
X103073200Y-40106600D01*
X106121200Y-43154600D02*
X103073200Y-43154600D01*
X101041200Y-43154600D02*
X101041200Y-40106600D01*
X97993200Y-40106600D02*
X97993200Y-43154600D01*
X107137200Y-51790600D02*
X107137200Y-43281600D01*
X108407200Y-56235600D02*
X90627200Y-56235600D01*
X91897200Y-43281600D02*
X91897200Y-51790600D01*
X92913200Y-40106600D02*
X92913200Y-43154600D01*
X107137200Y-43281600D02*
X91897200Y-43281600D01*
X95961200Y-43154600D02*
X95961200Y-40106600D01*
X101041200Y-43154600D02*
X97993200Y-43154600D01*
X99517200Y-47345600D02*
G75*
G03*
X90627200Y-56235600I0J-8890000D01*
G01*
X108407200Y-56235600D02*
G75*
G03*
X99517200Y-47345600I-8890000J0D01*
G01*
X99517198Y-65125600D02*
G75*
G03*
X108407200Y-56235600I101J8889901D01*
G01*
X90627200Y-56235598D02*
G75*
G03*
X99517200Y-65125600I8889901J-101D01*
G01*
X100415200Y-56235600D02*
G75*
G03*
X100415200Y-56235600I-898000J0D01*
G01*
%TO.C,J4*%
X88950800Y-40106600D02*
X91490800Y-40106600D01*
X88950800Y-45186600D02*
X91490800Y-45186600D01*
X91490800Y-45186600D02*
X92760800Y-45186600D01*
X91490800Y-45186600D02*
X91490800Y-40106600D01*
X91490800Y-40106600D02*
X92760800Y-40106600D01*
X88950800Y-40106600D02*
X88950800Y-45186600D01*
X92760800Y-40106600D02*
X92760800Y-45186600D01*
%TO.C,J2*%
X104546400Y-74218800D02*
X94386400Y-74218800D01*
X94386400Y-76758800D02*
X94386400Y-74218800D01*
X94386400Y-72948800D02*
X104546400Y-72948800D01*
X104546400Y-74218800D02*
X104546400Y-72948800D01*
X94386400Y-74218800D02*
X94386400Y-72948800D01*
X104546400Y-76758800D02*
X104546400Y-74218800D01*
X94386400Y-76758800D02*
X104546400Y-76758800D01*
%TO.C,J3*%
X110032800Y-74218800D02*
X107492800Y-74218800D01*
X110032800Y-72948800D02*
X104952800Y-72948800D01*
X110032800Y-76758800D02*
X110032800Y-74218800D01*
X107492800Y-76758800D02*
X104952800Y-76758800D01*
X110032800Y-76758800D02*
X107492800Y-76758800D01*
X107492800Y-74218800D02*
X107492800Y-76758800D01*
X104952800Y-72948800D02*
X104952800Y-74218800D01*
X104952800Y-74218800D02*
X104952800Y-76758800D01*
X107492800Y-74218800D02*
X104952800Y-74218800D01*
X110032800Y-74218800D02*
X110032800Y-72948800D01*
%TO.C,SW1*%
X92735400Y-55194200D02*
X91465400Y-55194200D01*
X91465400Y-70434200D02*
X92735400Y-70434200D01*
X92735400Y-70434200D02*
X92735400Y-55194200D01*
X91465400Y-70434200D02*
X91465400Y-55194200D01*
X88925400Y-55194200D02*
X88925400Y-70434200D01*
X88925400Y-55194200D02*
X91465400Y-55194200D01*
X91465400Y-70434200D02*
X88925400Y-70434200D01*
D14*
%TO.C,D1*%
X100761800Y-70104000D02*
X100761800Y-70548000D01*
X100711000Y-72745600D02*
X100711000Y-73101200D01*
X97768666Y-72706607D02*
G75*
G03*
X100711000Y-73101200I1639431J1057386D01*
G01*
X98399870Y-72707837D02*
G75*
G03*
X100481961Y-72708000I1041130J1079837D01*
G01*
X98399870Y-70548163D02*
G75*
G02*
X100481961Y-70548000I1041130J-1079837D01*
G01*
X97768666Y-70549393D02*
G75*
G02*
X100711000Y-70053200I1697655J-1094939D01*
G01*
%TD*%
%LPC*%
D15*
%TO.C,J1*%
X92760800Y-75488800D03*
D16*
X90220800Y-75488800D03*
%TD*%
D17*
%TO.C,R7*%
X90271600Y-50469800D03*
D18*
X97891600Y-50469800D03*
%TD*%
D19*
%TO.C,RV6*%
X94437200Y-41630600D03*
D20*
X99517200Y-41630600D03*
X104597200Y-41630600D03*
%TD*%
D17*
%TO.C,R9*%
X93954600Y-68961000D03*
D18*
X101574600Y-68961000D03*
%TD*%
D17*
%TO.C,C1*%
X90246200Y-72009000D03*
X95246200Y-72009000D03*
%TD*%
D16*
%TO.C,J4*%
X90220800Y-41376600D03*
D15*
X90220800Y-43916600D03*
%TD*%
D16*
%TO.C,J2*%
X95656400Y-75488800D03*
D15*
X98196400Y-75488800D03*
X100736400Y-75488800D03*
X103276400Y-75488800D03*
%TD*%
D17*
%TO.C,C4*%
X109270800Y-42418000D03*
X109270800Y-47418000D03*
%TD*%
%TO.C,C3*%
X109067600Y-68300600D03*
X104067600Y-68300600D03*
%TD*%
D21*
%TO.C,C5*%
X103505000Y-46050200D03*
D17*
X106005000Y-46050200D03*
%TD*%
D16*
%TO.C,Q1*%
X109093000Y-58318400D03*
D15*
X106553000Y-58318400D03*
X104013000Y-58318400D03*
%TD*%
%TO.C,J3*%
X108762800Y-75488800D03*
D16*
X106222800Y-75488800D03*
%TD*%
D17*
%TO.C,R5*%
X101219000Y-50520600D03*
D18*
X108839000Y-50520600D03*
%TD*%
D17*
%TO.C,R2*%
X93980000Y-56642000D03*
D18*
X101600000Y-56642000D03*
%TD*%
D16*
%TO.C,Q2*%
X109118400Y-64185800D03*
D15*
X106578400Y-64185800D03*
X104038400Y-64185800D03*
%TD*%
D22*
%TO.C,SW1*%
X90195400Y-56464200D03*
D23*
X90195400Y-59004200D03*
X90195400Y-61544200D03*
X90195400Y-64084200D03*
X90195400Y-66624200D03*
X90195400Y-69164200D03*
%TD*%
D17*
%TO.C,R8*%
X93954600Y-65913000D03*
D18*
X101574600Y-65913000D03*
%TD*%
D17*
%TO.C,R99*%
X101600000Y-62865000D03*
D18*
X93980000Y-62865000D03*
%TD*%
D17*
%TO.C,R4*%
X97891600Y-53568600D03*
D18*
X90271600Y-53568600D03*
%TD*%
D17*
%TO.C,C2*%
X104063800Y-71374000D03*
X109063800Y-71374000D03*
%TD*%
%TO.C,R1*%
X93980000Y-59817000D03*
D18*
X101600000Y-59817000D03*
%TD*%
D24*
%TO.C,D2*%
X100431600Y-47320200D03*
D25*
X90271600Y-47320200D03*
%TD*%
D17*
%TO.C,R3*%
X101219000Y-53568600D03*
D18*
X108839000Y-53568600D03*
%TD*%
D26*
%TO.C,D1*%
X100711000Y-71628000D03*
D27*
X98171000Y-71628000D03*
%TD*%
M02*
