%TF.GenerationSoftware,KiCad,Pcbnew,(5.99.0-2889-g3ddee6503)*%
%TF.CreationDate,2020-08-20T10:41:50+03:00*%
%TF.ProjectId,leo-fuzz-box,6c656f2d-6675-47a7-9a2d-626f782e6b69,rev?*%
%TF.SameCoordinates,Original*%
%TF.FileFunction,Soldermask,Bot*%
%TF.FilePolarity,Negative*%
%FSLAX46Y46*%
G04 Gerber Fmt 4.6, Leading zero omitted, Abs format (unit mm)*
G04 Created by KiCad (PCBNEW (5.99.0-2889-g3ddee6503)) date 2020-08-20 10:41:50*
%MOMM*%
%LPD*%
G01*
G04 APERTURE LIST*
%ADD10O,1.930400X1.930400*%
%ADD11R,1.930400X1.930400*%
%ADD12C,1.600000*%
%ADD13O,1.600000X1.600000*%
%ADD14R,2.540000X2.540000*%
%ADD15O,2.540000X2.540000*%
%ADD16R,1.600000X1.600000*%
%ADD17R,2.032000X2.032000*%
%ADD18O,2.032000X2.032000*%
%ADD19R,2.200000X2.200000*%
%ADD20O,2.200000X2.200000*%
%ADD21R,1.800000X1.800000*%
%ADD22C,1.800000*%
G04 APERTURE END LIST*
D10*
%TO.C,J1*%
X92760800Y-75488800D03*
D11*
X90220800Y-75488800D03*
%TD*%
D12*
%TO.C,R7*%
X90271600Y-50469800D03*
D13*
X97891600Y-50469800D03*
%TD*%
D14*
%TO.C,RV6*%
X94437200Y-41630600D03*
D15*
X99517200Y-41630600D03*
X104597200Y-41630600D03*
%TD*%
D12*
%TO.C,R9*%
X93954600Y-68961000D03*
D13*
X101574600Y-68961000D03*
%TD*%
D12*
%TO.C,C1*%
X90246200Y-72009000D03*
X95246200Y-72009000D03*
%TD*%
D11*
%TO.C,J4*%
X90220800Y-41376600D03*
D10*
X90220800Y-43916600D03*
%TD*%
D11*
%TO.C,J2*%
X95656400Y-75488800D03*
D10*
X98196400Y-75488800D03*
X100736400Y-75488800D03*
X103276400Y-75488800D03*
%TD*%
D12*
%TO.C,C4*%
X109270800Y-42418000D03*
X109270800Y-47418000D03*
%TD*%
%TO.C,C3*%
X109067600Y-68300600D03*
X104067600Y-68300600D03*
%TD*%
D16*
%TO.C,C5*%
X103505000Y-46050200D03*
D12*
X106005000Y-46050200D03*
%TD*%
D11*
%TO.C,Q1*%
X109093000Y-58318400D03*
D10*
X106553000Y-58318400D03*
X104013000Y-58318400D03*
%TD*%
%TO.C,J3*%
X108762800Y-75488800D03*
D11*
X106222800Y-75488800D03*
%TD*%
D12*
%TO.C,R5*%
X101219000Y-50520600D03*
D13*
X108839000Y-50520600D03*
%TD*%
D12*
%TO.C,R2*%
X93980000Y-56642000D03*
D13*
X101600000Y-56642000D03*
%TD*%
D11*
%TO.C,Q2*%
X109118400Y-64185800D03*
D10*
X106578400Y-64185800D03*
X104038400Y-64185800D03*
%TD*%
D17*
%TO.C,SW1*%
X90195400Y-56464200D03*
D18*
X90195400Y-59004200D03*
X90195400Y-61544200D03*
X90195400Y-64084200D03*
X90195400Y-66624200D03*
X90195400Y-69164200D03*
%TD*%
D12*
%TO.C,R8*%
X93954600Y-65913000D03*
D13*
X101574600Y-65913000D03*
%TD*%
D12*
%TO.C,R99*%
X101600000Y-62865000D03*
D13*
X93980000Y-62865000D03*
%TD*%
D12*
%TO.C,R4*%
X97891600Y-53568600D03*
D13*
X90271600Y-53568600D03*
%TD*%
D12*
%TO.C,C2*%
X104063800Y-71374000D03*
X109063800Y-71374000D03*
%TD*%
%TO.C,R1*%
X93980000Y-59817000D03*
D13*
X101600000Y-59817000D03*
%TD*%
D19*
%TO.C,D2*%
X100431600Y-47320200D03*
D20*
X90271600Y-47320200D03*
%TD*%
D12*
%TO.C,R3*%
X101219000Y-53568600D03*
D13*
X108839000Y-53568600D03*
%TD*%
D21*
%TO.C,D1*%
X100711000Y-71628000D03*
D22*
X98171000Y-71628000D03*
%TD*%
M02*
