%TF.GenerationSoftware,KiCad,Pcbnew,(5.99.0-2858-ga3fc028c9)*%
%TF.CreationDate,2020-08-19T12:09:39+03:00*%
%TF.ProjectId,leo-fuzz-box,6c656f2d-6675-47a7-9a2d-626f782e6b69,rev?*%
%TF.SameCoordinates,Original*%
%TF.FileFunction,Legend,Top*%
%TF.FilePolarity,Positive*%
%FSLAX46Y46*%
G04 Gerber Fmt 4.6, Leading zero omitted, Abs format (unit mm)*
G04 Created by KiCad (PCBNEW (5.99.0-2858-ga3fc028c9)) date 2020-08-19 12:09:39*
%MOMM*%
%LPD*%
G01*
G04 APERTURE LIST*
%ADD10C,0.150000*%
%ADD11C,0.100000*%
%ADD12C,0.065024*%
%ADD13C,0.032512*%
%ADD14C,0.097536*%
%ADD15C,0.020320*%
%ADD16C,0.120000*%
%ADD17C,0.152400*%
%ADD18C,0.127000*%
%ADD19O,2.200000X2.200000*%
%ADD20R,2.200000X2.200000*%
%ADD21C,1.600000*%
%ADD22R,1.600000X1.600000*%
%ADD23O,1.930400X1.930400*%
%ADD24R,1.930400X1.930400*%
%ADD25O,2.032000X2.032000*%
%ADD26R,2.032000X2.032000*%
%ADD27O,2.540000X2.540000*%
%ADD28R,2.540000X2.540000*%
%ADD29O,1.600000X1.600000*%
%ADD30C,1.800000*%
%ADD31R,1.800000X1.800000*%
G04 APERTURE END LIST*
D10*
X92194057Y-62137828D02*
X92194057Y-61680685D01*
X92422628Y-61909257D02*
X91965485Y-61909257D01*
X92422628Y-61366400D02*
X92422628Y-61252114D01*
X92394057Y-61194971D01*
X92365485Y-61166400D01*
X92279771Y-61109257D01*
X92165485Y-61080685D01*
X91936914Y-61080685D01*
X91879771Y-61109257D01*
X91851200Y-61137828D01*
X91822628Y-61194971D01*
X91822628Y-61309257D01*
X91851200Y-61366400D01*
X91879771Y-61394971D01*
X91936914Y-61423542D01*
X92079771Y-61423542D01*
X92136914Y-61394971D01*
X92165485Y-61366400D01*
X92194057Y-61309257D01*
X92194057Y-61194971D01*
X92165485Y-61137828D01*
X92136914Y-61109257D01*
X92079771Y-61080685D01*
X91822628Y-60909257D02*
X92422628Y-60709257D01*
X91822628Y-60509257D01*
%TO.C,D2*%
X99972904Y-44521380D02*
X99972904Y-43521380D01*
X100211000Y-43521380D01*
X100353857Y-43569000D01*
X100449095Y-43664238D01*
X100496714Y-43759476D01*
X100544333Y-43949952D01*
X100544333Y-44092809D01*
X100496714Y-44283285D01*
X100449095Y-44378523D01*
X100353857Y-44473761D01*
X100211000Y-44521380D01*
X99972904Y-44521380D01*
X100925285Y-43616619D02*
X100972904Y-43569000D01*
X101068142Y-43521380D01*
X101306238Y-43521380D01*
X101401476Y-43569000D01*
X101449095Y-43616619D01*
X101496714Y-43711857D01*
X101496714Y-43807095D01*
X101449095Y-43949952D01*
X100877666Y-44521380D01*
X101496714Y-44521380D01*
X96766095Y-45537380D02*
X96766095Y-44537380D01*
X97337523Y-45537380D02*
X96908952Y-44965952D01*
X97337523Y-44537380D02*
X96766095Y-45108809D01*
%TO.C,C5*%
X89698533Y-39828742D02*
X89650914Y-39876361D01*
X89508057Y-39923980D01*
X89412819Y-39923980D01*
X89269961Y-39876361D01*
X89174723Y-39781123D01*
X89127104Y-39685885D01*
X89079485Y-39495409D01*
X89079485Y-39352552D01*
X89127104Y-39162076D01*
X89174723Y-39066838D01*
X89269961Y-38971600D01*
X89412819Y-38923980D01*
X89508057Y-38923980D01*
X89650914Y-38971600D01*
X89698533Y-39019219D01*
X90603295Y-38923980D02*
X90127104Y-38923980D01*
X90079485Y-39400171D01*
X90127104Y-39352552D01*
X90222342Y-39304933D01*
X90460438Y-39304933D01*
X90555676Y-39352552D01*
X90603295Y-39400171D01*
X90650914Y-39495409D01*
X90650914Y-39733504D01*
X90603295Y-39828742D01*
X90555676Y-39876361D01*
X90460438Y-39923980D01*
X90222342Y-39923980D01*
X90127104Y-39876361D01*
X90079485Y-39828742D01*
%TO.C,C4*%
X92782733Y-47677342D02*
X92735114Y-47724961D01*
X92592257Y-47772580D01*
X92497019Y-47772580D01*
X92354161Y-47724961D01*
X92258923Y-47629723D01*
X92211304Y-47534485D01*
X92163685Y-47344009D01*
X92163685Y-47201152D01*
X92211304Y-47010676D01*
X92258923Y-46915438D01*
X92354161Y-46820200D01*
X92497019Y-46772580D01*
X92592257Y-46772580D01*
X92735114Y-46820200D01*
X92782733Y-46867819D01*
X93639876Y-47105914D02*
X93639876Y-47772580D01*
X93401780Y-46724961D02*
X93163685Y-47439247D01*
X93782733Y-47439247D01*
D11*
%TO.C,Q2*%
X106535761Y-63658619D02*
X106440523Y-63611000D01*
X106345285Y-63515761D01*
X106202428Y-63372904D01*
X106107190Y-63325285D01*
X106011952Y-63325285D01*
X106059571Y-63563380D02*
X105964333Y-63515761D01*
X105869095Y-63420523D01*
X105821476Y-63230047D01*
X105821476Y-62896714D01*
X105869095Y-62706238D01*
X105964333Y-62611000D01*
X106059571Y-62563380D01*
X106250047Y-62563380D01*
X106345285Y-62611000D01*
X106440523Y-62706238D01*
X106488142Y-62896714D01*
X106488142Y-63230047D01*
X106440523Y-63420523D01*
X106345285Y-63515761D01*
X106250047Y-63563380D01*
X106059571Y-63563380D01*
X106869095Y-62658619D02*
X106916714Y-62611000D01*
X107011952Y-62563380D01*
X107250047Y-62563380D01*
X107345285Y-62611000D01*
X107392904Y-62658619D01*
X107440523Y-62753857D01*
X107440523Y-62849095D01*
X107392904Y-62991952D01*
X106821476Y-63563380D01*
X107440523Y-63563380D01*
%TO.C,Q1*%
X106408761Y-58070619D02*
X106313523Y-58023000D01*
X106218285Y-57927761D01*
X106075428Y-57784904D01*
X105980190Y-57737285D01*
X105884952Y-57737285D01*
X105932571Y-57975380D02*
X105837333Y-57927761D01*
X105742095Y-57832523D01*
X105694476Y-57642047D01*
X105694476Y-57308714D01*
X105742095Y-57118238D01*
X105837333Y-57023000D01*
X105932571Y-56975380D01*
X106123047Y-56975380D01*
X106218285Y-57023000D01*
X106313523Y-57118238D01*
X106361142Y-57308714D01*
X106361142Y-57642047D01*
X106313523Y-57832523D01*
X106218285Y-57927761D01*
X106123047Y-57975380D01*
X105932571Y-57975380D01*
X107313523Y-57975380D02*
X106742095Y-57975380D01*
X107027809Y-57975380D02*
X107027809Y-56975380D01*
X106932571Y-57118238D01*
X106837333Y-57213476D01*
X106742095Y-57261095D01*
D12*
%TO.C,SW1*%
X92438340Y-66078946D02*
X92475110Y-65968638D01*
X92475110Y-65784790D01*
X92438340Y-65711251D01*
X92401571Y-65674481D01*
X92328032Y-65637712D01*
X92254493Y-65637712D01*
X92180954Y-65674481D01*
X92144184Y-65711251D01*
X92107415Y-65784790D01*
X92070645Y-65931868D01*
X92033876Y-66005407D01*
X91997106Y-66042177D01*
X91923567Y-66078946D01*
X91850028Y-66078946D01*
X91776489Y-66042177D01*
X91739720Y-66005407D01*
X91702950Y-65931868D01*
X91702950Y-65748020D01*
X91739720Y-65637712D01*
X91702950Y-65380325D02*
X92475110Y-65196478D01*
X91923567Y-65049400D01*
X92475110Y-64902321D01*
X91702950Y-64718474D01*
X92475110Y-64019853D02*
X92475110Y-64461087D01*
X92475110Y-64240470D02*
X91702950Y-64240470D01*
X91813259Y-64314009D01*
X91886798Y-64387548D01*
X91923567Y-64461087D01*
D13*
X91660375Y-72214860D02*
X91660375Y-72288400D01*
X91678760Y-72325169D01*
X91697144Y-72343554D01*
X91752299Y-72380323D01*
X91825838Y-72398708D01*
X91972916Y-72398708D01*
X92009685Y-72380323D01*
X92028070Y-72361939D01*
X92046455Y-72325169D01*
X92046455Y-72251630D01*
X92028070Y-72214860D01*
X92009685Y-72196476D01*
X91972916Y-72178091D01*
X91880992Y-72178091D01*
X91844222Y-72196476D01*
X91825838Y-72214860D01*
X91807453Y-72251630D01*
X91807453Y-72325169D01*
X91825838Y-72361939D01*
X91844222Y-72380323D01*
X91880992Y-72398708D01*
X92046455Y-57700091D02*
X92046455Y-57920708D01*
X92046455Y-57810400D02*
X91660375Y-57810400D01*
X91715529Y-57847169D01*
X91752299Y-57883939D01*
X91770683Y-57920708D01*
D10*
%TO.C,RV6*%
X98871161Y-42336980D02*
X98537828Y-41860790D01*
X98299733Y-42336980D02*
X98299733Y-41336980D01*
X98680685Y-41336980D01*
X98775923Y-41384600D01*
X98823542Y-41432219D01*
X98871161Y-41527457D01*
X98871161Y-41670314D01*
X98823542Y-41765552D01*
X98775923Y-41813171D01*
X98680685Y-41860790D01*
X98299733Y-41860790D01*
X99156876Y-41336980D02*
X99490209Y-42336980D01*
X99823542Y-41336980D01*
X100585447Y-41336980D02*
X100394971Y-41336980D01*
X100299733Y-41384600D01*
X100252114Y-41432219D01*
X100156876Y-41575076D01*
X100109257Y-41765552D01*
X100109257Y-42146504D01*
X100156876Y-42241742D01*
X100204495Y-42289361D01*
X100299733Y-42336980D01*
X100490209Y-42336980D01*
X100585447Y-42289361D01*
X100633066Y-42241742D01*
X100680685Y-42146504D01*
X100680685Y-41908409D01*
X100633066Y-41813171D01*
X100585447Y-41765552D01*
X100490209Y-41717933D01*
X100299733Y-41717933D01*
X100204495Y-41765552D01*
X100156876Y-41813171D01*
X100109257Y-41908409D01*
D14*
X92727417Y-38754110D02*
X92286182Y-38754110D01*
X92506800Y-38754110D02*
X92506800Y-37981950D01*
X92433260Y-38092259D01*
X92359721Y-38165798D01*
X92286182Y-38202567D01*
D10*
%TO.C,R99*%
X97121742Y-66365380D02*
X96788409Y-65889190D01*
X96550314Y-66365380D02*
X96550314Y-65365380D01*
X96931266Y-65365380D01*
X97026504Y-65413000D01*
X97074123Y-65460619D01*
X97121742Y-65555857D01*
X97121742Y-65698714D01*
X97074123Y-65793952D01*
X97026504Y-65841571D01*
X96931266Y-65889190D01*
X96550314Y-65889190D01*
X97597933Y-66365380D02*
X97788409Y-66365380D01*
X97883647Y-66317761D01*
X97931266Y-66270142D01*
X98026504Y-66127285D01*
X98074123Y-65936809D01*
X98074123Y-65555857D01*
X98026504Y-65460619D01*
X97978885Y-65413000D01*
X97883647Y-65365380D01*
X97693171Y-65365380D01*
X97597933Y-65413000D01*
X97550314Y-65460619D01*
X97502695Y-65555857D01*
X97502695Y-65793952D01*
X97550314Y-65889190D01*
X97597933Y-65936809D01*
X97693171Y-65984428D01*
X97883647Y-65984428D01*
X97978885Y-65936809D01*
X98026504Y-65889190D01*
X98074123Y-65793952D01*
X98550314Y-66365380D02*
X98740790Y-66365380D01*
X98836028Y-66317761D01*
X98883647Y-66270142D01*
X98978885Y-66127285D01*
X99026504Y-65936809D01*
X99026504Y-65555857D01*
X98978885Y-65460619D01*
X98931266Y-65413000D01*
X98836028Y-65365380D01*
X98645552Y-65365380D01*
X98550314Y-65413000D01*
X98502695Y-65460619D01*
X98455076Y-65555857D01*
X98455076Y-65793952D01*
X98502695Y-65889190D01*
X98550314Y-65936809D01*
X98645552Y-65984428D01*
X98836028Y-65984428D01*
X98931266Y-65936809D01*
X98978885Y-65889190D01*
X99026504Y-65793952D01*
%TO.C,R9*%
X97597933Y-69413380D02*
X97264600Y-68937190D01*
X97026504Y-69413380D02*
X97026504Y-68413380D01*
X97407457Y-68413380D01*
X97502695Y-68461000D01*
X97550314Y-68508619D01*
X97597933Y-68603857D01*
X97597933Y-68746714D01*
X97550314Y-68841952D01*
X97502695Y-68889571D01*
X97407457Y-68937190D01*
X97026504Y-68937190D01*
X98074123Y-69413380D02*
X98264600Y-69413380D01*
X98359838Y-69365761D01*
X98407457Y-69318142D01*
X98502695Y-69175285D01*
X98550314Y-68984809D01*
X98550314Y-68603857D01*
X98502695Y-68508619D01*
X98455076Y-68461000D01*
X98359838Y-68413380D01*
X98169361Y-68413380D01*
X98074123Y-68461000D01*
X98026504Y-68508619D01*
X97978885Y-68603857D01*
X97978885Y-68841952D01*
X98026504Y-68937190D01*
X98074123Y-68984809D01*
X98169361Y-69032428D01*
X98359838Y-69032428D01*
X98455076Y-68984809D01*
X98502695Y-68937190D01*
X98550314Y-68841952D01*
%TO.C,R8*%
X103846333Y-47797980D02*
X103513000Y-47321790D01*
X103274904Y-47797980D02*
X103274904Y-46797980D01*
X103655857Y-46797980D01*
X103751095Y-46845600D01*
X103798714Y-46893219D01*
X103846333Y-46988457D01*
X103846333Y-47131314D01*
X103798714Y-47226552D01*
X103751095Y-47274171D01*
X103655857Y-47321790D01*
X103274904Y-47321790D01*
X104417761Y-47226552D02*
X104322523Y-47178933D01*
X104274904Y-47131314D01*
X104227285Y-47036076D01*
X104227285Y-46988457D01*
X104274904Y-46893219D01*
X104322523Y-46845600D01*
X104417761Y-46797980D01*
X104608238Y-46797980D01*
X104703476Y-46845600D01*
X104751095Y-46893219D01*
X104798714Y-46988457D01*
X104798714Y-47036076D01*
X104751095Y-47131314D01*
X104703476Y-47178933D01*
X104608238Y-47226552D01*
X104417761Y-47226552D01*
X104322523Y-47274171D01*
X104274904Y-47321790D01*
X104227285Y-47417028D01*
X104227285Y-47607504D01*
X104274904Y-47702742D01*
X104322523Y-47750361D01*
X104417761Y-47797980D01*
X104608238Y-47797980D01*
X104703476Y-47750361D01*
X104751095Y-47702742D01*
X104798714Y-47607504D01*
X104798714Y-47417028D01*
X104751095Y-47321790D01*
X104703476Y-47274171D01*
X104608238Y-47226552D01*
%TO.C,R7*%
X93813333Y-50871380D02*
X93480000Y-50395190D01*
X93241904Y-50871380D02*
X93241904Y-49871380D01*
X93622857Y-49871380D01*
X93718095Y-49919000D01*
X93765714Y-49966619D01*
X93813333Y-50061857D01*
X93813333Y-50204714D01*
X93765714Y-50299952D01*
X93718095Y-50347571D01*
X93622857Y-50395190D01*
X93241904Y-50395190D01*
X94146666Y-49871380D02*
X94813333Y-49871380D01*
X94384761Y-50871380D01*
%TO.C,R5*%
X103846333Y-50871380D02*
X103513000Y-50395190D01*
X103274904Y-50871380D02*
X103274904Y-49871380D01*
X103655857Y-49871380D01*
X103751095Y-49919000D01*
X103798714Y-49966619D01*
X103846333Y-50061857D01*
X103846333Y-50204714D01*
X103798714Y-50299952D01*
X103751095Y-50347571D01*
X103655857Y-50395190D01*
X103274904Y-50395190D01*
X104751095Y-49871380D02*
X104274904Y-49871380D01*
X104227285Y-50347571D01*
X104274904Y-50299952D01*
X104370142Y-50252333D01*
X104608238Y-50252333D01*
X104703476Y-50299952D01*
X104751095Y-50347571D01*
X104798714Y-50442809D01*
X104798714Y-50680904D01*
X104751095Y-50776142D01*
X104703476Y-50823761D01*
X104608238Y-50871380D01*
X104370142Y-50871380D01*
X104274904Y-50823761D01*
X104227285Y-50776142D01*
%TO.C,R4*%
X93813333Y-54046380D02*
X93480000Y-53570190D01*
X93241904Y-54046380D02*
X93241904Y-53046380D01*
X93622857Y-53046380D01*
X93718095Y-53094000D01*
X93765714Y-53141619D01*
X93813333Y-53236857D01*
X93813333Y-53379714D01*
X93765714Y-53474952D01*
X93718095Y-53522571D01*
X93622857Y-53570190D01*
X93241904Y-53570190D01*
X94670476Y-53379714D02*
X94670476Y-54046380D01*
X94432380Y-52998761D02*
X94194285Y-53713047D01*
X94813333Y-53713047D01*
%TO.C,R3*%
X97623333Y-57094380D02*
X97290000Y-56618190D01*
X97051904Y-57094380D02*
X97051904Y-56094380D01*
X97432857Y-56094380D01*
X97528095Y-56142000D01*
X97575714Y-56189619D01*
X97623333Y-56284857D01*
X97623333Y-56427714D01*
X97575714Y-56522952D01*
X97528095Y-56570571D01*
X97432857Y-56618190D01*
X97051904Y-56618190D01*
X97956666Y-56094380D02*
X98575714Y-56094380D01*
X98242380Y-56475333D01*
X98385238Y-56475333D01*
X98480476Y-56522952D01*
X98528095Y-56570571D01*
X98575714Y-56665809D01*
X98575714Y-56903904D01*
X98528095Y-56999142D01*
X98480476Y-57046761D01*
X98385238Y-57094380D01*
X98099523Y-57094380D01*
X98004285Y-57046761D01*
X97956666Y-56999142D01*
%TO.C,R2*%
X97597933Y-60142380D02*
X97264600Y-59666190D01*
X97026504Y-60142380D02*
X97026504Y-59142380D01*
X97407457Y-59142380D01*
X97502695Y-59190000D01*
X97550314Y-59237619D01*
X97597933Y-59332857D01*
X97597933Y-59475714D01*
X97550314Y-59570952D01*
X97502695Y-59618571D01*
X97407457Y-59666190D01*
X97026504Y-59666190D01*
X97978885Y-59237619D02*
X98026504Y-59190000D01*
X98121742Y-59142380D01*
X98359838Y-59142380D01*
X98455076Y-59190000D01*
X98502695Y-59237619D01*
X98550314Y-59332857D01*
X98550314Y-59428095D01*
X98502695Y-59570952D01*
X97931266Y-60142380D01*
X98550314Y-60142380D01*
%TO.C,R1*%
X97597933Y-63317380D02*
X97264600Y-62841190D01*
X97026504Y-63317380D02*
X97026504Y-62317380D01*
X97407457Y-62317380D01*
X97502695Y-62365000D01*
X97550314Y-62412619D01*
X97597933Y-62507857D01*
X97597933Y-62650714D01*
X97550314Y-62745952D01*
X97502695Y-62793571D01*
X97407457Y-62841190D01*
X97026504Y-62841190D01*
X98550314Y-63317380D02*
X97978885Y-63317380D01*
X98264600Y-63317380D02*
X98264600Y-62317380D01*
X98169361Y-62460238D01*
X98074123Y-62555476D01*
X97978885Y-62603095D01*
%TO.C,J4*%
X107169000Y-39852523D02*
X107130904Y-39928714D01*
X107130904Y-40043000D01*
X107169000Y-40157285D01*
X107245190Y-40233476D01*
X107321380Y-40271571D01*
X107473761Y-40309666D01*
X107588047Y-40309666D01*
X107740428Y-40271571D01*
X107816619Y-40233476D01*
X107892809Y-40157285D01*
X107930904Y-40043000D01*
X107930904Y-39966809D01*
X107892809Y-39852523D01*
X107854714Y-39814428D01*
X107588047Y-39814428D01*
X107588047Y-39966809D01*
X107930904Y-39471571D02*
X107130904Y-39471571D01*
X107930904Y-39014428D01*
X107130904Y-39014428D01*
X107930904Y-38633476D02*
X107130904Y-38633476D01*
X107130904Y-38443000D01*
X107169000Y-38328714D01*
X107245190Y-38252523D01*
X107321380Y-38214428D01*
X107473761Y-38176333D01*
X107588047Y-38176333D01*
X107740428Y-38214428D01*
X107816619Y-38252523D01*
X107892809Y-38328714D01*
X107930904Y-38443000D01*
X107930904Y-38633476D01*
X107130904Y-42544904D02*
X107930904Y-42278238D01*
X107130904Y-42011571D01*
X107626142Y-41744904D02*
X107626142Y-41135380D01*
X107930904Y-41440142D02*
X107321380Y-41440142D01*
%TO.C,J3*%
X106692800Y-73145704D02*
X106845180Y-73145704D01*
X106921371Y-73183800D01*
X106997561Y-73259990D01*
X107035657Y-73412371D01*
X107035657Y-73679038D01*
X106997561Y-73831419D01*
X106921371Y-73907609D01*
X106845180Y-73945704D01*
X106692800Y-73945704D01*
X106616609Y-73907609D01*
X106540419Y-73831419D01*
X106502323Y-73679038D01*
X106502323Y-73412371D01*
X106540419Y-73259990D01*
X106616609Y-73183800D01*
X106692800Y-73145704D01*
X107378514Y-73145704D02*
X107378514Y-73793323D01*
X107416609Y-73869514D01*
X107454704Y-73907609D01*
X107530895Y-73945704D01*
X107683276Y-73945704D01*
X107759466Y-73907609D01*
X107797561Y-73869514D01*
X107835657Y-73793323D01*
X107835657Y-73145704D01*
X108102323Y-73145704D02*
X108559466Y-73145704D01*
X108330895Y-73945704D02*
X108330895Y-73145704D01*
D15*
X105264857Y-73832659D02*
X105402742Y-73832659D01*
X105333800Y-74073959D02*
X105333800Y-73832659D01*
X109582857Y-74062469D02*
X109617328Y-74073959D01*
X109674780Y-74073959D01*
X109697761Y-74062469D01*
X109709252Y-74050978D01*
X109720742Y-74027997D01*
X109720742Y-74005016D01*
X109709252Y-73982035D01*
X109697761Y-73970545D01*
X109674780Y-73959054D01*
X109628819Y-73947564D01*
X109605838Y-73936073D01*
X109594347Y-73924583D01*
X109582857Y-73901602D01*
X109582857Y-73878621D01*
X109594347Y-73855640D01*
X109605838Y-73844150D01*
X109628819Y-73832659D01*
X109686271Y-73832659D01*
X109720742Y-73844150D01*
D10*
%TO.C,J2*%
X102476400Y-73145704D02*
X102628780Y-73145704D01*
X102704971Y-73183800D01*
X102781161Y-73259990D01*
X102819257Y-73412371D01*
X102819257Y-73679038D01*
X102781161Y-73831419D01*
X102704971Y-73907609D01*
X102628780Y-73945704D01*
X102476400Y-73945704D01*
X102400209Y-73907609D01*
X102324019Y-73831419D01*
X102285923Y-73679038D01*
X102285923Y-73412371D01*
X102324019Y-73259990D01*
X102400209Y-73183800D01*
X102476400Y-73145704D01*
X103162114Y-73145704D02*
X103162114Y-73793323D01*
X103200209Y-73869514D01*
X103238304Y-73907609D01*
X103314495Y-73945704D01*
X103466876Y-73945704D01*
X103543066Y-73907609D01*
X103581161Y-73869514D01*
X103619257Y-73793323D01*
X103619257Y-73145704D01*
X103885923Y-73145704D02*
X104343066Y-73145704D01*
X104114495Y-73945704D02*
X104114495Y-73145704D01*
X100050685Y-73907609D02*
X100164971Y-73945704D01*
X100355447Y-73945704D01*
X100431638Y-73907609D01*
X100469733Y-73869514D01*
X100507828Y-73793323D01*
X100507828Y-73717133D01*
X100469733Y-73640942D01*
X100431638Y-73602847D01*
X100355447Y-73564752D01*
X100203066Y-73526657D01*
X100126876Y-73488561D01*
X100088780Y-73450466D01*
X100050685Y-73374276D01*
X100050685Y-73298085D01*
X100088780Y-73221895D01*
X100126876Y-73183800D01*
X100203066Y-73145704D01*
X100393542Y-73145704D01*
X100507828Y-73183800D01*
X100774495Y-73145704D02*
X100964971Y-73945704D01*
X101117352Y-73374276D01*
X101269733Y-73945704D01*
X101460209Y-73145704D01*
X97586876Y-73183800D02*
X97510685Y-73145704D01*
X97396400Y-73145704D01*
X97282114Y-73183800D01*
X97205923Y-73259990D01*
X97167828Y-73336180D01*
X97129733Y-73488561D01*
X97129733Y-73602847D01*
X97167828Y-73755228D01*
X97205923Y-73831419D01*
X97282114Y-73907609D01*
X97396400Y-73945704D01*
X97472590Y-73945704D01*
X97586876Y-73907609D01*
X97624971Y-73869514D01*
X97624971Y-73602847D01*
X97472590Y-73602847D01*
X97967828Y-73945704D02*
X97967828Y-73145704D01*
X98424971Y-73945704D01*
X98424971Y-73145704D01*
X98805923Y-73945704D02*
X98805923Y-73145704D01*
X98996400Y-73145704D01*
X99110685Y-73183800D01*
X99186876Y-73259990D01*
X99224971Y-73336180D01*
X99263066Y-73488561D01*
X99263066Y-73602847D01*
X99224971Y-73755228D01*
X99186876Y-73831419D01*
X99110685Y-73907609D01*
X98996400Y-73945704D01*
X98805923Y-73945704D01*
X95237352Y-73945704D02*
X95237352Y-73145704D01*
X95618304Y-73945704D02*
X95618304Y-73145704D01*
X96075447Y-73945704D01*
X96075447Y-73145704D01*
%TO.C,J1*%
X91071752Y-73945704D02*
X91071752Y-73145704D01*
X91452704Y-73945704D02*
X91452704Y-73145704D01*
X91909847Y-73945704D01*
X91909847Y-73145704D01*
D15*
X89262857Y-73832659D02*
X89400742Y-73832659D01*
X89331800Y-74073959D02*
X89331800Y-73832659D01*
X93580857Y-74062469D02*
X93615328Y-74073959D01*
X93672780Y-74073959D01*
X93695761Y-74062469D01*
X93707252Y-74050978D01*
X93718742Y-74027997D01*
X93718742Y-74005016D01*
X93707252Y-73982035D01*
X93695761Y-73970545D01*
X93672780Y-73959054D01*
X93626819Y-73947564D01*
X93603838Y-73936073D01*
X93592347Y-73924583D01*
X93580857Y-73901602D01*
X93580857Y-73878621D01*
X93592347Y-73855640D01*
X93603838Y-73844150D01*
X93626819Y-73832659D01*
X93684271Y-73832659D01*
X93718742Y-73844150D01*
D10*
%TO.C,C3*%
X106386333Y-65635142D02*
X106338714Y-65682761D01*
X106195857Y-65730380D01*
X106100619Y-65730380D01*
X105957761Y-65682761D01*
X105862523Y-65587523D01*
X105814904Y-65492285D01*
X105767285Y-65301809D01*
X105767285Y-65158952D01*
X105814904Y-64968476D01*
X105862523Y-64873238D01*
X105957761Y-64778000D01*
X106100619Y-64730380D01*
X106195857Y-64730380D01*
X106338714Y-64778000D01*
X106386333Y-64825619D01*
X106719666Y-64730380D02*
X107338714Y-64730380D01*
X107005380Y-65111333D01*
X107148238Y-65111333D01*
X107243476Y-65158952D01*
X107291095Y-65206571D01*
X107338714Y-65301809D01*
X107338714Y-65539904D01*
X107291095Y-65635142D01*
X107243476Y-65682761D01*
X107148238Y-65730380D01*
X106862523Y-65730380D01*
X106767285Y-65682761D01*
X106719666Y-65635142D01*
%TO.C,C2*%
X106397133Y-68683142D02*
X106349514Y-68730761D01*
X106206657Y-68778380D01*
X106111419Y-68778380D01*
X105968561Y-68730761D01*
X105873323Y-68635523D01*
X105825704Y-68540285D01*
X105778085Y-68349809D01*
X105778085Y-68206952D01*
X105825704Y-68016476D01*
X105873323Y-67921238D01*
X105968561Y-67826000D01*
X106111419Y-67778380D01*
X106206657Y-67778380D01*
X106349514Y-67826000D01*
X106397133Y-67873619D01*
X106778085Y-67873619D02*
X106825704Y-67826000D01*
X106920942Y-67778380D01*
X107159038Y-67778380D01*
X107254276Y-67826000D01*
X107301895Y-67873619D01*
X107349514Y-67968857D01*
X107349514Y-68064095D01*
X107301895Y-68206952D01*
X106730466Y-68778380D01*
X107349514Y-68778380D01*
%TO.C,C1*%
X106390133Y-71731142D02*
X106342514Y-71778761D01*
X106199657Y-71826380D01*
X106104419Y-71826380D01*
X105961561Y-71778761D01*
X105866323Y-71683523D01*
X105818704Y-71588285D01*
X105771085Y-71397809D01*
X105771085Y-71254952D01*
X105818704Y-71064476D01*
X105866323Y-70969238D01*
X105961561Y-70874000D01*
X106104419Y-70826380D01*
X106199657Y-70826380D01*
X106342514Y-70874000D01*
X106390133Y-70921619D01*
X107342514Y-71826380D02*
X106771085Y-71826380D01*
X107056800Y-71826380D02*
X107056800Y-70826380D01*
X106961561Y-70969238D01*
X106866323Y-71064476D01*
X106771085Y-71112095D01*
D16*
%TO.C,D2*%
X98517000Y-42599000D02*
X98517000Y-45539000D01*
X98757000Y-42599000D02*
X98757000Y-45539000D01*
X98637000Y-42599000D02*
X98637000Y-45539000D01*
X104197000Y-44069000D02*
X103177000Y-44069000D01*
X96717000Y-44069000D02*
X97737000Y-44069000D01*
X103177000Y-42599000D02*
X97737000Y-42599000D01*
X103177000Y-45539000D02*
X103177000Y-42599000D01*
X97737000Y-45539000D02*
X103177000Y-45539000D01*
X97737000Y-42599000D02*
X97737000Y-45539000D01*
%TO.C,C5*%
X92456000Y-44446000D02*
X92456000Y-43946000D01*
X92706000Y-44196000D02*
X92206000Y-44196000D01*
X88605000Y-43083000D02*
X88605000Y-42515000D01*
X88645000Y-43317000D02*
X88645000Y-42281000D01*
X88685000Y-43476000D02*
X88685000Y-42122000D01*
X88725000Y-43604000D02*
X88725000Y-41994000D01*
X88765000Y-43714000D02*
X88765000Y-41884000D01*
X88805000Y-43810000D02*
X88805000Y-41788000D01*
X88845000Y-43897000D02*
X88845000Y-41701000D01*
X88885000Y-43977000D02*
X88885000Y-41621000D01*
X88925000Y-41759000D02*
X88925000Y-41548000D01*
X88925000Y-44050000D02*
X88925000Y-43839000D01*
X88965000Y-41759000D02*
X88965000Y-41480000D01*
X88965000Y-44118000D02*
X88965000Y-43839000D01*
X89005000Y-41759000D02*
X89005000Y-41416000D01*
X89005000Y-44182000D02*
X89005000Y-43839000D01*
X89045000Y-41759000D02*
X89045000Y-41356000D01*
X89045000Y-44242000D02*
X89045000Y-43839000D01*
X89085000Y-41759000D02*
X89085000Y-41299000D01*
X89085000Y-44299000D02*
X89085000Y-43839000D01*
X89125000Y-41759000D02*
X89125000Y-41245000D01*
X89125000Y-44353000D02*
X89125000Y-43839000D01*
X89165000Y-41759000D02*
X89165000Y-41194000D01*
X89165000Y-44404000D02*
X89165000Y-43839000D01*
X89205000Y-41759000D02*
X89205000Y-41146000D01*
X89205000Y-44452000D02*
X89205000Y-43839000D01*
X89245000Y-41759000D02*
X89245000Y-41100000D01*
X89245000Y-44498000D02*
X89245000Y-43839000D01*
X89285000Y-41759000D02*
X89285000Y-41056000D01*
X89285000Y-44542000D02*
X89285000Y-43839000D01*
X89325000Y-41759000D02*
X89325000Y-41014000D01*
X89325000Y-44584000D02*
X89325000Y-43839000D01*
X89365000Y-41759000D02*
X89365000Y-40973000D01*
X89365000Y-44625000D02*
X89365000Y-43839000D01*
X89405000Y-41759000D02*
X89405000Y-40935000D01*
X89405000Y-44663000D02*
X89405000Y-43839000D01*
X89445000Y-41759000D02*
X89445000Y-40898000D01*
X89445000Y-44700000D02*
X89445000Y-43839000D01*
X89485000Y-41759000D02*
X89485000Y-40862000D01*
X89485000Y-44736000D02*
X89485000Y-43839000D01*
X89525000Y-41759000D02*
X89525000Y-40828000D01*
X89525000Y-44770000D02*
X89525000Y-43839000D01*
X89565000Y-41759000D02*
X89565000Y-40795000D01*
X89565000Y-44803000D02*
X89565000Y-43839000D01*
X89605000Y-41759000D02*
X89605000Y-40764000D01*
X89605000Y-44834000D02*
X89605000Y-43839000D01*
X89645000Y-41759000D02*
X89645000Y-40734000D01*
X89645000Y-44864000D02*
X89645000Y-43839000D01*
X89685000Y-41759000D02*
X89685000Y-40704000D01*
X89685000Y-44894000D02*
X89685000Y-43839000D01*
X89725000Y-41759000D02*
X89725000Y-40677000D01*
X89725000Y-44921000D02*
X89725000Y-43839000D01*
X89765000Y-41759000D02*
X89765000Y-40650000D01*
X89765000Y-44948000D02*
X89765000Y-43839000D01*
X89805000Y-41759000D02*
X89805000Y-40624000D01*
X89805000Y-44974000D02*
X89805000Y-43839000D01*
X89845000Y-41759000D02*
X89845000Y-40599000D01*
X89845000Y-44999000D02*
X89845000Y-43839000D01*
X89885000Y-41759000D02*
X89885000Y-40575000D01*
X89885000Y-45023000D02*
X89885000Y-43839000D01*
X89925000Y-41759000D02*
X89925000Y-40552000D01*
X89925000Y-45046000D02*
X89925000Y-43839000D01*
X89965000Y-41759000D02*
X89965000Y-40531000D01*
X89965000Y-45067000D02*
X89965000Y-43839000D01*
X90005000Y-41759000D02*
X90005000Y-40509000D01*
X90005000Y-45089000D02*
X90005000Y-43839000D01*
X90045000Y-41759000D02*
X90045000Y-40489000D01*
X90045000Y-45109000D02*
X90045000Y-43839000D01*
X90085000Y-41759000D02*
X90085000Y-40470000D01*
X90085000Y-45128000D02*
X90085000Y-43839000D01*
X90125000Y-41759000D02*
X90125000Y-40451000D01*
X90125000Y-45147000D02*
X90125000Y-43839000D01*
X90165000Y-41759000D02*
X90165000Y-40434000D01*
X90165000Y-45164000D02*
X90165000Y-43839000D01*
X90205000Y-41759000D02*
X90205000Y-40417000D01*
X90205000Y-45181000D02*
X90205000Y-43839000D01*
X90245000Y-41759000D02*
X90245000Y-40401000D01*
X90245000Y-45197000D02*
X90245000Y-43839000D01*
X90285000Y-41759000D02*
X90285000Y-40385000D01*
X90285000Y-45213000D02*
X90285000Y-43839000D01*
X90325000Y-41759000D02*
X90325000Y-40371000D01*
X90325000Y-45227000D02*
X90325000Y-43839000D01*
X90365000Y-41759000D02*
X90365000Y-40357000D01*
X90365000Y-45241000D02*
X90365000Y-43839000D01*
X90405000Y-41759000D02*
X90405000Y-40344000D01*
X90405000Y-45254000D02*
X90405000Y-43839000D01*
X90445000Y-41759000D02*
X90445000Y-40331000D01*
X90445000Y-45267000D02*
X90445000Y-43839000D01*
X90485000Y-41759000D02*
X90485000Y-40319000D01*
X90485000Y-45279000D02*
X90485000Y-43839000D01*
X90526000Y-41759000D02*
X90526000Y-40308000D01*
X90526000Y-45290000D02*
X90526000Y-43839000D01*
X90566000Y-41759000D02*
X90566000Y-40298000D01*
X90566000Y-45300000D02*
X90566000Y-43839000D01*
X90606000Y-41759000D02*
X90606000Y-40288000D01*
X90606000Y-45310000D02*
X90606000Y-43839000D01*
X90646000Y-41759000D02*
X90646000Y-40279000D01*
X90646000Y-45319000D02*
X90646000Y-43839000D01*
X90686000Y-41759000D02*
X90686000Y-40271000D01*
X90686000Y-45327000D02*
X90686000Y-43839000D01*
X90726000Y-41759000D02*
X90726000Y-40263000D01*
X90726000Y-45335000D02*
X90726000Y-43839000D01*
X90766000Y-41759000D02*
X90766000Y-40256000D01*
X90766000Y-45342000D02*
X90766000Y-43839000D01*
X90806000Y-41759000D02*
X90806000Y-40249000D01*
X90806000Y-45349000D02*
X90806000Y-43839000D01*
X90846000Y-41759000D02*
X90846000Y-40243000D01*
X90846000Y-45355000D02*
X90846000Y-43839000D01*
X90886000Y-41759000D02*
X90886000Y-40238000D01*
X90886000Y-45360000D02*
X90886000Y-43839000D01*
X90926000Y-41759000D02*
X90926000Y-40234000D01*
X90926000Y-45364000D02*
X90926000Y-43839000D01*
X90966000Y-41759000D02*
X90966000Y-40230000D01*
X90966000Y-45368000D02*
X90966000Y-43839000D01*
X91006000Y-45372000D02*
X91006000Y-40226000D01*
X91046000Y-45375000D02*
X91046000Y-40223000D01*
X91086000Y-45377000D02*
X91086000Y-40221000D01*
X91126000Y-45378000D02*
X91126000Y-40220000D01*
X91166000Y-45379000D02*
X91166000Y-40219000D01*
X91206000Y-45379000D02*
X91206000Y-40219000D01*
X93826000Y-42799000D02*
G75*
G03*
X93826000Y-42799000I-2620000J0D01*
G01*
%TO.C,C4*%
X89229400Y-45950200D02*
X96669400Y-45950200D01*
X89229400Y-48690200D02*
X96669400Y-48690200D01*
X89229400Y-45950200D02*
X89229400Y-48690200D01*
X96669400Y-45950200D02*
X96669400Y-48690200D01*
D17*
%TO.C,Q2*%
X107521900Y-58369217D02*
G75*
G03*
X105583500Y-58369217I-969200J-2209800D01*
G01*
X105583801Y-58369218D02*
G75*
G03*
X104921700Y-62357017I969199J-2209782D01*
G01*
X108183701Y-62357018D02*
G75*
G03*
X107521600Y-58369217I-1631301J1778018D01*
G01*
X104921700Y-62357017D02*
X108183700Y-62357017D01*
%TO.C,Q1*%
X107394900Y-52781217D02*
G75*
G03*
X105456500Y-52781217I-969200J-2209800D01*
G01*
X105456801Y-52781218D02*
G75*
G03*
X104794700Y-56769017I969199J-2209782D01*
G01*
X108056701Y-56769018D02*
G75*
G03*
X107394600Y-52781217I-1631301J1778018D01*
G01*
X104794700Y-56769017D02*
X108056700Y-56769017D01*
D18*
%TO.C,SW1*%
X92760800Y-72669400D02*
X91490800Y-72669400D01*
X92760800Y-57429400D02*
X92760800Y-72669400D01*
X91490800Y-57429400D02*
X92760800Y-57429400D01*
X88950800Y-57429400D02*
X91490800Y-57429400D01*
X88950800Y-72669400D02*
X88950800Y-57429400D01*
X91490800Y-72669400D02*
X88950800Y-72669400D01*
X91490800Y-57429400D02*
X91490800Y-72669400D01*
%TO.C,RV6*%
X92862400Y-37947600D02*
X92862400Y-40995600D01*
X95910400Y-37947600D02*
X92862400Y-37947600D01*
X95910400Y-40995600D02*
X95910400Y-37947600D01*
X97942400Y-37947600D02*
X97942400Y-40995600D01*
X100990400Y-37947600D02*
X97942400Y-37947600D01*
X100990400Y-40995600D02*
X100990400Y-37947600D01*
X103022400Y-37947600D02*
X103022400Y-40995600D01*
X106070400Y-37947600D02*
X103022400Y-37947600D01*
X106070400Y-40995600D02*
X106070400Y-37947600D01*
X95910400Y-40995600D02*
X92862400Y-40995600D01*
X100990400Y-40995600D02*
X97942400Y-40995600D01*
X106070400Y-40995600D02*
X103022400Y-40995600D01*
D16*
%TO.C,R99*%
X101034600Y-66953000D02*
X101034600Y-67283000D01*
X101034600Y-67283000D02*
X94494600Y-67283000D01*
X94494600Y-67283000D02*
X94494600Y-66953000D01*
X101034600Y-64873000D02*
X101034600Y-64543000D01*
X101034600Y-64543000D02*
X94494600Y-64543000D01*
X94494600Y-64543000D02*
X94494600Y-64873000D01*
%TO.C,R9*%
X94494600Y-67921000D02*
X94494600Y-67591000D01*
X94494600Y-67591000D02*
X101034600Y-67591000D01*
X101034600Y-67591000D02*
X101034600Y-67921000D01*
X94494600Y-70001000D02*
X94494600Y-70331000D01*
X94494600Y-70331000D02*
X101034600Y-70331000D01*
X101034600Y-70331000D02*
X101034600Y-70001000D01*
%TO.C,R8*%
X100743000Y-46305600D02*
X100743000Y-45975600D01*
X100743000Y-45975600D02*
X107283000Y-45975600D01*
X107283000Y-45975600D02*
X107283000Y-46305600D01*
X100743000Y-48385600D02*
X100743000Y-48715600D01*
X100743000Y-48715600D02*
X107283000Y-48715600D01*
X107283000Y-48715600D02*
X107283000Y-48385600D01*
%TO.C,R7*%
X90710000Y-49379000D02*
X90710000Y-49049000D01*
X90710000Y-49049000D02*
X97250000Y-49049000D01*
X97250000Y-49049000D02*
X97250000Y-49379000D01*
X90710000Y-51459000D02*
X90710000Y-51789000D01*
X90710000Y-51789000D02*
X97250000Y-51789000D01*
X97250000Y-51789000D02*
X97250000Y-51459000D01*
%TO.C,R5*%
X107283000Y-51459000D02*
X107283000Y-51789000D01*
X107283000Y-51789000D02*
X100743000Y-51789000D01*
X100743000Y-51789000D02*
X100743000Y-51459000D01*
X107283000Y-49379000D02*
X107283000Y-49049000D01*
X107283000Y-49049000D02*
X100743000Y-49049000D01*
X100743000Y-49049000D02*
X100743000Y-49379000D01*
%TO.C,R4*%
X90710000Y-52554000D02*
X90710000Y-52224000D01*
X90710000Y-52224000D02*
X97250000Y-52224000D01*
X97250000Y-52224000D02*
X97250000Y-52554000D01*
X90710000Y-54634000D02*
X90710000Y-54964000D01*
X90710000Y-54964000D02*
X97250000Y-54964000D01*
X97250000Y-54964000D02*
X97250000Y-54634000D01*
%TO.C,R3*%
X101060000Y-57682000D02*
X101060000Y-58012000D01*
X101060000Y-58012000D02*
X94520000Y-58012000D01*
X94520000Y-58012000D02*
X94520000Y-57682000D01*
X101060000Y-55602000D02*
X101060000Y-55272000D01*
X101060000Y-55272000D02*
X94520000Y-55272000D01*
X94520000Y-55272000D02*
X94520000Y-55602000D01*
%TO.C,R2*%
X94494600Y-58650000D02*
X94494600Y-58320000D01*
X94494600Y-58320000D02*
X101034600Y-58320000D01*
X101034600Y-58320000D02*
X101034600Y-58650000D01*
X94494600Y-60730000D02*
X94494600Y-61060000D01*
X94494600Y-61060000D02*
X101034600Y-61060000D01*
X101034600Y-61060000D02*
X101034600Y-60730000D01*
%TO.C,R1*%
X94494600Y-61825000D02*
X94494600Y-61495000D01*
X94494600Y-61495000D02*
X101034600Y-61495000D01*
X101034600Y-61495000D02*
X101034600Y-61825000D01*
X94494600Y-63905000D02*
X94494600Y-64235000D01*
X94494600Y-64235000D02*
X101034600Y-64235000D01*
X101034600Y-64235000D02*
X101034600Y-63905000D01*
D18*
%TO.C,J4*%
X108204000Y-37973000D02*
X106934000Y-37973000D01*
X108204000Y-43053000D02*
X106934000Y-43053000D01*
X106934000Y-37973000D02*
X106934000Y-43053000D01*
X110744000Y-37973000D02*
X108204000Y-37973000D01*
X110744000Y-43053000D02*
X108204000Y-43053000D01*
X110744000Y-37973000D02*
X110744000Y-43053000D01*
X108204000Y-43053000D02*
X108204000Y-37973000D01*
%TO.C,J3*%
X110032800Y-72948800D02*
X110032800Y-74218800D01*
X104952800Y-72948800D02*
X110032800Y-72948800D01*
X104952800Y-74218800D02*
X104952800Y-72948800D01*
X107492800Y-76758800D02*
X110032800Y-76758800D01*
X104952800Y-76758800D02*
X107492800Y-76758800D01*
X107492800Y-74218800D02*
X107492800Y-76758800D01*
X104952800Y-76758800D02*
X104952800Y-74218800D01*
X110032800Y-74218800D02*
X110032800Y-76758800D01*
X107492800Y-74218800D02*
X110032800Y-74218800D01*
X104952800Y-74218800D02*
X107492800Y-74218800D01*
%TO.C,J2*%
X104546400Y-74218800D02*
X104546400Y-72948800D01*
X94386400Y-74218800D02*
X94386400Y-72948800D01*
X104546400Y-72948800D02*
X94386400Y-72948800D01*
X104546400Y-76758800D02*
X104546400Y-74218800D01*
X94386400Y-76758800D02*
X94386400Y-74218800D01*
X104546400Y-76758800D02*
X94386400Y-76758800D01*
X94386400Y-74218800D02*
X104546400Y-74218800D01*
%TO.C,J1*%
X94030800Y-72948800D02*
X94030800Y-74218800D01*
X88950800Y-72948800D02*
X94030800Y-72948800D01*
X88950800Y-74218800D02*
X88950800Y-72948800D01*
X91490800Y-76758800D02*
X94030800Y-76758800D01*
X88950800Y-76758800D02*
X91490800Y-76758800D01*
X91490800Y-74218800D02*
X91490800Y-76758800D01*
X88950800Y-76758800D02*
X88950800Y-74218800D01*
X94030800Y-74218800D02*
X94030800Y-76758800D01*
X91490800Y-74218800D02*
X94030800Y-74218800D01*
X88950800Y-74218800D02*
X91490800Y-74218800D01*
D16*
%TO.C,C3*%
X110287600Y-66648000D02*
X102847600Y-66648000D01*
X110287600Y-63908000D02*
X102847600Y-63908000D01*
X110287600Y-66648000D02*
X110287600Y-63908000D01*
X102847600Y-66648000D02*
X102847600Y-63908000D01*
%TO.C,C2*%
X102843800Y-66956000D02*
X110283800Y-66956000D01*
X102843800Y-69696000D02*
X110283800Y-69696000D01*
X102843800Y-66956000D02*
X102843800Y-69696000D01*
X110283800Y-66956000D02*
X110283800Y-69696000D01*
%TO.C,C1*%
X110276800Y-72744000D02*
X102836800Y-72744000D01*
X110276800Y-70004000D02*
X102836800Y-70004000D01*
X110276800Y-72744000D02*
X110276800Y-70004000D01*
X102836800Y-72744000D02*
X102836800Y-70004000D01*
%TD*%
%LPC*%
D19*
%TO.C,D2*%
X105537000Y-44069000D03*
D20*
X95377000Y-44069000D03*
%TD*%
D21*
%TO.C,C5*%
X89956000Y-42799000D03*
D22*
X92456000Y-42799000D03*
%TD*%
D21*
%TO.C,C4*%
X95449400Y-47320200D03*
X90449400Y-47320200D03*
%TD*%
D23*
%TO.C,Q2*%
X109093000Y-60325000D03*
X106553000Y-60325000D03*
D24*
X104013000Y-60325000D03*
%TD*%
D23*
%TO.C,Q1*%
X108966000Y-54737000D03*
X106426000Y-54737000D03*
D24*
X103886000Y-54737000D03*
%TD*%
D25*
%TO.C,SW1*%
X90220800Y-71399400D03*
X90220800Y-68859400D03*
X90220800Y-66319400D03*
X90220800Y-63779400D03*
X90220800Y-61239400D03*
D26*
X90220800Y-58699400D03*
%TD*%
D27*
%TO.C,RV6*%
X104546400Y-39471600D03*
X99466400Y-39471600D03*
D28*
X94386400Y-39471600D03*
%TD*%
D29*
%TO.C,R99*%
X93954600Y-65913000D03*
D21*
X101574600Y-65913000D03*
%TD*%
D29*
%TO.C,R9*%
X101574600Y-68961000D03*
D21*
X93954600Y-68961000D03*
%TD*%
D29*
%TO.C,R8*%
X107823000Y-47345600D03*
D21*
X100203000Y-47345600D03*
%TD*%
D29*
%TO.C,R7*%
X97790000Y-50419000D03*
D21*
X90170000Y-50419000D03*
%TD*%
D29*
%TO.C,R5*%
X100203000Y-50419000D03*
D21*
X107823000Y-50419000D03*
%TD*%
D29*
%TO.C,R4*%
X97790000Y-53594000D03*
D21*
X90170000Y-53594000D03*
%TD*%
D29*
%TO.C,R3*%
X93980000Y-56642000D03*
D21*
X101600000Y-56642000D03*
%TD*%
D29*
%TO.C,R2*%
X101574600Y-59690000D03*
D21*
X93954600Y-59690000D03*
%TD*%
D29*
%TO.C,R1*%
X101574600Y-62865000D03*
D21*
X93954600Y-62865000D03*
%TD*%
D23*
%TO.C,J4*%
X109474000Y-39243000D03*
D24*
X109474000Y-41783000D03*
%TD*%
%TO.C,J3*%
X106222800Y-75488800D03*
D23*
X108762800Y-75488800D03*
%TD*%
%TO.C,J2*%
X103276400Y-75488800D03*
X100736400Y-75488800D03*
X98196400Y-75488800D03*
D24*
X95656400Y-75488800D03*
%TD*%
%TO.C,J1*%
X90220800Y-75488800D03*
D23*
X92760800Y-75488800D03*
%TD*%
D30*
%TO.C,D1*%
X98171000Y-71628000D03*
D31*
X100711000Y-71628000D03*
%TD*%
D21*
%TO.C,C3*%
X104067600Y-65278000D03*
X109067600Y-65278000D03*
%TD*%
%TO.C,C2*%
X109063800Y-68326000D03*
X104063800Y-68326000D03*
%TD*%
%TO.C,C1*%
X104056800Y-71374000D03*
X109056800Y-71374000D03*
%TD*%
M02*
