%TF.GenerationSoftware,KiCad,Pcbnew,(5.99.0-2858-ga3fc028c9)*%
%TF.CreationDate,2020-08-19T12:09:39+03:00*%
%TF.ProjectId,leo-fuzz-box,6c656f2d-6675-47a7-9a2d-626f782e6b69,rev?*%
%TF.SameCoordinates,Original*%
%TF.FileFunction,Copper,L1,Top*%
%TF.FilePolarity,Positive*%
%FSLAX46Y46*%
G04 Gerber Fmt 4.6, Leading zero omitted, Abs format (unit mm)*
G04 Created by KiCad (PCBNEW (5.99.0-2858-ga3fc028c9)) date 2020-08-19 12:09:39*
%MOMM*%
%LPD*%
G01*
G04 APERTURE LIST*
%TA.AperFunction,ComponentPad*%
%ADD10O,2.200000X2.200000*%
%TD*%
%TA.AperFunction,ComponentPad*%
%ADD11R,2.200000X2.200000*%
%TD*%
%TA.AperFunction,ComponentPad*%
%ADD12C,1.600000*%
%TD*%
%TA.AperFunction,ComponentPad*%
%ADD13R,1.600000X1.600000*%
%TD*%
%TA.AperFunction,ComponentPad*%
%ADD14O,1.930400X1.930400*%
%TD*%
%TA.AperFunction,ComponentPad*%
%ADD15R,1.930400X1.930400*%
%TD*%
%TA.AperFunction,ComponentPad*%
%ADD16O,2.032000X2.032000*%
%TD*%
%TA.AperFunction,ComponentPad*%
%ADD17R,2.032000X2.032000*%
%TD*%
%TA.AperFunction,ComponentPad*%
%ADD18O,2.540000X2.540000*%
%TD*%
%TA.AperFunction,ComponentPad*%
%ADD19R,2.540000X2.540000*%
%TD*%
%TA.AperFunction,ComponentPad*%
%ADD20O,1.600000X1.600000*%
%TD*%
%TA.AperFunction,ComponentPad*%
%ADD21C,1.800000*%
%TD*%
%TA.AperFunction,ComponentPad*%
%ADD22R,1.800000X1.800000*%
%TD*%
%TA.AperFunction,Conductor*%
%ADD23C,0.381000*%
%TD*%
G04 APERTURE END LIST*
D10*
%TO.P,D2,2,A*%
%TO.N,Net-(D2-Pad2)*%
X105537000Y-44069000D03*
D11*
%TO.P,D2,1,K*%
%TO.N,+9V*%
X95377000Y-44069000D03*
%TD*%
D12*
%TO.P,C5,2*%
%TO.N,GND*%
X89956000Y-42799000D03*
D13*
%TO.P,C5,1*%
%TO.N,+9V*%
X92456000Y-42799000D03*
%TD*%
D12*
%TO.P,C4,2*%
%TO.N,GND*%
X95449400Y-47320200D03*
%TO.P,C4,1*%
%TO.N,+9V*%
X90449400Y-47320200D03*
%TD*%
D14*
%TO.P,Q2,3,C*%
%TO.N,Net-(C3-Pad1)*%
X109093000Y-60325000D03*
%TO.P,Q2,2,B*%
%TO.N,Net-(Q1-Pad3)*%
X106553000Y-60325000D03*
D15*
%TO.P,Q2,1,E*%
%TO.N,Net-(Q2-Pad1)*%
X104013000Y-60325000D03*
%TD*%
D14*
%TO.P,Q1,3,C*%
%TO.N,Net-(Q1-Pad3)*%
X108966000Y-54737000D03*
%TO.P,Q1,2,B*%
%TO.N,Net-(Q1-Pad2)*%
X106426000Y-54737000D03*
D15*
%TO.P,Q1,1,E*%
%TO.N,Net-(Q1-Pad1)*%
X103886000Y-54737000D03*
%TD*%
D16*
%TO.P,SW1,6,C*%
%TO.N,Net-(SW1-Pad6)*%
X90220800Y-71399400D03*
%TO.P,SW1,5,B*%
%TO.N,Net-(RV6-Pad2)*%
X90220800Y-68859400D03*
%TO.P,SW1,4,A*%
%TO.N,Net-(C2-Pad1)*%
X90220800Y-66319400D03*
%TO.P,SW1,3,C*%
%TO.N,Net-(R2-Pad1)*%
X90220800Y-63779400D03*
%TO.P,SW1,2,B*%
%TO.N,+9V*%
X90220800Y-61239400D03*
D17*
%TO.P,SW1,1,A*%
%TO.N,Net-(R4-Pad2)*%
X90220800Y-58699400D03*
%TD*%
D18*
%TO.P,RV6,3,3*%
%TO.N,Net-(Q2-Pad1)*%
X104546400Y-39471600D03*
%TO.P,RV6,2,2*%
%TO.N,Net-(RV6-Pad2)*%
X99466400Y-39471600D03*
D19*
%TO.P,RV6,1,1*%
%TO.N,Net-(Q1-Pad1)*%
X94386400Y-39471600D03*
%TD*%
D20*
%TO.P,R99,2*%
%TO.N,+9V*%
X93954600Y-65913000D03*
D12*
%TO.P,R99,1*%
%TO.N,Net-(D1-Pad2)*%
X101574600Y-65913000D03*
%TD*%
D20*
%TO.P,R9,2*%
%TO.N,GND*%
X101574600Y-68961000D03*
D12*
%TO.P,R9,1*%
%TO.N,Net-(C2-Pad1)*%
X93954600Y-68961000D03*
%TD*%
D20*
%TO.P,R8,2*%
%TO.N,Net-(C2-Pad1)*%
X107823000Y-47345600D03*
D12*
%TO.P,R8,1*%
%TO.N,Net-(C3-Pad2)*%
X100203000Y-47345600D03*
%TD*%
D20*
%TO.P,R7,2*%
%TO.N,Net-(C3-Pad1)*%
X97790000Y-50419000D03*
D12*
%TO.P,R7,1*%
%TO.N,Net-(R4-Pad2)*%
X90170000Y-50419000D03*
%TD*%
D20*
%TO.P,R5,2*%
%TO.N,Net-(Q2-Pad1)*%
X100203000Y-50419000D03*
D12*
%TO.P,R5,1*%
%TO.N,Net-(Q1-Pad2)*%
X107823000Y-50419000D03*
%TD*%
D20*
%TO.P,R4,2*%
%TO.N,Net-(R4-Pad2)*%
X97790000Y-53594000D03*
D12*
%TO.P,R4,1*%
%TO.N,Net-(R2-Pad1)*%
X90170000Y-53594000D03*
%TD*%
D20*
%TO.P,R3,2*%
%TO.N,GND*%
X93980000Y-56642000D03*
D12*
%TO.P,R3,1*%
%TO.N,Net-(Q1-Pad1)*%
X101600000Y-56642000D03*
%TD*%
D20*
%TO.P,R2,2*%
%TO.N,Net-(Q1-Pad3)*%
X101574600Y-59690000D03*
D12*
%TO.P,R2,1*%
%TO.N,Net-(R2-Pad1)*%
X93954600Y-59690000D03*
%TD*%
D20*
%TO.P,R1,2*%
%TO.N,Net-(Q1-Pad2)*%
X101574600Y-62865000D03*
D12*
%TO.P,R1,1*%
%TO.N,Net-(C1-Pad2)*%
X93954600Y-62865000D03*
%TD*%
D14*
%TO.P,J4,2*%
%TO.N,GND*%
X109474000Y-39243000D03*
D15*
%TO.P,J4,1*%
%TO.N,Net-(D2-Pad2)*%
X109474000Y-41783000D03*
%TD*%
%TO.P,J3,T*%
%TO.N,OUT*%
X106222800Y-75488800D03*
D14*
%TO.P,J3,S*%
%TO.N,GND*%
X108762800Y-75488800D03*
%TD*%
%TO.P,J2,4,Pin_4*%
%TO.N,OUT*%
X103276400Y-75488800D03*
%TO.P,J2,3,Pin_3*%
%TO.N,LED-*%
X100736400Y-75488800D03*
%TO.P,J2,2,Pin_2*%
%TO.N,GND*%
X98196400Y-75488800D03*
D15*
%TO.P,J2,1,Pin_1*%
%TO.N,IN*%
X95656400Y-75488800D03*
%TD*%
%TO.P,J1,T*%
%TO.N,IN*%
X90220800Y-75488800D03*
D14*
%TO.P,J1,S*%
%TO.N,GND*%
X92760800Y-75488800D03*
%TD*%
D21*
%TO.P,D1,2,A*%
%TO.N,Net-(D1-Pad2)*%
X98171000Y-71628000D03*
D22*
%TO.P,D1,1,K*%
%TO.N,LED-*%
X100711000Y-71628000D03*
%TD*%
D12*
%TO.P,C3,2*%
%TO.N,Net-(C3-Pad2)*%
X104067600Y-65278000D03*
%TO.P,C3,1*%
%TO.N,Net-(C3-Pad1)*%
X109067600Y-65278000D03*
%TD*%
%TO.P,C2,2*%
%TO.N,OUT*%
X109063800Y-68326000D03*
%TO.P,C2,1*%
%TO.N,Net-(C2-Pad1)*%
X104063800Y-68326000D03*
%TD*%
%TO.P,C1,2*%
%TO.N,Net-(C1-Pad2)*%
X104056800Y-71374000D03*
%TO.P,C1,1*%
%TO.N,IN*%
X109056800Y-71374000D03*
%TD*%
D23*
%TO.N,Net-(C1-Pad2)*%
X104056800Y-71374000D02*
X103020299Y-70337499D01*
X93954600Y-63102942D02*
X93954600Y-62865000D01*
X103020299Y-70337499D02*
X101189157Y-70337499D01*
X101189157Y-70337499D02*
X93954600Y-63102942D01*
%TO.N,Net-(C2-Pad1)*%
X93954600Y-68961000D02*
X93954600Y-70092370D01*
X104274241Y-72918501D02*
X105247301Y-71945441D01*
X93954600Y-70092370D02*
X96780731Y-72918501D01*
X105247301Y-69509501D02*
X104063800Y-68326000D01*
X96780731Y-72918501D02*
X104274241Y-72918501D01*
X105247301Y-71945441D02*
X105247301Y-69509501D01*
X90220800Y-66319400D02*
X92862400Y-68961000D01*
X92862400Y-68961000D02*
X93954600Y-68961000D01*
%TO.N,Net-(Q1-Pad1)*%
X103886000Y-54737000D02*
X103886000Y-49266658D01*
X103886000Y-49266658D02*
X94386400Y-39767058D01*
X94386400Y-39767058D02*
X94386400Y-39471600D01*
%TO.N,Net-(Q1-Pad2)*%
X101574600Y-62865000D02*
X100384099Y-61674499D01*
X100384099Y-61674499D02*
X100384099Y-59118559D01*
X100384099Y-59118559D02*
X101670157Y-57832501D01*
X101670157Y-57832501D02*
X103330499Y-57832501D01*
X103330499Y-57832501D02*
X106426000Y-54737000D01*
%TO.N,Net-(C3-Pad1)*%
X109093000Y-60325000D02*
X105362499Y-64055501D01*
X98980501Y-62032843D02*
X98980501Y-51609501D01*
X105362499Y-64055501D02*
X101003159Y-64055501D01*
X101003159Y-64055501D02*
X98980501Y-62032843D01*
X98980501Y-51609501D02*
X97790000Y-50419000D01*
%TO.N,Net-(Q1-Pad1)*%
X101600000Y-56642000D02*
X101981000Y-56642000D01*
X101981000Y-56642000D02*
X103886000Y-54737000D01*
%TO.N,Net-(C2-Pad1)*%
X104063800Y-68326000D02*
X105921299Y-66468501D01*
X105921299Y-66468501D02*
X109883699Y-66468501D01*
X109883699Y-66468501D02*
X110448701Y-65903499D01*
X110448701Y-65903499D02*
X110448701Y-49971301D01*
X110448701Y-49971301D02*
X107823000Y-47345600D01*
%TO.N,Net-(Q1-Pad2)*%
X107823000Y-50419000D02*
X107823000Y-53340000D01*
X107823000Y-53340000D02*
X106426000Y-54737000D01*
%TO.N,Net-(R2-Pad1)*%
X90220800Y-63779400D02*
X93954600Y-60045600D01*
X93954600Y-60045600D02*
X93954600Y-59690000D01*
%TO.N,Net-(Q1-Pad3)*%
X106553000Y-60325000D02*
X105197299Y-61680701D01*
X105197299Y-61680701D02*
X102735399Y-61680701D01*
X102735399Y-61680701D02*
X101574600Y-60519902D01*
X101574600Y-60519902D02*
X101574600Y-59690000D01*
X106553000Y-60325000D02*
X106553000Y-57150000D01*
X106553000Y-57150000D02*
X108966000Y-54737000D01*
%TO.N,Net-(C3-Pad1)*%
X109067600Y-65278000D02*
X109067600Y-60350400D01*
X109067600Y-60350400D02*
X109093000Y-60325000D01*
%TO.N,Net-(R4-Pad2)*%
X90220800Y-58699400D02*
X88979499Y-57458099D01*
X88979499Y-57458099D02*
X88979499Y-51609501D01*
X88979499Y-51609501D02*
X90170000Y-50419000D01*
%TO.N,Net-(R2-Pad1)*%
X90170000Y-53594000D02*
X90170000Y-55905400D01*
X90170000Y-55905400D02*
X93954600Y-59690000D01*
%TO.N,Net-(R4-Pad2)*%
X90170000Y-50419000D02*
X94615000Y-50419000D01*
X94615000Y-50419000D02*
X97790000Y-53594000D01*
%TO.N,OUT*%
X106222800Y-75488800D02*
X106222800Y-75387200D01*
X110247301Y-69509501D02*
X109063800Y-68326000D01*
X106222800Y-75387200D02*
X109045499Y-72564501D01*
X109045499Y-72564501D02*
X109628241Y-72564501D01*
X109628241Y-72564501D02*
X110247301Y-71945441D01*
X110247301Y-71945441D02*
X110247301Y-69509501D01*
%TO.N,IN*%
X109056800Y-71374000D02*
X106297701Y-74133099D01*
X106297701Y-74133099D02*
X97012101Y-74133099D01*
X97012101Y-74133099D02*
X95656400Y-75488800D01*
X90220800Y-75438000D02*
X91576501Y-74082299D01*
X91576501Y-74082299D02*
X94249899Y-74082299D01*
X94249899Y-74082299D02*
X95656400Y-75488800D01*
%TO.N,OUT*%
X103276400Y-75488800D02*
X106222800Y-75488800D01*
%TD*%
%TA.AperFunction,Conductor*%
%TO.N,GND*%
G36*
X110402808Y-72881928D02*
G01*
X110459644Y-72924475D01*
X110484776Y-72999984D01*
X110484776Y-76449776D01*
X110464774Y-76517897D01*
X110411118Y-76564390D01*
X110358776Y-76575776D01*
X110045007Y-76575776D01*
X109976886Y-76555774D01*
X109930393Y-76502118D01*
X109920289Y-76431844D01*
X109949053Y-76368113D01*
X109963261Y-76351418D01*
X109963266Y-76351411D01*
X110088026Y-76143774D01*
X110088029Y-76143768D01*
X110177211Y-75918521D01*
X110215202Y-75742800D01*
X108634800Y-75742800D01*
X108566679Y-75722798D01*
X108520186Y-75669142D01*
X108508800Y-75616800D01*
X108508800Y-75360800D01*
X108528802Y-75292679D01*
X108582458Y-75246186D01*
X108634800Y-75234800D01*
X110214080Y-75234800D01*
X110196510Y-75128676D01*
X110118439Y-74899345D01*
X110118437Y-74899340D01*
X110003972Y-74685863D01*
X110003963Y-74685849D01*
X109856157Y-74493921D01*
X109856156Y-74493919D01*
X109678984Y-74328704D01*
X109477210Y-74194645D01*
X109477208Y-74194644D01*
X109256252Y-74095343D01*
X109256254Y-74095343D01*
X109022039Y-74033461D01*
X108870468Y-74019133D01*
X108804532Y-73992809D01*
X108763295Y-73935016D01*
X108759850Y-73864103D01*
X108793231Y-73804596D01*
X109297923Y-73299905D01*
X109387018Y-73263001D01*
X109535876Y-73263001D01*
X109563683Y-73266108D01*
X109571646Y-73267910D01*
X109571649Y-73267910D01*
X109646873Y-73263243D01*
X109654675Y-73263001D01*
X109678390Y-73263001D01*
X109694485Y-73260695D01*
X109704552Y-73259664D01*
X109771347Y-73255521D01*
X109771344Y-73255521D01*
X109785978Y-73250238D01*
X109810902Y-73244024D01*
X109826297Y-73241819D01*
X109826303Y-73241817D01*
X109887235Y-73214114D01*
X109896600Y-73210301D01*
X109959540Y-73187579D01*
X109971079Y-73179041D01*
X109993872Y-73165629D01*
X110008440Y-73159005D01*
X110008446Y-73159001D01*
X110067442Y-73108166D01*
X110074745Y-73102331D01*
X110088172Y-73092396D01*
X110088180Y-73092389D01*
X110099985Y-73080584D01*
X110106833Y-73074226D01*
X110160015Y-73028402D01*
X110160016Y-73028401D01*
X110167241Y-73017254D01*
X110183878Y-72996692D01*
X110269681Y-72910889D01*
X110331993Y-72876863D01*
X110402808Y-72881928D01*
G37*
%TD.AperFunction*%
%TA.AperFunction,Conductor*%
G36*
X94362578Y-51154405D02*
G01*
X96466458Y-53258286D01*
X96500484Y-53320598D01*
X96501449Y-53369260D01*
X96482000Y-53479566D01*
X96482000Y-53708433D01*
X96521745Y-53933833D01*
X96600020Y-54148892D01*
X96600024Y-54148901D01*
X96714455Y-54347101D01*
X96714457Y-54347104D01*
X96861572Y-54522428D01*
X97036896Y-54669543D01*
X97036899Y-54669545D01*
X97235099Y-54783976D01*
X97235108Y-54783980D01*
X97450167Y-54862255D01*
X97675567Y-54902000D01*
X97904433Y-54902000D01*
X98134122Y-54861499D01*
X98204681Y-54869368D01*
X98259785Y-54914135D01*
X98282002Y-54985585D01*
X98282001Y-61940478D01*
X98278894Y-61968285D01*
X98277092Y-61976248D01*
X98277092Y-61976251D01*
X98281759Y-62051475D01*
X98282001Y-62059277D01*
X98282001Y-62082988D01*
X98282002Y-62083002D01*
X98284306Y-62099084D01*
X98285338Y-62109152D01*
X98289481Y-62175945D01*
X98289481Y-62175946D01*
X98294765Y-62190582D01*
X98300978Y-62215504D01*
X98303183Y-62230900D01*
X98303183Y-62230901D01*
X98330884Y-62291828D01*
X98334696Y-62301192D01*
X98357420Y-62364135D01*
X98357423Y-62364141D01*
X98365961Y-62375680D01*
X98379372Y-62398470D01*
X98386000Y-62413045D01*
X98386000Y-62413046D01*
X98436834Y-62472041D01*
X98442670Y-62479346D01*
X98452603Y-62492770D01*
X98452610Y-62492779D01*
X98464419Y-62504588D01*
X98470778Y-62511436D01*
X98516603Y-62564619D01*
X98527751Y-62571845D01*
X98548313Y-62588482D01*
X100443928Y-64484098D01*
X100461395Y-64505958D01*
X100465755Y-64512868D01*
X100465757Y-64512871D01*
X100522261Y-64562773D01*
X100527952Y-64568121D01*
X100544700Y-64584870D01*
X100544705Y-64584874D01*
X100557715Y-64594625D01*
X100565556Y-64601009D01*
X100615724Y-64645316D01*
X100629809Y-64651929D01*
X100651820Y-64665154D01*
X100664270Y-64674484D01*
X100664274Y-64674486D01*
X100705086Y-64689786D01*
X100761851Y-64732427D01*
X100786551Y-64798989D01*
X100771344Y-64868338D01*
X100741849Y-64904289D01*
X100646172Y-64984572D01*
X100499057Y-65159896D01*
X100499055Y-65159899D01*
X100384624Y-65358099D01*
X100384620Y-65358108D01*
X100306345Y-65573167D01*
X100266600Y-65798567D01*
X100266600Y-66027433D01*
X100306345Y-66252833D01*
X100384620Y-66467892D01*
X100384624Y-66467901D01*
X100499055Y-66666101D01*
X100499057Y-66666104D01*
X100646172Y-66841428D01*
X100821496Y-66988543D01*
X100821499Y-66988545D01*
X101019699Y-67102976D01*
X101019708Y-67102980D01*
X101234767Y-67181255D01*
X101460167Y-67221000D01*
X101689033Y-67221000D01*
X101914433Y-67181255D01*
X102129492Y-67102980D01*
X102129501Y-67102976D01*
X102327701Y-66988545D01*
X102327704Y-66988543D01*
X102503028Y-66841428D01*
X102650143Y-66666104D01*
X102650145Y-66666101D01*
X102764576Y-66467901D01*
X102764580Y-66467892D01*
X102842856Y-66252833D01*
X102854151Y-66188775D01*
X102885679Y-66125162D01*
X102946593Y-66088693D01*
X103017554Y-66090946D01*
X103074758Y-66129663D01*
X103139172Y-66206428D01*
X103314496Y-66353543D01*
X103314499Y-66353545D01*
X103512699Y-66467976D01*
X103512708Y-66467980D01*
X103727767Y-66546255D01*
X103953167Y-66586000D01*
X104182033Y-66586000D01*
X104407433Y-66546256D01*
X104578177Y-66484109D01*
X104649031Y-66479606D01*
X104711071Y-66514124D01*
X104744601Y-66576704D01*
X104738975Y-66647477D01*
X104710367Y-66691605D01*
X104399514Y-67002458D01*
X104337202Y-67036484D01*
X104288540Y-67037449D01*
X104178234Y-67018000D01*
X103949367Y-67018000D01*
X103723967Y-67057745D01*
X103508908Y-67136020D01*
X103508899Y-67136024D01*
X103310699Y-67250455D01*
X103310696Y-67250457D01*
X103135372Y-67397572D01*
X102988257Y-67572896D01*
X102988255Y-67572899D01*
X102873824Y-67771099D01*
X102873820Y-67771108D01*
X102795544Y-67986167D01*
X102784909Y-68046483D01*
X102753381Y-68110095D01*
X102692467Y-68146565D01*
X102621506Y-68144312D01*
X102564302Y-68105595D01*
X102503028Y-68032572D01*
X102327704Y-67885457D01*
X102327701Y-67885455D01*
X102129501Y-67771024D01*
X102129492Y-67771020D01*
X101914434Y-67692745D01*
X101828600Y-67677609D01*
X101828600Y-69089000D01*
X101808598Y-69157121D01*
X101754942Y-69203614D01*
X101702600Y-69215000D01*
X101446600Y-69215000D01*
X101378479Y-69194998D01*
X101331986Y-69141342D01*
X101320600Y-69089000D01*
X101320600Y-67677609D01*
X101234766Y-67692745D01*
X101019708Y-67771020D01*
X101019699Y-67771024D01*
X100821499Y-67885455D01*
X100821496Y-67885457D01*
X100646172Y-68032572D01*
X100499057Y-68207896D01*
X100499055Y-68207899D01*
X100415835Y-68352040D01*
X100364453Y-68401033D01*
X100294739Y-68414469D01*
X100217621Y-68378135D01*
X95231973Y-63392488D01*
X95197947Y-63330176D01*
X95202667Y-63260297D01*
X95222856Y-63204832D01*
X95262600Y-62979433D01*
X95262600Y-62750567D01*
X95222855Y-62525167D01*
X95144580Y-62310108D01*
X95144576Y-62310099D01*
X95030145Y-62111899D01*
X95030143Y-62111896D01*
X94883028Y-61936572D01*
X94707704Y-61789457D01*
X94707701Y-61789455D01*
X94509501Y-61675024D01*
X94509492Y-61675020D01*
X94294433Y-61596745D01*
X94069033Y-61557000D01*
X93840167Y-61557000D01*
X93736992Y-61575193D01*
X93666433Y-61567324D01*
X93611329Y-61522557D01*
X93589175Y-61455105D01*
X93626017Y-61362012D01*
X93953124Y-61034905D01*
X94042219Y-60998000D01*
X94069033Y-60998000D01*
X94294433Y-60958255D01*
X94509492Y-60879980D01*
X94509501Y-60879976D01*
X94707701Y-60765545D01*
X94707704Y-60765543D01*
X94883028Y-60618428D01*
X95030143Y-60443104D01*
X95030145Y-60443101D01*
X95144576Y-60244901D01*
X95144580Y-60244892D01*
X95222855Y-60029833D01*
X95262600Y-59804433D01*
X95262600Y-59575567D01*
X95222855Y-59350167D01*
X95144580Y-59135108D01*
X95144576Y-59135099D01*
X95030145Y-58936899D01*
X95030143Y-58936896D01*
X94883028Y-58761572D01*
X94707704Y-58614457D01*
X94707701Y-58614455D01*
X94509501Y-58500024D01*
X94509492Y-58500020D01*
X94294433Y-58421745D01*
X94069033Y-58382000D01*
X93840166Y-58382000D01*
X93729861Y-58401449D01*
X93659302Y-58393579D01*
X93618887Y-58366458D01*
X93291325Y-58038896D01*
X93257299Y-57976584D01*
X93262364Y-57905769D01*
X93304911Y-57848933D01*
X93371431Y-57824122D01*
X93423515Y-57831400D01*
X93640166Y-57910255D01*
X93726000Y-57925391D01*
X93726000Y-57925390D01*
X94233999Y-57925390D01*
X94319833Y-57910255D01*
X94319834Y-57910255D01*
X94534892Y-57831980D01*
X94534901Y-57831976D01*
X94733101Y-57717545D01*
X94733104Y-57717543D01*
X94908428Y-57570428D01*
X95055543Y-57395104D01*
X95055545Y-57395101D01*
X95169976Y-57196901D01*
X95169980Y-57196892D01*
X95248255Y-56981834D01*
X95263391Y-56896000D01*
X94234000Y-56895999D01*
X94233999Y-57925390D01*
X93726000Y-57925390D01*
X93726001Y-56896000D01*
X92696610Y-56895999D01*
X92711745Y-56981833D01*
X92711745Y-56981835D01*
X92790600Y-57198486D01*
X92795103Y-57269340D01*
X92760585Y-57331380D01*
X92698005Y-57364910D01*
X92627231Y-57359284D01*
X92583104Y-57330676D01*
X91640428Y-56388000D01*
X92696609Y-56388000D01*
X93726000Y-56388001D01*
X93726000Y-56388000D01*
X94233999Y-56388000D01*
X95263390Y-56388001D01*
X95248255Y-56302167D01*
X95248255Y-56302166D01*
X95169980Y-56087108D01*
X95169976Y-56087099D01*
X95055545Y-55888899D01*
X95055543Y-55888896D01*
X94908428Y-55713572D01*
X94733104Y-55566457D01*
X94733101Y-55566455D01*
X94534901Y-55452024D01*
X94534892Y-55452020D01*
X94319834Y-55373745D01*
X94234000Y-55358609D01*
X94233999Y-56388000D01*
X93726000Y-56388000D01*
X93726001Y-55358610D01*
X93640166Y-55373745D01*
X93425108Y-55452020D01*
X93425099Y-55452024D01*
X93226899Y-55566455D01*
X93226896Y-55566457D01*
X93051572Y-55713572D01*
X92904457Y-55888896D01*
X92904455Y-55888899D01*
X92790024Y-56087099D01*
X92790020Y-56087108D01*
X92711745Y-56302166D01*
X92696609Y-56388000D01*
X91640428Y-56388000D01*
X90905405Y-55652978D01*
X90868500Y-55563883D01*
X90868500Y-54773369D01*
X90888502Y-54705248D01*
X90919135Y-54673374D01*
X90918889Y-54673080D01*
X90921621Y-54670788D01*
X90922227Y-54670157D01*
X90923106Y-54669541D01*
X91098428Y-54522428D01*
X91245543Y-54347104D01*
X91245545Y-54347101D01*
X91359976Y-54148901D01*
X91359980Y-54148892D01*
X91438255Y-53933833D01*
X91478000Y-53708433D01*
X91478000Y-53479567D01*
X91438255Y-53254167D01*
X91359980Y-53039108D01*
X91359976Y-53039099D01*
X91245545Y-52840899D01*
X91245543Y-52840896D01*
X91098428Y-52665572D01*
X90923104Y-52518457D01*
X90923101Y-52518455D01*
X90724901Y-52404024D01*
X90724892Y-52404020D01*
X90509833Y-52325745D01*
X90284433Y-52286000D01*
X90055567Y-52286000D01*
X89825879Y-52326501D01*
X89755320Y-52318632D01*
X89700216Y-52273865D01*
X89677999Y-52202415D01*
X89677999Y-51951019D01*
X89714904Y-51861923D01*
X89834287Y-51742541D01*
X89896599Y-51708516D01*
X89945261Y-51707551D01*
X90055566Y-51727000D01*
X90284433Y-51727000D01*
X90509833Y-51687255D01*
X90724892Y-51608980D01*
X90724901Y-51608976D01*
X90923101Y-51494545D01*
X90923104Y-51494543D01*
X91098428Y-51347428D01*
X91245541Y-51172106D01*
X91246157Y-51171227D01*
X91246528Y-51170931D01*
X91249080Y-51167889D01*
X91249691Y-51168402D01*
X91301616Y-51126900D01*
X91349369Y-51117500D01*
X94273483Y-51117500D01*
X94362578Y-51154405D01*
G37*
%TD.AperFunction*%
%TA.AperFunction,Conductor*%
G36*
X92583159Y-37871226D02*
G01*
X92629652Y-37924882D01*
X92633196Y-38014247D01*
X92633586Y-38014316D01*
X92633270Y-38016109D01*
X92633437Y-38020325D01*
X92631671Y-38025176D01*
X92600563Y-38201601D01*
X92600563Y-40741598D01*
X92669673Y-40999520D01*
X92784826Y-41136754D01*
X92939974Y-41226328D01*
X92978247Y-41233077D01*
X93041860Y-41264604D01*
X93078329Y-41325518D01*
X93076077Y-41396479D01*
X93035818Y-41454957D01*
X92956368Y-41483163D01*
X91656002Y-41483163D01*
X91398081Y-41552273D01*
X91260846Y-41667426D01*
X91171272Y-41822574D01*
X91146851Y-41961073D01*
X91115324Y-42024686D01*
X91054410Y-42061155D01*
X91052968Y-42061244D01*
X90315210Y-42799000D01*
X91057204Y-43540992D01*
X91079346Y-43544445D01*
X91132444Y-43591574D01*
X91147349Y-43625816D01*
X91209273Y-43856920D01*
X91324426Y-43994154D01*
X91479574Y-44083729D01*
X91656001Y-44114837D01*
X93255998Y-44114837D01*
X93513920Y-44045727D01*
X93554172Y-44011952D01*
X93619213Y-43983488D01*
X93689318Y-43994706D01*
X93742229Y-44042044D01*
X93761163Y-44108474D01*
X93761163Y-45168998D01*
X93830273Y-45426920D01*
X93945426Y-45564154D01*
X94100574Y-45653729D01*
X94277001Y-45684837D01*
X96476998Y-45684837D01*
X96734920Y-45615727D01*
X96872154Y-45500574D01*
X96961729Y-45345426D01*
X96961728Y-45345426D01*
X96992837Y-45168999D01*
X96992837Y-43665512D01*
X97012839Y-43597391D01*
X97066495Y-43550898D01*
X97136769Y-43540794D01*
X97207932Y-43576417D01*
X99620135Y-45988621D01*
X99654161Y-46050933D01*
X99649096Y-46121749D01*
X99594040Y-46186835D01*
X99449899Y-46270055D01*
X99449896Y-46270057D01*
X99274572Y-46417172D01*
X99127457Y-46592496D01*
X99127455Y-46592499D01*
X99013024Y-46790699D01*
X99013020Y-46790708D01*
X98934745Y-47005767D01*
X98895000Y-47231167D01*
X98895000Y-47460033D01*
X98934745Y-47685433D01*
X99013020Y-47900492D01*
X99013024Y-47900501D01*
X99127455Y-48098701D01*
X99127457Y-48098704D01*
X99274572Y-48274028D01*
X99449896Y-48421143D01*
X99449899Y-48421145D01*
X99648099Y-48535576D01*
X99648108Y-48535580D01*
X99863167Y-48613855D01*
X100088567Y-48653600D01*
X100317433Y-48653600D01*
X100542833Y-48613855D01*
X100757892Y-48535580D01*
X100757901Y-48535576D01*
X100956101Y-48421145D01*
X100956104Y-48421143D01*
X101131428Y-48274028D01*
X101278543Y-48098704D01*
X101278545Y-48098701D01*
X101361765Y-47954560D01*
X101413147Y-47905567D01*
X101482861Y-47892131D01*
X101559979Y-47928465D01*
X103150596Y-49519082D01*
X103187501Y-49608177D01*
X103187500Y-53129963D01*
X103167498Y-53198084D01*
X103113842Y-53244577D01*
X103061500Y-53255963D01*
X102920802Y-53255963D01*
X102662881Y-53325073D01*
X102525646Y-53440226D01*
X102436071Y-53595374D01*
X102404963Y-53771801D01*
X102404963Y-55178020D01*
X102368058Y-55267115D01*
X102232372Y-55402801D01*
X102170060Y-55436827D01*
X102100182Y-55432107D01*
X101939833Y-55373745D01*
X101714433Y-55334000D01*
X101485567Y-55334000D01*
X101260167Y-55373745D01*
X101045108Y-55452020D01*
X101045099Y-55452024D01*
X100846899Y-55566455D01*
X100846896Y-55566457D01*
X100671572Y-55713572D01*
X100524457Y-55888896D01*
X100524455Y-55888899D01*
X100410024Y-56087099D01*
X100410020Y-56087108D01*
X100331745Y-56302167D01*
X100292000Y-56527567D01*
X100292000Y-56756433D01*
X100331745Y-56981833D01*
X100410020Y-57196892D01*
X100410024Y-57196901D01*
X100524455Y-57395101D01*
X100524457Y-57395104D01*
X100671574Y-57570431D01*
X100714586Y-57606522D01*
X100753913Y-57665631D01*
X100755039Y-57736619D01*
X100722691Y-57792138D01*
X99955501Y-58559330D01*
X99933639Y-58576797D01*
X99926736Y-58581153D01*
X99926734Y-58581154D01*
X99899442Y-58612056D01*
X99839356Y-58649874D01*
X99768363Y-58649204D01*
X99709002Y-58610258D01*
X99679001Y-58528648D01*
X99679001Y-51800171D01*
X99699003Y-51732050D01*
X99752659Y-51685557D01*
X99848096Y-51681770D01*
X99863167Y-51687255D01*
X100088567Y-51727000D01*
X100317433Y-51727000D01*
X100542833Y-51687255D01*
X100757892Y-51608980D01*
X100757901Y-51608976D01*
X100956101Y-51494545D01*
X100956104Y-51494543D01*
X101131428Y-51347428D01*
X101278543Y-51172104D01*
X101278545Y-51172101D01*
X101392976Y-50973901D01*
X101392980Y-50973892D01*
X101471255Y-50758833D01*
X101511000Y-50533433D01*
X101511000Y-50304567D01*
X101471255Y-50079167D01*
X101392980Y-49864108D01*
X101392976Y-49864099D01*
X101278545Y-49665899D01*
X101278543Y-49665896D01*
X101131428Y-49490572D01*
X100956104Y-49343457D01*
X100956101Y-49343455D01*
X100757901Y-49229024D01*
X100757892Y-49229020D01*
X100542833Y-49150745D01*
X100317433Y-49111000D01*
X100088567Y-49111000D01*
X99863167Y-49150745D01*
X99648108Y-49229020D01*
X99648099Y-49229024D01*
X99449899Y-49343455D01*
X99449896Y-49343457D01*
X99274572Y-49490572D01*
X99127457Y-49665896D01*
X99127455Y-49665899D01*
X99105619Y-49703720D01*
X99054237Y-49752713D01*
X98984523Y-49766150D01*
X98918612Y-49739763D01*
X98887381Y-49703720D01*
X98865545Y-49665899D01*
X98865543Y-49665896D01*
X98718428Y-49490572D01*
X98543104Y-49343457D01*
X98543101Y-49343455D01*
X98344901Y-49229024D01*
X98344892Y-49229020D01*
X98129833Y-49150745D01*
X97904433Y-49111000D01*
X97675567Y-49111000D01*
X97450167Y-49150745D01*
X97235108Y-49229020D01*
X97235099Y-49229024D01*
X97036899Y-49343455D01*
X97036896Y-49343457D01*
X96861572Y-49490572D01*
X96714457Y-49665896D01*
X96714455Y-49665899D01*
X96600024Y-49864099D01*
X96600020Y-49864108D01*
X96521745Y-50079167D01*
X96482000Y-50304567D01*
X96482000Y-50533433D01*
X96521745Y-50758833D01*
X96600020Y-50973892D01*
X96600024Y-50973901D01*
X96714455Y-51172101D01*
X96714456Y-51172103D01*
X96729177Y-51189647D01*
X96757641Y-51254688D01*
X96746422Y-51324793D01*
X96699083Y-51377703D01*
X96630653Y-51396621D01*
X96543559Y-51359732D01*
X95174233Y-49990406D01*
X95156766Y-49968547D01*
X95152403Y-49961632D01*
X95095888Y-49911720D01*
X95090198Y-49906372D01*
X95073456Y-49889629D01*
X95073449Y-49889623D01*
X95060454Y-49879884D01*
X95052610Y-49873498D01*
X95002436Y-49829186D01*
X94988345Y-49822570D01*
X94966329Y-49809341D01*
X94953887Y-49800016D01*
X94953885Y-49800015D01*
X94891226Y-49776525D01*
X94881908Y-49772599D01*
X94821316Y-49744152D01*
X94807123Y-49742031D01*
X94781513Y-49735396D01*
X94766538Y-49729782D01*
X94766533Y-49729781D01*
X94688889Y-49724010D01*
X94679604Y-49722973D01*
X94663057Y-49720500D01*
X94646328Y-49720500D01*
X94636990Y-49720154D01*
X94567004Y-49714953D01*
X94554024Y-49717724D01*
X94527719Y-49720500D01*
X91349369Y-49720500D01*
X91281248Y-49700498D01*
X91249374Y-49669865D01*
X91249080Y-49670111D01*
X91246788Y-49667379D01*
X91246157Y-49666773D01*
X91245541Y-49665894D01*
X91098428Y-49490572D01*
X90923104Y-49343457D01*
X90923101Y-49343455D01*
X90724901Y-49229024D01*
X90724892Y-49229020D01*
X90509833Y-49150745D01*
X90284433Y-49111000D01*
X90055567Y-49111000D01*
X89830167Y-49150745D01*
X89615108Y-49229020D01*
X89615099Y-49229024D01*
X89416899Y-49343455D01*
X89416896Y-49343457D01*
X89239216Y-49492549D01*
X89174175Y-49521014D01*
X89104070Y-49509797D01*
X89051159Y-49462459D01*
X89032224Y-49396028D01*
X89032224Y-47951817D01*
X89052226Y-47883696D01*
X89105882Y-47837203D01*
X89176156Y-47827099D01*
X89240736Y-47856593D01*
X89267343Y-47888817D01*
X89373855Y-48073301D01*
X89373857Y-48073304D01*
X89520972Y-48248628D01*
X89696296Y-48395743D01*
X89696299Y-48395745D01*
X89894499Y-48510176D01*
X89894508Y-48510180D01*
X90109567Y-48588455D01*
X90334967Y-48628200D01*
X90563833Y-48628200D01*
X90789233Y-48588455D01*
X91004292Y-48510180D01*
X91004301Y-48510176D01*
X91179191Y-48409203D01*
X94719609Y-48409203D01*
X94894500Y-48510176D01*
X94894508Y-48510180D01*
X95109567Y-48588455D01*
X95334967Y-48628200D01*
X95563833Y-48628200D01*
X95789233Y-48588455D01*
X96004292Y-48510180D01*
X96004300Y-48510176D01*
X96179191Y-48409203D01*
X95449400Y-47679410D01*
X94719609Y-48409203D01*
X91179191Y-48409203D01*
X91202501Y-48395745D01*
X91202504Y-48395743D01*
X91377828Y-48248628D01*
X91524943Y-48073304D01*
X91524945Y-48073301D01*
X91639376Y-47875101D01*
X91639380Y-47875092D01*
X91717655Y-47660033D01*
X91757400Y-47434633D01*
X91757400Y-47205767D01*
X94141400Y-47205767D01*
X94141400Y-47434633D01*
X94181145Y-47660033D01*
X94259420Y-47875092D01*
X94259424Y-47875100D01*
X94360398Y-48049990D01*
X95090190Y-47320200D01*
X95808610Y-47320200D01*
X96538403Y-48049991D01*
X96639376Y-47875100D01*
X96639380Y-47875092D01*
X96717655Y-47660033D01*
X96757400Y-47434633D01*
X96757400Y-47205767D01*
X96717655Y-46980367D01*
X96639380Y-46765308D01*
X96639376Y-46765300D01*
X96538403Y-46590409D01*
X95808610Y-47320200D01*
X95090190Y-47320200D01*
X94360398Y-46590410D01*
X94259424Y-46765300D01*
X94259420Y-46765308D01*
X94181145Y-46980367D01*
X94141400Y-47205767D01*
X91757400Y-47205767D01*
X91717655Y-46980367D01*
X91639380Y-46765308D01*
X91639376Y-46765299D01*
X91524945Y-46567099D01*
X91524943Y-46567096D01*
X91377828Y-46391772D01*
X91202504Y-46244657D01*
X91202501Y-46244655D01*
X91179192Y-46231197D01*
X94719609Y-46231197D01*
X95449400Y-46960990D01*
X96179191Y-46231197D01*
X96004300Y-46130224D01*
X96004292Y-46130220D01*
X95789233Y-46051945D01*
X95563833Y-46012200D01*
X95334967Y-46012200D01*
X95109567Y-46051945D01*
X94894508Y-46130220D01*
X94894500Y-46130224D01*
X94719609Y-46231197D01*
X91179192Y-46231197D01*
X91004301Y-46130224D01*
X91004292Y-46130220D01*
X90789233Y-46051945D01*
X90563833Y-46012200D01*
X90334967Y-46012200D01*
X90109567Y-46051945D01*
X89894508Y-46130220D01*
X89894499Y-46130224D01*
X89696299Y-46244655D01*
X89696296Y-46244657D01*
X89520972Y-46391772D01*
X89373857Y-46567096D01*
X89373855Y-46567099D01*
X89267343Y-46751583D01*
X89215961Y-46800576D01*
X89146247Y-46814012D01*
X89080336Y-46787626D01*
X89039154Y-46729794D01*
X89032224Y-46688583D01*
X89032224Y-43994244D01*
X89052226Y-43926123D01*
X89105882Y-43879630D01*
X89176156Y-43869526D01*
X89221224Y-43885125D01*
X89401099Y-43988976D01*
X89401108Y-43988980D01*
X89616167Y-44067255D01*
X89841567Y-44107000D01*
X90070433Y-44107000D01*
X90295833Y-44067255D01*
X90510892Y-43988980D01*
X90510900Y-43988976D01*
X90685791Y-43888002D01*
X89685885Y-42888095D01*
X89651859Y-42825783D01*
X89656924Y-42754967D01*
X89685885Y-42709905D01*
X89956000Y-42439790D01*
X90685791Y-41709998D01*
X90510900Y-41609024D01*
X90510892Y-41609020D01*
X90295833Y-41530745D01*
X90070433Y-41491000D01*
X89841567Y-41491000D01*
X89616167Y-41530745D01*
X89401108Y-41609020D01*
X89401099Y-41609024D01*
X89221224Y-41712875D01*
X89152229Y-41729613D01*
X89085137Y-41706392D01*
X89041250Y-41650585D01*
X89032224Y-41603756D01*
X89032224Y-37977224D01*
X89052226Y-37909103D01*
X89105882Y-37862610D01*
X89158224Y-37851224D01*
X92515038Y-37851224D01*
X92583159Y-37871226D01*
G37*
%TD.AperFunction*%
%TA.AperFunction,Conductor*%
G36*
X98354233Y-37871226D02*
G01*
X98400726Y-37924882D01*
X98410830Y-37995156D01*
X98362816Y-38077186D01*
X98279145Y-38141389D01*
X98279144Y-38141390D01*
X98095566Y-38331490D01*
X97942106Y-38546635D01*
X97822131Y-38782100D01*
X97738276Y-39032715D01*
X97692387Y-39292961D01*
X97685468Y-39557148D01*
X97717675Y-39819442D01*
X97717678Y-39819455D01*
X97788294Y-40074089D01*
X97788297Y-40074100D01*
X97895786Y-40315524D01*
X97895787Y-40315525D01*
X98037777Y-40538405D01*
X98211151Y-40737848D01*
X98412107Y-40909482D01*
X98636211Y-41049517D01*
X98878565Y-41154896D01*
X98878570Y-41154898D01*
X99133831Y-41223294D01*
X99133834Y-41223295D01*
X99396397Y-41253209D01*
X99396405Y-41253210D01*
X99660505Y-41243988D01*
X99660508Y-41243988D01*
X99920351Y-41195828D01*
X100170211Y-41109795D01*
X100170232Y-41109786D01*
X100404629Y-40987767D01*
X100618429Y-40832432D01*
X100806917Y-40647206D01*
X100806918Y-40647204D01*
X100965958Y-40436152D01*
X100965960Y-40436148D01*
X101092059Y-40203905D01*
X101092059Y-40203904D01*
X101182442Y-39955577D01*
X101182443Y-39955572D01*
X101235130Y-39696612D01*
X101244482Y-39339469D01*
X101244482Y-39339465D01*
X101205421Y-39078100D01*
X101128156Y-38825380D01*
X101014385Y-38586854D01*
X100866608Y-38367766D01*
X100866601Y-38367756D01*
X100688076Y-38172930D01*
X100688072Y-38172926D01*
X100567322Y-38075145D01*
X100526970Y-38016730D01*
X100524604Y-37945773D01*
X100560977Y-37884801D01*
X100646616Y-37851224D01*
X103366112Y-37851224D01*
X103434233Y-37871226D01*
X103480726Y-37924882D01*
X103490830Y-37995156D01*
X103442816Y-38077186D01*
X103359145Y-38141389D01*
X103359144Y-38141390D01*
X103175566Y-38331490D01*
X103022106Y-38546635D01*
X102902131Y-38782100D01*
X102818276Y-39032715D01*
X102772387Y-39292961D01*
X102765468Y-39557148D01*
X102797675Y-39819442D01*
X102797678Y-39819455D01*
X102868294Y-40074089D01*
X102868297Y-40074100D01*
X102975786Y-40315524D01*
X102975787Y-40315525D01*
X103117777Y-40538405D01*
X103291151Y-40737848D01*
X103492107Y-40909482D01*
X103716211Y-41049517D01*
X103958565Y-41154896D01*
X103958570Y-41154898D01*
X104213831Y-41223294D01*
X104213834Y-41223295D01*
X104476397Y-41253209D01*
X104476405Y-41253210D01*
X104740505Y-41243988D01*
X104740508Y-41243988D01*
X105000351Y-41195828D01*
X105250211Y-41109795D01*
X105250232Y-41109786D01*
X105484629Y-40987767D01*
X105698429Y-40832432D01*
X105886917Y-40647206D01*
X105886918Y-40647204D01*
X106045958Y-40436152D01*
X106045960Y-40436148D01*
X106172059Y-40203905D01*
X106172059Y-40203904D01*
X106262442Y-39955577D01*
X106262443Y-39955572D01*
X106315130Y-39696612D01*
X106324482Y-39339469D01*
X106324482Y-39339465D01*
X106285421Y-39078100D01*
X106208156Y-38825380D01*
X106094385Y-38586854D01*
X105946608Y-38367766D01*
X105946601Y-38367756D01*
X105768076Y-38172930D01*
X105768072Y-38172926D01*
X105647322Y-38075145D01*
X105606970Y-38016730D01*
X105604604Y-37945773D01*
X105640977Y-37884801D01*
X105726616Y-37851224D01*
X108490860Y-37851224D01*
X108558981Y-37871226D01*
X108605474Y-37924882D01*
X108615578Y-37995156D01*
X108574514Y-38071447D01*
X108405277Y-38221702D01*
X108405271Y-38221708D01*
X108252827Y-38409961D01*
X108252823Y-38409968D01*
X108133162Y-38620608D01*
X108049516Y-38847950D01*
X108049515Y-38847954D01*
X108022609Y-38989000D01*
X109602000Y-38989001D01*
X109670121Y-39009003D01*
X109716614Y-39062659D01*
X109728000Y-39115001D01*
X109727999Y-39371000D01*
X109707997Y-39439121D01*
X109654341Y-39485614D01*
X109601999Y-39497000D01*
X108021942Y-39496999D01*
X108031919Y-39567993D01*
X108104359Y-39799147D01*
X108104360Y-39799149D01*
X108213588Y-40015385D01*
X108328663Y-40172613D01*
X108352755Y-40239397D01*
X108336916Y-40308604D01*
X108259599Y-40368736D01*
X108250882Y-40371072D01*
X108113646Y-40486226D01*
X108024071Y-40641374D01*
X107992963Y-40817801D01*
X107992963Y-42748198D01*
X108062073Y-43006120D01*
X108177226Y-43143354D01*
X108332374Y-43232929D01*
X108508801Y-43264037D01*
X110358776Y-43264037D01*
X110426897Y-43284039D01*
X110473390Y-43337695D01*
X110484776Y-43390037D01*
X110484776Y-48715358D01*
X110464774Y-48783479D01*
X110411118Y-48829972D01*
X110340844Y-48840076D01*
X110269681Y-48804453D01*
X109146542Y-47681314D01*
X109112516Y-47619002D01*
X109111551Y-47570340D01*
X109131000Y-47460034D01*
X109131000Y-47231167D01*
X109091255Y-47005767D01*
X109012980Y-46790708D01*
X109012976Y-46790699D01*
X108898545Y-46592499D01*
X108898543Y-46592496D01*
X108751428Y-46417172D01*
X108576104Y-46270057D01*
X108576101Y-46270055D01*
X108377901Y-46155624D01*
X108377892Y-46155620D01*
X108162833Y-46077345D01*
X107937433Y-46037600D01*
X107708567Y-46037600D01*
X107483167Y-46077345D01*
X107268108Y-46155620D01*
X107268099Y-46155624D01*
X107069899Y-46270055D01*
X107069896Y-46270057D01*
X106894572Y-46417172D01*
X106747457Y-46592496D01*
X106747455Y-46592499D01*
X106633024Y-46790699D01*
X106633020Y-46790708D01*
X106554745Y-47005767D01*
X106515000Y-47231167D01*
X106515000Y-47460033D01*
X106554745Y-47685433D01*
X106633020Y-47900492D01*
X106633024Y-47900501D01*
X106747455Y-48098701D01*
X106747457Y-48098704D01*
X106894572Y-48274028D01*
X107069896Y-48421143D01*
X107069899Y-48421145D01*
X107268099Y-48535576D01*
X107268108Y-48535580D01*
X107483167Y-48613855D01*
X107708567Y-48653600D01*
X107937434Y-48653600D01*
X108047740Y-48634151D01*
X108118299Y-48642021D01*
X108158714Y-48669142D01*
X108511677Y-49022105D01*
X108545703Y-49084417D01*
X108540638Y-49155232D01*
X108498091Y-49212068D01*
X108431571Y-49236879D01*
X108379487Y-49229601D01*
X108162833Y-49150744D01*
X107937433Y-49111000D01*
X107708567Y-49111000D01*
X107483167Y-49150745D01*
X107268108Y-49229020D01*
X107268099Y-49229024D01*
X107069899Y-49343455D01*
X107069896Y-49343457D01*
X106894572Y-49490572D01*
X106747457Y-49665896D01*
X106747455Y-49665899D01*
X106633024Y-49864099D01*
X106633020Y-49864108D01*
X106554745Y-50079167D01*
X106515000Y-50304567D01*
X106515000Y-50533433D01*
X106554745Y-50758833D01*
X106633020Y-50973892D01*
X106633024Y-50973901D01*
X106747455Y-51172101D01*
X106747457Y-51172104D01*
X106894572Y-51347428D01*
X107069894Y-51494541D01*
X107070773Y-51495157D01*
X107071069Y-51495528D01*
X107074111Y-51498080D01*
X107073598Y-51498691D01*
X107115100Y-51550616D01*
X107124500Y-51598369D01*
X107124501Y-52998481D01*
X107087596Y-53087576D01*
X106901217Y-53273955D01*
X106838905Y-53307981D01*
X106779937Y-53306680D01*
X106685241Y-53281661D01*
X106444055Y-53258862D01*
X106202404Y-53275761D01*
X106202395Y-53275762D01*
X105966739Y-53331904D01*
X105743419Y-53425779D01*
X105538431Y-53554867D01*
X105538425Y-53554872D01*
X105505577Y-53584035D01*
X105441356Y-53614304D01*
X105370965Y-53605048D01*
X105316753Y-53559205D01*
X105300216Y-53522423D01*
X105297927Y-53513881D01*
X105182774Y-53376646D01*
X105027626Y-53287071D01*
X104851199Y-53255963D01*
X104710500Y-53255963D01*
X104642379Y-53235961D01*
X104595886Y-53182305D01*
X104584500Y-53129963D01*
X104584500Y-49359023D01*
X104587607Y-49331216D01*
X104589409Y-49323253D01*
X104589409Y-49323251D01*
X104584742Y-49248031D01*
X104584500Y-49240228D01*
X104584500Y-49216509D01*
X104582193Y-49200407D01*
X104581162Y-49190341D01*
X104577019Y-49123560D01*
X104577018Y-49123553D01*
X104571737Y-49108925D01*
X104565524Y-49084005D01*
X104563318Y-49068599D01*
X104535615Y-49007670D01*
X104531802Y-48998303D01*
X104509079Y-48935359D01*
X104500540Y-48923819D01*
X104487128Y-48901026D01*
X104480505Y-48886459D01*
X104429671Y-48827464D01*
X104423836Y-48820160D01*
X104413901Y-48806732D01*
X104413891Y-48806721D01*
X104402077Y-48794907D01*
X104395719Y-48788059D01*
X104349901Y-48734884D01*
X104349900Y-48734883D01*
X104338753Y-48727658D01*
X104318191Y-48711021D01*
X99549621Y-43942451D01*
X103929000Y-43942451D01*
X103929000Y-44195549D01*
X103968597Y-44445547D01*
X104046807Y-44686254D01*
X104046809Y-44686260D01*
X104161717Y-44911779D01*
X104310488Y-45116545D01*
X104489455Y-45295512D01*
X104694221Y-45444283D01*
X104919740Y-45559191D01*
X104919746Y-45559193D01*
X105160453Y-45637403D01*
X105410451Y-45677000D01*
X105663549Y-45677000D01*
X105913547Y-45637403D01*
X106154254Y-45559193D01*
X106154260Y-45559191D01*
X106379779Y-45444283D01*
X106584545Y-45295512D01*
X106763512Y-45116545D01*
X106912283Y-44911779D01*
X107027191Y-44686260D01*
X107027193Y-44686254D01*
X107105403Y-44445547D01*
X107145000Y-44195549D01*
X107145000Y-43942451D01*
X107105403Y-43692453D01*
X107027193Y-43451746D01*
X107027191Y-43451740D01*
X106912283Y-43226221D01*
X106763512Y-43021455D01*
X106584545Y-42842488D01*
X106379779Y-42693717D01*
X106154260Y-42578809D01*
X106154254Y-42578807D01*
X105913547Y-42500597D01*
X105663549Y-42461000D01*
X105410451Y-42461000D01*
X105160453Y-42500597D01*
X104919746Y-42578807D01*
X104919740Y-42578809D01*
X104694221Y-42693717D01*
X104489455Y-42842488D01*
X104310488Y-43021455D01*
X104161717Y-43226221D01*
X104046809Y-43451740D01*
X104046807Y-43451746D01*
X103968597Y-43692453D01*
X103929000Y-43942451D01*
X99549621Y-43942451D01*
X96209142Y-40601973D01*
X96172237Y-40512878D01*
X96172237Y-38201602D01*
X96120853Y-38009835D01*
X96122543Y-37938859D01*
X96162337Y-37880063D01*
X96242560Y-37851224D01*
X98286112Y-37851224D01*
X98354233Y-37871226D01*
G37*
%TD.AperFunction*%
%TD*%
M02*
